<svg id="Icon_feather-file-plus" data-name="Icon feather-file-plus" xmlns="http://www.w3.org/2000/svg" width="11.375" height="14" viewBox="0 0 11.375 14">
  <path id="패스_9252" data-name="패스 9252" d="M7.35,2.6H12.6a.437.437,0,0,1,.309.128l3.938,3.937a.437.437,0,0,1,.128.309V14.85a1.752,1.752,0,0,1-1.75,1.75H7.35A1.752,1.752,0,0,1,5.6,14.85V4.35A1.752,1.752,0,0,1,7.35,2.6Zm5.069.875H7.35a.876.876,0,0,0-.875.875v10.5a.876.876,0,0,0,.875.875h7.875a.876.876,0,0,0,.875-.875V7.156Z" transform="translate(-5.6 -2.6)" fill="#999"/>
  <path id="패스_9253" data-name="패스 9253" d="M24.635,7.035H21a.4.4,0,0,1-.4-.4V3a.4.4,0,1,1,.8,0V6.235h3.235a.4.4,0,0,1,0,.8Z" transform="translate(-13.66 -2.6)" fill="#999"/>
  <path id="패스_9254" data-name="패스 9254" d="M18,22.035a.4.4,0,0,1-.4-.4V18a.4.4,0,0,1,.8,0v3.635A.4.4,0,0,1,18,22.035Z" transform="translate(-12.312 -10.768)" fill="#999"/>
  <path id="패스_9255" data-name="패스 9255" d="M17.135,22.9H13.5a.4.4,0,1,1,0-.8h3.635a.4.4,0,0,1,0,.8Z" transform="translate(-9.63 -13.52)" fill="#999"/>
</svg>
