<?xml version="1.0" encoding="UTF-8"?><svg xmlns="http://www.w3.org/2000/svg" viewBox="0 0 95.41 144.46"><defs><style>.o{fill:#326dfb;}</style></defs><g id="a"/><g id="b"><g id="c"><g><path id="d" class="o" d="M75.98,60.06c.97-1.64,1.66-3.44,2.04-5.31,1.15-5.73-.63-11.67-4.76-15.81-1.23-1.27-2.35-2.65-3.34-4.12,2.09-1.67,3.31-4.19,3.34-6.86-.15-4.42-3.32-8.16-7.66-9.03V2.33c-.06-1.35-1.2-2.39-2.55-2.33h-30.63c-1.35-.06-2.49,.98-2.55,2.33V21.36c0,6.19-2.68,12.38-7.55,17.47-.04,.03-.08,.07-.11,.11-3.24,3.29-5.07,7.71-5.1,12.33,0,3.09,.84,6.12,2.42,8.78-6.63,6.77-6.63,17.6,0,24.36-1.58,2.66-2.42,5.7-2.42,8.8,.02,4.13,1.5,8.13,4.18,11.28-1.06,1.47-1.62,3.23-1.63,5.03,0,5,4.34,9.1,9.76,9.31,.29,1.41,.44,2.84,.45,4.28v19.03c.06,1.35,1.2,2.39,2.55,2.33h30.63c1.35,.06,2.49-.98,2.55-2.33v-19.03c0-6.23,2.72-12.47,7.65-17.58,4.12-4.15,5.91-10.08,4.75-15.82-.38-1.87-1.07-3.67-2.04-5.31,6.6-6.77,6.6-17.56,0-24.33h0ZM25.95,42.13s.07-.07,.1-.1c5.76-5.96,8.93-13.3,8.93-20.66V4.66h25.53V20.97c.06,1.35,1.2,2.39,2.55,2.33,2.69-.11,4.97,1.97,5.1,4.66-.05,1.79-1.13,3.39-2.77,4.11-1.14,.48-1.67,1.79-1.19,2.93,.03,.07,.07,.14,.1,.21,1.42,2.48,3.14,4.76,5.13,6.81,3.09,3.12,4.43,7.58,3.56,11.89-1.1,5.51-5.89,9.94-11.9,11.03-2.98,.56-6.05,.31-8.9-.74,3.63-3.33,5.71-8.02,5.75-12.95h-5.1c0,7.71-6.87,13.98-15.31,13.98s-15.31-6.27-15.31-13.98c.02-3.41,1.35-6.68,3.72-9.14h0Zm-6.28,30.1c0-3.01,1.05-5.93,2.97-8.26,4,3.84,9.35,5.97,14.9,5.93,3.56,.01,7.06-.85,10.21-2.5,4.41,2.3,9.46,3.05,14.35,2.13,4.06-.73,7.81-2.66,10.77-5.54,3.94,4.79,3.94,11.69,0,16.48-2.96-2.88-6.71-4.8-10.77-5.53-4.89-.92-9.94-.17-14.35,2.13-3.15-1.66-6.65-2.51-10.21-2.5-5.55-.04-10.89,2.09-14.89,5.93-1.92-2.33-2.97-5.25-2.98-8.26Zm49.77,30.21c-5.76,5.96-8.93,13.29-8.93,20.66v16.7h-25.52v-16.7c-.01-2.48-.37-4.95-1.07-7.33-.2-.64-.66-1.17-1.26-1.46-.55-.26-1.16-.34-1.76-.23-.34,.06-.68,.09-1.02,.09-2.69,.11-4.97-1.97-5.1-4.66,.01-1.3,.6-2.54,1.6-3.37,.48-.41,.77-1,.8-1.63,.01-.63-.24-1.23-.7-1.67-2.69-2.49-4.23-5.98-4.26-9.64,0-7.71,6.87-13.98,15.31-13.98s15.31,6.27,15.31,13.98h5.1c-.04-4.93-2.12-9.62-5.75-12.95,2.85-1.04,5.92-1.3,8.9-.74,6.01,1.09,10.8,5.53,11.9,11.04,.87,4.31-.46,8.77-3.56,11.89h0Z"/><path id="e" class="o" d="M37.32,61.4v-1.85c0-.71-.53-1.28-1.23-1.4-2.88-.51-5.14-2.78-5.66-5.66-.12-.7-.69-1.23-1.4-1.23h-1.85c-.84,0-1.52,.73-1.41,1.56,.7,5.18,4.8,9.28,9.98,9.98,.83,.11,1.56-.57,1.56-1.41Z"/><path id="f" class="o" d="M27.19,93.2h1.85c.71,0,1.28-.53,1.4-1.23,.51-2.88,2.78-5.14,5.66-5.66,.7-.12,1.23-.69,1.23-1.4v-1.85c0-.84-.73-1.52-1.56-1.41-5.18,.7-9.28,4.8-9.98,9.98-.11,.83,.57,1.56,1.41,1.56Z"/><path id="g" class="o" d="M4.6,44.92l1.29-1.29c.55-.55,1.45-.55,2,0l4.99,4.99c.55,.55,.55,1.45,0,2l-1.29,1.29c-.55,.55-1.45,.55-2,0l-4.99-4.99c-.55-.55-.55-1.45,0-2Z"/><path id="h" class="o" d="M4.59,97.53l4.99-4.99c.55-.55,1.45-.55,2,0l1.29,1.29c.55,.55,.55,1.45,0,2l-4.99,4.99c-.55,.55-1.45,.55-2,0l-1.29-1.29c-.55-.55-.55-1.45,0-2Z"/><path id="i" class="o" d="M.15,61.4l.82-1.63c.35-.7,1.2-.98,1.9-.63l6.78,3.39c.7,.35,.98,1.2,.63,1.9l-.82,1.63c-.35,.7-1.2,.98-1.9,.63l-6.78-3.39c-.7-.35-.98-1.2-.63-1.9Z"/><path id="j" class="o" d="M.79,81.13l6.78-3.39c.7-.35,1.55-.07,1.9,.63l.82,1.63c.35,.7,.07,1.55-.63,1.9l-6.78,3.39c-.7,.35-1.55,.07-1.9-.63l-.82-1.63c-.35-.7-.07-1.55,.63-1.9Z"/><path id="k" class="o" d="M82.6,48.62l4.99-4.99c.55-.55,1.45-.55,2,0l1.29,1.29c.55,.55,.55,1.45,0,2l-4.99,4.99c-.55,.55-1.45,.55-2,0l-1.29-1.29c-.55-.55-.55-1.45,0-2Z"/><path id="l" class="o" d="M82.59,93.85l1.29-1.29c.55-.55,1.45-.55,2,0l4.99,4.99c.55,.55,.55,1.45,0,2l-1.29,1.29c-.55,.55-1.45,.55-2,0l-4.99-4.99c-.55-.55-.55-1.45,0-2Z"/><path id="m" class="o" d="M85.75,62.52l6.78-3.39c.7-.35,1.55-.07,1.9,.63l.82,1.63c.35,.7,.07,1.55-.63,1.9l-6.78,3.39c-.7,.35-1.55,.07-1.9-.63l-.82-1.63c-.35-.7-.07-1.55,.63-1.9Z"/><path id="n" class="o" d="M85.12,80.07l.82-1.63c.35-.7,1.2-.98,1.9-.63l6.78,3.39c.7,.35,.98,1.2,.63,1.9l-.82,1.63c-.35,.7-1.2,.98-1.9,.63l-6.78-3.39c-.7-.35-.98-1.2-.63-1.9Z"/></g></g></g></svg>