<svg xmlns="http://www.w3.org/2000/svg" xmlns:xlink="http://www.w3.org/1999/xlink" width="339" height="332" viewBox="0 0 339 332">
  <defs>
    <filter id="사각형_1047" x="0" y="0" width="339" height="332" filterUnits="userSpaceOnUse">
      <feOffset dy="3" input="SourceAlpha"/>
      <feGaussianBlur stdDeviation="3" result="blur"/>
      <feFlood flood-opacity="0.161"/>
      <feComposite operator="in" in2="blur"/>
      <feComposite in="SourceGraphic"/>
    </filter>
  </defs>
  <g id="그룹_2094" data-name="그룹 2094" transform="translate(-1144 -1083)">
    <g transform="matrix(1, 0, 0, 1, 1144, 1083)" filter="url(#사각형_1047)">
      <g id="사각형_1047-2" data-name="사각형 1047" transform="translate(9 6)" fill="#fcfcfc" stroke="#3273f7" stroke-width="1">
        <rect width="321" height="314" rx="26" stroke="none"/>
        <rect x="0.5" y="0.5" width="320" height="313" rx="25.5" fill="none"/>
      </g>
    </g>
    <g id="Layer_6" transform="translate(1265.315 1145.224)">
      <g id="그룹_78" data-name="그룹 78">
        <path id="패스_2059" data-name="패스 2059" d="M80.412,61.061a17.225,17.225,0,0,0,2.044-5.31A17.546,17.546,0,0,0,77.7,39.936a30.054,30.054,0,0,1-3.341-4.117,8.9,8.9,0,0,0,3.341-6.86,9.537,9.537,0,0,0-7.657-9.026V3.33A2.448,2.448,0,0,0,67.492,1H36.866a2.448,2.448,0,0,0-2.552,2.33V22.359c0,6.186-2.68,12.384-7.55,17.468a1.543,1.543,0,0,0-.112.107,17.725,17.725,0,0,0-5.1,12.325,17.259,17.259,0,0,0,2.417,8.782,17.4,17.4,0,0,0,.008,24.36,17.268,17.268,0,0,0-2.425,8.8,17.49,17.49,0,0,0,4.178,11.277,8.621,8.621,0,0,0-1.626,5.033c0,5,4.339,9.1,9.762,9.31a21.541,21.541,0,0,1,.447,4.28V143.13a2.448,2.448,0,0,0,2.552,2.33H67.492a2.448,2.448,0,0,0,2.552-2.33V124.1c0-6.23,2.718-12.475,7.654-17.575a17.541,17.541,0,0,0,4.755-15.818,17.1,17.1,0,0,0-2.044-5.31,17.434,17.434,0,0,0,0-24.334ZM30.38,43.123c.036-.033.069-.068.1-.1,5.76-5.955,8.933-13.3,8.933-20.662V5.66H64.94V21.97a2.448,2.448,0,0,0,2.552,2.33,4.9,4.9,0,0,1,5.1,4.66,4.613,4.613,0,0,1-2.769,4.11,2.234,2.234,0,0,0-1.085,3.141,34.136,34.136,0,0,0,5.133,6.81,13.193,13.193,0,0,1,3.56,11.894c-1.1,5.508-5.885,9.944-11.9,11.035a16.808,16.808,0,0,1-8.9-.739,17.765,17.765,0,0,0,5.748-12.952h-5.1c0,7.71-6.868,13.98-15.313,13.98s-15.313-6.27-15.313-13.98a13.27,13.27,0,0,1,3.724-9.136Zm-6.28,30.1a13.033,13.033,0,0,1,2.971-8.262A21.287,21.287,0,0,0,41.97,70.9a21.822,21.822,0,0,0,10.211-2.5,22.147,22.147,0,0,0,14.351,2.127A20.721,20.721,0,0,0,77.3,64.99a12.973,12.973,0,0,1,0,16.48,20.7,20.7,0,0,0-10.768-5.534,22.147,22.147,0,0,0-14.351,2.127,21.768,21.768,0,0,0-10.211-2.5A21.276,21.276,0,0,0,27.08,81.49a13.074,13.074,0,0,1-2.98-8.262Zm49.769,30.208c-5.76,5.955-8.933,13.295-8.933,20.662v16.7H39.418V124.1a26.8,26.8,0,0,0-1.069-7.335,2.382,2.382,0,0,0-1.263-1.456,2.8,2.8,0,0,0-1.756-.228,5.892,5.892,0,0,1-1.016.089,4.9,4.9,0,0,1-5.1-4.66,4.44,4.44,0,0,1,1.6-3.371,2.256,2.256,0,0,0,.8-1.631,2.228,2.228,0,0,0-.7-1.666A13.292,13.292,0,0,1,26.657,94.2c0-7.71,6.868-13.98,15.313-13.98S57.283,86.49,57.283,94.2h5.1a17.777,17.777,0,0,0-5.75-12.954,16.855,16.855,0,0,1,8.9-.739c6.013,1.093,10.8,5.529,11.9,11.037a13.186,13.186,0,0,1-3.56,11.894Z" transform="translate(-3.946 -1)" fill="#326dfb"/>
        <path id="패스_2060" data-name="패스 2060" d="M34.65,34.65V29.99A7,7,0,0,1,27.66,23H23A11.663,11.663,0,0,0,34.65,34.65Z" transform="translate(3.158 28.259)" fill="#326dfb"/>
        <path id="패스_2061" data-name="패스 2061" d="M23,47.65h4.66a7,7,0,0,1,6.99-6.99V36A11.663,11.663,0,0,0,23,47.65Z" transform="translate(3.158 45.548)" fill="#326dfb"/>
        <path id="패스_2062" data-name="패스 2062" d="M0,0H4.66V9.886H0Z" transform="translate(4.078 45.917) rotate(-45)" fill="#326dfb"/>
        <path id="패스_2063" data-name="패스 2063" d="M0,0H9.886V4.66H0Z" transform="translate(4.074 98.532) rotate(-45)" fill="#326dfb"/>
        <path id="패스_2064" data-name="패스 2064" d="M0,0H4.66V10.42H0Z" transform="matrix(0.447, -0.894, 0.894, 0.447, 0, 62.663)" fill="#326dfb"/>
        <path id="패스_2065" data-name="패스 2065" d="M0,0H10.42V4.66H0Z" transform="matrix(0.894, -0.447, 0.447, 0.894, 0.002, 81.766)" fill="#326dfb"/>
        <path id="패스_2066" data-name="패스 2066" d="M0,0H9.886V4.66H0Z" transform="translate(82.079 49.618) rotate(-45)" fill="#326dfb"/>
        <path id="패스_2067" data-name="패스 2067" d="M0,0H4.66V9.886H0Z" transform="translate(82.072 94.849) rotate(-45)" fill="#326dfb"/>
        <path id="패스_2068" data-name="패스 2068" d="M0,0H10.42V4.66H0Z" transform="matrix(0.894, -0.447, 0.447, 0.894, 84.97, 63.152)" fill="#326dfb"/>
        <path id="패스_2069" data-name="패스 2069" d="M0,0H4.66V10.42H0Z" transform="matrix(0.447, -0.894, 0.894, 0.447, 84.972, 81.333)" fill="#326dfb"/>
      </g>
    </g>
    <text id="근골격계_질환" data-name="근골격계 질환" transform="translate(1236 1367)" fill="#333" font-size="25" font-family="Pretendard-Bold, Pretendard" font-weight="700"><tspan x="0" y="0">근골격계 질환</tspan></text>
  </g>
</svg>
