<?xml version="1.0" encoding="UTF-8"?><svg xmlns="http://www.w3.org/2000/svg" viewBox="0 0 153.53 153.39"><defs><style>.k{fill:#326dfb;}</style></defs><g id="a"/><g id="b"><g id="c"><g><path id="d" class="k" d="M141.51,58.37c2.15-9.26-1.43-19.26-9.55-24.43,2.3-12.51-7.69-23.66-19.5-21.95-7.13-15.59-28.19-16.17-35.88-.48-7.68-15.7-28.69-15.13-35.87,.48-11.85-1.72-21.81,9.48-19.51,21.95-8.17,5.21-11.68,15.24-9.55,24.44-5.74,3.82-9.79,9.7-11.3,16.43-.32,1.25,.41,2.53,1.65,2.9,1.21,.29,2.42-.46,2.71-1.67,0-.03,.01-.06,.02-.08,1.18-5.21,4.2-9.81,8.52-12.96,.82,1.74,1.85,3.37,3.09,4.85,.75,.93,2.11,1.07,3.04,.32,.05-.04,.09-.08,.14-.12,.93-.91,1.01-2.38,.19-3.38-1.44-1.73-2.54-3.72-3.24-5.86,0-.02,0-.04-.01-.06-3.7-11.4,4.32-23.21,15.58-23.21,1.32-.09,2.32-1.23,2.23-2.56-.08-1.2-1.03-2.15-2.23-2.23-2.24,0-4.46,.38-6.57,1.13-.87-8.49,5.68-15.76,13.68-15.23-.35,1.52-.5,3.08-.45,4.64,.02,1.28,1.07,2.3,2.34,2.28h.01c1.28-.1,2.24-1.22,2.15-2.5-.31-7.07,5.92-16.27,15.57-16.27,8.58,0,15.56,7.41,15.56,16.53v26.33c-3.72-4.1-8.99-6.44-14.52-6.46-18.06,0-27.12,23.17-14.48,36.79l29.01,30.75v23.33c0,9.11-6.98,16.53-15.56,16.53-5.77-.09-11.01-3.37-13.61-8.52,2.36-1.07,4.45-2.64,6.12-4.61,.84-1,.77-2.47-.15-3.38-.85-.84-2.22-.83-3.06,.03-.04,.04-.09,.09-.13,.14-9.01,10.56-25.93,1.14-22.03-13.08,.7-2.6,2.14-4.93,4.15-6.72,.96-.88,1.08-2.34,.29-3.37-.72-.95-2.08-1.14-3.03-.42-.05,.04-.1,.08-.14,.12-1.88,1.67-3.4,3.72-4.46,6-4.03-3.02-6.59-7.6-7.06-12.61-.07-.75-.48-1.43-1.11-1.83-5.36-3.36-9.03-8.86-10.05-15.1-.17-1.24-1.32-2.11-2.56-1.93h-.06c-1.26,.3-2.06,1.53-1.81,2.8,1.19,7.2,5.25,13.61,11.26,17.76,.93,6.37,4.53,12.04,9.9,15.59-2.29,12.44,7.62,23.68,19.51,21.95,7.16,15.59,28.18,16.19,35.87,.48,4.44,9.85,16.02,14.23,25.87,9.79,4.52-2.04,8.09-5.71,10-10.28,2.31,.34,4.67,.19,6.92-.46,1.23-.39,1.93-1.69,1.59-2.93-.27-1.21-1.46-1.98-2.67-1.71-.03,0-.06,.01-.09,.02-4.74,1.32-9.82-.26-12.97-4.05-.76-.92-2.13-1.05-3.05-.29-.05,.04-.09,.08-.14,.12-.92,.92-.99,2.39-.15,3.38,1.68,1.97,3.77,3.55,6.13,4.61-2.6,5.15-7.84,8.43-13.61,8.52-8.58,0-15.56-7.41-15.56-16.53v-23.34l29.02-30.77c6.57-7.19,7.76-17.79,2.95-26.25-.56-1.07-1.88-1.48-2.94-.93-.05,.03-.1,.05-.14,.08-1.08,.71-1.43,2.15-.8,3.28,3.74,6.59,2.83,14.84-2.26,20.44l-28.07,29.77-25.4-26.93,6.72,.02h0c.77,0,1.48-.41,1.88-1.07l4.67-7.45,10.14,20.39c.51,1.1,1.82,1.58,2.92,1.07,.5-.23,.9-.65,1.11-1.16l5.25-11.78h8.81c1.32-.09,2.32-1.23,2.23-2.56-.08-1.2-1.03-2.15-2.23-2.23h-10.23c-.89,.01-1.69,.55-2.04,1.37l-3.94,8.83-9.81-19.73c-.5-1.1-1.8-1.58-2.9-1.08-.4,.18-.74,.49-.97,.87l-6.1,9.73-9.76-.03c-7.37-10.76-.3-26.65,12.87-26.65,6.62,.09,12.48,4.29,14.69,10.53h0c.4,1.16,1.66,1.77,2.81,1.37,.64-.22,1.14-.72,1.36-1.36h0c3.59-9.44,14-13.13,22.04-8.67,1.06,.58,2.39,.19,2.97-.88,.02-.05,.05-.09,.07-.14,.58-1.16,.16-2.57-.96-3.23-7.96-4.35-17.87-2.67-23.96,4.05V21.3c0-9.11,6.98-16.53,15.56-16.53,9.89,0,15.87,9.51,15.58,16.27-.09,1.28,.87,2.4,2.15,2.5,1.28,.02,2.33-.99,2.36-2.27h0c.06-1.57-.1-3.13-.45-4.65,7.98-.51,14.54,6.73,13.67,15.24-2.11-.75-4.34-1.13-6.58-1.13-1.32,.09-2.32,1.23-2.23,2.56,.08,1.2,1.03,2.15,2.23,2.23,14.35,0,21.6,18.05,12.33,29.13-.83,1-.74,2.47,.19,3.38,.86,.83,2.23,.8,3.06-.06,.04-.04,.08-.09,.12-.14,1.23-1.48,2.27-3.11,3.09-4.86,12.73,9.15,11.94,29.23-1.27,37.34-.64,.4-1.05,1.08-1.12,1.83-.47,5.01-3.04,9.59-7.06,12.61-1.06-2.28-2.58-4.33-4.46-6-.89-.8-2.26-.73-3.06,.16-.04,.05-.08,.09-.12,.14-.8,1.03-.67,2.49,.29,3.37,5.3,4.84,6.21,12.86,2.12,18.76-.74,1.07-.54,2.53,.47,3.35,.94,.74,2.3,.59,3.05-.35,.04-.05,.07-.1,.11-.15,2.95-4.26,4.07-9.52,3.1-14.61,5.38-3.55,8.98-9.22,9.91-15.6,15.66-10.64,15.56-35.09-.35-45.47h0Z"/><path id="e" class="k" d="M23.93,83.23c-1.32-.09-2.46,.9-2.56,2.22-.09,1.32,.9,2.46,2.22,2.56,7.51,.54,14.04-5.12,14.57-12.63,.35-4.86-1.92-9.53-5.96-12.26-1.09-.74-2.58-.46-3.33,.64s-.46,2.58,.64,3.33c4.05,2.74,5.11,8.24,2.37,12.29-1.77,2.62-4.8,4.09-7.96,3.87Z"/><path id="f" class="k" d="M60.22,132.68c1.04,.82,2.54,.65,3.36-.39h0c4.12-5.19,3.26-12.74-1.93-16.86-3.36-2.67-7.89-3.34-11.87-1.76-1.22,.5-1.81,1.9-1.31,3.13,.49,1.2,1.85,1.79,3.06,1.33,3.7-1.46,7.89,.35,9.36,4.06,.95,2.4,.54,5.11-1.06,7.13-.82,1.04-.65,2.54,.39,3.36h0Z"/><path id="g" class="k" d="M63.98,18.95c0-1.32-1.08-2.39-2.4-2.39-1.29,0-2.35,1.03-2.38,2.33-.05,3.99-3.32,7.18-7.31,7.13-.63,0-1.25-.1-1.85-.26-1.27-.36-2.59,.39-2.95,1.66-.36,1.27,.39,2.59,1.66,2.95,6.39,1.78,13.01-1.95,14.8-8.34,.28-1,.43-2.04,.44-3.08Z"/><path id="h" class="k" d="M124.34,67.07c1.09-.74,1.38-2.23,.64-3.33-.74-1.09-2.23-1.38-3.33-.64-6.24,4.22-7.87,12.7-3.64,18.94,2.73,4.03,7.41,6.3,12.26,5.96,1.32-.09,2.31-1.24,2.22-2.56-.09-1.32-1.24-2.31-2.56-2.22-4.87,.35-9.11-3.32-9.45-8.2-.22-3.15,1.25-6.18,3.86-7.95Z"/><path id="i" class="k" d="M102.31,118.12c1.22,.5,2.62-.08,3.13-1.31,.5-1.22-.08-2.62-1.31-3.13-.02,0-.04-.02-.06-.02-6.16-2.44-13.13,.59-15.57,6.75-1.58,3.99-.9,8.52,1.76,11.87,.82,1.04,2.33,1.21,3.36,.39,1.04-.82,1.21-2.33,.39-3.36-2.47-3.13-1.93-7.67,1.2-10.14,2.01-1.58,4.71-1.99,7.1-1.05Z"/><path id="j" class="k" d="M103.8,25.75c-3.84,1.07-7.82-1.17-8.89-5.01-.17-.6-.26-1.22-.26-1.85-.02-1.31-1.08-2.37-2.39-2.36h-.03c-1.32,.02-2.38,1.1-2.37,2.42h0c.09,6.64,5.53,11.94,12.17,11.86,1.04-.01,2.07-.16,3.07-.44,1.26-.39,1.98-1.73,1.59-2.99-.37-1.22-1.64-1.93-2.88-1.62h0Z"/></g></g></g></svg>