<svg xmlns="http://www.w3.org/2000/svg" xmlns:xlink="http://www.w3.org/1999/xlink" width="339" height="332" viewBox="0 0 339 332">
  <defs>
    <filter id="사각형_1045" x="0" y="0" width="339" height="332" filterUnits="userSpaceOnUse">
      <feOffset dy="3" input="SourceAlpha"/>
      <feGaussianBlur stdDeviation="3" result="blur"/>
      <feFlood flood-opacity="0.161"/>
      <feComposite operator="in" in2="blur"/>
      <feComposite in="SourceGraphic"/>
    </filter>
  </defs>
  <g id="그룹_2092" data-name="그룹 2092" transform="translate(-437 -1083)">
    <g transform="matrix(1, 0, 0, 1, 437, 1083)" filter="url(#사각형_1045)">
      <rect id="사각형_1045-2" data-name="사각형 1045" width="321" height="314" rx="26" transform="translate(9 6)" fill="#fff"/>
    </g>
    <text id="뇌심혈관질환_과로" data-name="뇌심혈관질환 / 과로" transform="translate(495 1367)" fill="#888" font-size="25" font-family="Pretendard-Bold, Pretendard" font-weight="700"><tspan x="0" y="0">뇌심혈관질환 / 과로</tspan></text>
    <g id="mental-health" transform="translate(529.738 1139.17)">
      <path id="패스_8861" data-name="패스 8861" d="M141.5,73.506c2.153-9.258-1.435-19.264-9.546-24.435,2.3-12.51-7.688-23.66-19.5-21.95-7.129-15.588-28.194-16.174-35.878-.477-7.683-15.7-28.69-15.132-35.87.478C28.854,25.4,18.9,36.6,21.2,49.07c-8.166,5.207-11.68,15.239-9.547,24.437A26.778,26.778,0,0,0,.354,89.934,2.407,2.407,0,0,0,2,92.832a2.25,2.25,0,0,0,2.728-1.753A22.067,22.067,0,0,1,13.245,78.12a22.383,22.383,0,0,0,3.086,4.852,2.164,2.164,0,0,0,3.183.2,2.5,2.5,0,0,0,.188-3.38,17.747,17.747,0,0,1-3.236-5.863.188.188,0,0,0-.015-.055c-3.7-11.4,4.323-23.212,15.581-23.212a2.4,2.4,0,0,0,0-4.789A19.789,19.789,0,0,0,25.459,47c-.868-8.495,5.678-15.756,13.677-15.232a17.8,17.8,0,0,0-.447,4.639,2.313,2.313,0,0,0,2.357,2.281,2.343,2.343,0,0,0,2.148-2.5c-.309-7.071,5.921-16.269,15.568-16.269,8.581,0,15.562,7.415,15.562,16.528V62.78A19.7,19.7,0,0,0,59.8,56.323c-18.056,0-27.115,23.172-14.484,36.791l29.008,30.754V147.2c0,9.113-6.981,16.528-15.562,16.528a15.525,15.525,0,0,1-13.611-8.518,17.526,17.526,0,0,0,6.121-4.608,2.5,2.5,0,0,0-.155-3.382,2.163,2.163,0,0,0-3.185.165C38.92,157.94,22,148.523,25.9,134.3a13.837,13.837,0,0,1,4.147-6.721,2.5,2.5,0,0,0,.288-3.372,2.165,2.165,0,0,0-3.175-.306,18.423,18.423,0,0,0-4.461,6,17.852,17.852,0,0,1-7.059-12.612,2.41,2.41,0,0,0-1.115-1.829,22.021,22.021,0,0,1-10.051-15.1A2.269,2.269,0,0,0,1.85,98.436a2.388,2.388,0,0,0-1.811,2.787A26.888,26.888,0,0,0,11.3,118.98a22.585,22.585,0,0,0,9.9,15.591c-2.291,12.44,7.617,23.68,19.51,21.953,7.158,15.593,28.178,16.19,35.87.478a19.557,19.557,0,0,0,35.869-.485,16.359,16.359,0,0,0,6.919-.458,2.413,2.413,0,0,0,1.591-2.935,2.244,2.244,0,0,0-2.763-1.69,12.5,12.5,0,0,1-12.974-4.046,2.164,2.164,0,0,0-3.185-.165,2.5,2.5,0,0,0-.155,3.383,17.522,17.522,0,0,0,6.126,4.611,15.525,15.525,0,0,1-13.61,8.516c-8.581,0-15.562-7.415-15.562-16.528V123.869L107.854,93.1A22.451,22.451,0,0,0,110.8,66.846,2.183,2.183,0,0,0,107.713,66a2.479,2.479,0,0,0-.8,3.279,17.529,17.529,0,0,1-2.262,20.445L76.578,119.492,51.18,92.565l6.716.024h0a2.223,2.223,0,0,0,1.877-1.068L64.44,84.07l10.138,20.393a2.2,2.2,0,0,0,4.031-.093l5.255-11.781H92.67a2.4,2.4,0,0,0,0-4.789H82.444a2.249,2.249,0,0,0-2.038,1.369L76.469,98,66.664,78.271a2.19,2.19,0,0,0-3.871-.208l-6.1,9.732-9.764-.034C39.561,77,46.627,61.112,59.8,61.112A15.812,15.812,0,0,1,74.488,71.637v.007a2.209,2.209,0,0,0,4.173,0v-.007c3.592-9.436,14-13.12,22.043-8.664a2.192,2.192,0,0,0,3.042-1.016,2.469,2.469,0,0,0-.957-3.23A19.633,19.633,0,0,0,78.833,62.78V36.441c0-9.113,6.981-16.528,15.563-16.528,9.889,0,15.873,9.512,15.578,16.269a2.344,2.344,0,0,0,2.148,2.5,2.312,2.312,0,0,0,2.357-2.281,17.791,17.791,0,0,0-.447-4.64C122.009,31.248,128.568,38.49,127.7,47a19.791,19.791,0,0,0-6.578-1.127,2.4,2.4,0,0,0,0,4.789c14.353,0,21.6,18.051,12.329,29.13a2.5,2.5,0,0,0,.188,3.38,2.164,2.164,0,0,0,3.183-.2,22.407,22.407,0,0,0,3.089-4.858c12.732,9.145,11.936,29.234-1.275,37.343a2.41,2.41,0,0,0-1.115,1.829,17.851,17.851,0,0,1-7.064,12.615,18.42,18.42,0,0,0-4.462-6,2.165,2.165,0,0,0-3.175.306,2.5,2.5,0,0,0,.288,3.372,14.356,14.356,0,0,1,2.123,18.76,2.493,2.493,0,0,0,.467,3.35,2.17,2.17,0,0,0,3.154-.5,19.344,19.344,0,0,0,3.1-14.613,22.581,22.581,0,0,0,9.908-15.6c15.665-10.64,15.559-35.091-.351-45.473Z" transform="translate(0.268 -15.14)" fill="#888"/>
      <path id="패스_8862" data-name="패스 8862" d="M69.469,232.047a2.394,2.394,0,1,0-.342,4.776,13.636,13.636,0,0,0,8.619-24.892,2.394,2.394,0,0,0-2.688,3.963,8.848,8.848,0,0,1-5.589,16.153Z" transform="translate(-45.543 -148.822)" fill="#888"/>
      <path id="패스_8863" data-name="패스 8863" d="M173.7,388.392a2.394,2.394,0,0,0,3.364-.387,12,12,0,0,0-13.808-18.623,2.395,2.395,0,1,0,1.756,4.456,7.212,7.212,0,0,1,8.3,11.19,2.394,2.394,0,0,0,.388,3.364Z" transform="translate(-113.488 -255.718)" fill="#888"/>
      <path id="패스_8864" data-name="패스 8864" d="M174.437,69.316a2.395,2.395,0,1,0-4.789-.059,7.219,7.219,0,0,1-9.158,6.864,2.394,2.394,0,0,0-1.292,4.611,12.01,12.01,0,0,0,15.239-11.416Z" transform="translate(-110.459 -50.369)" fill="#888"/>
      <path id="패스_8865" data-name="패스 8865" d="M400.776,215.893a2.394,2.394,0,1,0-2.688-3.963,13.636,13.636,0,0,0,8.619,24.892,2.395,2.395,0,1,0-.342-4.777,8.848,8.848,0,0,1-5.589-16.152Z" transform="translate(-276.441 -148.821)" fill="#888"/>
      <path id="패스_8866" data-name="패스 8866" d="M308.5,373.839a2.395,2.395,0,1,0,1.756-4.456,12,12,0,0,0-13.808,18.623,2.394,2.394,0,1,0,3.751-2.977,7.219,7.219,0,0,1,8.3-11.19Z" transform="translate(-206.195 -255.719)" fill="#888"/>
      <path id="패스_8867" data-name="패스 8867" d="M315.011,76.121a7.219,7.219,0,0,1-9.158-6.864,2.394,2.394,0,0,0-2.394-2.365h-.03a2.394,2.394,0,0,0-2.365,2.424A12.013,12.013,0,0,0,316.3,80.732a2.395,2.395,0,0,0-1.292-4.611Z" transform="translate(-211.213 -50.37)" fill="#888"/>
    </g>
  </g>
</svg>
