<?xml version="1.0" encoding="UTF-8"?><svg xmlns="http://www.w3.org/2000/svg" viewBox="0 0 147.71 147.7"><defs><style>.h{fill:#326dfb;}</style></defs><g id="a"/><g id="b"><g id="c"><g id="d"><path id="e" class="h" d="M42.24,53.98c-3.29-6.79-7.09-9.69-12.69-9.69s-9.39,2.9-12.69,9.69c-6.01,12.54-6.01,27.13,0,39.68,3.3,6.79,7.09,9.69,12.69,9.69s9.39-2.9,12.69-9.69c6.01-12.54,6.01-27.13,0-39.68Zm-20.95,2.15c2.79-5.76,5.23-6.91,8.26-6.91s5.47,1.16,8.26,6.91c.47,.95,.83,1.94,1.22,2.93H20.09c.36-.98,.74-1.97,1.21-2.93Zm-2.8,7.85h22.13c.59,2.42,.96,4.89,1.1,7.38H17.4c.14-2.49,.51-4.96,1.1-7.38h0Zm19.32,27.53c-2.79,5.76-5.23,6.91-8.27,6.91s-5.47-1.16-8.26-6.91c-.47-.96-.83-1.94-1.23-2.93h18.95c-.34,1-.74,1.97-1.19,2.93Zm2.81-7.85H18.5c-.59-2.42-.96-4.89-1.1-7.38h24.31c-.14,2.49-.5,4.96-1.09,7.38Z"/><path id="f" class="h" d="M103.37,0c-24.44-.02-44.28,19.77-44.3,44.21-.02,23.52,18.36,42.95,41.84,44.24v7.55c-.01,4.06-3.29,7.35-7.35,7.38l-45.76,.2c1.27-1.78,2.37-3.66,3.3-5.64,7.33-15.25,7.33-33.02,0-48.27-1.38-3-3.2-5.77-5.41-8.21,5.63-6.66,8.41-16.29,10.69-24.16,.78-2.71,1.52-5.27,2.3-7.51,1.19-3.9-1.01-8.02-4.91-9.21-3.7-1.12-7.64,.79-9.03,4.4-.54,1.57-1.04,3.2-1.54,4.87H15.93c-.49-1.67-1-3.31-1.54-4.87C13.04,1.12,8.83-.9,4.98,.44,1.16,1.78-.87,5.96,.44,9.8c.78,2.24,1.52,4.8,2.3,7.51,2.27,7.87,5.05,17.5,10.69,24.16-2.21,2.45-4.03,5.22-5.41,8.21-7.33,15.25-7.33,33.02,0,48.27,1.37,3,3.19,5.77,5.4,8.21-5.63,6.66-8.41,16.29-10.68,24.16-.78,2.71-1.52,5.27-2.3,7.51-1.37,3.84,.64,8.07,4.49,9.43s8.07-.64,9.43-4.49c.01-.04,.03-.08,.04-.12,.54-1.57,1.04-3.2,1.54-4.87h27.25c.49,1.67,1,3.31,1.54,4.87,1.36,3.84,5.58,5.86,9.42,4.49,3.8-1.35,5.82-5.49,4.53-9.32-.78-2.24-1.52-4.8-2.3-7.51-2.02-6.99-4.45-15.36-8.91-21.81l46.11-.2c6.77-.04,12.24-5.54,12.25-12.31v-7.55c24.41-1.31,43.13-22.16,41.82-46.57C146.38,18.36,126.92-.04,103.37,0ZM41.74,14.77c-.81,2.76-1.58,5.22-2.34,7.38H19.71c-.75-2.16-1.53-4.63-2.34-7.38h24.36Zm-4.28,12.3c-2.25,4.95-4.63,7.38-7.91,7.38s-5.66-2.43-7.91-7.38h15.81Zm-20.09,105.8c.81-2.76,1.58-5.22,2.34-7.38h19.68c.76,2.16,1.53,4.63,2.34,7.38H17.37Zm4.28-12.3c2.25-4.96,4.63-7.38,7.91-7.38s5.66,2.43,7.91,7.38h-15.81Zm18.87-12.74h0c5.88,5.72,8.78,15.78,11.11,23.86,.8,2.77,1.56,5.39,2.37,7.75,.44,1.28-.24,2.68-1.52,3.13h0c-1.28,.43-2.67-.25-3.13-1.52-4.53-13.11-7.1-32.79-19.81-32.79s-15.3,19.76-19.82,32.79c-.4,1.3-1.78,2.02-3.08,1.62s-2.02-1.78-1.62-3.08c.02-.05,.03-.1,.05-.15,.82-2.36,1.57-4.99,2.37-7.76,2.33-8.08,5.23-18.14,11.11-23.85,.98-.94,1.01-2.5,.06-3.48-.05-.05-.1-.1-.15-.15-2.56-2.36-4.62-5.22-6.03-8.41-6.68-13.9-6.68-30.08,0-43.98,1.42-3.19,3.47-6.05,6.03-8.41,1.03-.89,1.14-2.44,.25-3.47-.05-.05-.09-.1-.15-.15-5.88-5.72-8.78-15.78-11.11-23.86-.8-2.77-1.57-5.39-2.38-7.75-.44-1.28,.24-2.69,1.52-3.13s2.69,.24,3.13,1.52c4.54,13.11,7.11,32.79,19.82,32.79S44.86,19.61,49.37,6.58c.47-1.27,1.88-1.93,3.16-1.46,1.24,.46,1.89,1.81,1.49,3.06-.82,2.36-1.57,4.98-2.37,7.76-2.33,8.08-5.24,18.14-11.11,23.85-.98,.95-1,2.5-.05,3.48,.05,.05,.1,.1,.15,.15,2.56,2.36,4.62,5.22,6.03,8.41,6.68,13.9,6.68,30.08,0,43.98-1.42,3.19-3.47,6.05-6.03,8.41-1.02,.97-1.07,2.58-.11,3.61h0Zm62.84-24.17c-21.74,0-39.36-17.63-39.36-39.37,0-21.74,17.63-39.36,39.37-39.36,21.74,0,39.36,17.63,39.36,39.37s-17.63,39.37-39.37,39.37h0Z"/><path id="g" class="h" d="M127.97,22.14v-2.46c0-1.36-1.1-2.46-2.46-2.46s-2.46,1.1-2.46,2.46v3.74l-3.01,2.41c-1.76-.81-3.67-1.23-5.6-1.23-.45,0-.9,.08-1.34,.12-.5-3.81-3.47-6.83-7.27-7.38v-5.04c0-1.36-1.1-2.46-2.46-2.46s-2.46,1.1-2.46,2.46h0v5.78c-2.59,1.24-4.39,3.68-4.8,6.52h-.12c-2.74,.01-5.39,.94-7.53,2.65l-4.77-3.83v-3.74c0-1.36-1.1-2.46-2.46-2.46s-2.46,1.1-2.46,2.46h0v2.46h-2.46c-1.36,0-2.46,1.1-2.46,2.46s1.1,2.46,2.46,2.46h4.06l4.91,3.94c-1.73,3-2.06,6.6-.9,9.87-.5,.28-.97,.6-1.42,.96h-11.56c-1.36,0-2.46,1.1-2.46,2.46s1.1,2.46,2.46,2.46h8.02c-1.63,4.55-.09,9.62,3.79,12.5l-2.83,2.27h-4.06c-1.36,0-2.46,1.1-2.46,2.46s1.1,2.46,2.46,2.46h2.46v2.46c0,1.36,1.1,2.46,2.46,2.46s2.46-1.1,2.46-2.46v-3.74l4.73-3.78c.47,.08,.95,.13,1.42,.14,.42,0,.85-.03,1.27-.08,.17,5.31,4.48,9.56,9.8,9.64v5.2c0,1.36,1.1,2.46,2.46,2.46s2.46-1.1,2.46-2.46v-6.44c.65-.35,1.26-.77,1.81-1.26,.98-.86,1.79-1.91,2.36-3.09,3.81,1.71,8.27,1.07,11.46-1.62l1.61,1.29v3.74c0,1.36,1.1,2.46,2.46,2.46s2.46-1.1,2.46-2.46v-2.46h2.46c1.36,0,2.46-1.1,2.46-2.46s-1.1-2.46-2.46-2.46h-4.06l-1.91-1.53c1.79-3.77,1.24-8.22-1.39-11.45,.65-.53,1.24-1.13,1.78-1.77h10.49c1.36,0,2.46-1.1,2.46-2.46s-1.1-2.46-2.46-2.46h-7.9c1.33-4.61,.09-9.57-3.24-13.03l2.17-1.74h4.05c1.36,0,2.46-1.1,2.46-2.46s-1.1-2.46-2.46-2.46h-2.46Zm-23.37,0c2.04,0,3.69,1.65,3.69,3.69h0c0,.11-.04,.2-.05,.31-1.21,.63-2.32,1.44-3.29,2.4-1.14-1.21-2.51-2.18-4.03-2.85,.08-1.98,1.7-3.54,3.68-3.55h0Zm-8.61,7.38c.68,0,1.35,.09,2,.27,1.65,.48,3.08,1.53,4.05,2.95-.75,1.7-1.14,3.54-1.13,5.39,.02,.51,.06,1.02,.13,1.53-1.56,.39-3,1.15-4.2,2.21-1.97-1.63-4.45-2.51-7-2.51-.26,0-.52,.03-.78,.05-.3-.8-.45-1.65-.46-2.51,0-4.08,3.3-7.38,7.38-7.39h0Zm-3.2,26.3c-2.96,1.66-6.71,.61-8.38-2.35-1.66-2.96-.61-6.71,2.35-8.38,.49-.27,1.01-.48,1.55-.61,.49-.14,1.01-.21,1.52-.2,1.58,0,3.1,.63,4.23,1.74-.35,1.02-.54,2.1-.54,3.18,0,1.68,.43,3.33,1.26,4.79-.52,.75-1.2,1.38-1.99,1.83h0Zm11.56,9.08c-.53,.47-1.15,.82-1.83,1.02-.48,.17-.98,.25-1.49,.25-2.78,0-5.04-2.26-5.04-5.05,0-.59,.12-1.17,.34-1.72,.72-.52,1.37-1.13,1.93-1.81,1.54,.95,3.3,1.46,5.11,1.47,.22,0,.45,0,.67-.03,.43,1.21,1.06,2.33,1.88,3.32-.25,.99-.8,1.89-1.57,2.56Zm-.87-10.79c-1.38,.05-2.71-.5-3.67-1.49-.09-.09-.17-.18-.25-.28-1.29-1.56-1.5-3.75-.52-5.53,.91-1.58,2.6-2.54,4.43-2.52,.11,.02,.22,.04,.33,.05,1.58,.13,3,1.02,3.82,2.38-2.31,1.82-3.79,4.48-4.12,7.39h-.01Zm10.96,7.4c-3.4,0-6.15-2.75-6.15-6.15s2.75-6.15,6.15-6.15c3.4,0,6.15,2.75,6.15,6.15,0,3.4-2.75,6.15-6.15,6.15h0Zm4.68-16.15c-2.2-1.07-4.7-1.35-7.08-.79-1.28-2.36-3.46-4.1-6.05-4.82-.1-.53-.15-1.07-.15-1.61,0-1.54,.41-3.05,1.21-4.37,.07-.14,.16-.29,.25-.42,2.65-3.96,8-5.02,11.96-2.37,3.96,2.65,5.02,8,2.37,11.96-.65,.98-1.5,1.81-2.48,2.44v-.02Z"/></g></g></g></svg>