<svg xmlns="http://www.w3.org/2000/svg" xmlns:xlink="http://www.w3.org/1999/xlink" width="340" height="332" viewBox="0 0 340 332">
  <defs>
    <filter id="사각형_1046" x="0" y="0" width="340" height="332" filterUnits="userSpaceOnUse">
      <feOffset dy="3" input="SourceAlpha"/>
      <feGaussianBlur stdDeviation="3" result="blur"/>
      <feFlood flood-opacity="0.161"/>
      <feComposite operator="in" in2="blur"/>
      <feComposite in="SourceGraphic"/>
    </filter>
  </defs>
  <g id="그룹_2093" data-name="그룹 2093" transform="translate(-790 -1083)">
    <g transform="matrix(1, 0, 0, 1, 790, 1083)" filter="url(#사각형_1046)">
      <rect id="사각형_1046-2" data-name="사각형 1046" width="322" height="314" rx="26" transform="translate(9 6)" fill="#fcfcfc"/>
    </g>
    <g id="Page-1" transform="translate(907.179 1142.042)">
      <g id="_026---Cancer-Dna" data-name="026---Cancer-Dna">
        <path id="Shape" d="M35.894,28.687C32.6,21.9,28.805,19,23.2,19s-9.394,2.9-12.686,9.687a45.914,45.914,0,0,0,0,39.677c3.295,6.791,7.091,9.687,12.686,9.687s9.392-2.9,12.689-9.687a45.924,45.924,0,0,0,0-39.677ZM14.946,30.835c2.793-5.757,5.233-6.914,8.26-6.914s5.47,1.156,8.26,6.914c.465.955.834,1.944,1.218,2.928H13.738c.364-.984.743-1.968,1.208-2.928Zm-2.8,7.849H34.277a40.94,40.94,0,0,1,1.1,7.381H11.051a40.94,40.94,0,0,1,1.1-7.381ZM31.47,66.216c-2.793,5.757-5.233,6.914-8.265,6.914s-5.47-1.156-8.26-6.914c-.465-.955-.834-1.944-1.23-2.928H32.661a29.2,29.2,0,0,1-1.191,2.928Zm2.807-7.849H12.151a40.939,40.939,0,0,1-1.1-7.381H35.365a40.939,40.939,0,0,1-1.088,7.381Z" transform="translate(6.33 25.291)" fill="#888"/>
        <path id="Shape-2" data-name="Shape" d="M104.345,1a44.258,44.258,0,0,0-2.46,88.45V97a7.4,7.4,0,0,1-7.349,7.381l-45.764.2a36.641,36.641,0,0,0,3.3-5.637,55.707,55.707,0,0,0,0-48.271,32.419,32.419,0,0,0-5.413-8.213C52.291,35.8,55.071,26.172,57.345,18.3c.782-2.706,1.521-5.268,2.3-7.514A7.381,7.381,0,0,0,45.7,5.972c-.541,1.565-1.043,3.2-1.54,4.872H16.908c-.492-1.673-1-3.307-1.54-4.872A7.383,7.383,0,1,0,1.412,10.8c.778,2.244,1.516,4.8,2.3,7.512C5.981,26.18,8.759,35.807,14.4,42.468a32.564,32.564,0,0,0-5.413,8.21,55.707,55.707,0,0,0,0,48.271,32.461,32.461,0,0,0,5.4,8.213c-5.634,6.66-8.412,16.291-10.683,24.162-.782,2.706-1.521,5.268-2.3,7.514a7.387,7.387,0,1,0,13.965,4.82c.541-1.565,1.043-3.2,1.54-4.872H44.16c.492,1.673,1,3.307,1.54,4.872a7.383,7.383,0,1,0,13.956-4.822c-.778-2.244-1.516-4.8-2.3-7.512-2.02-6.993-4.451-15.361-8.914-21.814l46.114-.2A12.329,12.329,0,0,0,106.805,97V89.452A44.258,44.258,0,0,0,104.345,1ZM42.718,15.765c-.812,2.756-1.582,5.219-2.337,7.381H20.69c-.755-2.163-1.528-4.626-2.337-7.381Zm-4.279,12.3c-2.254,4.955-4.626,7.381-7.905,7.381s-5.659-2.426-7.905-7.381Zm-20.09,105.8c.809-2.756,1.582-5.219,2.337-7.381H40.371c.755,2.163,1.525,4.626,2.337,7.381Zm4.279-12.3c2.254-4.955,4.626-7.381,7.905-7.381s5.659,2.426,7.905,7.381ZM41.5,108.826v.012c5.878,5.711,8.781,15.769,11.114,23.852.8,2.773,1.557,5.391,2.374,7.753a2.46,2.46,0,0,1-1.523,3.13,2.492,2.492,0,0,1-3.127-1.521c-4.53-13.107-7.1-32.79-19.811-32.79s-15.3,19.762-19.819,32.788a2.46,2.46,0,1,1-4.65-1.6c.817-2.364,1.572-4.985,2.374-7.755,2.33-8.08,5.231-18.136,11.114-23.852a2.46,2.46,0,0,0-.091-3.624,25.532,25.532,0,0,1-6.031-8.41,50.742,50.742,0,0,1,0-43.978,25.532,25.532,0,0,1,6.031-8.41,2.46,2.46,0,0,0,.1-3.624c-5.875-5.72-8.776-15.776-11.106-23.856-.8-2.77-1.567-5.391-2.384-7.753a2.46,2.46,0,0,1,4.65-1.609c4.54,13.107,7.106,32.79,19.816,32.79S45.835,20.607,50.35,7.581A2.46,2.46,0,1,1,55,9.185c-.818,2.364-1.573,4.985-2.375,7.755-2.333,8.083-5.236,18.141-11.114,23.854a2.46,2.46,0,0,0,.1,3.624,25.542,25.542,0,0,1,6.031,8.407,50.747,50.747,0,0,1,0,43.976,25.616,25.616,0,0,1-6.033,8.412,2.561,2.561,0,0,0-.108,3.612Zm62.84-24.169a39.367,39.367,0,1,1,39.372-39.369A39.366,39.366,0,0,1,104.34,84.657Z" transform="translate(-0.996 -0.999)" fill="#888"/>
        <path id="Shape-3" data-name="Shape" d="M88.051,17.3V14.84a2.46,2.46,0,1,0-4.921,0v3.74l-3.014,2.411a11.55,11.55,0,0,0-6.941-1.1A8.575,8.575,0,0,0,65.9,12.505V7.46a2.461,2.461,0,0,0-4.921,0v5.785a8.592,8.592,0,0,0-4.8,6.518H56.06a12.184,12.184,0,0,0-7.529,2.645l-4.773-3.826v-3.74a2.461,2.461,0,1,0-4.921,0V17.3h-2.46a2.461,2.461,0,0,0,0,4.921h4.057l4.906,3.937a11.827,11.827,0,0,0-.9,9.866,11.091,11.091,0,0,0-1.42.96H31.46a2.461,2.461,0,1,0,0,4.921h8.021a10.961,10.961,0,0,0,3.79,12.5l-2.832,2.269H36.381a2.461,2.461,0,0,0,0,4.921h2.46v2.46a2.461,2.461,0,1,0,4.921,0V60.31l4.729-3.784a11.271,11.271,0,0,0,1.422.143,10.888,10.888,0,0,0,1.27-.079,9.953,9.953,0,0,0,9.8,9.638v5.2a2.46,2.46,0,1,0,4.921,0V64.993a9.478,9.478,0,0,0,1.806-1.262,9.854,9.854,0,0,0,2.36-3.088,10.865,10.865,0,0,0,11.456-1.624l1.609,1.289V64.05a2.46,2.46,0,1,0,4.921,0V61.59h2.46a2.461,2.461,0,0,0,0-4.921H86.461l-1.912-1.535a10.8,10.8,0,0,0-1.39-11.453,13.466,13.466,0,0,0,1.779-1.774H95.432a2.461,2.461,0,0,0,0-4.921h-7.9A13.414,13.414,0,0,0,84.291,23.96l2.17-1.737h4.05a2.46,2.46,0,1,0,0-4.921Zm-23.374,0a3.691,3.691,0,0,1,3.691,3.691c0,.106-.044.2-.054.312a13.5,13.5,0,0,0-3.288,2.4A12.474,12.474,0,0,0,61,20.85a3.691,3.691,0,0,1,3.676-3.55Zm-8.612,7.381a7.221,7.221,0,0,1,2,.273,7.421,7.421,0,0,1,4.052,2.953A13.286,13.286,0,0,0,60.986,33.3a13.862,13.862,0,0,0,.13,1.528,9.869,9.869,0,0,0-4.2,2.214,10.976,10.976,0,0,0-7-2.512c-.263,0-.517.032-.775.052a7.3,7.3,0,0,1-.455-2.512,7.381,7.381,0,0,1,7.379-7.386Zm-3.2,26.3a6.151,6.151,0,1,1-4.473-11.338,5.391,5.391,0,0,1,1.521-.2,6.043,6.043,0,0,1,4.234,1.737,9.9,9.9,0,0,0-.544,3.184,9.682,9.682,0,0,0,1.255,4.79,6,6,0,0,1-1.993,1.828ZM64.43,60.057a4.761,4.761,0,0,1-1.83,1.019,4.328,4.328,0,0,1-1.491.246,5.051,5.051,0,0,1-5.041-5.046,4.7,4.7,0,0,1,.34-1.722,10.827,10.827,0,0,0,1.934-1.813A9.861,9.861,0,0,0,63.45,54.21a5.5,5.5,0,0,0,.672-.027A10.981,10.981,0,0,0,66,57.5a4.99,4.99,0,0,1-1.57,2.557Zm-.869-10.792a4.867,4.867,0,0,1-3.669-1.489,3.1,3.1,0,0,1-.246-.28,4.938,4.938,0,0,1-.524-5.526,5.059,5.059,0,0,1,4.426-2.524,2.555,2.555,0,0,0,.335.052A4.938,4.938,0,0,1,67.7,41.875a11,11,0,0,0-4.124,7.391Zm10.956,7.4a6.151,6.151,0,1,1,6.151-6.151,6.151,6.151,0,0,1-6.151,6.151Zm4.675-16.15a10.635,10.635,0,0,0-7.081-.792,9.916,9.916,0,0,0-6.05-4.822,8.959,8.959,0,0,1-.155-1.609,8.4,8.4,0,0,1,1.208-4.372,4.52,4.52,0,0,1,.246-.421A8.62,8.62,0,1,1,79.205,40.531Z" transform="translate(39.902 4.845)" fill="#888"/>
      </g>
    </g>
    <text id="직업성_암" data-name="직업성 암" transform="translate(909 1367)" fill="#888" font-size="25" font-family="Pretendard-Bold, Pretendard" font-weight="700"><tspan x="0" y="0">직업성 암</tspan></text>
  </g>
</svg>
