<svg xmlns="http://www.w3.org/2000/svg" width="91.744" height="30" viewBox="0 0 91.744 30">
  <g id="b" transform="translate(0.011 0.02)">
    <g id="c" transform="translate(-0.011 -0.02)">
      <path id="패스_9207" data-name="패스 9207" d="M25.063,2.5H32.4V4.3H29.247V12.57H27.191V4.285H24.04v-.71A1.074,1.074,0,0,1,25.073,2.49" transform="translate(1.057 0.129)" fill="#888"/>
      <path id="패스_9208" data-name="패스 9208" d="M34.073,2.5h1.054V6.257h4.132V2.5h2.087V12.56H39.259V8.1H35.127V12.56H33.04V3.575A1.074,1.074,0,0,1,34.073,2.49" transform="translate(1.448 0.129)" fill="#888"/>
      <path id="패스_9209" data-name="패스 9209" d="M42.05,3.575A.955.955,0,0,1,43.083,2.49h6.25V4.233H44.074v2.16h5.259V7.06c.01.7-.344,1.033-1.064,1.033H44.085V10.7h5.259v1.847H42.06V3.575Z" transform="translate(1.84 0.129)" fill="#888"/>
      <path id="패스_9210" data-name="패스 9210" d="M64.98,3.575A.951.951,0,0,1,66.013,2.49h6.25V4.233H67v2.16h5.259V7.06c.01.7-.344,1.033-1.064,1.033H67.015V10.7h5.259v1.847H64.99V3.575Z" transform="translate(2.837 0.129)" fill="#888"/>
      <path id="패스_9211" data-name="패스 9211" d="M74.043,2.5h1.023v8.212h5.228V12.56H73.01V3.575A1.074,1.074,0,0,1,74.043,2.49" transform="translate(3.186 0.129)" fill="#888"/>
      <path id="패스_9212" data-name="패스 9212" d="M81.893,2.5h1.023v8.212h5.228V12.56H80.86V3.575A1.074,1.074,0,0,1,81.893,2.49" transform="translate(3.527 0.129)" fill="#888"/>
      <path id="패스_9213" data-name="패스 9213" d="M63.51,2.5a1.025,1.025,0,0,0-1.033.783l-.2.814L60.953,9.6,59.5,2.5H57.312L55.83,9.6,54.494,4.1l-.2-.814A1.022,1.022,0,0,0,53.263,2.5H51.99l.449,1.6h0L54.86,12.57h1.983l1.565-7.711,1.555,7.711h1.972l2.4-8.473.449-1.6H63.51Z" transform="translate(2.272 0.13)" fill="#888"/>
      <path id="패스_9214" data-name="패스 9214" d="M79.143,17.227h1.325V21.14h.449A.434.434,0,0,0,81.24,21a.46.46,0,0,0,.125-.313V14.91h-.887v1.722H79.153v.595Zm-2.7-2.181V18.51a.434.434,0,0,0,.136.323.428.428,0,0,0,.313.136H79.56v-.595H77.348V15.651h2v-.595H76.44Zm7.68,4.581v1.1a.41.41,0,0,0,.115.292.393.393,0,0,0,.292.115h3.882v-.595h-3.4v-.323h3.256V18.74H84.141v.595h3.224v.282H84.11Zm2.943-4.717h-.814v1.033h-.365a.931.931,0,0,0-.428-.647,1.631,1.631,0,0,0-.908-.24,1.533,1.533,0,0,0-.97.282.923.923,0,0,0-.376.783.942.942,0,0,0,.376.793,1.533,1.533,0,0,0,.97.282,1.6,1.6,0,0,0,.8-.177.932.932,0,0,0,.459-.48h.428v1.753h.417a.357.357,0,0,0,.282-.125.428.428,0,0,0,.115-.292V14.91Zm1.21,0h-.814v3.443h.417a.357.357,0,0,0,.282-.125.428.428,0,0,0,.115-.292V14.91Zm-3.3,3.11h.981v-.595h-2.88v.595h1v.48h.449a.4.4,0,0,0,.313-.136.46.46,0,0,0,.125-.313V18.02Zm-.856-2.243a.719.719,0,0,1,.428-.115.755.755,0,0,1,.438.115.441.441,0,0,1,.146.344.4.4,0,0,1-.146.334.685.685,0,0,1-.438.125.719.719,0,0,1-.428-.115.391.391,0,0,1-.157-.344.417.417,0,0,1,.157-.344Z" transform="translate(3.335 0.669)" fill="#888"/>
      <path id="패스_9215" data-name="패스 9215" d="M39.057,17.708a2.291,2.291,0,0,0-3.12-.125h0l-6.7,6.125-4.33-4.351-2.191-2.2L19.45,20.421l2.191,2.212,2.723,2.734c.657.657,1.315,1.315,1.962,1.983.094.094.188.2.282.292.136.146.271.282.407.417l.052.052a3.253,3.253,0,0,0,1.482,1.054,2.345,2.345,0,0,0,.605.073,2.055,2.055,0,0,0,.762-.136,2.336,2.336,0,0,0,.689-.386l.052-.052h0l.177-.157h0l1.659-1.523L38.932,21.1l.125-.125a2.305,2.305,0,0,0,0-3.256" transform="translate(0.857 0.761)" fill="#62bfb4"/>
      <path id="패스_9216" data-name="패스 9216" d="M16.921,17.15,10.389,23.7s-2.88-2.64-4.873-4.456L2.26,22.5l.094.094,6.668,6.021.042.042a2.355,2.355,0,0,0,.689.386,2.292,2.292,0,0,0,.762.136,2.91,2.91,0,0,0,.605-.073A3.253,3.253,0,0,0,12.6,28.055L12.653,28c.136-.136.271-.282.407-.417.094-.094.188-.2.282-.292.647-.668,1.3-1.325,1.962-1.983l4.873-4.894L18.35,22.253l1.826-1.837h0L16.931,17.14h-.01" transform="translate(0.11 0.766)" fill="#62bfb4"/>
      <path id="패스_9217" data-name="패스 9217" d="M23.541,17.9h0L21.726,16.06h0L15.653,9.966l5.092-5.092.1-.1c.313-.3-.063.063.376-.386a3.586,3.586,0,0,0,1.054-1.409,2.306,2.306,0,0,0-.073-1.565,2.558,2.558,0,0,0-.5-.751,2.293,2.293,0,0,0-3.256,0l-.856.856L.731,18.377h0l-.083.073A2.261,2.261,0,0,0,.366,21.3a8.25,8.25,0,0,0,1.5,1.513c.157.146.323.292.48.449l1.628-1.628,8.421-8.4,4.654,4.675,3.235,3.256L23.541,17.9" transform="translate(0.011 0.02)" fill="#888"/>
    </g>
  </g>
</svg>
