<svg id="b" xmlns="http://www.w3.org/2000/svg" xmlns:xlink="http://www.w3.org/1999/xlink" width="178.01" height="30" viewBox="0 0 178.01 30">
  <defs>
    <linearGradient id="linear-gradient" x1="0.039" y1="0.5" x2="1.042" y2="0.5" gradientUnits="objectBoundingBox">
      <stop offset="0" stop-color="#20296f"/>
      <stop offset="1" stop-color="#00a73c"/>
    </linearGradient>
  </defs>
  <g id="c">
    <g id="그룹_2129" data-name="그룹 2129">
      <path id="패스_9199" data-name="패스 9199" d="M31.833,27.589h5.712V8.258H31.833ZM58.071,8.258H52L48.54,13.41,45.078,8.258H39.01L45.5,17.919,39.01,27.585h6.069l3.462-5.152L52,27.585h6.069l-6.5-9.666,6.5-9.661ZM34.661,0a3.215,3.215,0,1,0,3.215,3.215A3.213,3.213,0,0,0,34.661,0ZM26.169,8.64A9.138,9.138,0,0,0,20.33,6.607a8.928,8.928,0,0,0-5.843,2.1,7.858,7.858,0,0,0-2.046,2.78,9,9,0,0,0-.738,3.662V20.46a4.247,4.247,0,0,1-.9,2.958,2.318,2.318,0,0,1-1.7.686,3.326,3.326,0,0,1-3.21-3.645V9.57H0V20.46a9.587,9.587,0,0,0,2.85,7A9.105,9.105,0,0,0,9.109,30a8.153,8.153,0,0,0,5.964-2.507,9.809,9.809,0,0,0,2.533-7.033V15.152a2.476,2.476,0,0,1,2.728-2.65c.287,0,2.806.065,2.806,2.376V27.563h5.9V14.878a7.963,7.963,0,0,0-2.867-6.242Z" fill="url(#linear-gradient)"/>
      <g id="그룹_2128" data-name="그룹 2128" transform="translate(64.913 8.814)">
        <path id="패스_9200" data-name="패스 9200" d="M149.434,32.723V30.468h17.133v2.255h-4.283V37.11h-2.815V32.723h-2.9V37.11h-2.837V32.723h-4.3Zm8.527-2.876a4.786,4.786,0,1,1,5.048-4.778A4.884,4.884,0,0,1,157.962,29.847Zm0-7.2a2.424,2.424,0,1,0,2.32,2.424A2.4,2.4,0,0,0,157.962,22.644Z" transform="translate(-149.43 -20.29)" fill="#231916"/>
        <path id="패스_9201" data-name="패스 9201" d="M204.281,29.787a53.328,53.328,0,0,1-7.263.7H193.46V21.281h2.772V28.21l1.612-.022a51.966,51.966,0,0,0,6.434-.6v2.194Zm-7.719,2.854H207.4v7.181H204.65V34.878h-8.089Zm8.215-11.981h2.732V32h-2.732V20.66Z" transform="translate(-174.333 -20.499)" fill="#231916"/>
        <path id="패스_9202" data-name="패스 9202" d="M230.9,32.522h16.8v2.32H230.9Zm13.905-1.616a11,11,0,0,1-3.349-1.512,7.9,7.9,0,0,1-2.155-2.029,7.056,7.056,0,0,1-1.9,1.781,11.653,11.653,0,0,1-3.662,1.716l-1.347-1.881a9.462,9.462,0,0,0,4.244-2.589,6.181,6.181,0,0,0,1.16-3.684v-1.2h2.941v1.2A5.786,5.786,0,0,0,242.1,26.6a9.35,9.35,0,0,0,4.036,2.337L244.81,30.9Z" transform="translate(-195.509 -20.98)" fill="#231916"/>
        <path id="패스_9203" data-name="패스 9203" d="M281.931,34.852V28.54h1.655v4.883H290.4v1.434h-3.519v3.1h6.051v1.434H279.29V37.958h5.964v-3.1h-3.328Z" transform="translate(-222.878 -24.956)" fill="#231916"/>
        <path id="패스_9204" data-name="패스 9204" d="M313,37.784v-1.4h13.658v1.4h-5.9v3.983h-1.777V37.784H313Zm11.021-8.844v5.778h-8.38V28.94Zm-6.707,4.414H322.3V30.3h-4.983Z" transform="translate(-241.944 -25.182)" fill="#231916"/>
        <path id="패스_9205" data-name="패스 9205" d="M350.139,27.816v2.311h3.275V27.816h1.655v7.142h-6.59V27.816h1.655Zm0,5.76h3.275V31.491h-3.275Zm3.31,2.863v1.707h4.813V36.439h1.672v6.156h-8.158V36.439h1.672Zm0,3.054v1.725h4.813V39.493Zm4.983-12.228h1.655v8.4h-1.655V32.073h-2.585V30.64h2.585V27.26Z" transform="translate(-262.012 -24.232)" fill="#231916"/>
        <path id="패스_9206" data-name="패스 9206" d="M385.187,27.717a3.9,3.9,0,1,1-3.827,3.9A3.868,3.868,0,0,1,385.187,27.717Zm0,1.5a2.414,2.414,0,1,0,2.137,2.4A2.247,2.247,0,0,0,385.187,29.216Zm1.447,8.64v3.31h7.072V42.6h-8.745V37.856Zm5.052-10.586h1.655V38.53h-1.655V27.27Z" transform="translate(-280.609 -24.238)" fill="#231916"/>
      </g>
    </g>
  </g>
</svg>
