<svg xmlns="http://www.w3.org/2000/svg" width="111.058" height="30" viewBox="0 0 111.058 30">
  <g id="그룹_2134" data-name="그룹 2134" transform="translate(-93.822 -369.583)">
    <path id="패스_9218" data-name="패스 9218" d="M404.277,383.34V384.4h-3.553a4.339,4.339,0,0,0-3.239-1.393,3.735,3.735,0,1,0,0,7.423A4.327,4.327,0,0,0,400.748,389h3.528v2.153h-8.69v1.854h8.69V396.6h2.136V383.34Zm-6.791,5.33a1.956,1.956,0,1,1,2.072-1.953A2.015,2.015,0,0,1,397.485,388.669Zm4.13-1.609a3.288,3.288,0,0,0,.02-.344,3.427,3.427,0,0,0-.021-.374h2.663v.718Z" transform="translate(-216.684 -9.71)" fill="#161615"/>
    <path id="패스_9219" data-name="패스 9219" d="M349.575,386.722V384.15h-2.153v5.789h-1.494l.014-4.727c-.015-.643-.733-.583-.733-.583l-7.238-.03v1.795h5.8v3.546h-2.094v-2.756H339.5v2.756h-2.154v1.928h3.321a3.8,3.8,0,0,0-.754,2.259,4.639,4.639,0,0,0,9.221,0,3.8,3.8,0,0,0-.755-2.259h1.2v-3.306H351.3v-1.839Zm-5.054,9.814a2.489,2.489,0,0,1-2.559-2.411,2.421,2.421,0,0,1,1.669-2.259h1.78a2.421,2.421,0,0,1,1.669,2.259A2.488,2.488,0,0,1,344.521,396.536Z" transform="translate(-176.177 -10.539)" fill="#161615"/>
    <path id="패스_9220" data-name="패스 9220" d="M239.949,384.259v1.8H233.4v-1.723h-2.153l-.007,6.357a.6.6,0,0,0,.61.621h10.164v-7.051Zm.086,5.242H233.4v-1.637h6.633Z" transform="translate(-99.417 -10.617)" fill="#161615"/>
    <path id="패스_9221" data-name="패스 9221" d="M238.538,449.985v-2.9h.834v2.9a1.929,1.929,0,0,0,.1.711.728.728,0,0,0,1.3,0,1.936,1.936,0,0,0,.1-.711v-2.9h.834v2.9a2.854,2.854,0,0,1-.194,1.172,1.63,1.63,0,0,1-2.767,0A2.849,2.849,0,0,1,238.538,449.985Z" transform="translate(-104.695 -56.068)" fill="#161615"/>
    <path id="패스_9222" data-name="패스 9222" d="M250.987,449.987h.783a1.089,1.089,0,0,0,.146.484.771.771,0,0,0,.685.291,1.221,1.221,0,0,0,.471-.077.543.543,0,0,0,.344-.548.427.427,0,0,0-.17-.362,1.646,1.646,0,0,0-.535-.221l-.416-.112a2.36,2.36,0,0,1-.847-.362,1.248,1.248,0,0,1-.4-1.022,1.5,1.5,0,0,1,.384-1.053,1.449,1.449,0,0,1,1.127-.42,1.464,1.464,0,0,1,1.518,1.544h-.789a.7.7,0,0,0-.309-.606.892.892,0,0,0-.477-.118.776.776,0,0,0-.506.154.522.522,0,0,0-.189.429.424.424,0,0,0,.186.378,2.013,2.013,0,0,0,.512.2l.676.2a1.617,1.617,0,0,1,.671.343,1.267,1.267,0,0,1,.351.964,1.488,1.488,0,0,1-.412,1.075,1.537,1.537,0,0,1-1.162.427,1.67,1.67,0,0,1-1.207-.421A1.528,1.528,0,0,1,250.987,449.987Z" transform="translate(-113.701 -55.707)" fill="#161615"/>
    <path id="패스_9223" data-name="패스 9223" d="M265.047,447.083h-.927l-1.4,4.721h.858l.272-.97h1.446l.253.97h.89Zm-.978,2.937.506-1.858.49,1.858Z" transform="translate(-122.189 -56.068)" fill="#161615"/>
    <path id="패스_9224" data-name="패스 9224" d="M277.671,451.8v-4.721h.861l1.563,3.3v-3.3h.765V451.8h-.82l-1.6-3.354V451.8Z" transform="translate(-133.006 -56.068)" fill="#161615"/>
    <path id="패스_9225" data-name="패스 9225" d="M297.341,450.8l.709-3.713h1.179V451.8h-.764v-3.194c0-.092,0-.22,0-.386s0-.293,0-.383l-.743,3.963h-.8l-.738-3.963c0,.09,0,.217,0,.383s0,.294,0,.386V451.8h-.764v-4.721h1.193Z" transform="translate(-145.857 -56.068)" fill="#161615"/>
    <path id="패스_9226" data-name="패스 9226" d="M312.943,447.083v.836h-1.6v1h1.548v.82h-1.548v1.214h1.545v.849h-2.347v-4.721Z" transform="translate(-156.787 -56.068)" fill="#161615"/>
    <path id="패스_9227" data-name="패스 9227" d="M320.162,447.083h2.7v.836h-.936V451.8H321.1v-3.885h-.94Z" transform="translate(-163.746 -56.068)" fill="#161615"/>
    <path id="패스_9228" data-name="패스 9228" d="M333.122,449.888a1.234,1.234,0,0,0,1.007-.8,1.647,1.647,0,0,0,.141-.661,1.514,1.514,0,0,0-.075-.5,1.544,1.544,0,0,0-.2-.4,1.018,1.018,0,0,0-.377-.33,1.517,1.517,0,0,0-.635-.122h-1.926V451.8h.8V449.26l.58.96.991,1.585h.995Zm-1.265-.716V447.9h.953a.766.766,0,0,1,.4.083.625.625,0,0,1,.236.577.551.551,0,0,1-.245.531.881.881,0,0,1-.416.077Z" transform="translate(-171.627 -56.068)" fill="#161615"/>
    <path id="패스_9229" data-name="패스 9229" d="M363.764,449.123a.593.593,0,0,1-.452.17h-.764V447.9h.764a.623.623,0,0,1,.452.156.714.714,0,0,1,.162.526A.76.76,0,0,1,363.764,449.123Zm.622-1.676a1.249,1.249,0,0,0-.942-.365h-1.71V451.8h.815v-1.7h.834a1.369,1.369,0,0,0,1-.346,1.62,1.62,0,0,0,.352-1.182A1.581,1.581,0,0,0,364.387,447.448Z" transform="translate(-193.822 -56.068)" fill="#161615"/>
    <path id="패스_9230" data-name="패스 9230" d="M392.99,451.8v-4.721h.82v3.873h1.944v.849Z" transform="translate(-216.434 -56.068)" fill="#161615"/>
    <path id="패스_9231" data-name="패스 9231" d="M404.49,447.083V451.8h.815v-4.721Z" transform="translate(-224.754 -56.068)" fill="#161615"/>
    <path id="패스_9232" data-name="패스 9232" d="M408.7,447.083h2.7v.836h-.935V451.8h-.826v-3.885H408.7Z" transform="translate(-227.8 -56.068)" fill="#161615"/>
    <path id="패스_9233" data-name="패스 9233" d="M420.346,447.083h-.927l-1.4,4.721h.858l.272-.97h1.446l.253.97h.89Zm-.978,2.937.506-1.858.491,1.858Z" transform="translate(-234.541 -56.068)" fill="#161615"/>
    <path id="패스_9234" data-name="패스 9234" d="M432.793,451.8v-3.354l1.6,3.354h.821v-4.721h-.764v3.3l-1.564-3.3h-.861V451.8Z" transform="translate(-244.677 -56.068)" fill="#161615"/>
    <path id="패스_9235" data-name="패스 9235" d="M467.713,447.083V451.8H466.9v-4.721Z" transform="translate(-269.903 -56.068)" fill="#161615"/>
    <path id="패스_9236" data-name="패스 9236" d="M471.5,447.083h2.7v.836h-.935V451.8h-.826v-3.885h-.94Z" transform="translate(-273.234 -56.068)" fill="#161615"/>
    <path id="패스_9237" data-name="패스 9237" d="M484.563,449.139l.78-2.056h.93l-1.314,2.947V451.8h-.82V450.03l-1.358-2.947h.967Z" transform="translate(-281.394 -56.068)" fill="#161615"/>
    <path id="패스_9238" data-name="패스 9238" d="M376.7,447.08A2.348,2.348,0,1,0,379,449.427,2.322,2.322,0,0,0,376.7,447.08Zm0,3.965a1.651,1.651,0,1,1,1.322-1.618A1.493,1.493,0,0,1,376.7,451.045Z" transform="translate(-202.991 -56.066)" fill="#161615"/>
    <path id="패스_9239" data-name="패스 9239" d="M346.132,447.08a2.348,2.348,0,1,0,2.3,2.347A2.321,2.321,0,0,0,346.132,447.08Zm0,3.965a1.651,1.651,0,1,1,1.322-1.618A1.492,1.492,0,0,1,346.132,451.045Z" transform="translate(-180.875 -56.066)" fill="#161615"/>
    <g id="그룹_2131" data-name="그룹 2131" transform="translate(192.309 390.935)">
      <path id="패스_9240" data-name="패스 9240" d="M452.25,450.757a1.651,1.651,0,0,1,0-3.236,1.227,1.227,0,0,1,.981.536h1.054a2.287,2.287,0,0,0-2.035-1.266,2.348,2.348,0,0,0,0,4.695,2.291,2.291,0,0,0,2.078-1.356h-1.035A1.253,1.253,0,0,1,452.25,450.757Z" transform="translate(-449.955 -446.792)" fill="#161615"/>
    </g>
    <path id="패스_9241" data-name="패스 9241" d="M240.455,414.649H227.564v1.824h5.5v3.283h2.154v-3.283h5.234Z" transform="translate(-96.756 -32.604)" fill="#161615"/>
    <path id="패스_9242" data-name="패스 9242" d="M298.55,386.615h-1.723v-2.572h-2.258v11.332H288.3v-2.957h-2.224V396.1c.06.987.688,1.077.688,1.077l10.064.011V388.4h1.723Z" transform="translate(-139.086 -10.461)" fill="#161615"/>
    <rect id="사각형_7371" data-name="사각형 7371" width="2.3" height="13.317" transform="translate(202.051 373.492)" fill="#161615"/>
    <path id="패스_9243" data-name="패스 9243" d="M279.261,389.9l4.4-5.5a.435.435,0,0,1,.748.06l4.277,5.5-1.645,1.227-3.021-3.739-3.111,3.709Z" transform="translate(-134.156 -10.574)" fill="#161615"/>
    <path id="패스_9244" data-name="패스 9244" d="M446.465,390.6l4.576-6.55a.4.4,0,0,1,.658.03l4.517,6.55-1.653,1.186-3.274-4.824-3.1,4.824Z" transform="translate(-255.121 -10.344)" fill="#161615"/>
    <g id="그룹_2133" data-name="그룹 2133" transform="translate(93.822 369.583)">
      <g id="그룹_2132" data-name="그룹 2132">
        <path id="패스_9245" data-name="패스 9245" d="M124.809,383.626l-7.234-6.945c-1.192,1.449-2.357,2.97-2.357,2.97a6.384,6.384,0,0,1-3.092,2.65,13.108,13.108,0,0,1-5.427,0c1.777-.344,7.044-7.147,7.992-8.388L110.611,370s-.82-1.009-1.956.126l-6.815,6.121a9.719,9.719,0,0,1,2.713.252,4.088,4.088,0,0,1,1.894,1.325s.946,1.83,1.7,1.83c0,0,.5,1.073-2.02,1.136a2.626,2.626,0,0,1-2.145-1.956,2.934,2.934,0,0,0-2.587-2.209l-7.257,7.13s-.567.484-.189.82h18.362s.5-2.083,1.7-.631c0,0,.631-1.135,1.389-.126,0,0,.441-2.145,1.956-.567,0,0,.883-2.335,2.019-1.2,0,0,.694.253.946,1.641,0,0,1.073-1.515,1.641.884,0,0-13.63.252-23.41,4.984l3.66,3.6s12.873-6.373,20.76-7.824a58.354,58.354,0,0,0-17.416,10.979l2.84,2.777a1.553,1.553,0,0,0,2.4-.126L125,385.393S125.755,384.194,124.809,383.626Z" transform="translate(-93.822 -369.583)" fill="#003383"/>
      </g>
      <path id="패스_9246" data-name="패스 9246" d="M169.526,378.739c3.218-3.723,9.126-1.64,9.126-1.64-1.2.063-4.038,2.082-4.038,2.082a20.417,20.417,0,0,0-2.335,2.5l-2.926-2.737Z" transform="translate(-148.464 -374.6)" fill="#003383"/>
    </g>
    <path id="패스_9247" data-name="패스 9247" d="M228.788,447.263a1.193,1.193,0,0,0-.921-.372h-1.671V451.7h.8V449.71h.815a1.307,1.307,0,0,0,.981-.353,1.752,1.752,0,0,0,0-2.094Zm-.6,1.454a.646.646,0,0,1-.45.155h-.747v-1.145h.747a.6.6,0,0,1,.45.141.5.5,0,0,1,.152.364A.632.632,0,0,1,228.189,448.717Z" transform="translate(-95.766 -55.929)" fill="#161615"/>
    <path id="패스_9248" data-name="패스 9248" d="M228.788,454.543a1.192,1.192,0,0,0-.921-.372h-1.671v2.813h.8v.006h.815a1.3,1.3,0,0,0,.981-.353,1.751,1.751,0,0,0,0-2.094Zm-.6,1.454a.644.644,0,0,1-.45.155h-.747v-1.145h.747a.6.6,0,0,1,.45.141.5.5,0,0,1,.152.364A.632.632,0,0,1,228.189,456Z" transform="translate(-95.766 -61.195)" fill="#161615"/>
  </g>
</svg>
