<svg id="c" xmlns="http://www.w3.org/2000/svg" width="174.553" height="30" viewBox="0 0 174.553 30">
  <g id="그룹_2112" data-name="그룹 2112">
    <g id="그룹_2109" data-name="그룹 2109">
      <path id="패스_9124" data-name="패스 9124" d="M59.41,17.945v.073c0,1.42,1.112,2.518,2.983,2.518h1.984V33.824h.784c1.871,0,2.983-1.1,2.983-2.518V20.536H73.1v-2.6H59.415Z" transform="translate(-30.311 -9.153)" fill="#eb6101"/>
      <path id="패스_9125" data-name="패스 9125" d="M92.365,31.491V28.9H80.83v9.855a6.482,6.482,0,0,0,.847,3.453,4.991,4.991,0,0,0,2.89,2.2,8.039,8.039,0,0,0,2.38.333H92.37V42.154H86.948c-1.4,0-2.38-1.029-2.38-3.394v-.8h7.269V35.375H84.567V31.486h7.8Z" transform="translate(-41.24 -14.745)" fill="#0068b7"/>
      <path id="패스_9126" data-name="패스 9126" d="M10.261,36.393a3.713,3.713,0,0,0,2.16-3.37A3.922,3.922,0,0,0,8.5,29.09H0v9.8a6.442,6.442,0,0,0,.842,3.433,4.966,4.966,0,0,0,2.87,2.194,7.994,7.994,0,0,0,2.366.328H7.949a5.679,5.679,0,0,0,4.2-1.695,4.128,4.128,0,0,0,.97-2.743,4.235,4.235,0,0,0-2.86-4.011ZM6.083,42.266c-1.391,0-2.366-1.019-2.366-3.37V31.666H6.71a2,2,0,0,1,2,2.013,1.882,1.882,0,0,1-2,1.861H5.638v2.508H7.416a2.16,2.16,0,0,1,1.993,2.184A2.037,2.037,0,0,1,7.381,42.27h-1.3Z" transform="translate(0 -14.842)" fill="#0068b7"/>
      <path id="패스_9127" data-name="패스 9127" d="M41.963,40.281v1.244A2.264,2.264,0,0,0,43.408,43.9a11.529,11.529,0,0,0,4.188.793,7.049,7.049,0,0,0,4.374-1.264A3.975,3.975,0,0,0,53.6,40.07a4.377,4.377,0,0,0-.74-2.591,5.488,5.488,0,0,0-1.788-1.513,25.58,25.58,0,0,0-2.846-1.2,8.34,8.34,0,0,1-2.312-1.092,1.347,1.347,0,0,1-.524-1,1.25,1.25,0,0,1,.74-1.112,3.711,3.711,0,0,1,1.817-.382,14.194,14.194,0,0,1,4.932,1.469V29.966A13.719,13.719,0,0,0,47.606,28.8a7.189,7.189,0,0,0-4.369,1.215,3.752,3.752,0,0,0-1.6,3.144,3.532,3.532,0,0,0,.73,2.322,5.137,5.137,0,0,0,1.758,1.5,23.288,23.288,0,0,0,2.841,1.171,7.665,7.665,0,0,1,2.351,1.117,1.8,1.8,0,0,1,.534,1.224c0,1.1-.862,1.651-2.557,1.651a7.5,7.5,0,0,1-2.713-.5,15.705,15.705,0,0,1-2.611-1.386Z" transform="translate(-21.245 -14.694)" fill="#eb6101"/>
      <path id="패스_9128" data-name="패스 9128" d="M117.763,17.945h-8V33.824h.784c1.871,0,2.983-1.1,2.983-2.518V20.536h3.061a2,2,0,0,1,.029,4.007h-1.156v2.6h2.278a4.6,4.6,0,0,0,.02-9.2Z" transform="translate(-56 -9.153)" fill="#0068b7"/>
      <path id="패스_9129" data-name="패스 9129" d="M30.11,20.3V35.033h.784c1.871,0,2.983-1.1,2.983-2.518V20.3A5.824,5.824,0,0,1,32,20.609a5.937,5.937,0,0,1-1.881-.309Z" transform="translate(-15.362 -10.357)" fill="#0068b7"/>
      <g id="그룹_2108" data-name="그룹 2108" transform="translate(12.239)">
        <path id="패스_9130" data-name="패스 9130" d="M27.789,7.556a.3.3,0,0,0,.088-.132V7.409l.749-2.233v-.01a.327.327,0,0,0-.372-.421h-.01l-2.307.475h0a.314.314,0,0,0-.152.073.335.335,0,0,0-.034.46v.01l1.567,1.763a.323.323,0,0,0,.465.024Z" transform="translate(-25.339 -2.418)" fill="#ed6d00"/>
        <path id="패스_9131" data-name="패스 9131" d="M33.975,7.486a.347.347,0,0,0-.073-.147l-.01-.01L32.334,5.571h0a.324.324,0,0,0-.553.108v.01l-.749,2.233h0a.291.291,0,0,0-.01.171.331.331,0,0,0,.382.26h.01l2.307-.475a.338.338,0,0,0,.26-.392Z" transform="translate(-28.062 -2.784)" fill="#f08300"/>
        <path id="패스_9132" data-name="패스 9132" d="M34.242,3.694a.335.335,0,0,0,.059.318h0l1.562,1.773h0a.4.4,0,0,0,.142.093.332.332,0,0,0,.416-.2v-.01l.749-2.238a.329.329,0,0,0-.206-.416A.3.3,0,0,0,36.808,3h-.015l-2.3.475h-.01a.33.33,0,0,0-.24.22Z" transform="translate(-29.7 -1.529)" fill="#f3993a"/>
        <path id="패스_9133" data-name="패스 9133" d="M31.477,12.151a.3.3,0,0,0,.073.147l.01.01,1.558,1.758h0a.321.321,0,0,0,.309.108.335.335,0,0,0,.245-.211v-.01l.749-2.238h0a.273.273,0,0,0,.01-.167.324.324,0,0,0-.382-.255h-.01l-2.307.475a.326.326,0,0,0-.255.387Z" transform="translate(-28.298 -5.759)" fill="#ed6d00"/>
        <path id="패스_9134" data-name="패스 9134" d="M27.189,14.464l.333-1a.329.329,0,0,0-.206-.416.3.3,0,0,0-.162-.01H27.14l-.98.206A4.448,4.448,0,0,0,27.189,14.464Z" transform="translate(-25.586 -6.646)" fill="#ea5506"/>
        <path id="패스_9135" data-name="패스 9135" d="M30.5.338l.632.71h0a.311.311,0,0,0,.309.108A.332.332,0,0,0,31.69.94h0L32,0a4.039,4.039,0,0,0-.681.083A4.122,4.122,0,0,0,30.5.338Z" transform="translate(-27.8 0)" fill="#f3993a"/>
        <path id="패스_9136" data-name="패스 9136" d="M39,13.1l-.887-1h0a.253.253,0,0,0-.142-.088.321.321,0,0,0-.411.2v.01l-.749,2.238a.329.329,0,0,0,.02.255A4.413,4.413,0,0,0,39,13.108Z" transform="translate(-31.012 -6.119)" fill="#f08300"/>
        <path id="패스_9137" data-name="패스 9137" d="M31.616,15.833a.316.316,0,0,0-.078-.206h0L29.97,13.855h0a.359.359,0,0,0-.142-.093.332.332,0,0,0-.416.2v.01l-.382,1.136A4.4,4.4,0,0,0,31.616,15.833Z" transform="translate(-27.05 -7.012)" fill="#ea5506"/>
        <path id="패스_9138" data-name="패스 9138" d="M26.7,9.506a.326.326,0,0,0-.064-.318v-.01L25.072,7.415h0L25.058,7.4a4.463,4.463,0,0,0,.02,1.67,4.733,4.733,0,0,0,.274.882l1.1-.225h.01a.332.332,0,0,0,.24-.216Z" transform="translate(-24.988 -3.776)" fill="#ed6d00"/>
        <path id="패스_9139" data-name="패스 9139" d="M28.577,2.236a.324.324,0,0,0-.064-.318h0L27.8,1.1A4.458,4.458,0,0,0,26.01,2.927h.02l2.3-.475h.01a.332.332,0,0,0,.24-.216Z" transform="translate(-25.51 -0.561)" fill="#f08300"/>
        <path id="패스_9140" data-name="패스 9140" d="M34.149,0l-.358,1.078A.327.327,0,0,0,34,1.494a.3.3,0,0,0,.162.01h.015l2.3-.475h.01A.357.357,0,0,0,36.632.95,4.5,4.5,0,0,0,34.149,0Z" transform="translate(-29.471)" fill="#f9c270"/>
        <path id="패스_9141" data-name="패스 9141" d="M41.154,5.486a4.285,4.285,0,0,0-.705-1.646A.312.312,0,0,0,40.331,4v.01L39.582,6.24a.329.329,0,0,0,.206.416.365.365,0,0,0,.162.015h.015l1.283-.264a4.874,4.874,0,0,0-.088-.916Z" transform="translate(-32.425 -1.959)" fill="#f9c270"/>
        <path id="패스_9142" data-name="패스 9142" d="M41.448,10.02l-1.171.24h0a.376.376,0,0,0-.152.078.335.335,0,0,0-.034.46h.01l.8.911a4.463,4.463,0,0,0,.549-1.685Z" transform="translate(-32.655 -5.112)" fill="#f3993a"/>
      </g>
    </g>
    <g id="그룹_2111" data-name="그룹 2111" transform="translate(69.884 14.224)">
      <rect id="사각형_7369" data-name="사각형 7369" width="4.472" height="1.695" transform="translate(2.988 2.944)" fill="none"/>
      <path id="패스_9143" data-name="패스 9143" d="M142.68,44.072h4.428V48.04h.691a.942.942,0,0,0,.931-.94V44.072h4.413V42.98H142.68v1.092Z" transform="translate(-142.68 -36.152)" fill="#404040"/>
      <path id="패스_9144" data-name="패스 9144" d="M146.681,35.093h6.529V29.7h-1.616v1.533h-4.472V29.7h-1.6v4.139a1.246,1.246,0,0,0,.328.921,1.137,1.137,0,0,0,.838.333Zm.436-2.772h4.472v1.695h-4.472Z" transform="translate(-144.129 -29.377)" fill="#404040"/>
      <path id="패스_9145" data-name="패스 9145" d="M221.671,48.184h6.916V43.36H226.97v1.308h-4.859V43.36h-1.6v3.566a1.246,1.246,0,0,0,.328.921,1.137,1.137,0,0,0,.838.333Zm.436-2.424h4.859v1.347h-4.859Z" transform="translate(-182.389 -36.346)" fill="#404040"/>
      <path id="패스_9146" data-name="패스 9146" d="M169.331,33.527a4.262,4.262,0,0,0,1.21,1.293,5.693,5.693,0,0,0,2.087.852l.509-.906a4.285,4.285,0,0,1-2.1-1.269,3.916,3.916,0,0,1-.891-2.6V29.8h-1.631v1.1a3.952,3.952,0,0,1-.891,2.6,4.359,4.359,0,0,1-2.1,1.269l.5.906a5.477,5.477,0,0,0,2.082-.852,4.282,4.282,0,0,0,1.215-1.293Z" transform="translate(-154.338 -29.428)" fill="#404040"/>
      <path id="패스_9147" data-name="패스 9147" d="M184.191,29.44H182.57v8.635h.759a.936.936,0,0,0,.862-.936V33h1.9V31.913h-1.9V29.445Z" transform="translate(-163.032 -29.244)" fill="#404040"/>
      <g id="그룹_2110" data-name="그룹 2110" transform="translate(47.785 0.191)">
        <path id="패스_9148" data-name="패스 9148" d="M245.343,33.692c0,.686-.02,1.249-.064,1.68a3.274,3.274,0,0,1-.446,1.308h1.4a4.733,4.733,0,0,0,.509-1.215,6.967,6.967,0,0,0,.22-1.886V30.2H240.93v1.073h4.418v2.415Z" transform="translate(-240.592 -29.823)" fill="#404040"/>
        <path id="패스_9149" data-name="패스 9149" d="M249.443,29.435h-1.607V36.7a8.849,8.849,0,0,1-.911.191,6.856,6.856,0,0,1-1.215.1H243.38V33.045h-1.494v3.948H240.24V38.07h5.388a4.653,4.653,0,0,0,1.107-.127,6.7,6.7,0,0,0,1.1-.358v3.541h.676a.938.938,0,0,0,.926-.94h0v-6.5h1.9V32.6h-1.9V29.43Z" transform="translate(-240.24 -29.43)" fill="#404040"/>
      </g>
      <path id="패스_9150" data-name="패스 9150" d="M269.724,37.853a1.068,1.068,0,0,0,.9-.48,1.991,1.991,0,0,0,0-2.263,1.077,1.077,0,0,0-1.793,0,1.926,1.926,0,0,0,0,2.263A1.081,1.081,0,0,0,269.724,37.853Z" transform="translate(-206.853 -31.892)" fill="none"/>
      <path id="패스_9151" data-name="패스 9151" d="M275.067,48.063h0V44.87H267v1.063h6.446v3.061h.823a.943.943,0,0,0,.793-.931Z" transform="translate(-206.109 -37.117)" fill="#404040"/>
      <path id="패스_9152" data-name="패스 9152" d="M300.517,48.063h0V44.87H292.45v1.063H298.9v3.061h.823a.943.943,0,0,0,.793-.931Z" transform="translate(-219.093 -37.117)" fill="#404040"/>
      <path id="패스_9153" data-name="패스 9153" d="M281.786,29.42H280.17V36.2h1.616v-3.3h1.9V31.82h-1.9Z" transform="translate(-212.828 -29.234)" fill="#404040"/>
      <path id="패스_9154" data-name="패스 9154" d="M232.129,29.42h1.616V35.5h-1.616V32.907h-1.5V31.82h1.5Z" transform="translate(-187.552 -29.234)" fill="#404040"/>
      <path id="패스_9155" data-name="패스 9155" d="M267.683,36.01a2.774,2.774,0,0,0,1.94-.754,2.447,2.447,0,0,0,.818-1.866,2.254,2.254,0,0,0-.269-1.078,2.824,2.824,0,0,0-.622-.833h1.327V30.446h-2.4V29.04H266.86v1.406h-2.4v1.033h1.332a2.953,2.953,0,0,0-.607.833,2.326,2.326,0,0,0-.269,1.078,2.419,2.419,0,0,0,.833,1.866,2.786,2.786,0,0,0,1.94.754Zm-.9-3.752a1.081,1.081,0,0,1,.9-.48,1.069,1.069,0,0,1,.9.48,1.991,1.991,0,0,1,0,2.263,1.062,1.062,0,0,1-.9.48,1.081,1.081,0,0,1-.9-.48,1.926,1.926,0,0,1,0-2.263Z" transform="translate(-204.813 -29.04)" fill="#404040"/>
      <path id="패스_9156" data-name="패스 9156" d="M292.4,36.01a2.774,2.774,0,0,0,1.94-.754,2.447,2.447,0,0,0,.818-1.866,2.254,2.254,0,0,0-.269-1.078,2.824,2.824,0,0,0-.622-.833H295.6V30.446h-2.4V29.04H291.58v1.406h-2.4v1.033h1.332a2.953,2.953,0,0,0-.607.833,2.326,2.326,0,0,0-.269,1.078,2.419,2.419,0,0,0,.833,1.866,2.786,2.786,0,0,0,1.94.754Zm-.9-3.752a1.081,1.081,0,0,1,.9-.48,1.069,1.069,0,0,1,.9.48,1.991,1.991,0,0,1,0,2.263,1.063,1.063,0,0,1-.9.48,1.081,1.081,0,0,1-.9-.48,1.926,1.926,0,0,1,0-2.263Z" transform="translate(-217.425 -29.04)" fill="#404040"/>
      <path id="패스_9157" data-name="패스 9157" d="M341.335,34.187a1.033,1.033,0,0,0,.842-.4,1.513,1.513,0,0,0,.323-.98,1.549,1.549,0,0,0-.323-.989,1.024,1.024,0,0,0-.842-.4,1.049,1.049,0,0,0-.852.4,1.529,1.529,0,0,0-.333.989,1.493,1.493,0,0,0,.333.98A1.052,1.052,0,0,0,341.335,34.187Z" transform="translate(-243.43 -30.254)" fill="#fff"/>
      <path id="패스_9158" data-name="패스 9158" d="M342.506,46.76H340.89v1.93a1.259,1.259,0,0,0,.343.945,1.153,1.153,0,0,0,.838.338h6.406V48.886h-5.971V46.76Z" transform="translate(-243.808 -38.081)" fill="#404040"/>
      <path id="패스_9159" data-name="패스 9159" d="M338.186,42.718H339.8V40.994h2.909V39.97H335.59v1.024h2.6Z" transform="translate(-241.103 -34.617)" fill="#404040"/>
      <path id="패스_9160" data-name="패스 9160" d="M351.328,37.394h0V29.44h-1.616v6.867H347.16v.95h2.552v1.078h.691a.942.942,0,0,0,.926-.945Z" transform="translate(-247.007 -29.244)" fill="#404040"/>
      <path id="패스_9161" data-name="패스 9161" d="M337.823,33.454a3.014,3.014,0,0,0,3.84,0,2.24,2.24,0,0,0,0-3.429,3,3,0,0,0-3.84,0,2.2,2.2,0,0,0-.793,1.719A2.175,2.175,0,0,0,337.823,33.454Zm1.068-2.7a1.042,1.042,0,0,1,.852-.4,1.017,1.017,0,0,1,.842.4,1.55,1.55,0,0,1,.323.989,1.513,1.513,0,0,1-.323.98,1.033,1.033,0,0,1-.842.4,1.059,1.059,0,0,1-.852-.4,1.493,1.493,0,0,1-.333-.98A1.529,1.529,0,0,1,338.891,30.755Z" transform="translate(-241.838 -29.188)" fill="#404040"/>
      <path id="패스_9162" data-name="패스 9162" d="M172.506,48.146a.477.477,0,0,1-.509-.475V45.32H170.39V47.6a1.615,1.615,0,0,0,.514,1.264,2.139,2.139,0,0,0,1.391.367h5.8V48.146h-5.589Z" transform="translate(-156.818 -37.346)" fill="#404040"/>
      <path id="패스_9163" data-name="패스 9163" d="M194.891,33.527a4.262,4.262,0,0,0,1.21,1.293,5.692,5.692,0,0,0,2.087.852l.509-.906a4.285,4.285,0,0,1-2.1-1.269,3.916,3.916,0,0,1-.891-2.6V29.8h-1.631v1.1a3.952,3.952,0,0,1-.891,2.6,4.359,4.359,0,0,1-2.1,1.269l.5.906a5.478,5.478,0,0,0,2.082-.852A4.282,4.282,0,0,0,194.891,33.527Z" transform="translate(-167.379 -29.428)" fill="#404040"/>
      <path id="패스_9164" data-name="패스 9164" d="M209.751,29.44H208.13v8.635h.759a.936.936,0,0,0,.862-.936V33h1.9V31.913h-1.9V29.445Z" transform="translate(-176.073 -29.244)" fill="#404040"/>
      <path id="패스_9165" data-name="패스 9165" d="M198.066,48.146a.477.477,0,0,1-.509-.475V45.32H195.95V47.6a1.615,1.615,0,0,0,.514,1.264,2.139,2.139,0,0,0,1.391.367h5.8V48.146h-5.589Z" transform="translate(-169.859 -37.346)" fill="#404040"/>
      <path id="패스_9166" data-name="패스 9166" d="M315.751,33.527a4.262,4.262,0,0,0,1.21,1.293,5.693,5.693,0,0,0,2.087.852l.509-.906a4.285,4.285,0,0,1-2.1-1.269,3.917,3.917,0,0,1-.891-2.6V29.8h-1.631v1.1a3.952,3.952,0,0,1-.891,2.6,4.359,4.359,0,0,1-2.1,1.269l.5.906a5.477,5.477,0,0,0,2.082-.852,4.282,4.282,0,0,0,1.215-1.293Z" transform="translate(-229.042 -29.428)" fill="#404040"/>
      <path id="패스_9167" data-name="패스 9167" d="M330.611,29.44H328.99v8.635h.759a.936.936,0,0,0,.862-.936V29.445Z" transform="translate(-237.736 -29.244)" fill="#404040"/>
      <path id="패스_9168" data-name="패스 9168" d="M318.926,48.146a.477.477,0,0,1-.509-.475V45.32H316.81V47.6a1.615,1.615,0,0,0,.514,1.264,2.139,2.139,0,0,0,1.391.367h5.8V48.146h-5.589Z" transform="translate(-231.522 -37.346)" fill="#404040"/>
      <path id="패스_9169" data-name="패스 9169" d="M303.992,29.5v2.909H302.43v1.048h1.562v.509H302.43V35.02h1.562v1.234h1.621V29.5Z" transform="translate(-224.185 -29.275)" fill="#404040"/>
      <path id="패스_9170" data-name="패스 9170" d="M223.6,32.828h0a2.541,2.541,0,0,0-.872-1.954,3.013,3.013,0,0,0-4.075,0,2.56,2.56,0,0,0-.857,1.954h0a2.533,2.533,0,0,0,.872,1.954,3.013,3.013,0,0,0,4.075,0,2.56,2.56,0,0,0,.857-1.954Zm-1.949,1.185a1.129,1.129,0,0,1-1.881,0,1.922,1.922,0,0,1-.382-1.19,1.959,1.959,0,0,1,.367-1.185,1.129,1.129,0,0,1,1.881,0,1.922,1.922,0,0,1,.382,1.19A1.959,1.959,0,0,1,221.655,34.013Z" transform="translate(-181.007 -29.571)" fill="#404040"/>
    </g>
  </g>
</svg>
