<svg id="b" xmlns="http://www.w3.org/2000/svg" width="148.51" height="30" viewBox="0 0 148.51 30">
  <g id="c">
    <g id="그룹_2127" data-name="그룹 2127">
      <g id="그룹_2116" data-name="그룹 2116" transform="translate(69.549 0.4)">
        <g id="그룹_2114" data-name="그룹 2114" transform="translate(1.129)">
          <path id="패스_9171" data-name="패스 9171" d="M264.319,1.71c2.185,0,3.494,1.252,3.494,3.322a3.16,3.16,0,0,1-3.494,3.343H262.97V1.71Zm-.013,5.483h.075a1.909,1.909,0,0,0,2.035-2.161,1.883,1.883,0,0,0-2.035-2.139h-.075Z" transform="translate(-262.97 -1.651)" fill="#e11837"/>
          <path id="패스_9172" data-name="패스 9172" d="M285.48,7.05a2.563,2.563,0,0,1,2.7,2.658,2.693,2.693,0,0,1-5.386.019A2.616,2.616,0,0,1,285.48,7.05Zm.008,4.163a1.385,1.385,0,0,0,1.4-1.494,1.406,1.406,0,1,0-2.806,0,1.4,1.4,0,0,0,1.406,1.494Z" transform="translate(-277.463 -5.556)" fill="#e11837"/>
          <path id="패스_9173" data-name="패스 9173" d="M308.338,9.125c0-.505-.223-.82-.7-.82s-.71.331-.71.82v3.244H305.64V7.214h1.293V7.6a1.348,1.348,0,0,1,1.089-.441c1.2,0,1.607.82,1.607,1.811v3.4h-1.29Z" transform="translate(-294.172 -5.636)" fill="#e11837"/>
          <path id="패스_9174" data-name="패스 9174" d="M327.215,7.123h1.169v4.628c0,1.871-1.113,2.543-2.655,2.543a3.866,3.866,0,0,1-1.852-.449l.4-.992a3.036,3.036,0,0,0,1.457.368c.782,0,1.4-.317,1.414-1.043v-.384a1.766,1.766,0,0,1-1.376.562A2.5,2.5,0,0,1,323.2,9.682a2.539,2.539,0,0,1,2.529-2.642,2.032,2.032,0,0,1,1.486.551V7.123Zm-1.395,4.128a1.375,1.375,0,0,0,1.368-1.459,1.532,1.532,0,0,0-1.371-1.645,1.418,1.418,0,0,0-1.371,1.527A1.454,1.454,0,0,0,325.82,11.252Z" transform="translate(-307.012 -5.548)" fill="#e11837"/>
          <path id="패스_9175" data-name="패스 9175" d="M347.569,9.039c.231.067.443.1.7.18a1.454,1.454,0,0,1,1.236,1.588,1.669,1.669,0,0,1-1.879,1.6c-1.427,0-1.865-.839-1.841-1.739h1.234c0,.368.124.7.626.7.336,0,.607-.167.607-.462s-.156-.435-.511-.529a7.778,7.778,0,0,1-.779-.231,1.469,1.469,0,0,1-1.072-1.524,1.591,1.591,0,0,1,1.763-1.5A1.537,1.537,0,0,1,349.4,8.749h-1.185c-.008-.392-.194-.626-.589-.626a.453.453,0,0,0-.513.433c0,.258.148.4.451.484Z" transform="translate(-323.528 -5.607)" fill="#e11837"/>
          <path id="패스_9176" data-name="패스 9176" d="M363.407,10.13a1.176,1.176,0,0,0,1.285,1.1,1.466,1.466,0,0,0,1.3-.771l.951.575a2.37,2.37,0,0,1-2.252,1.338,2.483,2.483,0,0,1-2.642-2.647,2.514,2.514,0,0,1,2.534-2.677A2.4,2.4,0,0,1,367.108,9.6a5.155,5.155,0,0,1-.022.527h-3.679Zm.032-.97h2.33a1.115,1.115,0,0,0-1.193-1.019A1.092,1.092,0,0,0,363.44,9.16Z" transform="translate(-335.42 -5.556)" fill="#e11837"/>
          <path id="패스_9177" data-name="패스 9177" d="M385.528,7.05a2.563,2.563,0,0,1,2.7,2.658,2.693,2.693,0,0,1-5.386.019A2.615,2.615,0,0,1,385.528,7.05Zm.011,4.163a1.386,1.386,0,0,0,1.4-1.494,1.406,1.406,0,1,0-2.806,0A1.4,1.4,0,0,0,385.538,11.213Z" transform="translate(-350.623 -5.556)" fill="#e11837"/>
          <g id="그룹_2113" data-name="그룹 2113" transform="translate(40.372)">
            <path id="패스_9178" data-name="패스 9178" d="M413.18,5.983V1.75h.567V5.975c0,1.234.559,2.04,1.838,2.04a1.806,1.806,0,0,0,1.838-2.04V1.75h.559V5.986a2.336,2.336,0,0,1-2.395,2.551,2.253,2.253,0,0,1-2.408-2.551Z" transform="translate(-413.18 -1.68)" fill="#e11837"/>
            <path id="패스_9179" data-name="패스 9179" d="M436.806,9c0-.847-.355-1.349-1.113-1.349s-1.175.559-1.175,1.4v3.311h-.559V7.206h.559v.54a1.422,1.422,0,0,1,1.231-.6c1.156,0,1.621.8,1.621,1.8v3.4h-.562V9Z" transform="translate(-428.375 -5.629)" fill="#e11837"/>
            <path id="패스_9180" data-name="패스 9180" d="M450.05,1.942a.453.453,0,1,1,.452.454A.446.446,0,0,1,450.05,1.942Zm.728,6.276h-.556V3.068h.556Z" transform="translate(-440.141 -1.49)" fill="#e11837"/>
            <path id="패스_9181" data-name="패스 9181" d="M457.408,11.764l1.685-4.394h.589L457.7,12.52h-.6l-2.01-5.15h.615l1.712,4.394Z" transform="translate(-443.819 -5.79)" fill="#e11837"/>
            <path id="패스_9182" data-name="패스 9182" d="M473.718,9.867a1.933,1.933,0,0,0,2.01,2.005,1.98,1.98,0,0,0,1.916-1.279l.435.191a2.453,2.453,0,0,1-2.352,1.586,2.491,2.491,0,0,1-2.588-2.655,2.474,2.474,0,0,1,2.51-2.663,2.387,2.387,0,0,1,2.516,2.5c0,.067,0,.21-.011.312h-4.435Zm.019-.478h3.838a1.809,1.809,0,0,0-1.943-1.838A1.851,1.851,0,0,0,473.737,9.388Z" transform="translate(-457.025 -5.556)" fill="#e11837"/>
            <path id="패스_9183" data-name="패스 9183" d="M496.719,7.91h-.183c-.745,0-1.1.47-1.1,1.271v3.327h-.562V7.359h.562v.578a1.353,1.353,0,0,1,1.287-.578Z" transform="translate(-472.914 -5.782)" fill="#e11837"/>
            <path id="패스_9184" data-name="패스 9184" d="M504.859,9.246c.323.145.6.183.965.328a1.4,1.4,0,0,1,1,1.414,1.624,1.624,0,0,1-3.236-.188h.548c.021.629.28,1.145,1.086,1.153a.963.963,0,0,0,.349-1.884c-.331-.137-.677-.207-1-.357a1.279,1.279,0,0,1-.83-1.252,1.314,1.314,0,0,1,1.465-1.3,1.352,1.352,0,0,1,1.462,1.492h-.527c-.03-.637-.328-1.035-.943-1.035a.8.8,0,0,0-.906.812A.83.83,0,0,0,504.859,9.246Z" transform="translate(-479.291 -5.636)" fill="#e11837"/>
            <path id="패스_9185" data-name="패스 9185" d="M518.93,1.942a.446.446,0,0,1,.454-.452.453.453,0,0,1,0,.906A.45.45,0,0,1,518.93,1.942Zm.734,6.276H519.1V3.068h.559Z" transform="translate(-490.508 -1.49)" fill="#e11837"/>
            <path id="패스_9186" data-name="패스 9186" d="M525.9,4.691H527v.495h-1.1V8.551c0,.519.067.82.656.82h.433v.489c-.126.011-.328.019-.486.019-.943,0-1.158-.443-1.158-1.226V5.186h-.556V4.691h.556V3.71h.556Z" transform="translate(-494.793 -3.113)" fill="#e11837"/>
            <path id="패스_9187" data-name="패스 9187" d="M536.317,14.647l.839-2.145L535.14,7.35h.594L537.47,11.8l1.747-4.445h.6l-2.94,7.3h-.567Z" transform="translate(-502.361 -5.775)" fill="#e11837"/>
          </g>
        </g>
        <g id="그룹_2115" data-name="그룹 2115" transform="translate(0 11.597)">
          <path id="패스_9188" data-name="패스 9188" d="M294.082,45.26v2.29H292.4v.836h1.682v5.061h.946V45.263h-.946Zm-2.959,1.822V45.655h-.954v1.484a4.457,4.457,0,0,1-1.989,3.784l.489.535a4.622,4.622,0,0,0,1.989-2.317,5.1,5.1,0,0,0,1.924,2.2l.478-.559a4.4,4.4,0,0,1-1.935-3.7Z" transform="translate(-280.276 -45.093)" fill="#e11837"/>
          <path id="패스_9189" data-name="패스 9189" d="M325.8,45.26v2.865h-.817V45.26h-.895v4.951a4.057,4.057,0,0,1-.9.043h-1.97V46.717h1.992v-.812H320.27v5.16h2.884a2.155,2.155,0,0,0,.941-.137v2.357h.9V48.961h.817v4.483h.919V45.26h-.919Z" transform="translate(-303.741 -45.093)" fill="#e11837"/>
          <path id="패스_9190" data-name="패스 9190" d="M263.025,49.812v-.742h2.185v-.8h-4.346V47.154h4.271V46.34h-5.228v2.731h2.1v.742H258.77v.825h7.453v-.825h-3.2Zm-.524,1.1a1.9,1.9,0,1,0,0,3.763,1.894,1.894,0,1,0,0-3.763Zm0,2.965a1.087,1.087,0,1,1,1.137-1.083A1.079,1.079,0,0,1,262.5,53.882Z" transform="translate(-258.77 -45.883)" fill="#e11837"/>
          <path id="패스_9191" data-name="패스 9191" d="M350.081,50.9h4.244V52.94h.946V50.085h-5.19V50.9Zm5.19-4.029V44.807h-.946v4.781h.946V47.712h1.169v-.844Zm-2.067.624a1.691,1.691,0,0,0-.411-1.123h.822v-.836H351.74V44.64h-.968v.892H348.88v.836h.831a1.694,1.694,0,0,0-.419,1.123,1.964,1.964,0,0,0,3.913,0Zm-2.973-.03a1.007,1.007,0,0,1,1.019-1.037,1.029,1.029,0,1,1-1.019,1.037Z" transform="translate(-324.661 -44.64)" fill="#e11837"/>
          <path id="패스_9192" data-name="패스 9192" d="M382.631,52.711V50.1H381.7v2.612h-.992V50.1h-.935v2.612H378.21v.817h7.182v-.817h-2.766Zm.935-2.137a7.124,7.124,0,0,1-.118,1.39h.831a3.643,3.643,0,0,0,.231-1.43V47.08h-5.553v.814h4.609v2.677Z" transform="translate(-346.108 -46.424)" fill="#e11837"/>
        </g>
      </g>
      <g id="그룹_2126" data-name="그룹 2126">
        <g id="그룹_2119" data-name="그룹 2119" transform="translate(0 0.438)">
          <g id="그룹_2117" data-name="그룹 2117" transform="translate(5.082)">
            <path id="패스_9193" data-name="패스 9193" d="M31.061,5.019c-3.413-2.9-7.837-3.346-12.151-3.389V6.745c2.838,0,5.975.078,8.421,1.758a9.463,9.463,0,0,1,3.862,7.829,9.366,9.366,0,0,1-3.507,7.31c-2.524,1.879-5.736,2-8.775,2v5.115c4.451,0,8.644-.355,12.151-3.349a15.056,15.056,0,0,0,0-22.386Z" transform="translate(-18.91 -1.63)" fill="#e11837"/>
          </g>
          <g id="그룹_2118" data-name="그룹 2118">
            <rect id="사각형_7370" data-name="사각형 7370" width="5.082" height="29.126" fill="#e11837"/>
          </g>
        </g>
        <g id="그룹_2123" data-name="그룹 2123" transform="translate(24.321)">
          <g id="그룹_2120" data-name="그룹 2120" transform="translate(9.095 0)">
            <path id="패스_9194" data-name="패스 9194" d="M127.445,8.082l4.916-2.336A8.579,8.579,0,0,0,124.33,0V5.19A3.719,3.719,0,0,1,127.445,8.082Z" transform="translate(-124.33 0)" fill="#e11837"/>
          </g>
          <g id="그룹_2121" data-name="그룹 2121" transform="translate(0 21.399)">
            <path id="패스_9195" data-name="패스 9195" d="M95.244,79.623l-4.755,2.4a9.463,9.463,0,0,0,9.1,6.2V83.044c-2.311-.059-3.5-1.22-4.338-3.424Z" transform="translate(-90.49 -79.62)" fill="#e11837"/>
          </g>
          <g id="그룹_2122" data-name="그룹 2122" transform="translate(0.626)">
            <path id="패스_9196" data-name="패스 9196" d="M107.371,14.36c-1.021-.72-1.836-1.446-6.082-2.814-.47-.153-3.139-.93-3.139-3.335a2.843,2.843,0,0,1,3.139-3.021V0A8.289,8.289,0,0,0,92.82,8.208,8.071,8.071,0,0,0,97,15.137h0c.938.508,3.886,1.467,4.295,1.631,1.04.419,3.787,1.446,3.787,4.126a3.639,3.639,0,0,1-3.787,3.929v5.171a9.188,9.188,0,0,0,9.117-9.1c0-1.011-.156-4.507-3.034-6.536Z" transform="translate(-92.82)" fill="#e11837"/>
          </g>
        </g>
        <g id="그룹_2124" data-name="그룹 2124" transform="translate(55.936 0.441)">
          <path id="패스_9197" data-name="패스 9197" d="M215.726,27.463c1.868-2.258,2.1-4.943,2.1-7.781V1.64H212.5V19.68A7.818,7.818,0,0,1,211.719,24a4.374,4.374,0,0,1-3.6,2.021V31.2a10.267,10.267,0,0,0,7.609-3.736Z" transform="translate(-208.12 -1.64)" fill="#e11837"/>
        </g>
        <g id="그룹_2125" data-name="그룹 2125" transform="translate(46.217 0.438)">
          <path id="패스_9198" data-name="패스 9198" d="M174.062,27.451c-1.868-2.258-2.1-4.943-2.1-7.781V1.63h5.332V19.67a7.837,7.837,0,0,0,.777,4.319,4.382,4.382,0,0,0,3.6,2.021v5.176a10.263,10.263,0,0,1-7.609-3.736Z" transform="translate(-171.96 -1.63)" fill="#e11837"/>
        </g>
      </g>
    </g>
  </g>
</svg>
