<?xml version="1.0" encoding="UTF-8"?><svg xmlns="http://www.w3.org/2000/svg" xmlns:xlink="http://www.w3.org/1999/xlink" viewBox="0 0 338.07 125.57"><defs><style>.e{fill:none;}.f{fill:#f7ae67;}.g{fill:#f6b8bb;}.h{fill:#fce1d9;}.i{fill:#e9455b;}.j{fill:#fff;}.k{fill:#f39200;}.l{fill:#bde2e8;}.m{fill:#e1b09d;}.n{fill:#c8aeaa;}.o{fill:#131309;}.p{fill:#403b3a;}.q{fill:#1d1d1b;}.r{fill:#373331;}.s{fill:#6e5c61;}.t{fill:#554849;}.u{fill:#5b494d;}.v{fill:#2c211a;}.w{fill:#2d2e83;}.x{fill:#757274;}.y{clip-path:url(#d);}</style><clipPath id="d"><polygon class="e" points="324.04 108.06 323.69 109.02 323.28 110.05 322.9 110.97 322.56 111.71 322.25 112.34 322.1 112.64 321.96 112.89 321.87 113.05 321.84 113.09 321.82 113.14 321.79 113.19 321.75 113.25 321.72 113.3 321.69 113.35 321.67 113.38 321.64 113.42 321.62 113.45 321.6 113.49 321.58 113.52 321.56 113.55 321.55 113.57 321.53 113.6 321.49 113.65 321.48 113.67 321.46 113.7 321.45 113.72 321.44 113.73 321.42 113.76 321.41 113.78 321.41 113.8 321.4 113.82 321.39 113.84 321.39 113.87 321.39 113.89 321.38 113.91 321.38 113.93 321.38 113.96 321.39 113.98 321.39 114 321.39 114.02 321.4 114.05 321.41 114.08 321.42 114.11 321.43 114.13 321.44 114.16 321.46 114.18 321.48 114.2 321.5 114.23 321.51 114.25 321.55 114.31 321.56 114.33 321.59 114.37 321.61 114.41 321.62 114.43 321.64 114.47 321.66 114.51 321.69 114.56 321.71 114.6 321.73 114.64 321.75 114.68 321.76 114.7 321.62 114.72 320.94 114.89 319.4 114.72 318.04 113.87 317.19 113.18 316.5 110.46 317.02 109.26 317.7 107.9 319.92 106.87 321.11 106.7 321.96 106.87 323.33 107.38 324.04 108.06"/></clipPath></defs><g id="a"/><g id="b"><g id="c"><g><g><g><path class="w" d="M106.57,54.11c1.45,2.51,3.74,5.05,6.87,7.61,2.85,2.32,5.33,3.89,7.43,4.69,.7,.28,1.43,.43,2.18,.43,1.18,0,2.19-.34,3.03-1.03,.83-.69,1.25-1.5,1.25-2.45,0-1.09-.62-2.04-1.86-2.84-4.09-2.8-7.41-6.3-9.94-10.52-2.64-4.55-3.96-9.22-3.96-14.01h0v-9.19c0-1.47-.53-2.62-1.6-3.45-1.07-.83-2.35-1.24-3.85-1.24s-2.7,.41-3.77,1.24c-1.07,.83-1.6,1.98-1.6,3.45v9.19h0c0,10.9-4.66,19.36-13.98,25.38-1.29,.81-1.94,1.8-1.94,2.99,0,1,.4,1.85,1.21,2.56,.81,.71,1.8,1.07,2.99,1.07,.59,0,1.21-.12,1.86-.36,2.8-1.09,5.79-2.97,8.97-5.65,3.18-2.68,5.41-5.3,6.71-7.86Z"/><path class="w" d="M137.12,66.96c1.08,.83,2.37,1.24,3.88,1.24s2.72-.41,3.8-1.24c1.08-.83,1.62-1.98,1.62-3.45v-18.84h4.12c1.4,0,2.52-.4,3.35-1.19,.83-.79,1.25-1.71,1.25-2.76s-.4-1.95-1.21-2.69c-.81-.74-1.94-1.11-3.39-1.11h-4.12v-.91h0v-9.19c0-1.47-.54-2.62-1.62-3.45-1.08-.83-2.37-1.24-3.88-1.24s-2.72,.41-3.8,1.24c-1.08,.83-1.62,1.98-1.62,3.45v8.15h0v28.53c0,1.47,.54,2.62,1.62,3.45Z"/><path class="w" d="M175.87,35.92c0,.05,0,.1,0,.15h0v-.15Z"/><path class="w" d="M186.7,36.08h0v0Z"/><path class="w" d="M260.75,35.08c1.67,2.36,2.5,5.73,2.5,10.12s-.83,7.68-2.5,10.03c-1.67,2.36-3.83,3.54-6.49,3.54s-4.75-1.18-6.41-3.54c-1.67-2.36-2.5-5.7-2.5-10.03,0-4.01,.7-7.16,2.1-9.48l-8.76-5.04c-2.36,3.84-3.56,8.67-3.56,14.52,0,7.02,1.73,12.6,5.18,16.74,3.45,4.14,8.13,6.21,14.02,6.21s10.49-2.07,13.95-6.21c3.45-4.14,5.18-9.72,5.18-16.74s-1.73-12.68-5.18-16.82c-.06-.07-.11-.13-.17-.19l-7.77,6.38c.14,.17,.27,.33,.4,.51Z"/><path class="w" d="M297.44,46.76h-5.32v-4.77h5.32c1.33,0,2.4-.38,3.2-1.13,.8-.75,1.19-1.63,1.19-2.63s-.38-1.86-1.16-2.57c-.77-.71-1.85-1.06-3.23-1.06h-5.32v-2.66h.02v-4.96c0-1.47-.55-2.62-1.64-3.45-1.09-.83-2.41-1.24-3.94-1.24s-2.76,.41-3.86,1.24c-1.09,.83-1.64,1.98-1.64,3.45v4.96h0v31.41c0,1.47,.59,2.65,1.78,3.55,1.02,.76,2.29,1.14,3.8,1.14s2.8-.4,3.88-1.21c1.08-.81,1.62-1.97,1.62-3.48v-9.19h5.32c1.33,0,2.4-.38,3.2-1.13,.8-.75,1.19-1.63,1.19-2.63s-.38-1.86-1.16-2.57c-.77-.71-1.85-1.06-3.23-1.06Z"/><path class="w" d="M269.44,89.06H114.91c-1.89,0-2.83-.83-2.83-2.49v-4.89h0v-1.42c0-1.47-.54-2.62-1.62-3.45-1.08-.83-2.37-1.24-3.88-1.24s-2.72,.41-3.8,1.24c-1.08,.83-1.62,1.98-1.62,3.45v9.19h0v-.53c0,2.99,.66,5.04,1.98,6.15,1.32,1.11,3.62,1.67,6.91,1.67h159.38c1.4,0,2.52-.39,3.35-1.17,.83-.78,1.25-1.69,1.25-2.74s-.4-1.93-1.21-2.67c-.81-.74-1.94-1.1-3.39-1.1Z"/><path class="k" d="M284.05,5.01c-1.34-1.63-3.75-1.87-5.39-.53l-16.94,13.91-8.29,6.81-9.32-5.37-6.76-3.89c-1.83-1.05-4.17-.42-5.23,1.41-1.05,1.83-.42,4.17,1.41,5.23l5.15,2.97,8.76,5.04,4.46,2.57c.59,.34,1.25,.51,1.91,.51,.87,0,1.73-.29,2.43-.87l4.1-3.36,7.77-6.38,15.41-12.66c1.63-1.34,1.87-3.75,.53-5.39Z"/><path class="w" d="M204.25,63.4c0,1.52,.48,2.69,1.45,3.52,.97,.83,2.13,1.24,3.47,1.24s2.42-.42,3.39-1.24c.97-.83,1.45-2,1.45-3.52v-15.16h6.06v15.16c0,1.52,.48,2.69,1.45,3.52,.97,.83,2.1,1.24,3.39,1.24s2.52-.43,3.52-1.28c1-.85,1.49-2.01,1.49-3.48v-27.39h0v-9.15c0-1.46-.49-2.61-1.46-3.44-.97-.83-2.14-1.24-3.51-1.24s-2.46,.41-3.44,1.24c-.97,.83-1.46,1.97-1.46,3.44v9.15h0v4.63h-6.06v-11.44h-.02v-2.35c0-1.46-.48-2.61-1.45-3.44-.96-.83-2.12-1.24-3.47-1.24s-2.43,.41-3.4,1.24c-.96,.83-1.45,1.97-1.45,3.44v9.15h0v27.39Z"/><path class="w" d="M161.89,61.26c-1.09,.8-1.64,1.8-1.64,2.98,0,.99,.34,1.84,1.02,2.55,.68,.71,1.52,1.06,2.52,1.06,.5,0,1.02-.12,1.57-.35,2.36-1.09,4.88-2.97,7.56-5.64,2.68-2.67,4.57-5.28,5.66-7.84,1.23,2.51,3.16,5.03,5.79,7.59,2.41,2.32,4.5,3.88,6.27,4.68,.59,.28,1.2,.43,1.84,.43,1,0,1.85-.34,2.56-1.03,.7-.69,1.06-1.5,1.06-2.45,0-1.09-.52-2.03-1.57-2.84-3.45-2.79-6.25-6.29-8.38-10.5-2.22-4.53-3.33-9.17-3.34-13.93v.11h0v-6.11h9.64v-.02c1.1-.04,1.99-.42,2.66-1.17,.7-.79,1.06-1.71,1.06-2.76s-.34-1.95-1.02-2.69c-.65-.71-1.55-1.07-2.7-1.1h-28.31c-1.18-.01-2.12,.38-2.83,1.17-.7,.79-1.06,1.71-1.06,2.76s.34,1.95,1.02,2.69c.68,.74,1.64,1.11,2.86,1.11h9.53v6.12h0c0-.05,0-.1,0-.15v.15h0c-.04,10.8-3.96,19.19-11.79,25.17Z"/></g><g><g><path class="v" d="M336.09,93.3c-1.13-.96-2.56-1.43-4.02-1.32-1.47,.11-2.79,.78-3.74,1.89-.26,.31-.49,.64-.67,1-1.14-1.48-2.29-2.72-3.13-3.58,3.75-2.7,5.89-6.53,5.89-10.54,0-1.19-.19-2.38-.56-3.53,1.22-.32,1.69-.67,1.69-1.25,.02-1.47-2.43-3.7-3.55-4.63-.66-1.78-5.66-14.76-11.46-16.58h-.03c-.14-.04-.52-.09-1,.23-1.28,.85-2.29,3.73-3.03,8.54-.73-4.81-1.75-7.69-3.02-8.58-.47-.33-.85-.29-1-.26h-.04c-5.79,1.83-10.79,14.81-11.45,16.59-1.12,.94-3.57,3.17-3.55,4.64,0,.58,.47,.93,1.68,1.26-.38,1.17-.58,2.37-.58,3.58,0,4.2,2.31,8.15,6.35,10.86-1.97,1.78-5.22,5.08-6.62,8.62l-.03,.09,.22,.68,.08,.05c.08,.05,.82,.51,2.01,1.06-.39,1.3-.52,2.4-.37,3.26,.15,.86,.56,1.52,1.21,1.96,.21,.18,1.13,.93,2.15,1,.04,.02,.09,.04,.16,.06,.43,1.21,1.42,3.88,2.49,5.59-.29,.53-.72,1.59-.16,2.54,.57,.98,1.91,1.45,4.09,1.45,.88,0,1.92-.08,3.08-.23,.91-.09,2.71-.88,3.01-3.2,0-.03,0-.06,0-.09v-2.46h.34v2.42s0,.06,0,.09c.3,2.33,2.09,3.11,2.99,3.2,4.11,.55,6.39,.16,7.19-1.21,.55-.95,.12-2.01-.16-2.54,1.04-1.66,2.02-4.26,2.44-5.46,.24-.05,.43-.11,.55-.16,1.03-.07,1.95-.82,2.16-1,.66-.44,1.07-1.1,1.22-1.97,.07-.42,.08-.91,.02-1.45l1.28-1.51c.74,.35,1.56,.54,2.38,.54,.13,0,.27,0,.41-.01,1.47-.11,2.79-.78,3.74-1.89,1.94-2.29,1.63-5.77-.7-7.74Z"/><g><path class="j" d="M321.64,91.12s9.85,12.99,5.7,15.68c0,0-.95,.87-1.9,.87,0,0-1.02,.48-1.81,0s-3.29-13.18-3.29-13.18c0,0-1.31-4.52,1.31-3.37Z"/><path class="r" d="M324.44,108.29c-.33,0-.7-.07-1.04-.27-.24-.15-.65-.39-2.13-7.03-.69-3.08-1.29-6.14-1.34-6.4-.15-.53-.78-2.95,.18-3.79,.4-.35,.97-.37,1.69-.05,.06,.03,.12,.07,.16,.13,.31,.41,7.52,9.99,6.74,14.46-.14,.8-.52,1.4-1.12,1.81-.17,.15-1.08,.9-2.06,.95-.18,.07-.59,.21-1.08,.21Zm-.58-.96c.59,.33,1.39-.03,1.4-.04,.05-.03,.11-.04,.17-.04,.64,0,1.39-.55,1.62-.76,.02-.01,.03-.03,.05-.04,.43-.28,.68-.69,.79-1.27,.68-3.91-5.79-12.75-6.52-13.73-.23-.09-.56-.18-.72-.04-.42,.37-.21,1.98,.07,2.96v.03c.98,4.96,2.59,12.2,3.14,12.93Z"/></g><g><path class="j" d="M303.47,91.12s-9.8,12.99-5.67,15.68c0,0,.94,.87,1.89,.87,0,0,1.01,.48,1.8,0s3.27-13.18,3.27-13.18c0,0,1.3-4.52-1.3-3.37Z"/><path class="r" d="M300.68,108.29c-.48,0-.9-.14-1.08-.21-.98-.04-1.88-.8-2.05-.95-.6-.4-.98-1.01-1.12-1.8-.78-4.47,6.4-14.05,6.71-14.46,.04-.06,.1-.1,.16-.13,.71-.32,1.28-.3,1.68,.05,.96,.83,.34,3.26,.19,3.79-.05,.26-.65,3.32-1.34,6.4-1.48,6.64-1.88,6.89-2.12,7.03-.34,.21-.7,.27-1.03,.27Zm3.06-16.84c-.73,.98-7.17,9.83-6.49,13.73,.1,.58,.36,1,.78,1.27,.02,.01,.04,.03,.05,.04,.23,.21,.97,.76,1.61,.76,.06,0,.12,.01,.18,.04,0,0,.8,.36,1.38,.04,.52-.68,1.98-7.14,3.11-12.93v-.03c.29-.97,.5-2.59,.08-2.96-.16-.14-.48-.05-.71,.04Z"/></g><g><g><path class="j" d="M324.63,107.52c.31-1.27,1.76-8.12-3.06-15.39,0,0-8.54,5.09-19.1-.11,0,0-3.58,6.86-2.71,13.62h0c.09,.66,.21,1.32,.39,1.97,0,0,1.42,4.31,2.84,6.35,0,0-3.3,4.36,6.15,3.1,0,0,2.1-.21,2.42-2.63v-3.12l1.68-.02v3.1c.32,2.42,2.42,2.63,2.42,2.63,9.45,1.26,6.15-3.1,6.15-3.1,1.42-2.05,2.84-6.35,2.84-6.35v-.06Z"/><path class="r" d="M306.12,117.71c-2.08,0-3.35-.44-3.87-1.32-.53-.91-.04-1.95,.24-2.42-1.38-2.14-2.68-6.05-2.74-6.23v-.02c-.18-.64-.32-1.32-.41-2.02-.88-6.81,2.6-13.58,2.75-13.87,.1-.2,.35-.28,.55-.18,5.34,2.63,10.13,2.52,13.22,1.97,3.35-.6,5.47-1.84,5.49-1.85,.19-.11,.43-.06,.55,.13,4.67,7.05,3.62,13.65,3.14,15.64,0,.06,0,.12-.02,.17-.06,.17-1.36,4.09-2.74,6.23,.28,.47,.77,1.51,.24,2.42-.73,1.26-3,1.61-6.94,1.09-.83-.08-2.49-.81-2.77-2.98,0-.02,0-.04,0-.05v-2.68h-.86v2.72s0,.04,0,.05c-.28,2.17-1.94,2.9-2.78,2.98-1.16,.16-2.18,.23-3.06,.23Zm-5.58-10.21c.08,.23,1.45,4.31,2.79,6.24,.1,.15,.1,.34-.01,.48,0,0-.77,1.04-.35,1.76,.3,.52,1.5,1.3,6.12,.68,.08,0,1.78-.22,2.06-2.24v-3.09c0-.23,.18-.41,.41-.41l1.68-.02c.11,0,.22,.04,.29,.12,.08,.08,.12,.18,.12,.29v3.07c.28,2.02,1.97,2.23,2.05,2.24,4.62,.62,5.82-.16,6.13-.68,.42-.71-.34-1.75-.35-1.76-.11-.14-.11-.34,0-.48,1.26-1.81,2.54-5.52,2.76-6.16,0-.04,0-.08,.01-.12,.31-1.26,1.62-7.81-2.8-14.75-.75,.39-2.66,1.27-5.38,1.76-3.14,.57-7.98,.69-13.39-1.86-.7,1.49-3.22,7.33-2.49,13.02,.09,.66,.21,1.3,.37,1.9Z"/></g><path class="r" d="M302.58,116.28c0-.09,0-.56,.76-1.22,.11-.1,.29-.09,.39,.03,.1,.11,.09,.29-.03,.39-.55,.48-.57,.78-.57,.78,0-.01,0-.02,0-.02l-.55,.04Z"/><path class="r" d="M304.13,117.21s-.03,0-.04,0c-.15-.02-.25-.16-.23-.31,0-.03,.11-.69,.88-1.35,.11-.1,.29-.09,.39,.03,.1,.11,.09,.29-.03,.39-.6,.52-.69,1-.69,1.02-.02,.13-.14,.23-.27,.23Z"/><path class="r" d="M321.72,116.73c-.13,0-.25-.1-.27-.23,0-.03-.1-.51-.69-1.02-.11-.1-.13-.27-.03-.39,.1-.11,.27-.13,.39-.03,.76,.66,.87,1.32,.88,1.35,.02,.15-.08,.29-.23,.31-.01,0-.03,0-.04,0Z"/><path class="r" d="M320.33,117.21c-.13,0-.25-.1-.27-.23,0-.02-.1-.5-.69-1.02-.11-.1-.13-.27-.03-.39,.1-.11,.27-.13,.39-.03,.76,.66,.87,1.32,.88,1.35,.02,.15-.08,.29-.23,.31-.01,0-.03,0-.04,0Z"/></g><g><path class="m" d="M302.73,90.92s-5.88,4.62-7.83,9.56c0,0,7.31,4.62,14.45,2.42l2.82-9.48s-5.9-1.03-9.44-2.49Z"/><path class="r" d="M305.22,103.91c-5.59,0-10.3-2.93-10.54-3.08l-.16-.5c1.97-4.98,7.72-9.54,7.96-9.73l.41-.06c3.45,1.43,9.29,2.45,9.35,2.47l.32,.52-2.82,9.48-.27,.28c-1.43,.44-2.87,.62-4.25,.62Zm-9.81-3.6c1.41,.8,7.59,4,13.6,2.26l2.63-8.83c-1.43-.27-5.84-1.15-8.84-2.34-.98,.8-5.58,4.74-7.39,8.91Z"/></g><g><path class="f" d="M312.19,96.01l-6.36,3.96s-3.8-3.08-2.29-8.21l8.23,.27,.42,3.98Z"/><path class="r" d="M306.04,100.32l-.48-.03s-3.99-3.31-2.43-8.65l.41-.3,8.23,.27,.4,.37,.42,3.98-.19,.39-6.36,3.96Zm-2.2-8.14c-1.02,3.98,1.28,6.57,2.02,7.28l5.88-3.66-.36-3.37-7.54-.25Z"/></g><g><path class="m" d="M323,90.71s5.29,4.83,7.25,9.77c0,0-7.31,4.62-14.45,2.42l-2.82-9.48s6.49-1.24,10.02-2.7Z"/><path class="r" d="M319.92,103.91c-1.38,0-2.81-.18-4.25-.62l-.27-.28-2.82-9.48,.32-.52c.06-.01,6.49-1.25,9.94-2.68l.43,.08c.22,.2,5.39,4.95,7.35,9.92l-.16,.5c-.24,.15-4.96,3.08-10.54,3.08Zm-3.79-1.35c6.01,1.74,12.19-1.46,13.6-2.26-1.77-4.16-5.89-8.23-6.82-9.11-3.06,1.21-7.91,2.24-9.41,2.54l2.63,8.83Z"/></g><g><path class="f" d="M312.96,96.01l6.36,3.96s3.8-3.08,2.29-8.21l-8.23,.27-.42,3.98Z"/><path class="r" d="M319.1,100.32l-6.36-3.96-.19-.39,.42-3.98,.4-.37,8.23-.27,.41,.3c1.57,5.34-2.39,8.62-2.43,8.65l-.48,.03Zm-5.71-4.52l5.88,3.66c.74-.71,3.04-3.29,2.02-7.28l-7.54,.25-.36,3.37Z"/></g><g><g><ellipse class="t" cx="332.57" cy="97.46" rx="4.92" ry="5.01" transform="translate(43.16 288.09) rotate(-49.71)"/><path class="r" d="M332.65,102.69c-1.26,0-2.47-.44-3.44-1.27-1.08-.91-1.74-2.18-1.87-3.58-.13-1.4,.3-2.75,1.19-3.81s2.16-1.7,3.56-1.8c1.4-.1,2.76,.34,3.83,1.26,2.22,1.89,2.53,5.2,.67,7.38h0c-.9,1.06-2.16,1.7-3.56,1.8-.13,0-.26,.01-.39,.01Zm-.17-9.92c-.12,0-.23,0-.35,.01-1.25,.09-2.38,.66-3.18,1.61-.8,.95-1.18,2.15-1.07,3.4,.11,1.25,.71,2.39,1.68,3.21,.97,.82,2.19,1.22,3.44,1.13,1.25-.09,2.38-.66,3.18-1.61,1.66-1.95,1.38-4.92-.61-6.61-.88-.74-1.96-1.14-3.09-1.14Zm3.91,7.93h0Z"/></g><g><ellipse class="l" cx="332.57" cy="97.46" rx="3.94" ry="4.01" transform="translate(43.16 288.09) rotate(-49.71)"/><path class="r" d="M332.63,101.7c-1.02,0-2-.36-2.79-1.03-1.8-1.53-2.05-4.21-.55-5.98,1.5-1.77,4.19-1.97,5.99-.44,.87,.74,1.41,1.77,1.51,2.9,.1,1.13-.24,2.23-.97,3.09-.73,.86-1.75,1.38-2.89,1.46-.11,0-.21,.01-.32,.01Zm-.14-7.93c-1.04,0-2.06,.43-2.78,1.28-1.31,1.54-1.09,3.88,.48,5.21,.76,.65,1.72,.96,2.71,.89,.98-.07,1.87-.52,2.51-1.27h0c.63-.75,.93-1.7,.84-2.68-.09-.99-.56-1.88-1.32-2.53-.71-.6-1.58-.9-2.44-.9Z"/></g><g><rect class="t" x="327.24" y="100.76" width="1.58" height="4.52" transform="translate(144.45 -187.69) rotate(40.29)"/><path class="r" d="M327.16,105.52c-.06,0-.13-.02-.18-.07l-1.2-1.02c-.06-.05-.09-.11-.1-.19,0-.07,.02-.14,.06-.2l2.92-3.44c.1-.12,.27-.13,.39-.03l1.2,1.02c.06,.05,.09,.11,.1,.19,0,.07-.02,.14-.06,.2l-2.92,3.44c-.05,.06-.13,.1-.21,.1Zm-.81-1.32l.78,.66,2.56-3.03-.78-.66-2.56,3.03Z"/></g><g><rect class="p" x="326.32" y="103.26" width="1.58" height="1.68" transform="translate(144.93 -186.84) rotate(40.29)"/><path class="r" d="M327.16,105.52c-.06,0-.13-.02-.18-.07l-1.2-1.02c-.06-.05-.09-.11-.1-.19,0-.07,.02-.14,.06-.2l1.09-1.28c.1-.12,.27-.13,.39-.03l1.2,1.02c.06,.05,.09,.11,.1,.19,0,.07-.02,.14-.06,.2l-1.09,1.28c-.05,.06-.13,.1-.21,.1Zm-.81-1.32l.78,.66,.73-.86-.78-.66-.73,.86Z"/></g></g><g><ellipse class="t" cx="312.42" cy="93.13" rx="5.01" ry="4.52"/><path class="r" d="M312.42,97.92c-2.92,0-5.29-2.15-5.29-4.79s2.37-4.79,5.29-4.79,5.29,2.15,5.29,4.79-2.37,4.79-5.29,4.79Zm0-9.03c-2.61,0-4.74,1.9-4.74,4.24s2.13,4.24,4.74,4.24,4.74-1.9,4.74-4.24-2.13-4.24-4.74-4.24Z"/></g><g><ellipse class="l" cx="312.42" cy="93.13" rx="4.01" ry="3.61"/><path class="r" d="M312.42,97.02c-2.36,0-4.29-1.74-4.29-3.89s1.92-3.89,4.29-3.89,4.29,1.74,4.29,3.89-1.92,3.89-4.29,3.89Zm0-7.22c-2.06,0-3.74,1.5-3.74,3.34s1.68,3.34,3.74,3.34,3.74-1.5,3.74-3.34-1.68-3.34-3.74-3.34Z"/></g><g><ellipse class="j" cx="312.49" cy="80.75" rx="17.27" ry="13.57"/><path class="r" d="M312.49,94.73c-9.75,0-17.68-6.27-17.68-13.98s7.93-13.98,17.68-13.98,17.68,6.27,17.68,13.98-7.93,13.98-17.68,13.98Zm0-27.14c-9.3,0-16.86,5.9-16.86,13.16s7.56,13.16,16.86,13.16,16.86-5.9,16.86-13.16-7.56-13.16-16.86-13.16Z"/></g><g><rect class="t" x="311.76" y="97.65" width="1.58" height="4.52"/><path class="r" d="M313.34,102.43h-1.58c-.15,0-.27-.12-.27-.27v-4.52c0-.15,.12-.27,.27-.27h1.58c.15,0,.27,.12,.27,.27v4.52c0,.15-.12,.27-.27,.27Zm-1.3-.55h1.03v-3.97h-1.03v3.97Z"/></g><ellipse class="f" cx="306.3" cy="79.74" rx="5.41" ry="4.83"/><g><path class="m" d="M313.02,64.63c1.33-9.77,3.34-9.24,3.34-9.24,5.83,1.83,11.08,16.34,11.08,16.34,0,0,3.46,2.86,3.45,4.23-.02,1.37-18.61,2.47-18.61,2.47,0,0-18.16-1.16-18.18-2.53-.02-1.37,3.45-4.23,3.45-4.23,0,0,5.26-14.51,11.08-16.34,0,0,2.03-.46,3.36,9.31h1.03Z"/><path class="r" d="M312.31,78.84h-.05s-4.6-.3-9.1-.75c-2.65-.27-4.76-.54-6.28-.81-2.66-.47-3.18-.86-3.19-1.37-.02-1.43,2.75-3.84,3.51-4.48,.53-1.43,5.56-14.68,11.31-16.49h.03c.08-.03,.39-.07,.79,.21,.88,.61,2.11,2.69,3.02,9.08h.31c.72-5.08,1.76-8.2,3.01-9.04,.41-.27,.71-.22,.8-.2h.02c5.75,1.81,10.78,15.06,11.31,16.49,.76,.64,3.53,3.05,3.51,4.48,0,.53-.53,.9-3.26,1.37-1.55,.26-3.72,.53-6.42,.79-4.6,.44-9.27,.72-9.31,.72Zm-17.79-3.04c.29,.21,1.78,.78,9.2,1.51,4.14,.41,8.2,.68,8.56,.7,.36-.02,4.52-.28,8.76-.67,7.59-.71,9.12-1.28,9.42-1.49-.12-.86-1.96-2.72-3.29-3.81l-.13-.18c-.05-.14-5.22-14.25-10.77-16.07-.17,.05-1.76,.72-2.87,8.89l-.4,.36h-1.03l-.41-.34c-1.12-8.24-2.69-8.9-2.89-8.96-5.55,1.83-10.71,15.93-10.76,16.07l-.13,.18c-1.33,1.09-3.17,2.96-3.29,3.81Zm18.5-11.17h0Z"/></g><g><rect class="p" x="311.76" y="100.48" width="1.58" height="1.68"/><path class="r" d="M313.34,102.43h-1.58c-.15,0-.27-.12-.27-.27v-1.68c0-.15,.12-.27,.27-.27h1.58c.15,0,.27,.12,.27,.27v1.68c0,.15-.12,.27-.27,.27Zm-1.3-.55h1.03v-1.13h-1.03v1.13Z"/></g><path class="r" d="M299.05,72.74c-.14,0-.26-.11-.27-.25-.01-.15,.1-.28,.25-.3l11.19-1.01c.15-.01,.28,.1,.3,.25,.01,.15-.1,.28-.25,.3l-11.19,1.01h-.03Z"/><path class="r" d="M325.41,72.74h-.03l-10.76-1.01c-.15-.01-.26-.15-.25-.3s.15-.26,.3-.25l10.76,1.01c.15,.01,.26,.15,.25,.3-.01,.14-.13,.25-.27,.25Z"/><path class="r" d="M308.69,82.63c-.15,0-.27-.12-.27-.27v-2.54c0-.15,.12-.27,.27-.27s.27,.12,.27,.27v2.54c0,.15-.12,.27-.27,.27Z"/><path class="r" d="M315.74,82.63c-.15,0-.27-.12-.27-.27v-2.52c0-.15,.12-.27,.27-.27s.27,.12,.27,.27v2.52c0,.15-.12,.27-.27,.27Z"/><path class="r" d="M313.45,85.27h-.04c-.4-.02-.71-.3-.92-.56-.22,.34-.48,.53-.79,.56-.73,.06-1.32-.86-1.38-.97-.08-.13-.04-.3,.09-.38,.13-.08,.3-.04,.38,.09h0c.15,.24,.56,.73,.87,.71,.19-.02,.39-.25,.55-.67,.04-.1,.14-.17,.25-.17,.11,0,.21,.06,.26,.16,.08,.17,.39,.67,.72,.68,.23,.01,.5-.24,.77-.7,.08-.13,.24-.18,.37-.1,.13,.08,.18,.24,.1,.37-.37,.65-.79,.98-1.23,.98Z"/><g class="y"><path class="f" d="M317.01,110.97c0,2.07,1.88,3.75,4.2,3.75,.22,0,.44-.02,.65-.05-.13-.26-.26-.44-.26-.45-.11-.14-.11-.34,0-.48,1.02-1.46,2.05-4.16,2.52-5.48-.75-.64-1.78-1.04-2.9-1.04-2.32,0-4.2,1.68-4.2,3.75Z"/></g></g><g><line class="h" x1="317.71" y1="83.32" x2="322.37" y2="82.05"/><path class="r" d="M317.71,83.53c-.09,0-.17-.06-.2-.15-.03-.11,.03-.22,.14-.25l4.66-1.28c.11-.03,.22,.03,.25,.14,.03,.11-.03,.22-.14,.25l-4.66,1.28s-.04,0-.05,0Z"/></g><path class="r" d="M322.37,84.88h-4.66c-.11,0-.2-.09-.2-.2s.09-.2,.2-.2h4.66c.11,0,.2,.09,.2,.2s-.09,.2-.2,.2Z"/><g><line class="h" x1="317.71" y1="86.04" x2="322.3" y2="87.31"/><path class="r" d="M322.3,87.51s-.04,0-.05,0l-4.6-1.26c-.11-.03-.17-.14-.14-.25s.14-.17,.25-.14l4.6,1.26c.11,.03,.17,.14,.14,.25-.02,.09-.11,.15-.2,.15Z"/></g><g><line class="h" x1="307" y1="83.32" x2="302.34" y2="82.05"/><path class="r" d="M307,83.53s-.04,0-.05,0l-4.66-1.28c-.11-.03-.17-.14-.14-.25s.14-.17,.25-.14l4.66,1.28c.11,.03,.17,.14,.14,.25-.02,.09-.11,.15-.2,.15Z"/></g><g><line class="h" x1="307" y1="84.68" x2="302.34" y2="84.68"/><path class="r" d="M307,84.88h-4.66c-.11,0-.2-.09-.2-.2s.09-.2,.2-.2h4.66c.11,0,.2,.09,.2,.2s-.09,.2-.2,.2Z"/></g><g><line class="h" x1="307" y1="86.04" x2="302.4" y2="87.31"/><path class="r" d="M302.4,87.51c-.09,0-.17-.06-.2-.15-.03-.11,.03-.22,.14-.25l4.6-1.26c.11-.03,.22,.03,.25,.14,.03,.11-.03,.22-.14,.25l-4.6,1.26s-.04,0-.05,0Z"/></g></g><g><g><path class="q" d="M83.74,90.59c-.39-2.57-1.16-4.88-1.19-4.98-.03-.09-.1-.16-.19-.21-.38-1.04-2-5.33-4.29-9.96-3.53-7.15-6.89-11.66-9.99-13.43l-.18-.1c.83-.54,1.64-1.11,2.41-1.72,4.7-3.69,7.79-8.31,9.01-13.34,2.02-.64,3.53-3.18,3.53-6.22,0-3.47-1.97-6.29-4.42-6.37-.42-1.08-.94-2.12-1.54-3.14,.89-.19,1.78-.4,2.69-.62,.08-.02,.14-.07,.18-.14,.04-.07,.05-.15,.03-.23-.02-.07-2.1-7.34-7.66-13.56-3.28-3.66-7.1-6.26-11.36-7.71-4.9-1.67-10.41-1.81-16.37-.45,.05-1.37,.62-4.7,4.7-7.1,.13-.07,.18-.23,.13-.36-.05-.14-.2-.21-.34-.18-.27,.06-6.55,1.42-7.24,4.44-.26,1.11,.28,2.28,1.58,3.49-.11,.03-.21,.05-.32,.08-.6-.04-6.21-.31-12.14,2.27-3.67,1.6-6.75,3.96-9.15,7.02-2.99,3.82-4.92,8.74-5.74,14.62-.02,.16,.09,.31,.25,.33,.03,0,.19,.03,.47,.05-.19,.4-.36,.8-.52,1.21-2.44,.07-4.42,2.9-4.42,6.37,0,.65,.07,1.28,.2,1.88-1.22-.74-2.59-1.28-3.6-.85-.61,.26-.99,.67-1.12,1.2-.08,.31-.06,.63,0,.94-2.01-1.46-3.62-2.06-4.78-1.78-.13,.03-.25,.07-.35,.12-.48,.21-.7,.55-.77,.69-.99,1.31-.52,3.51,1.42,6.54,1.4,2.19,3.03,4,3.1,4.07,.07,.07,.16,.11,.26,.12,.77,.8,3.98,4.07,7.94,7.38,4.83,4.04,8.89,6.6,12.14,7.68-.5,1.15-1.01,2.45-1.49,3.85-1.74,5.08-3.41,12.65-1.46,19.84l.02,.02v.02c.15,.43,3.76,9.97,7.49,13.86-3.25-.04-5.6,.74-6.95,2.34-1.75,2.07-1.17,4.7-1.15,4.81,.03,.11,.12,.2,.23,.22,4.84,.95,9.3,1.26,13.03,1.26,6.55,0,10.83-.94,10.9-.95,.11-.03,.2-.11,.22-.22,.7-3.16,.18-6.29,.03-7.03l.07-.06,.71-6.8h1.43l.71,6.8,.07,.06c-.14,.74-.67,3.87,.03,7.03,.03,.11,.11,.2,.22,.22,.07,.02,4.35,.95,10.9,.95,3.73,0,8.2-.3,13.03-1.26,.11-.02,.21-.11,.23-.22,.03-.11,.6-2.74-1.15-4.81-1.35-1.6-3.69-2.38-6.95-2.34,2.86-2.97,5.64-9.26,6.86-12.24,.69,.8,1.49,1.4,2.31,1.41,.66,0,1.17-.21,1.51-.65,.2-.25,.31-.55,.38-.86,1.25,2.15,2.48,3.34,3.65,3.56,.13,.02,.25,.03,.37,.03,.53,0,.86-.22,.98-.32,1.44-.8,1.89-3,1.35-6.55Z"/><path class="o" d="M61.16,115.6c-6.65,0-11.02-.96-11.07-.97-.4-.09-.71-.4-.8-.8-.67-2.99-.29-5.92-.09-7.08l-.03-.11-.64-6.12h-.06l-.66,6.3c.2,1.2,.55,4.07-.1,7-.09,.4-.4,.71-.8,.8-.04,.01-4.42,.97-11.07,.97-4.46,0-8.9-.43-13.18-1.27-.41-.08-.73-.4-.83-.8-.03-.13-.68-3.12,1.31-5.47,1.26-1.49,3.25-2.35,5.93-2.56-3.21-4.18-6.08-11.48-6.55-12.71h0l-.03-.1s-.02-.05-.02-.06l-.14-.38,.03-.04c-1.87-7.28-.19-14.86,1.56-19.97,.36-1.05,.76-2.11,1.2-3.16-3.21-1.24-7.11-3.78-11.61-7.54-3.76-3.14-6.81-6.21-7.86-7.29-.16-.06-.3-.16-.42-.29-.18-.2-1.8-2.01-3.18-4.18-2.1-3.3-2.58-5.77-1.41-7.36,.15-.26,.48-.69,1.11-.97,.14-.06,.3-.12,.48-.16,1.16-.28,2.57,.1,4.29,1.16,.18-.5,.59-1.1,1.49-1.48,.8-.34,1.79-.27,2.95,.21,0-.18-.01-.36-.01-.54,0-3.67,1.99-6.65,4.63-7.08-.07-.06-.14-.13-.2-.2-.17-.22-.24-.5-.2-.78,.83-6.02,2.82-11.06,5.89-14.99,2.48-3.16,5.65-5.6,9.44-7.25,4.57-1.99,8.95-2.33,11.12-2.36-.68-.98-.91-1.97-.68-2.95C41.71,1.6,48.03,.17,48.75,.02c.51-.11,1.02,.17,1.2,.65,.19,.48,0,1.03-.45,1.29-2.96,1.75-3.91,4.01-4.2,5.48,5.72-1.15,11.01-.91,15.73,.7,4.39,1.5,8.32,4.16,11.69,7.92,5.67,6.35,7.81,13.79,7.83,13.87,.07,.26,.04,.56-.1,.81-.15,.25-.39,.43-.66,.5-.58,.14-1.15,.28-1.71,.41,.33,.63,.64,1.27,.91,1.91,2.64,.41,4.64,3.4,4.64,7.08,0,3.14-1.48,5.85-3.65,6.79-1.33,5.07-4.5,9.69-9.18,13.37-.48,.38-.98,.74-1.48,1.1,2.99,2.13,6.17,6.56,9.45,13.21,2.16,4.37,3.72,8.43,4.25,9.84,.12,.12,.21,.27,.27,.44,0,.02,.81,2.43,1.22,5.1,.59,3.86,.03,6.32-1.68,7.31-.27,.19-.92,.57-1.91,.39-1.17-.22-2.31-1.13-3.46-2.79-.36,.38-.97,.75-1.93,.75h-.02c-.68,0-1.36-.29-2.04-.84-1.28,3-3.31,7.33-5.53,10.21,2.68,.21,4.67,1.07,5.92,2.56,1.99,2.35,1.34,5.35,1.31,5.47-.09,.41-.42,.72-.83,.8-4.28,.84-8.72,1.27-13.18,1.27Zm-10.44-2.4c1.06,.2,4.95,.88,10.44,.88,4.26,0,8.48-.4,12.57-1.18,.09-.68,.17-2.43-1.04-3.86-1.19-1.41-3.33-2.1-6.36-2.07l-1.82,.02,1.26-1.31c2.81-2.93,5.63-9.37,6.71-12l.47-1.14,.81,.93c.65,.75,1.25,1.14,1.75,1.15h.01c.62,0,.83-.27,.9-.36,.11-.14,.18-.32,.23-.54l.4-1.94,1,1.71c1.41,2.43,2.48,3.08,3.13,3.2,.43,.08,.71-.1,.75-.13l.1-.07c1.11-.62,1.45-2.61,.96-5.77-.33-2.18-.94-4.18-1.12-4.71l-.13-.07-.1-.26c-.43-1.17-2.02-5.36-4.25-9.89-3.46-7.01-6.72-11.42-9.68-13.1l-1.28-.71,1.07-.69c.82-.53,1.61-1.09,2.36-1.68,4.53-3.56,7.55-8.03,8.74-12.92l.1-.42,.41-.13c1.74-.55,3-2.86,3-5.49,0-3.03-1.65-5.55-3.68-5.61h-.5l-.18-.48c-.41-1.03-.91-2.05-1.49-3.04l-.54-.91,1.03-.22c.72-.15,1.45-.32,2.19-.5-.55-1.67-2.72-7.61-7.36-12.8-3.19-3.56-6.9-6.09-11.04-7.5-4.74-1.62-10.11-1.76-15.95-.43l-1.59,.38h-.12c-.6-.04-6.02-.31-11.79,2.2-3.56,1.55-6.53,3.83-8.85,6.79-2.83,3.61-4.68,8.25-5.51,13.78l1.05,.09-.46,.98c-.18,.39-.35,.77-.5,1.17l-.18,.47h-.5c-2.03,.07-3.68,2.59-3.68,5.62,0,.58,.06,1.16,.18,1.71l.38,1.73-1.51-.91c-1.28-.77-2.31-1.05-2.91-.8-.51,.22-.64,.5-.69,.69-.04,.17-.04,.36,0,.59l.42,1.94-1.6-1.16c-2.27-1.65-3.51-1.81-4.16-1.66-.08,.02-.15,.04-.22,.07-.27,.12-.38,.3-.41,.35l-.06,.1c-.77,1.01-.27,2.98,1.45,5.67,1.17,1.84,2.53,3.41,2.92,3.86h.15l.19,.21c.87,.9,3.99,4.07,7.88,7.33,4.72,3.95,8.72,6.49,11.89,7.54l.79,.26-.33,.76c-.54,1.26-1.04,2.54-1.47,3.79-1.69,4.93-3.31,12.22-1.51,19.15l.38,.29-.19,.28c.7,1.82,3.92,9.83,7.2,13.24l1.26,1.31-1.82-.02c-3.03-.04-5.17,.66-6.36,2.07-1.21,1.43-1.13,3.18-1.04,3.86,4.09,.79,8.32,1.18,12.57,1.18,5.49,0,9.38-.67,10.44-.88,.58-2.95,.08-5.86-.03-6.43l-.08-.42,.17-.15,.75-7.19h2.8l.75,7.19,.1,.09v.49c-.12,.57-.63,3.48-.04,6.43Zm31.12-27.35h0ZM16.25,32.26h0Zm63.16-2.5h0ZM46.61,2.23c-1.84,.68-3.89,1.75-4.21,3.15-.19,.81,.24,1.71,1.28,2.69,.11-1.29,.64-3.69,2.93-5.84Z"/></g><g><g><g><path class="s" d="M30.17,65.04l-15.72-20.07s-3.31,1.25-8.38,8.2c0,0,14.09,14.87,22.49,15.73l3.44,.3-1.84-4.16Z"/><path class="r" d="M14.35,44.7c.12-.05,.26,0,.34,.09l15.72,20.07s.03,.04,.04,.06l1.84,4.16c.04,.1,.03,.21-.03,.29-.06,.08-.16,.13-.26,.12l-3.45-.3c-3.55-.36-8.44-3.14-14.56-8.25-4.53-3.79-8.08-7.53-8.12-7.56-.1-.1-.11-.26-.02-.38,4.66-6.38,7.83-8,8.42-8.26,.05-.02,.08-.04,.1-.04Zm14.24,23.91l2.95,.26-1.62-3.67-15.55-19.86c-.76,.38-3.72,2.13-7.91,7.81,1.62,1.68,14.43,14.67,22.14,15.46Zm1.58-3.57h0Z"/></g><g><path class="h" d="M6.07,53.17S-.6,45.83,1.6,43.04c0,0,1.09-2.52,6.64,2.11,0,0-1.78-2.26,.2-3.11,1.98-.85,6.01,2.94,6.01,2.94,0,0-2.67,.75-8.38,8.2Z"/><path class="r" d="M2.38,42.02c1.16-.28,2.76,.32,4.78,1.78-.07-.3-.08-.63,0-.94,.14-.54,.51-.94,1.12-1.2,2.16-.93,6.01,2.61,6.44,3.02,.1,.1,.14,.24,.11,.38s-.14,.25-.27,.29c-.03,0-2.68,.88-8.18,8.06-.07,.09-.18,.15-.3,.15-.12,0-.23-.04-.31-.13-.07-.08-1.71-1.89-3.1-4.07-1.93-3.03-2.41-5.23-1.42-6.54,.07-.14,.29-.47,.77-.69,.1-.05,.22-.09,.35-.12Zm11.36,2.84c-1.31-1.14-3.88-3.02-5.15-2.47-.38,.16-.59,.38-.67,.67-.17,.65,.39,1.55,.62,1.84,.13,.16,.11,.39-.04,.53-.15,.14-.37,.15-.53,.02-3.17-2.64-4.73-2.8-5.38-2.66-.49,.1-.64,.4-.64,.41-.01,.03-.03,.06-.05,.09-1.54,1.96,2.21,7.05,4.14,9.27,4.1-5.28,6.62-7.09,7.69-7.69Z"/></g></g><g><path class="s" d="M64.92,65.15l6.27,24.71s3.53,.2,10.98-4.12c0,0-6.88-19.29-14.23-23.47l-3.03-1.67v4.55Z"/><path class="r" d="M71.28,90.15c-.06,0-.09,0-.1,0-.13,0-.24-.1-.27-.22l-6.27-24.71s0-.05,0-.07v-4.55c0-.1,.05-.2,.14-.25,.09-.05,.2-.05,.29,0l3.03,1.67c3.1,1.76,6.46,6.28,9.99,13.43,2.62,5.3,4.36,10.15,4.37,10.2,.05,.13,0,.28-.13,.35-6.84,3.96-10.4,4.16-11.04,4.16Zm-6.07-25.04l6.21,24.45c.85-.04,4.26-.44,10.39-3.95-.81-2.19-7.28-19.25-14.01-23.08l-2.59-1.43v4.01Z"/></g><g><path class="h" d="M82.18,85.74s3.14,9.41,0,11.08c0,0-2.01,1.86-5.22-4.61,0,0,.71,2.79-1.45,2.77s-4.31-5.12-4.31-5.12c0,0,2.75,.39,10.98-4.12Z"/><path class="r" d="M81.41,97.46c-.11,0-.24-.01-.37-.03-1.17-.22-2.4-1.41-3.65-3.56-.06,.31-.18,.6-.38,.86-.34,.44-.85,.65-1.51,.65-2.35-.02-4.44-4.81-4.67-5.36-.06-.13-.04-.28,.05-.4,.09-.11,.23-.17,.37-.15,.02,0,2.8,.27,10.73-4.07,.1-.06,.23-.06,.33-.02,.11,.04,.19,.13,.23,.24,.03,.1,.8,2.41,1.19,4.98,.54,3.55,.09,5.76-1.35,6.55-.12,.1-.46,.32-.98,.32Zm-4.46-5.65c.15,0,.29,.08,.35,.22,1.83,3.7,3.2,4.47,3.85,4.61,.48,.1,.75-.11,.76-.12,.02-.02,.05-.04,.08-.05,2.2-1.17,.82-7.34-.05-10.15-5.88,3.17-8.92,3.81-10.14,3.92,.74,1.57,2.33,4.33,3.71,4.34,.4,0,.7-.11,.88-.34,.41-.52,.27-1.57,.18-1.93-.05-.2,.06-.4,.25-.47,.05-.02,.09-.02,.14-.02Z"/></g><g><path class="s" d="M29.24,63.29s-9.43,15.2-5.7,28.92l49.95,.09s1.81-19.31-8.59-29.41c0,0-14.67,9.51-35.66,.39Z"/><path class="r" d="M73.5,92.7l-49.95-.09-.38-.29c-1.95-7.19-.28-14.76,1.46-19.84,1.88-5.49,4.26-9.36,4.29-9.39l.49-.15c10.73,4.66,19.75,4.32,25.43,3.21,6.16-1.2,9.82-3.54,9.86-3.57l.49,.05c5.46,5.29,7.53,13.1,8.32,18.72,.84,6.07,.4,10.96,.4,11.01l-.39,.36Zm-49.65-.88l49.28,.09c.08-1.23,.28-5.44-.42-10.48-.76-5.41-2.73-12.9-7.86-18.03-.97,.57-4.42,2.44-9.82,3.5-5.74,1.13-14.82,1.5-25.62-3.11-.58,.99-2.48,4.4-4.04,8.96-1.68,4.91-3.29,12.17-1.52,19.07Z"/></g><g><path class="u" d="M49.33,92.21H23.54s4.12,10.98,8.04,14.31h15.1l.75-7.16h1.79"/><path class="r" d="M46.68,106.92h-15.1l-.26-.09c-3.95-3.36-7.98-14.02-8.15-14.48l.37-.53h25.79c.22,0,.4,.18,.4,.4s-.18,.4-.4,.4H24.12c.87,2.21,4.33,10.62,7.61,13.52h14.59l.71-6.8,.39-.35h1.79c.22,0,.4,.18,.4,.4s-.18,.4-.4,.4h-1.43l-.71,6.8-.39,.35Z"/></g><g><path class="p" d="M46.68,106.52s.78,3.56,0,7.07c0,0-10.39,2.34-23.81-.31,0,0-1.68-7.35,8.71-6.77h15.1Z"/><path class="r" d="M35.85,114.84c-3.73,0-8.2-.3-13.03-1.26-.11-.02-.21-.11-.23-.22-.03-.11-.6-2.74,1.15-4.81,1.48-1.75,4.12-2.53,7.86-2.32h15.09c.14,0,.26,.1,.29,.23,.03,.15,.79,3.66,0,7.2-.02,.11-.11,.2-.22,.22-.07,.02-4.35,.95-10.9,.95Zm-12.72-1.8c12.15,2.36,21.86,.6,23.31,.31,.59-2.84,.15-5.7,0-6.52h-14.87c-3.55-.2-6.03,.51-7.38,2.1-1.31,1.54-1.15,3.51-1.06,4.12Z"/></g><g><path class="p" d="M50.32,106.52s-.78,3.56,0,7.07c0,0,10.39,2.34,23.81-.31,0,0,1.68-7.35-8.71-6.77h-15.1Z"/><path class="r" d="M61.16,114.84c-6.55,0-10.83-.94-10.9-.95-.11-.03-.2-.11-.22-.22-.79-3.54-.03-7.05,0-7.2,.03-.14,.15-.23,.29-.23h15.09c3.74-.21,6.39,.57,7.86,2.32,1.75,2.07,1.17,4.7,1.15,4.81-.03,.11-.12,.2-.23,.22-4.84,.95-9.3,1.26-13.03,1.26Zm-10.59-1.49c1.44,.29,11.16,2.05,23.31-.31,.09-.61,.25-2.57-1.06-4.12-1.35-1.59-3.83-2.3-7.38-2.1h-14.87c-.15,.82-.58,3.68,0,6.52Z"/></g><g><polygon class="u" points="31.79 64.33 47.79 81.27 35.85 79.43 35.85 72.8 26.76 72.8 31.79 64.33"/><path class="r" d="M47.73,81.67l-11.94-1.84-.34-.39v-6.23h-8.69l-.34-.6,5.03-8.47,.63-.07,16,16.94-.35,.66Zm-11.48-2.57l10.46,1.61-14.84-15.72-4.41,7.42h8.39l.4,.4v6.29Z"/></g><g><polygon class="u" points="63.68 64.33 47.69 81.27 59.62 79.43 59.62 72.8 68.71 72.8 63.68 64.33"/><path class="r" d="M47.75,81.66l-.35-.66,16-16.94,.63,.07,5.03,8.47-.34,.6h-8.69v6.23l-.34,.39-11.94,1.84Zm15.86-16.68l-14.84,15.72,10.46-1.61v-6.29l.4-.4h8.39l-4.41-7.42Z"/></g><g><polygon class="j" points="46.09 67.4 39.79 72.8 47.79 81.27 55.79 72.82 49.34 67.29 46.09 67.4"/><path class="r" d="M48.08,81.55h-.58l-8-8.47,.03-.57,6.3-5.4,.24-.09,3.25-.12,.27,.1,6.45,5.53,.03,.57-8,8.46Zm-7.71-8.71l7.42,7.86,7.43-7.85-6.02-5.16-2.96,.11-5.88,5.04Z"/></g><g><polygon class="i" points="46.09 71.38 44.45 77.55 47.79 81.27 50.8 77.5 48.84 71.42 46.09 71.38"/><path class="r" d="M47.49,81.54l-3.34-3.72-.09-.37,1.64-6.17,.39-.29,2.75,.05,.37,.27,1.96,6.08-.07,.37-3.01,3.77-.6,.02Zm-2.61-4.09l2.88,3.22,2.59-3.24-1.81-5.61-2.15-.04-1.51,5.67Z"/></g><g><path class="u" d="M47.79,81.27l-.11,10.93h25.79s-4.12,10.98-8.04,14.31h-15.1l-.75-7.16h-1.79"/><path class="r" d="M65.42,106.92h-15.1l-.39-.35-.71-6.8h-1.43c-.22,0-.4-.18-.4-.4s.18-.4,.4-.4h1.79l.39,.35,.71,6.8h14.59c3.28-2.91,6.74-11.32,7.61-13.52h-25.21l-.4-.4,.11-10.93c0-.22,.18-.39,.4-.39h0c.22,0,.39,.18,.39,.4l-.11,10.53h25.39l.37,.53c-.17,.45-4.2,11.12-8.15,14.48l-.26,.09Z"/></g><g><circle class="r" cx="44.92" cy="83.58" r="1.37"/><path class="r" d="M44.92,85.25c-.92,0-1.67-.75-1.67-1.67s.75-1.67,1.67-1.67,1.67,.75,1.67,1.67-.75,1.67-1.67,1.67Zm0-2.75c-.59,0-1.08,.48-1.08,1.08s.48,1.08,1.08,1.08,1.08-.48,1.08-1.08-.48-1.08-1.08-1.08Z"/></g><circle class="x" cx="27.15" cy="108.56" r=".76"/><circle class="x" cx="70.43" cy="108.56" r=".76"/><g><path class="j" d="M46.09,67.31l-6.3,5.5-8-8.47s6.46,2.97,14.3,2.97Z"/><path class="r" d="M40.05,73.1l-.55-.03-8-8.47,.45-.63c.06,.03,6.48,2.94,14.14,2.94l.26,.69-6.3,5.5Zm-6.75-7.74l6.51,6.9,5.24-4.57c-5.05-.17-9.46-1.5-11.75-2.33Z"/></g><g><path class="j" d="M49.34,67.29l6.45,5.53,7.78-8.67s-7.15,3.55-14.22,3.15Z"/><path class="r" d="M55.54,73.12l-6.45-5.53,.28-.7c6.89,.39,13.95-3.07,14.03-3.1l.47,.62-7.78,8.67-.55,.04Zm-5.08-5.4l5.3,4.55,6.29-7.02c-2.36,.95-6.86,2.47-11.55,2.47h-.05Z"/></g><g><polygon class="i" points="44.25 68.95 46.09 71.38 48.74 71.38 50.47 68.95 48.74 67.4 46.09 67.4 44.25 68.95"/><path class="r" d="M48.74,71.77h-2.65l-.32-.16-1.84-2.42,.06-.54,1.84-1.55,.25-.09h2.65l.26,.1,1.73,1.55,.06,.52-1.73,2.42-.32,.17Zm-2.45-.79h2.25l1.41-1.97-1.35-1.21h-2.35l-1.44,1.21,1.49,1.97Z"/></g><g><ellipse class="h" cx="16.19" cy="40.64" rx="4.22" ry="6.08"/><path class="r" d="M16.19,47.01c-2.49,0-4.51-2.86-4.51-6.37s2.02-6.37,4.51-6.37,4.51,2.86,4.51,6.37-2.02,6.37-4.51,6.37Zm0-12.16c-2.16,0-3.92,2.59-3.92,5.78s1.76,5.78,3.92,5.78,3.92-2.59,3.92-5.78-1.76-5.78-3.92-5.78Z"/></g><g><ellipse class="h" cx="78.35" cy="40.64" rx="4.22" ry="6.08"/><path class="r" d="M78.35,47.01c-2.49,0-4.51-2.86-4.51-6.37s2.02-6.37,4.51-6.37,4.51,2.86,4.51,6.37-2.02,6.37-4.51,6.37Zm0-12.16c-2.16,0-3.92,2.59-3.92,5.78s1.76,5.78,3.92,5.78,3.92-2.59,3.92-5.78-1.76-5.78-3.92-5.78Z"/></g><g><ellipse class="h" cx="47.27" cy="41.96" rx="32.26" ry="25.34"/><path class="r" d="M47.27,67.7c-8.7,0-16.89-2.67-23.05-7.51-6.19-4.86-9.6-11.34-9.6-18.23s3.41-13.37,9.6-18.23c6.16-4.84,14.35-7.51,23.05-7.51s16.89,2.67,23.05,7.51c6.19,4.86,9.6,11.34,9.6,18.23s-3.41,13.37-9.6,18.23c-6.16,4.84-14.35,7.51-23.05,7.51Zm0-50.69c-17.57,0-31.86,11.19-31.86,24.95s14.29,24.95,31.86,24.95,31.86-11.19,31.86-24.95-14.29-24.95-31.86-24.95Z"/></g><g><path class="p" d="M42.95,9.07s-23.21-1.91-26.76,23.65c0,0,15.18,2.12,24.85-11.84,0,0,6.29,17.35,38.48,9.34,0,0-8.07-28.8-36.58-21.15Z"/><path class="r" d="M18.42,33.14c-1.36,0-2.19-.11-2.26-.12-.16-.02-.28-.17-.25-.33,.82-5.88,2.75-10.8,5.74-14.62,2.4-3.06,5.47-5.42,9.15-7.02,5.93-2.58,11.53-2.31,12.14-2.27,6.54-1.75,12.55-1.71,17.87,.1,4.27,1.45,8.09,4.05,11.36,7.71,5.56,6.22,7.64,13.49,7.66,13.56,.02,.08,.01,.16-.03,.23-.04,.07-.11,.12-.18,.14-7.38,1.84-14,2.48-19.7,1.93-4.57-.45-8.56-1.67-11.84-3.63-4.57-2.72-6.49-6.07-7.08-7.32-5.01,6.97-11.4,9.75-15.92,10.84-2.7,.66-5.04,.81-6.64,.81Zm-1.89-.68c.98,.09,4.3,.29,8.42-.72,4.51-1.1,10.92-3.9,15.86-11.03,.06-.09,.17-.14,.28-.13,.11,.01,.2,.09,.24,.19,.02,.04,1.62,4.3,7.08,7.54,5.03,2.98,14.43,5.68,30.75,1.68-.45-1.41-2.61-7.63-7.46-13.05-7.33-8.18-16.97-10.74-28.67-7.6-.03,0-.07,.01-.1,0-.06,0-5.82-.44-11.93,2.23-5.58,2.43-12.59,8.03-14.47,20.87Z"/></g><g><path class="p" d="M48.97,1.06s-11.89,2.52-4.83,8.01c0,0-.53-4.84,4.83-8.01Z"/><path class="r" d="M44.13,9.36c-.06,0-.13-.02-.18-.06-1.82-1.42-2.59-2.79-2.29-4.09,.69-3.02,6.98-4.38,7.24-4.44,.14-.03,.29,.05,.34,.18,.05,.14,0,.29-.13,.36-5.13,3.03-4.71,7.53-4.69,7.72,.01,.12-.05,.23-.15,.29-.05,.03-.09,.04-.14,.04Zm3.23-7.56c-1.88,.59-4.72,1.77-5.13,3.54-.22,.95,.32,1.99,1.59,3.1,.06-1.29,.55-4.23,3.53-6.63Z"/></g><path class="r" d="M47.18,47.8s-.1,0-.14,0c-2.25-.09-3.75-2.22-3.81-2.31-.12-.18-.08-.42,.1-.55,.18-.12,.42-.08,.55,.1,.02,.02,1.35,1.9,3.2,1.97,1.16,.04,2.31-.63,3.43-2,.14-.17,.38-.19,.55-.06,.17,.14,.19,.38,.06,.55-1.24,1.52-2.56,2.29-3.93,2.29Z"/><path class="n" d="M47.18,62.57s-.09,0-.13,0c-2.03-.08-3.39-2-3.44-2.09-.11-.16-.07-.38,.09-.49,.16-.11,.38-.07,.49,.09,.01,.02,1.22,1.72,2.89,1.78,1.05,.04,2.09-.57,3.09-1.8,.12-.15,.35-.17,.5-.05,.15,.12,.17,.35,.05,.5-1.12,1.37-2.31,2.07-3.55,2.07Z"/><circle class="g" cx="28.84" cy="44.36" r="3.82"/><circle class="g" cx="64.13" cy="44.36" r="3.82"/><ellipse class="x" cx="26.83" cy="18.53" rx="3.68" ry="2.6" transform="translate(-5.24 24.4) rotate(-45)"/><circle class="x" cx="33.31" cy="13.69" r=".98"/><path class="p" d="M47.16,42.99s-.04-.02-.04-.04l-.05-2.29s.02-.04,.04-.04c.02,0,.04,.02,.04,.04l.05,2.29s-.02,.04-.04,.04h0Z"/><path class="r" d="M44.96,44.4c-.2,0-.4-.02-.6-.06-1.83-.36-2.92-2.25-2.97-2.33-.06-.11-.05-.24,.03-.34,.08-.1,.21-.13,.33-.09,2.22,.8,5.11-1.41,5.14-1.43,.13-.1,.32-.08,.42,.05,.1,.13,.08,.32-.05,.42-.12,.09-2.58,1.97-4.91,1.71,.44,.53,1.18,1.24,2.13,1.43,.81,.16,1.65-.09,2.49-.75,.13-.1,.32-.08,.42,.05,.1,.13,.08,.32-.05,.42-.79,.62-1.59,.93-2.38,.93Z"/><g><g><path class="r" d="M41.66,41.87s2.24,3.93,5.5,1.37l-.08-2.85s-3.01,2.34-5.42,1.48Z"/><path class="r" d="M47.11,40.39l.08,2.85c3.4,2.36,5.42-1.68,5.42-1.68-2.36,1-5.5-1.17-5.5-1.17Z"/></g><path class="r" d="M49.28,44.28c-.74,0-1.49-.27-2.25-.79-.13-.09-.17-.28-.07-.41,.09-.13,.28-.17,.41-.07,.88,.61,1.73,.82,2.53,.61,.94-.24,1.64-.99,2.05-1.55-2.32,.4-4.88-1.34-5-1.43-.13-.09-.17-.28-.08-.41,.09-.13,.28-.17,.41-.08,.03,.02,3.04,2.06,5.21,1.14,.11-.05,.25-.02,.33,.07,.09,.09,.1,.22,.05,.34-.04,.08-1.03,2.03-2.83,2.49-.25,.06-.51,.1-.76,.1Z"/></g><ellipse class="r" cx="53.71" cy="38.27" rx=".79" ry="2.18"/><ellipse class="r" cx="40.51" cy="38.27" rx=".79" ry="2.18"/></g></g></g><g><path class="q" d="M94.54,108.21l1.6,6.07c.32,1.33,.64,2.57,.86,3.8h.07c.27-1.21,.67-2.49,1.06-3.77l1.95-6.09h1.83l1.85,5.97c.44,1.43,.79,2.69,1.06,3.9h.07c.2-1.21,.52-2.47,.91-3.87l1.7-5.99h2.15l-3.85,11.94h-1.97l-1.83-5.7c-.42-1.33-.76-2.52-1.06-3.92h-.05c-.3,1.43-.67,2.66-1.09,3.95l-1.92,5.67h-1.97l-3.6-11.94h2.22Z"/><path class="q" d="M112.99,108.21l1.6,6.07c.32,1.33,.64,2.57,.86,3.8h.07c.27-1.21,.67-2.49,1.06-3.77l1.95-6.09h1.83l1.85,5.97c.44,1.43,.79,2.69,1.06,3.9h.07c.2-1.21,.52-2.47,.91-3.87l1.7-5.99h2.15l-3.85,11.94h-1.97l-1.83-5.7c-.42-1.33-.76-2.52-1.06-3.92h-.05c-.3,1.43-.67,2.66-1.09,3.95l-1.92,5.67h-1.97l-3.6-11.94h2.22Z"/><path class="q" d="M131.44,108.21l1.6,6.07c.32,1.33,.64,2.57,.86,3.8h.07c.27-1.21,.67-2.49,1.06-3.77l1.95-6.09h1.83l1.85,5.97c.44,1.43,.79,2.69,1.06,3.9h.07c.2-1.21,.52-2.47,.91-3.87l1.7-5.99h2.15l-3.85,11.94h-1.97l-1.83-5.7c-.42-1.33-.76-2.52-1.06-3.92h-.05c-.3,1.43-.67,2.66-1.09,3.95l-1.92,5.67h-1.97l-3.6-11.94h2.22Z"/><path class="q" d="M147.26,118.86c0-.89,.62-1.55,1.48-1.55s1.46,.64,1.46,1.55-.59,1.55-1.5,1.55c-.84,0-1.43-.67-1.43-1.55Z"/><path class="q" d="M152.59,117.95c.67,.39,1.8,.84,2.89,.84,1.55,0,2.29-.76,2.29-1.78s-.62-1.58-2.2-2.17c-2.17-.79-3.18-1.95-3.18-3.38,0-1.92,1.58-3.5,4.12-3.5,1.21,0,2.27,.32,2.91,.74l-.52,1.58c-.47-.3-1.33-.72-2.44-.72-1.28,0-1.97,.74-1.97,1.63,0,.99,.69,1.43,2.24,2.05,2.05,.76,3.13,1.8,3.13,3.58,0,2.12-1.65,3.6-4.44,3.6-1.31,0-2.52-.35-3.35-.84l.52-1.63Z"/><path class="q" d="M171.04,117.28c0,1.04,.05,2.05,.17,2.86h-1.95l-.17-1.5h-.07c-.67,.94-1.95,1.78-3.65,1.78-2.42,0-3.65-1.7-3.65-3.43,0-2.89,2.57-4.46,7.18-4.44v-.25c0-.96-.27-2.76-2.71-2.74-1.13,0-2.29,.32-3.13,.89l-.49-1.46c.99-.62,2.44-1.04,3.95-1.04,3.65,0,4.54,2.49,4.54,4.86v4.46Zm-2.1-3.23c-2.37-.05-5.06,.37-5.06,2.69,0,1.43,.94,2.07,2.02,2.07,1.58,0,2.59-.99,2.94-2,.07-.25,.1-.49,.1-.69v-2.07Z"/><path class="q" d="M174.54,111.44c0-1.26-.02-2.24-.1-3.23h1.92l.12,1.97h.05c.59-1.11,1.97-2.22,3.95-2.22,1.65,0,4.22,.99,4.22,5.08v7.1h-2.17v-6.88c0-1.92-.72-3.53-2.76-3.53-1.41,0-2.52,1.01-2.91,2.22-.1,.27-.15,.64-.15,1.01v7.18h-2.17v-8.71Z"/><path class="q" d="M185.3,123.65c1.01-.07,1.85-.35,2.37-.94,.59-.67,.84-1.6,.84-4.46v-10.04h2.17v10.88c0,2.32-.37,3.82-1.43,4.91-.96,.96-2.54,1.36-3.7,1.36l-.25-1.7Zm5.62-18.8c0,.72-.49,1.33-1.38,1.33-.79,0-1.31-.62-1.31-1.33s.54-1.36,1.36-1.36,1.33,.62,1.33,1.36Z"/><path class="q" d="M202.61,117.28c0,1.04,.05,2.05,.17,2.86h-1.95l-.17-1.5h-.07c-.67,.94-1.95,1.78-3.65,1.78-2.42,0-3.65-1.7-3.65-3.43,0-2.89,2.57-4.46,7.18-4.44v-.25c0-.96-.27-2.76-2.71-2.74-1.13,0-2.29,.32-3.13,.89l-.49-1.46c.99-.62,2.44-1.04,3.95-1.04,3.65,0,4.54,2.49,4.54,4.86v4.46Zm-2.1-3.23c-2.37-.05-5.06,.37-5.06,2.69,0,1.43,.94,2.07,2.02,2.07,1.58,0,2.59-.99,2.94-2,.07-.25,.1-.49,.1-.69v-2.07Z"/><path class="q" d="M207.33,114.57c.05,2.93,1.9,4.14,4.09,4.14,1.55,0,2.52-.27,3.31-.62l.39,1.55c-.76,.35-2.1,.76-4,.76-3.68,0-5.87-2.44-5.87-6.04s2.12-6.41,5.6-6.41c3.92,0,4.93,3.4,4.93,5.6,0,.44-.02,.76-.07,1.01h-8.39Zm6.36-1.55c.02-1.36-.57-3.5-3.01-3.5-2.22,0-3.16,2-3.33,3.5h6.34Z"/><path class="q" d="M219.27,108.21l2.59,7.05c.3,.79,.59,1.73,.79,2.44h.05c.22-.72,.47-1.63,.76-2.49l2.37-7h2.29l-3.26,8.51c-1.55,4.09-2.61,6.17-4.09,7.47-1.09,.91-2.12,1.28-2.66,1.38l-.54-1.8c.54-.17,1.26-.52,1.9-1.06,.59-.47,1.31-1.31,1.83-2.42,.1-.22,.17-.39,.17-.52s-.05-.3-.17-.57l-4.39-11h2.37Z"/><path class="q" d="M238.38,117.28c0,1.04,.05,2.05,.17,2.86h-1.95l-.17-1.5h-.07c-.67,.94-1.95,1.78-3.65,1.78-2.42,0-3.65-1.7-3.65-3.43,0-2.89,2.56-4.46,7.18-4.44v-.25c0-.96-.27-2.76-2.71-2.74-1.13,0-2.29,.32-3.13,.89l-.49-1.46c.99-.62,2.44-1.04,3.95-1.04,3.65,0,4.54,2.49,4.54,4.86v4.46Zm-2.1-3.23c-2.37-.05-5.06,.37-5.06,2.69,0,1.43,.94,2.07,2.02,2.07,1.58,0,2.59-.99,2.94-2,.07-.25,.1-.49,.1-.69v-2.07Z"/><path class="q" d="M241.37,118.86c0-.89,.62-1.55,1.48-1.55s1.46,.64,1.46,1.55-.59,1.55-1.5,1.55c-.84,0-1.43-.67-1.43-1.55Z"/><path class="q" d="M255.5,119.72c-.57,.27-1.83,.69-3.43,.69-3.6,0-5.94-2.44-5.94-6.09s2.52-6.36,6.41-6.36c1.28,0,2.42,.32,3.01,.64l-.49,1.65c-.52-.27-1.33-.57-2.52-.57-2.74,0-4.22,2.05-4.22,4.51,0,2.76,1.78,4.46,4.14,4.46,1.23,0,2.05-.3,2.66-.57l.37,1.63Z"/><path class="q" d="M268.7,114.08c0,4.41-3.08,6.34-5.94,6.34-3.21,0-5.72-2.37-5.72-6.14,0-3.97,2.64-6.31,5.92-6.31s5.75,2.49,5.75,6.12Zm-9.45,.12c0,2.61,1.48,4.59,3.6,4.59s3.63-1.95,3.63-4.64c0-2.02-1.01-4.56-3.58-4.56s-3.65,2.37-3.65,4.61Z"/><path class="q" d="M271.44,111.44c0-1.26-.05-2.24-.1-3.23h1.9l.1,1.95h.07c.67-1.13,1.78-2.2,3.77-2.2,1.6,0,2.84,.99,3.35,2.39h.05c.37-.69,.86-1.18,1.36-1.55,.72-.54,1.48-.84,2.61-.84,1.6,0,3.95,1.04,3.95,5.18v7h-2.12v-6.73c0-2.32-.86-3.68-2.59-3.68-1.26,0-2.2,.91-2.59,1.95-.1,.32-.17,.69-.17,1.09v7.37h-2.12v-7.15c0-1.9-.84-3.26-2.49-3.26-1.33,0-2.34,1.09-2.69,2.17-.12,.3-.17,.69-.17,1.06v7.18h-2.12v-8.71Z"/></g></g></g></g></svg>