<?xml version="1.0" encoding="UTF-8"?><svg xmlns="http://www.w3.org/2000/svg" viewBox="0 0 231.6 95.07"><defs><style>.d{fill:#f9b122;}.e{fill:#2d2e83;}</style></defs><g id="a"/><g id="b"><g id="c"><g><path class="e" d="M23.77,55.22c1.59,2.75,4.09,5.52,7.51,8.32,3.12,2.54,5.83,4.25,8.13,5.13,.77,.31,1.56,.47,2.39,.47,1.3,0,2.4-.38,3.31-1.13,.91-.75,1.37-1.64,1.37-2.68,0-1.19-.68-2.23-2.03-3.11-4.48-3.06-8.1-6.89-10.87-11.51-2.89-4.98-4.33-10.08-4.33-15.32h0v-10.05c0-1.61-.58-2.86-1.76-3.77-1.17-.91-2.57-1.36-4.21-1.36s-2.95,.45-4.13,1.36c-1.17,.91-1.76,2.16-1.76,3.77v10.05h0c0,11.92-5.1,21.18-15.29,27.76-1.41,.88-2.12,1.97-2.12,3.27,0,1.09,.44,2.02,1.33,2.8,.88,.78,1.97,1.17,3.27,1.17,.65,0,1.33-.13,2.03-.39,3.06-1.19,6.33-3.25,9.81-6.18,3.47-2.93,5.92-5.79,7.33-8.59Z"/><path class="e" d="M54.02,69.23c1.18,.91,2.59,1.36,4.24,1.36s2.97-.45,4.15-1.36c1.18-.91,1.77-2.16,1.77-3.77v-20.6h4.51c1.53,0,2.75-.43,3.67-1.3,.91-.86,1.37-1.87,1.37-3.02s-.44-2.13-1.33-2.94c-.88-.81-2.12-1.22-3.71-1.22h-4.51v-.99h0v-10.05c0-1.61-.59-2.86-1.77-3.77-1.18-.91-2.59-1.36-4.24-1.36s-2.97,.45-4.15,1.36c-1.18,.91-1.77,2.16-1.77,3.77v8.91h0v31.2c0,1.61,.59,2.86,1.77,3.77Z"/><path class="e" d="M125.62,65.29c0,1.66,.53,2.94,1.59,3.85,1.06,.91,2.33,1.36,3.8,1.36s2.65-.45,3.71-1.36c1.06-.91,1.59-2.19,1.59-3.85v-16.58h6.63v16.58c0,1.66,.53,2.94,1.59,3.85,1.06,.91,2.3,1.36,3.71,1.36s2.75-.47,3.84-1.4c1.09-.93,1.63-2.2,1.63-3.81v-29.96h0v-10.01c0-1.6-.53-2.85-1.6-3.76-1.07-.9-2.34-1.36-3.84-1.36s-2.69,.45-3.76,1.36c-1.07,.9-1.6,2.16-1.6,3.76v10.01h0v5.06h-6.63v-12.51h-.02v-2.57c0-1.6-.53-2.85-1.58-3.76-1.05-.9-2.32-1.36-3.79-1.36s-2.66,.45-3.72,1.36c-1.05,.9-1.58,2.16-1.58,3.76v10.01h0v29.96Z"/><path class="e" d="M98.23,35.34c0,.06,0,.11,0,.16h0v-.16Z"/><path class="e" d="M110.07,35.51h0v0Z"/><path class="e" d="M75.84,62.89c-1.41,.88-2.12,1.97-2.12,3.26,0,1.09,.44,2.02,1.33,2.79,.88,.78,1.97,1.16,3.27,1.16,.65,0,1.33-.13,2.03-.39,3.06-1.19,6.33-3.24,9.81-6.17,3.48-2.92,5.92-5.78,7.33-8.57,1.59,2.74,4.09,5.51,7.51,8.3,3.12,2.53,5.83,4.24,8.13,5.12,.77,.31,1.56,.47,2.39,.47,1.3,0,2.4-.37,3.31-1.12,.91-.75,1.37-1.64,1.37-2.68,0-1.19-.68-2.22-2.03-3.1-4.48-3.05-8.1-6.88-10.87-11.48-2.88-4.95-4.32-10.03-4.33-15.24v.12h0v-6.69h12.5v-.02c1.43-.04,2.58-.46,3.45-1.28,.91-.86,1.37-1.87,1.37-3.02s-.44-2.13-1.33-2.94c-.84-.77-2.01-1.16-3.5-1.2l-3.86-.02h-32.84c-1.53,0-2.75,.43-3.67,1.29-.91,.86-1.37,1.87-1.37,3.02s.44,2.13,1.33,2.94c.88,.81,2.12,1.22,3.71,1.22h12.36v6.69h0c0-.06,0-.11,0-.16v.16h0c-.05,11.81-5.14,20.99-15.28,27.52Z"/><path class="e" d="M189.41,34.41c1.82,2.58,2.73,6.27,2.73,11.07s-.91,8.4-2.73,10.97c-1.82,2.58-4.19,3.87-7.09,3.87s-5.19-1.29-7.01-3.87c-1.82-2.58-2.73-6.24-2.73-10.97,0-4.39,.77-7.83,2.29-10.37l-9.58-5.51c-2.58,4.2-3.89,9.48-3.89,15.88,0,7.68,1.89,13.78,5.67,18.31,3.78,4.53,8.89,6.79,15.34,6.79s11.48-2.26,15.26-6.79c3.78-4.53,5.67-10.63,5.67-18.31s-1.89-13.87-5.67-18.4c-.06-.07-.12-.14-.19-.21l-8.5,6.98c.15,.18,.3,.36,.44,.56Z"/><path class="e" d="M226.8,46.98h-5.82v-5.22h5.82c1.46,0,2.62-.42,3.5-1.24,.87-.82,1.31-1.78,1.31-2.88s-.42-2.03-1.26-2.81c-.84-.77-2.02-1.16-3.54-1.16h-5.82v-2.91h.02v-5.43c0-1.61-.6-2.86-1.8-3.77-1.2-.91-2.63-1.36-4.31-1.36s-3.02,.45-4.22,1.36c-1.2,.91-1.8,2.16-1.8,3.77v5.43h0v34.36c0,1.61,.65,2.9,1.94,3.89,1.12,.83,2.5,1.24,4.15,1.24s3.06-.44,4.24-1.32c1.18-.88,1.77-2.15,1.77-3.81v-10.06h5.82c1.46,0,2.62-.42,3.5-1.24,.87-.82,1.31-1.78,1.31-2.88s-.42-2.03-1.26-2.81c-.84-.77-2.02-1.16-3.54-1.16Z"/><path class="e" d="M226.69,86.67H31.2c-2.01,0-3.02-.91-3.02-2.72v-5.35h0v-1.55c0-1.61-.57-2.86-1.72-3.77-1.15-.91-2.53-1.36-4.14-1.36s-2.9,.45-4.05,1.36c-1.15,.91-1.72,2.16-1.72,3.77v10.05h0v-.58c0,3.27,.7,5.51,2.11,6.73,1.41,1.22,3.87,1.83,7.37,1.83H226.69c1.49,0,2.69-.43,3.58-1.28,.89-.86,1.34-1.85,1.34-2.99s-.43-2.11-1.29-2.92c-.86-.8-2.07-1.21-3.62-1.21Z"/><path class="d" d="M214.9,1.53c-1.47-1.79-4.1-2.04-5.89-.58l-18.52,15.22-9.07,7.45-10.19-5.87-7.39-4.25c-2-1.15-4.56-.46-5.72,1.54-1.15,2-.46,4.56,1.54,5.72l5.63,3.24,9.58,5.51,4.88,2.81c.65,.37,1.37,.56,2.09,.56,.95,0,1.89-.32,2.66-.95l4.48-3.68,8.5-6.98,16.86-13.84c1.79-1.47,2.04-4.11,.58-5.89Z"/></g></g></g></svg>