<svg xmlns="http://www.w3.org/2000/svg" xmlns:xlink="http://www.w3.org/1999/xlink" width="521.013" height="480.499" viewBox="0 0 521.013 480.499">
  <defs>
    <linearGradient id="linear-gradient" x1="0.639" y1="0.143" x2="0.485" y2="0.514" gradientUnits="objectBoundingBox">
      <stop offset="0" stop-color="#326dfb"/>
      <stop offset="1" stop-color="#fff" stop-opacity="0.396"/>
    </linearGradient>
    <linearGradient id="linear-gradient-2" x1="0.583" y1="0.203" x2="0.487" y2="0.527" gradientUnits="objectBoundingBox">
      <stop offset="0" stop-color="#326dfb"/>
      <stop offset="1" stop-color="#fff"/>
    </linearGradient>
    <linearGradient id="linear-gradient-3" x1="0.893" y1="-0.295" x2="0.377" y2="0.635" gradientUnits="objectBoundingBox">
      <stop offset="0" stop-color="#326dfb"/>
      <stop offset="1" stop-color="#fff" stop-opacity="0.325"/>
    </linearGradient>
    <linearGradient id="linear-gradient-4" x1="0.896" y1="-0.306" x2="0.377" y2="0.641" gradientUnits="objectBoundingBox">
      <stop offset="0" stop-color="#1b1464"/>
      <stop offset="1" stop-color="#fff"/>
    </linearGradient>
  </defs>
  <g id="그룹_156" data-name="그룹 156" transform="translate(-458 -2700.182)">
    <circle id="타원_75" data-name="타원 75" cx="240.25" cy="240.25" r="240.25" transform="translate(458 2700.182)" fill="#f4f8fc"/>
    <g id="그룹_147" data-name="그룹 147" transform="translate(464.596 2756.517)">
      <path id="패스_2596" data-name="패스 2596" d="M252.731,357.7,16.24,217.934c-7.526-4.224-13.987-11.171-6.645-15.711L246.929,65.379c3.566-2.211,8.974-3.658,12.592-1.553L507.763,207.961c7.526,4.368,8.882,16.579,1.316,20.961L283.9,357.477a31.448,31.448,0,0,1-31.172.224Z" transform="translate(-6.366 24.09)" fill="#5f8dfb"/>
      <path id="패스_2487" data-name="패스 2487" d="M253.408,361.914,16.93,222.161c-7.526-4.237-13.987-11.171-6.645-15.7L247.619,69.619c3.566-2.211,8.974-3.658,12.592-1.553L508.453,212.174c7.526,4.368,8.882,16.579,1.316,20.961L284.619,361.73a31.448,31.448,0,0,1-31.211.184Z" transform="translate(-0.398 -8.082)" fill="#326dfb"/>
      <path id="패스_2488" data-name="패스 2488" d="M381.909,179.353l-26.737,15.7-51.962-35.3L330.158,146.3" transform="translate(93.132 16.949)" fill="url(#linear-gradient)" style="mix-blend-mode: multiply;isolation: isolate"/>
      <path id="패스_2489" data-name="패스 2489" d="M183.117,128c-8.895,5.579-21.053,17.869-30.487,22.882l146.608,90L335.423,214.3C330.318,211.9,187.144,132.013,183.117,128Z" transform="translate(45.577 11.17)" fill="url(#linear-gradient-2)" style="mix-blend-mode: multiply;isolation: isolate"/>
      <path id="패스_2490" data-name="패스 2490" d="M182.034,213.82c-8.895,5.579-60.569,32.986-69.964,38l42.073,25.536,48.273-48.5C197.31,226.426,186.06,217.794,182.034,213.82Z" transform="translate(34.647 38.273)" fill="url(#linear-gradient-3)" style="mix-blend-mode: multiply;isolation: isolate"/>
      <path id="패스_2491" data-name="패스 2491" d="M164.72,153.6S204.352,25.69,204.1,25.69s1.237-5.684,8.316-2.474l152.082,89.5s7.369,2.987,5.934,9.855S331.7,247.734,331.7,247.734a6.421,6.421,0,0,1-7.184,2.474c-4.632-1.434-156.24-89.475-156.24-89.475A5.816,5.816,0,0,1,164.72,153.6Z" transform="translate(49.317 -22.233)" fill="#053855"/>
      <path id="패스_2492" data-name="패스 2492" d="M204.733,31.93l155.753,90.791-32.3,108.45L170.43,143.077Z" transform="translate(51.198 -19.171)" fill="#f5f7ff"/>
      <path id="패스_2493" data-name="패스 2493" d="M66.5,167.69c-8.895,5.579-32.619,15.592-42.014,20.606l28.4,16.3,27.04-26.843A50.252,50.252,0,0,1,66.5,167.69Z" transform="translate(5.108 23.704)" fill="url(#linear-gradient-4)" style="mix-blend-mode: multiply;isolation: isolate"/>
      <path id="패스_2494" data-name="패스 2494" d="M84.633,145.42s-1.211,42.3-19.277,43.3-19.277-43.3-19.277-43.3" transform="translate(11.927 16.671)" fill="#326dfb"/>
      <path id="패스_2495" data-name="패스 2495" d="M84.633,145.42s-1.211,42.3-19.277,43.3-19.277-43.3-19.277-43.3" transform="translate(11.927 16.671)" fill="#28a0f0"/>
      <ellipse id="타원_54" data-name="타원 54" cx="19.277" cy="8.013" rx="19.277" ry="8.013" transform="translate(58.007 154.078)" fill="#2898e2"/>
      <path id="패스_2496" data-name="패스 2496" d="M64.725,161.421a172.873,172.873,0,0,1,18.066-48.79c.7-1.316,3.013-.171,2.329,1.092a171.056,171.056,0,0,0-17.8,48.264C67.041,163.3,64.449,162.776,64.725,161.421Z" transform="translate(17.809 6.131)" fill="#311e69"/>
      <path id="패스_2497" data-name="패스 2497" d="M56.34,166.535q1.987-30.711,6.882-61.238c.224-1.316,2.908-1.316,2.632,0q-4.882,30.448-6.869,61.12C58.143,166.456,57.208,166.482,56.34,166.535Z" transform="translate(15.167 3.688)" fill="#311e69"/>
      <path id="패스_2498" data-name="패스 2498" d="M83.224,109.553a17.632,17.632,0,0,1,9.5.605c2.171.763,6.658,2.947,5.776,5.263s-6.316,1.987-8.487,1.461a11.645,11.645,0,0,1-7.461-5.54,1.039,1.039,0,0,1-.092-.25.987.987,0,0,1,.763-1.539Z" transform="translate(23.363 5.222)" fill="#1a7f68"/>
      <path id="패스_2499" data-name="패스 2499" d="M79.965,111.235a1.316,1.316,0,0,0,1.8.447c2.947-1.737,6.579-2.829,8.711-5.369,1.447-1.776,2.066-4.7-.579-6a7.158,7.158,0,0,0-7.566,1.421c-2.408,2.224-2.632,5.474-3.211,8.25A1.118,1.118,0,0,0,79.965,111.235Zm5.579-8.934v.276a9.105,9.105,0,0,0-2.237,2.145A6.132,6.132,0,0,1,85.544,102.3Z" transform="translate(22.358 2.263)" fill="#1a7f68"/>
      <path id="패스_2500" data-name="패스 2500" d="M74.16,104.242c4.355-1.566,5.092,4.408,5.263,6.408a.987.987,0,0,1-.895.987,1.592,1.592,0,0,1-1.868,0c-1.461-1.053-3.316-2.053-3.776-3.671C72.476,106.755,72.476,104.847,74.16,104.242Z" transform="translate(20.321 3.585)" fill="#1a7f68"/>
      <path id="패스_2501" data-name="패스 2501" d="M61.642,105.354a1.592,1.592,0,0,0,2.092.566,1.75,1.75,0,0,0,.684,0c3.368-.408,5.066-4.684,5.671-6.921s1.316-5.908-2.105-7.092a5.869,5.869,0,0,0-7.237,3.434C59.536,98.565,60.273,102.315,61.642,105.354Zm1.816-3.04a5.645,5.645,0,0,1,.066-1.724,8.332,8.332,0,0,0,.092,1.184h0a2.255,2.255,0,0,1-.145.539Z" transform="translate(16.365 -0.317)" fill="#1a7f68"/>
      <path id="패스_2502" data-name="패스 2502" d="M47.861,103.141c-.118,2.75,3.3,3.882,6.132,4.316,1.763.276,8.053,1.526,8.158-.947a.961.961,0,0,0,.237-1.2c-1.395-2.632-4.711-3.776-7.895-4.474C51.756,100.26,48.045,100.141,47.861,103.141Zm2.632-.118a3.459,3.459,0,0,0,.355.447,1.066,1.066,0,0,0-.184.5.7.7,0,0,1-.171-.961Z" transform="translate(12.488 2.489)" fill="#1a7f68"/>
      <path id="패스_2503" data-name="패스 2503" d="M66.444,105.4a1.447,1.447,0,0,0,1.579.75,11.2,11.2,0,0,0,5.105-1.79,2.5,2.5,0,0,0,.776-3.487c-2.079-2.5-6.855,1.711-8.092,3.066C65.221,104.561,65.721,105.232,66.444,105.4Zm3.776-2.04-.224.079,1.316-.737h0a3.237,3.237,0,0,1-1.105.658Z" transform="translate(18.076 2.358)" fill="#1a7f68"/>
      <ellipse id="타원_55" data-name="타원 55" cx="12.793" cy="9.697" rx="12.793" ry="9.697" transform="translate(376.385 130.149) rotate(-87.138)" fill="#fff"/>
      <ellipse id="타원_56" data-name="타원 56" cx="12.793" cy="9.697" rx="12.793" ry="9.697" transform="translate(376.385 130.149) rotate(-87.138)"/>
      <path id="패스_2504" data-name="패스 2504" d="M295.279,114.714l3.382-12.329a7.3,7.3,0,0,0-8.711,2.632Z" transform="translate(88.945 2.916)" fill="#fdc42e"/>
      <path id="패스_2505" data-name="패스 2505" d="M296.187,113.97s-7.895,6.158-8.092,5.645a14.987,14.987,0,0,1,2.776-15.4Z" transform="translate(88.037 3.66)" fill="#2ed5fd"/>
      <ellipse id="타원_57" data-name="타원 57" cx="12.777" cy="9.684" rx="12.777" ry="9.684" transform="translate(364.931 160.529) rotate(-87.37)" fill="#fff"/>
      <ellipse id="타원_58" data-name="타원 58" cx="12.777" cy="9.684" rx="12.777" ry="9.684" transform="translate(364.931 160.529) rotate(-87.37)"/>
      <path id="패스_2506" data-name="패스 2506" d="M287.879,137.934l3.382-12.329a7.3,7.3,0,0,0-8.711,2.632Z" transform="translate(86.608 10.249)" fill="#fdc42e"/>
      <path id="패스_2507" data-name="패스 2507" d="M288.787,137.19s-7.895,6.158-8.092,5.645a14.987,14.987,0,0,1,2.776-15.4Z" transform="translate(85.7 10.993)" fill="#2ed5fd"/>
      <ellipse id="타원_59" data-name="타원 59" cx="12.793" cy="9.697" rx="12.793" ry="9.697" transform="translate(358.421 191.508) rotate(-87.138)" fill="#fff"/>
      <ellipse id="타원_60" data-name="타원 60" cx="12.793" cy="9.697" rx="12.793" ry="9.697" transform="translate(358.421 191.508) rotate(-87.138)"/>
      <path id="패스_2508" data-name="패스 2508" d="M281.643,161.141l3.447-12.316a7.3,7.3,0,0,0-8.711,2.632Z" transform="translate(84.659 17.583)" fill="#fdc42e"/>
      <path id="패스_2509" data-name="패스 2509" d="M282.567,160.4s-7.895,6.158-8.092,5.645a14.987,14.987,0,0,1,2.776-15.4Z" transform="translate(83.736 18.323)" fill="#2ed5fd"/>
      <path id="패스_2510" data-name="패스 2510" d="M205.664,47.92l48.659,28.369L244.23,110.171,194.94,82.644Z" transform="translate(58.939 -14.121)" fill="#fff"/>
      <path id="패스_2511" data-name="패스 2511" d="M194.854,78.2l48.659,28.369L233.42,140.451l-49.29-27.527Z" transform="translate(55.525 -4.558)" fill="#fff"/>
      <path id="패스_2512" data-name="패스 2512" d="M165.459,221.779l-5.579-1.54.868-6.79S166.8,214.463,165.459,221.779Z" transform="translate(47.867 38.156)" fill="#42210b"/>
      <path id="패스_2513" data-name="패스 2513" d="M158.716,205.4s-1.961,22.948-1.434,23.211,5.882.724,5.882.329.316-10.448.316-10.448,2.632,4.434,2.816,6.645c0,0,6.408-3.645,7.592-6.579s-2.737-15.171-4.237-15.79" transform="translate(47.018 34.783)" fill="#b1b8d3"/>
      <path id="패스_2514" data-name="패스 2514" d="M176.113,231.791l-6.3-6.7,4.119-5.263S177.771,228.343,176.113,231.791Z" transform="translate(51.003 40.171)" fill="#42210b"/>
      <path id="패스_2515" data-name="패스 2515" d="M168.187,208.75l-2.947,27.54a32.684,32.684,0,0,0,5.632,1.487,17.87,17.87,0,0,0,3.408-1.618l1.053-9.211s2.737,2.737,2.237,8.316c0-.382,4.355-1.829,4.908-2.079a32.6,32.6,0,0,0,5.04-2.75c1.671-1.145,7.895-6.29,4.553-8.342-2.842-1.737-12.066-.908-12.066-.908l-.132-11.369" transform="translate(49.559 36.672)" fill="#b1b8d3"/>
      <path id="패스_2516" data-name="패스 2516" d="M160.143,136.347a.658.658,0,0,0-.658-.8,21.185,21.185,0,0,1,3.158-6.79L189.3,125.61s5.355,19.053,7.421,51.883c1.605,25.448-10.895,63.3-10.895,63.3s-12.921,3.276-19.145-3.105l.25-5.487a65.219,65.219,0,0,1-9.605-.79C154.064,199.809,156.5,167.8,160.143,136.347Z" transform="translate(46.577 10.415)" fill="#34323d"/>
      <path id="패스_2517" data-name="패스 2517" d="M163.474,231.475l3.329-23.593c1.066-7.513,2.711-15.237,2.737-22.869S166.908,170.54,165.7,163.3a85.016,85.016,0,0,1-.921-21.3c.132-1.658,2.513-1.671,2.382,0a82.658,82.658,0,0,0,1.447,23.777c1.487,6.987,3.566,13.606,3.263,20.869s-1.75,14.685-2.776,21.922l-3.342,23.593C165.487,233.817,163.237,233.12,163.474,231.475Z" transform="translate(48.996 15.197)" fill="#444152"/>
      <path id="패스_2518" data-name="패스 2518" d="M199.556,104.5c-.882,1.513-3.816,3.553-4.566,5.132,2.079,1.8,2.526,3.684,4.579,5.513.316-.789,1.605-1.316,2.29-1.711,1.053-.605,1.895-1.421,2.882-2.053s2.447-1.105,3.605-1.7a4.2,4.2,0,0,0,.947-.658,6.577,6.577,0,0,0,.895-.408,1.434,1.434,0,0,0,.434-2.132,1.408,1.408,0,0,0,.79-1.605,1.316,1.316,0,0,0-.8-.882l-.118-.145a.842.842,0,0,0,.408-.75.987.987,0,0,0,0-.395c-.079-1.54-1.2-1.776-2.408-1.224l-.184.079a7.5,7.5,0,0,0,1.75-2c1.184-1.158,1.947-2.342.934-2.974s-2.737.908-3.461,1.447c-1.605,1.2-3.079,2.566-4.684,3.763v-.684c0-.855-.132-3.645-1.026-4.04a.934.934,0,0,0-1.421.75Z" transform="translate(58.955 1.205)" fill="#fe6162"/>
      <path id="패스_2519" data-name="패스 2519" d="M209.781,106.628l-12.329,8.448a67.1,67.1,0,0,0-7.553-13.711c-5.145-7.316-19.224-5.132-19.224-5.132s-8.29,5.934-11.395,12.487-2.921,23.54-.263,29.2,19.25,4.987,28.658,2.711a1.316,1.316,0,0,0,1.592-1.224q0-7.369-.118-14.75c5.987,7.395,15.5,2.368,21.448-3.342a52.828,52.828,0,0,0,7.895-8.54C217.439,109.523,209.781,106.628,209.781,106.628Z" transform="translate(46.953 1.041)" fill="#2ed5fd"/>
      <path id="패스_2520" data-name="패스 2520" d="M180.6,85.25s.776,11.29-2.632,13.9-9.132-1.7-9.132-1.7" transform="translate(50.696 -2.331)" fill="#fe6162"/>
      <path id="패스_2521" data-name="패스 2521" d="M179.585,81.585a10.948,10.948,0,0,1,3.421,4.5c2.842,7.105-4.8,15.921-11.632,17.29l-3.54-1.118s-4.684-6.895-4.684-10.763a14.277,14.277,0,0,1,3.947-10.04C170.769,78.033,175.979,78.7,179.585,81.585Z" transform="translate(48.899 -4.259)" fill="#1a1a1a"/>
      <path id="패스_2522" data-name="패스 2522" d="M174.7,97.788s12.777,36.843,3.158,42.922-28.422.539-24.751-8.592S171.155,96.67,171.155,96.67" transform="translate(45.578 1.275)" fill="#1a1a1a"/>
      <path id="패스_2523" data-name="패스 2523" d="M250.754,73.92l27.04,15.763L267.7,123.566,240.07,108.131Z" transform="translate(73.192 -5.91)" fill="#fff"/>
      <path id="패스_2524" data-name="패스 2524" d="M262.369,123.021l-24.514-13.856c-1.579-.895-2.882,1.592-1.316,2.474l24.514,13.869A1.407,1.407,0,0,0,262.369,123.021Z" transform="translate(71.854 5.161)" fill="#fff"/>
      <path id="패스_2525" data-name="패스 2525" d="M261.039,127.231l-24.553-13.856c-1.579-.895-2.882,1.592-1.316,2.474l24.514,13.856A1.411,1.411,0,0,0,261.039,127.231Z" transform="translate(71.421 6.491)" fill="#fff"/>
      <path id="패스_2526" data-name="패스 2526" d="M259.839,131.7l-24.514-13.856c-1.579-.895-2.882,1.592-1.316,2.474l24.514,13.856C260.1,135.07,261.4,132.583,259.839,131.7Z" transform="translate(71.055 7.902)" fill="#fff"/>
      <path id="패스_2527" data-name="패스 2527" d="M258.669,135.731l-24.514-13.856c-1.579-.895-2.882,1.592-1.316,2.474l24.514,13.856C258.919,139.087,260.235,136.574,258.669,135.731Z" transform="translate(70.685 9.175)" fill="#fff"/>
      <path id="패스_2528" data-name="패스 2528" d="M281.524,96.88l-20.277,65.343c-1.513,4.855,6.2,6.579,7.7,1.75L289.221,98.63C290.721,93.762,283.011,92.051,281.524,96.88Z" transform="translate(79.818 0.434)" fill="#fff"/>
      <path id="패스_2529" data-name="패스 2529" d="M347.156,90.929l50.277,29.606a4.855,4.855,0,0,1,2.184,5.592L378.959,194.4a4.855,4.855,0,0,1-7.04,2.829l-50.646-28.566a4.855,4.855,0,0,1-2.263-5.645l21.053-69.3a4.855,4.855,0,0,1,7.092-2.79Z" transform="translate(98.056 -0.747)" fill="#053855"/>
      <path id="패스_2530" data-name="패스 2530" d="M344.883,95.692l47.172,27.777a1.618,1.618,0,0,1,.724,1.855l-19.04,62.949a1.618,1.618,0,0,1-2.342.934l-47.5-26.856a1.619,1.619,0,0,1-.75-1.868l19.382-63.87a1.619,1.619,0,0,1,2.355-.921Z" transform="translate(99.407 0.898)" fill="#f5f7ff"/>
      <path id="패스_2531" data-name="패스 2531" d="M333.375,140.74l28.316,16.921a1.158,1.158,0,0,1,.539,1.316,2.118,2.118,0,0,1-2.105,1.434,1.671,1.671,0,0,1-.8-.237l-27.093-16.2Z" transform="translate(102.298 15.193)" fill="#fff"/>
      <path id="패스_2532" data-name="패스 2532" d="M359.056,125.28l6.645,4.026-7.855,30.8-6.566-4.026Z" transform="translate(108.314 10.311)" fill="#8787d1"/>
      <path id="패스_2533" data-name="패스 2533" d="M351.9,116.25l6.79,4.026L349.582,156.5,342.7,152.29Z" transform="translate(105.604 7.459)" fill="#5f8dfb"/>
      <path id="패스_2534" data-name="패스 2534" d="M344.971,108.57l6,3.842L340.892,152.36l-6.132-3.737Z" transform="translate(103.097 5.034)" fill="#fff"/>
    </g>
  </g>
</svg>
