<svg xmlns="http://www.w3.org/2000/svg" xmlns:xlink="http://www.w3.org/1999/xlink" width="1036" height="1470.549" viewBox="0 0 1036 1470.549">
  <defs>
    <linearGradient id="linear-gradient" x1="0.219" y1="0.858" x2="0.648" y2="0.003" gradientUnits="objectBoundingBox">
      <stop offset="0" stop-color="#326dfb"/>
      <stop offset="0.98" stop-color="#5f8dfb"/>
      <stop offset="1" stop-color="#5f8dfb"/>
    </linearGradient>
    <linearGradient id="linear-gradient-2" x1="1.17" y1="0.402" x2="0.387" y2="0.711" gradientUnits="objectBoundingBox">
      <stop offset="0" stop-color="#326dfb"/>
      <stop offset="1" stop-color="#fff" stop-opacity="0.325"/>
    </linearGradient>
    <linearGradient id="linear-gradient-3" x1="1.147" y1="-0.066" x2="0.732" y2="0.539" xlink:href="#linear-gradient-2"/>
    <linearGradient id="linear-gradient-4" x1="0.389" y1="0.799" x2="0.46" y2="0.559" gradientUnits="objectBoundingBox">
      <stop offset="0" stop-color="#aa4200" stop-opacity="0"/>
      <stop offset="0.98" stop-color="#aa003d"/>
    </linearGradient>
    <linearGradient id="linear-gradient-5" x1="0.639" y1="0.143" x2="0.485" y2="0.514" gradientUnits="objectBoundingBox">
      <stop offset="0" stop-color="#326dfb"/>
      <stop offset="1" stop-color="#fff" stop-opacity="0.396"/>
    </linearGradient>
    <linearGradient id="linear-gradient-6" x1="0.583" y1="0.203" x2="0.487" y2="0.527" gradientUnits="objectBoundingBox">
      <stop offset="0" stop-color="#326dfb"/>
      <stop offset="1" stop-color="#fff"/>
    </linearGradient>
    <linearGradient id="linear-gradient-7" x1="0.893" y1="-0.295" x2="0.377" y2="0.635" xlink:href="#linear-gradient-2"/>
    <linearGradient id="linear-gradient-8" x1="0.896" y1="-0.306" x2="0.377" y2="0.641" gradientUnits="objectBoundingBox">
      <stop offset="0" stop-color="#1b1464"/>
      <stop offset="1" stop-color="#fff"/>
    </linearGradient>
  </defs>
  <g id="그룹_1916" data-name="그룹 1916" transform="translate(19823 -8506)">
    <rect id="사각형_7134" data-name="사각형 7134" width="139" height="24" transform="translate(-19823 9263.325)" fill="#fdc42e"/>
    <rect id="사각형_7133" data-name="사각형 7133" width="139" height="24" transform="translate(-19195.137 8758.25)" fill="#fdc42e"/>
    <text id="체크리스트_클릭_몇번으로_산재_가능성_확인_" data-name="체크리스트 클릭 몇번으로
산재 가능성 확인!" transform="translate(-19823 9238.825)" fill="#333" font-size="30" font-family="Pretendard-Regular, Pretendard"><tspan x="0" y="0">체크리스트 클릭 몇번으로</tspan><tspan font-family="Pretendard-Bold, Pretendard" font-weight="700"><tspan x="0" y="36">산재 가능성 확인!</tspan></tspan></text>
    <text id="간단한_기본정보만_입력하면_회원가입_완료_" data-name="간단한 기본정보만 입력하면
회원가입 완료!" transform="translate(-19195.137 8735.75)" fill="#333" font-size="30" font-family="Pretendard-Regular, Pretendard"><tspan x="0" y="0">간단한 기본정보만 입력하면</tspan><tspan font-family="Pretendard-Bold, Pretendard" font-weight="700"><tspan x="0" y="36">회원가입 완료!</tspan></tspan></text>
    <rect id="사각형_7132" data-name="사각형 7132" width="139" height="24" transform="translate(-19024.137 9748.299)" fill="#fdc42e"/>
    <text id="Step_01._로그인" data-name="Step 01. 로그인" transform="translate(-19195.137 8666.75)" fill="#333" font-size="20" font-family="Pretendard-Bold, Pretendard" font-weight="700" letter-spacing="-0.02em"><tspan x="0" y="0">Step 01. 로그인</tspan></text>
    <text id="Step_03._산재상담신청" data-name="Step 03. 산재상담신청" transform="translate(-19187.137 9656.799)" fill="#333" font-size="20" font-family="Pretendard-Bold, Pretendard" font-weight="700" letter-spacing="-0.02em"><tspan x="0" y="0">Step 03. 산재상담신청</tspan></text>
    <text id="Step_02._체크리스트_작성" data-name="Step 02. 체크리스트 작성" transform="translate(-19823 9169.825)" fill="#333" font-size="20" font-family="Pretendard-Bold, Pretendard" font-weight="700" letter-spacing="-0.02em"><tspan x="0" y="0">Step 02. 체크리스트 작성</tspan></text>
    <text id="산재가능성_확인_후_노무법인으로_빠른_상담신청_" data-name="산재가능성 확인 후
노무법인으로 빠른 상담신청!" transform="translate(-19187.137 9725.799)" fill="#333" font-size="30" font-family="Pretendard-Regular, Pretendard"><tspan x="0" y="0">산재가능성 확인 후</tspan><tspan font-family="Pretendard-Bold, Pretendard" font-weight="700"><tspan x="0" y="36">노무법인으로 빠른 상담신청!</tspan></tspan></text>
    <text id="비회원도_사용가능하며_회원과_비회원의_별도_서비스는_다르게_적용됩니다." data-name="비회원도 사용가능하며
회원과 비회원의 별도 서비스는 다르게 적용됩니다." transform="translate(-19195.137 8819.75)" fill="#333" font-size="18" font-family="Pretendard-Regular, Pretendard" letter-spacing="-0.02em"><tspan x="0" y="0">비회원도 사용가능하며</tspan><tspan x="0" y="21">회원과 비회원의 별도 서비스는 다르게 적용됩니다.</tspan></text>
    <text id="비회원도_사용가능하며_회원과_비회원의_별도_서비스는_다르게_적용됩니다.-2" data-name="비회원도 사용가능하며
회원과 비회원의 별도 서비스는 다르게 적용됩니다." transform="translate(-19187.137 9809.799)" fill="#333" font-size="18" font-family="Pretendard-Regular, Pretendard" letter-spacing="-0.02em"><tspan x="0" y="0">비회원도 사용가능하며</tspan><tspan x="0" y="21">회원과 비회원의 별도 서비스는 다르게 적용됩니다.</tspan></text>
    <text id="조금_더_자세한_내용이_필요하면_로그인을_한_후_심층진단을_클릭합니다." data-name="조금 더 자세한 내용이 필요하면 로그인을 한 후
심층진단을 클릭합니다." transform="translate(-19823 9322.825)" fill="#333" font-size="18" font-family="Pretendard-Regular, Pretendard" letter-spacing="-0.02em"><tspan x="0" y="0">조금 더 자세한 내용이 필요하면 로그인을 한 후</tspan><tspan x="0" y="21">심층진단을 클릭합니다.</tspan></text>
    <ellipse id="타원_79" data-name="타원 79" cx="240.249" cy="240.25" rx="240.249" ry="240.25" transform="translate(-19823 8506)" fill="#f4f8fc"/>
    <g id="그룹_1914" data-name="그룹 1914" transform="translate(-19809.744 8551.195)">
      <path id="패스_2472" data-name="패스 2472" d="M252.731,357.7,16.24,217.934c-7.526-4.224-13.987-11.171-6.645-15.711L246.929,65.379c3.566-2.211,8.974-3.658,12.592-1.553L507.763,207.961c7.526,4.368,8.882,16.579,1.316,20.961L283.9,357.477a31.448,31.448,0,0,1-31.172.224Z" transform="translate(-6.366 40.524)" fill="#5f8dfb"/>
      <path id="패스_2440" data-name="패스 2440" d="M87.59,172.85v5.211l2.645,3.237" transform="translate(91.084 245.75)" fill="#adcee1"/>
      <path id="패스_2438" data-name="패스 2438" d="M252.731,357.7,16.24,217.934c-7.526-4.224-13.987-11.171-6.645-15.711L246.929,65.379c3.566-2.211,8.974-3.658,12.592-1.553L507.763,207.961c7.526,4.368,8.882,16.579,1.316,20.961L283.9,357.477a31.448,31.448,0,0,1-31.172.224Z" transform="translate(-6.366 9.043)" fill="#326dfb"/>
      <path id="패스_2441" data-name="패스 2441" d="M192.386,125.107,90.569,188.266a6.316,6.316,0,0,0,.184,10.8l154.5,87.4a14.145,14.145,0,0,0,14.132-.118l101.318-59.58c7.369-6.053,6.816-17.435,0-17.921L207.11,124.87A14.355,14.355,0,0,0,192.386,125.107Z" transform="translate(19.294 28.042)" fill="#d6d6d5"/>
      <path id="패스_2442" data-name="패스 2442" d="M192.386,121.807,90.569,184.966a6.316,6.316,0,0,0,.184,10.8l154.5,87.4a14.145,14.145,0,0,0,14.132-.118l101.318-59.58a7.895,7.895,0,0,0,0-13.579L207.11,121.57A14.355,14.355,0,0,0,192.386,121.807Z" transform="translate(19.294 27)" fill="#fff"/>
      <path id="패스_2443" data-name="패스 2443" d="M170.471,148.387s42.277-136.5,42.014-136.5,1.316-6.066,8.882-2.632L383.62,104.794s7.895,3.184,6.329,10.527-41.317,133.516-41.317,133.516a6.855,6.855,0,0,1-7.671,2.632c-4.947-1.539-166.688-95.489-166.688-95.489S168.878,153.993,170.471,148.387Z" transform="translate(45.368 -8.2)" fill="#053855"/>
      <path id="패스_2444" data-name="패스 2444" d="M213.166,18.56l166.161,96.87L344.866,231.143,176.56,137.155Z" transform="translate(47.383 -4.929)" fill="#f5f7ff"/>
      <path id="패스_2445" data-name="패스 2445" d="M171.933,132.541l-37.224,23.2a4.487,4.487,0,0,0,.145,7.711l133.621,76.173a13.158,13.158,0,0,0,13.158,0c8.592-5,23.382-14.027,32.435-19.579a5.461,5.461,0,0,0-.105-9.382c-27.027-15.711-115.186-66.988-134.489-78.186A7.277,7.277,0,0,0,171.933,132.541Z" transform="translate(33.496 30.726)" fill="#326dfb"/>
      <path id="패스_2446" data-name="패스 2446" d="M172.78,180.315l46.685,26.251a4.658,4.658,0,0,1,.066,8.092l-27.448,16.066a6.2,6.2,0,0,1-6.2,0l-47.764-27.237a3.947,3.947,0,0,1,0-6.776L166.674,180.3a6.2,6.2,0,0,1,6.105.013Z" transform="translate(34.637 45.9)" fill="#326dfb"/>
      <path id="패스_2447" data-name="패스 2447" d="M171.933,132.541l-37.224,23.2a4.487,4.487,0,0,0,.145,7.711l133.621,76.173a13.158,13.158,0,0,0,13.158,0c8.592-5,23.382-14.027,32.435-19.579a5.461,5.461,0,0,0-.105-9.382c-27.027-15.711-115.186-66.988-134.489-78.186A7.277,7.277,0,0,0,171.933,132.541Z" transform="translate(33.496 30.726)" fill="#f5f7ff" opacity="0.232"/>
      <path id="패스_2448" data-name="패스 2448" d="M172.78,180.315l46.685,26.251a4.658,4.658,0,0,1,.066,8.092l-27.448,16.066a6.2,6.2,0,0,1-6.2,0l-47.764-27.237a3.947,3.947,0,0,1,0-6.776L166.674,180.3a6.2,6.2,0,0,1,6.105.013Z" transform="translate(34.637 45.9)" fill="#f5f7ff" opacity="0.231"/>
      <path id="패스_2449" data-name="패스 2449" d="M255.873,68.537c16.54,0,30.264,15.54,32.58,35.724,1.316-.382,2.553-.763,3.829-1.171-2.776-21.79-18.053-38.5-36.409-38.5-10.527,0-20.079,5.553-26.8,14.4l3.566,1.776C238.583,73.222,246.807,68.537,255.873,68.537Z" transform="translate(63.967 9.609)" fill="#28a0f0"/>
      <path id="패스_2450" data-name="패스 2450" d="M232.095,128.858a49.159,49.159,0,0,1-6.737-25.251,51.315,51.315,0,0,1,2.711-16.566,3.291,3.291,0,0,1-.553-.118c-1.066-.342-2.145-.684-3.211-1.053a55.026,55.026,0,0,0-2.895,17.75,52.87,52.87,0,0,0,7.566,27.632Q230.529,130.055,232.095,128.858Z" transform="translate(61.547 16.329)" fill="#28a0f0"/>
      <path id="패스_2451" data-name="패스 2451" d="M286.237,105c-2.789,19.474-16.237,34.29-32.382,34.29a27.382,27.382,0,0,1-15.553-5c-.908.974-1.855,1.921-2.842,2.8a31.356,31.356,0,0,0,18.421,6.145c18.237,0,33.422-16.513,36.356-38.159Z" transform="translate(65.985 22.371)" fill="#28a0f0"/>
      <path id="패스_2452" data-name="패스 2452" d="M231.117,108.041c0-17.79,11.369-32.277,25.343-32.277a21.566,21.566,0,0,1,13.987,5.369q1.382-1.395,2.8-2.763a25.514,25.514,0,0,0-16.79-6.579c-16.158,0-29.29,16.25-29.29,36.224a44.606,44.606,0,0,0,.488,6.588l3.762-1.6a41.084,41.084,0,0,1-.3-4.961Z" transform="translate(63.367 11.883)" fill="#28a0f0"/>
      <path id="패스_2453" data-name="패스 2453" d="M261.366,126.925a20.173,20.173,0,0,1-5.79.855c-9.408,0-17.619-6.579-22-16.29q-1.763.868-3.566,1.684c5.026,11.053,14.592,18.553,25.566,18.553a24,24,0,0,0,7.316-1.145C262.353,129.372,261.866,128.148,261.366,126.925Z" transform="translate(64.264 24.42)" fill="#28a0f0"/>
      <path id="패스_2454" data-name="패스 2454" d="M263,127.38c.5,1.408,1.039,2.8,1.605,4.184a40.264,40.264,0,0,0,9.816-27A41.763,41.763,0,0,0,268.487,82.8l-3.013,2.632a38.159,38.159,0,0,1,5,19.158A36.935,36.935,0,0,1,263,127.38Z" transform="translate(74.683 15.359)" fill="#28a0f0"/>
      <path id="패스_2455" data-name="패스 2455" d="M251.158,84.7c6.408,0,11.934,4.882,14.474,11.842,1.316-.329,2.553-.671,3.816-1.04-3.066-8.684-10.105-14.79-18.29-14.79a16.606,16.606,0,0,0-7.158,1.7c.368,1.316.711,2.632,1.026,3.869a12.908,12.908,0,0,1,6.132-1.579Z" transform="translate(68.682 14.7)" fill="#28a0f0"/>
      <path id="패스_2456" data-name="패스 2456" d="M269.424,96.47c-1.316.368-2.553.711-3.842,1.053a26.327,26.327,0,0,1,.158,2.737c0,11.316-7.171,20.527-15.987,20.527h-.224c-.342,1.316-.7,2.632-1.079,3.882.434,0,.868.079,1.316.079,10.987,0,19.935-10.987,19.935-24.474A29.877,29.877,0,0,0,269.424,96.47Z" transform="translate(70.087 19.677)" fill="#28a0f0"/>
      <path id="패스_2457" data-name="패스 2457" d="M242.5,123.666c.592-1.237,1.184-2.461,1.79-3.684a23.027,23.027,0,0,1-6.053-16.053,23.685,23.685,0,0,1,4.711-14.54c-.368-1.526-.737-3.066-1.132-4.579a26.8,26.8,0,0,0-7.526,19.119,26.487,26.487,0,0,0,8.211,19.737Z" transform="translate(65.614 15.994)" fill="#28a0f0"/>
      <path id="패스_2458" data-name="패스 2458" d="M236.381,88.329c-1.039.474-2.053.961-3.079,1.447.8-.5,1.605-1.026,2.368-1.592s1.895-1.829,1.724-2.868c-.25-1.566-2.961-.171-4.987,1.092,1.408-1.224,2.566-2.632,1.316-3.171s-2.513,1-3.263,1.526c-1.316.947-2.632,1.961-3.855,3.04a27.145,27.145,0,0,0,2.342-3.684c.724-1.211-1.079-2.211-1.961-1.316a76.407,76.407,0,0,1-8.04,7.566,1.237,1.237,0,0,0-.329.368h-3.671a1.066,1.066,0,0,0-.987.3,3.408,3.408,0,0,0-.658.3,1.1,1.1,0,0,0-.184.158,12.554,12.554,0,0,0-1.724.184,1.316,1.316,0,0,0-.934,1.8l-.237-.132c-1.316-.8-2.329,1.316-1.039,2.145a17.369,17.369,0,0,0,9.158,2.553.553.553,0,0,0,.605.487,35.842,35.842,0,0,0,10.04-1.711,6.119,6.119,0,0,0,1.171-.461,17.7,17.7,0,0,0,5.263-3.355.658.658,0,0,0-.645-1.105l-.566.171c.368-.211.737-.408,1.092-.632.895-.566,1.961-1.25,2.105-2.382a.671.671,0,0,0-1.026-.737Z" transform="translate(57.498 15.252)" fill="#fddab6"/>
      <path id="패스_2459" data-name="패스 2459" d="M196.916,82.058a13.159,13.159,0,0,1,.895-1.763.184.184,0,0,0,0,.092.237.237,0,0,0,.421.066l.645-.987a1.144,1.144,0,0,0,0,.382.987.987,0,0,0,1.092.776.974.974,0,0,0,.868-1.224l.3-.342a.973.973,0,0,0,0,.3.855.855,0,0,0,1.421.355c.118-.092.211-.211.329-.316a.724.724,0,0,0,.579,0,22.105,22.105,0,0,0,2.474-1.013.382.382,0,0,1-.118-.605,24.68,24.68,0,0,1,3-2.079h.132V75.6a3.369,3.369,0,0,0-.158-2.421,2.632,2.632,0,0,0,.539-2.237.408.408,0,0,1-.224-.092,1.828,1.828,0,0,1-.382-.447,2.553,2.553,0,0,1-.421-.776.342.342,0,0,1,.132-.382,11.576,11.576,0,0,0-1.316-1.461,9.869,9.869,0,0,0,1.316-5.54.842.842,0,0,0-1.579-.408,17.877,17.877,0,0,0-1.039,1.895.711.711,0,0,0-.237.263,104.708,104.708,0,0,1-5.263,9.908c-.342.539-4.54,6.329-4.066,6.461C196.113,80.611,192.679,88.506,196.916,82.058Zm2.487-2.447h0a.224.224,0,0,0,.342,0h0a.868.868,0,0,0,.724.145.554.554,0,1,1-1.105-.079Z" transform="translate(53.146 8.6)" fill="#fddab6"/>
      <path id="패스_2460" data-name="패스 2460" d="M196.866,77.266a9.211,9.211,0,0,0,2.263-2.632,1.763,1.763,0,0,1,2.447-.684,10.349,10.349,0,0,0,.092-1.408c0-2.382,3.75-2.421,3.711,0a9.026,9.026,0,0,1-1.434,5.263,15.2,15.2,0,0,1-4.04,3.579,1.908,1.908,0,0,1-2.829-1.434l-.171-.132a1.868,1.868,0,0,1-.04-2.553Z" transform="translate(53.643 11.552)" fill="#fddab6"/>
      <path id="패스_2461" data-name="패스 2461" d="M201.357,80.093A7.527,7.527,0,0,0,204.5,75.7a.21.21,0,0,0,.3.066l1.487-1a3.461,3.461,0,0,0,.829-.684c.539-.684,0-1.474-.211-2.184a.224.224,0,0,0-.079-.105l.211-.355a3.171,3.171,0,0,0,.553-1.842c-.105-.645-.711-1.066-1-1.618a1.434,1.434,0,0,0-.868-1.579c-.789-.355-1.224.237-1.658.816q-1.316,1.868-2.632,3.829c-.158.25.25.474.408.224.447-.711.895-1.408,1.316-2.092a8.737,8.737,0,0,1,1.5-2.092c1.658-.961,1.316,1.316,1.066,1.921a10.632,10.632,0,0,1-.553,1l-1.25,2.211a.21.21,0,0,0,0,.184,6.579,6.579,0,0,1-2.855,7.25C200.87,79.857,201.12,80.251,201.357,80.093Zm3.368-7.605a.211.211,0,0,0-.25,0V72.33a17.63,17.63,0,0,0,2.026-3.776c.118.145.237.289.342.447a1.408,1.408,0,0,1,.092,1.553C206.594,71.343,205.738,73.12,204.725,72.488ZM204.58,75.3a6.487,6.487,0,0,0,0-2.382c.789.395,1.474-.132,1.961-.776a5.119,5.119,0,0,1,.329.921.961.961,0,0,1-.5,1.026,19.321,19.321,0,0,1-1.789,1.263Z" transform="translate(55.101 10.145)" fill="#ffd3a7"/>
      <path id="패스_2462" data-name="패스 2462" d="M181.12,85.542s10.829.513,13.645-2.079S201.647,72.7,201.647,72.7s7.461,4.79,7.895,7.553S201.7,96.372,198.068,97.266" transform="translate(48.823 12.171)" fill="#ebb72d"/>
      <path id="패스_2463" data-name="패스 2463" d="M171.065,184.952s9.211-4.066,11.355-4.237,5.882.592,2.632,4.632c0,0-9.632,6.3-10.895,6.5s-4.355-.763-4.434-.434-.368,2.763-.368,2.763-8.053,3.066-8.395-2.316c0-.7,1.158-10.7,1.158-10.7" transform="translate(42.457 46.277)" fill="#34323d"/>
      <path id="패스_2464" data-name="패스 2464" d="M160.667,183.7c1.592-10.342,4.5-20.369,5.724-30.843.763-6.579,1.316-13.158,2.118-19.737s3.263-12.948,4.842-19.461a.711.711,0,0,0-.329-.8c.079-.224.145-.461.211-.684.816-.776,1.645-1.513,2.447-2.211l11.25,7.579s-.066,6.895-.421,16.869c-1.316,5.816-2.3,11.013-3.776,16.527a1.447,1.447,0,0,1,.342,1.316,467.378,467.378,0,0,0-7.987,52.633,1.526,1.526,0,0,1-1,1.316l-.316,2.724c-9.79,3.776-11.934-2.8-11.934-2.8s-.447-5.605-1-13.4C160.653,189.685,160.6,186.685,160.667,183.7Z" transform="translate(42.356 23.938)" fill="#34323d"/>
      <path id="패스_2465" data-name="패스 2465" d="M184.182,195.37l5.434,1.947a3,3,0,0,0,2.2,2,1.21,1.21,0,0,0,.763.421,14.25,14.25,0,0,0,6.461-1.053c2.632-.816,12.777-4.711,9.948,2.632-1.855,1.316-3.947,2.434-5.829,3.592-1.066.645-2.145,1.316-3.237,1.895a6.422,6.422,0,0,1-1.895.882c-1.461.224-5.013-.882-5.105-.5s-.421,3.184-.421,3.184-9.211,3.526-9.658-2.632C182.788,206.857,184.182,195.37,184.182,195.37Z" transform="translate(49.366 50.912)" fill="#34323d"/>
      <path id="패스_2466" data-name="패스 2466" d="M180.068,168.5c-1.132-18.29-1.763-36.685-5.619-54.672-.171-4.671-3.2-1.684-2.987-3.54,1.645-15.04,23.566,2.855,23.566,2.855.882.724,1,5.342,1.171,6.382q1.487,8.671,2.54,17.4c3.632,29.382,2.29,58.606.8,88.081-4.658,4.763-7.711,6.184-15.211,3.105-1.5-19.29-2.921-38.58-4.158-57.9Z" transform="translate(45.77 22.139)" fill="#34323d"/>
      <path id="패스_2467" data-name="패스 2467" d="M193.053,86.211c-.211-.947-2.632-1.592-3.395-1.987-1.7-.921-.711-2.526-2.368-3.526A57.069,57.069,0,0,0,179.7,77h-.066c-4.158,0-11.132-.237-11.553,5.263-.645,8.553.105,17.106.763,25.606.263,3.421.566,6.816.868,10.158.105,1.224.263,11.092,1,11.395,8.25,3.421,18.8,2.211,26.882-.987a274.475,274.475,0,0,0-4.54-42.225Z" transform="translate(44.627 13.529)" fill="#ffc400"/>
      <path id="패스_2468" data-name="패스 2468" d="M181.716,90.729A14.281,14.281,0,0,0,192.265,103c0,.566.348,3.748.414,4.314-6.579-1.579-11.924-9.582-12.608-16.582C179.979,89.677,181.61,89.677,181.716,90.729Z" transform="translate(48.491 17.616)" fill="#ebb72d"/>
      <path id="패스_2469" data-name="패스 2469" d="M181.367,63.969c.539.145,5.158,10.75,3.342,17.185s-12.75-.184-15.5-5.092S171.024,61.285,181.367,63.969Z" transform="translate(44.814 9.268)" fill="#fddab6"/>
      <path id="패스_2470" data-name="패스 2470" d="M182.253,66.928A5.092,5.092,0,0,1,179.2,71.56c-3.066,1.132-5.605,1.895-5.447,3.316s5.54-.2,5.553,3.04a24.171,24.171,0,0,1-.882,6.461c-.342,1.592-9.527-3.276-12.553-11.592s4.553-10.527,4.921-10.527,1.053-2.316,4.776-3.118,4.763.632,4.763.632a4.513,4.513,0,0,1,5.434.592c3.434,2.724,2.553,7.7-1.316,9.711Z" transform="translate(43.783 7.81)" fill="#34323d"/>
      <path id="패스_2471" data-name="패스 2471" d="M184.751,79.09s18.921,10.842,25.737,10.855c4.921,0,14.658-1.592,19.737-2.487,4.684,3.947,5,10.921,2.092,16.25-8.263,1.316-32.737,4.869-40.409,1.066C182.62,100.169,172.4,94,172.4,94S163.106,84.932,184.751,79.09Z" transform="translate(45.442 14.187)" fill="#ffc400"/>
      <path id="패스_2475" data-name="패스 2475" d="M337.443,185.988,280.5,211.276l165.022,97.443,56.127-30.13" transform="translate(-229.479 39.514)" opacity="0.32" fill="url(#linear-gradient)"/>
    </g>
    <path id="패스_8696" data-name="패스 8696" d="M-3050,7869.432h400.137" transform="translate(-16145.137 807.75)" fill="none" stroke="#707070" stroke-width="1"/>
    <path id="패스_8694" data-name="패스 8694" d="M-3050,7869.432h400.137" transform="translate(-16137.137 1797.799)" fill="none" stroke="#707070" stroke-width="1"/>
    <path id="패스_8695" data-name="패스 8695" d="M-3050,7869.432h400.137" transform="translate(-16773 1310.325)" fill="none" stroke="#707070" stroke-width="1"/>
    <g id="그룹_1913" data-name="그룹 1913" transform="translate(-20313.543 6775.218)">
      <circle id="타원_74" data-name="타원 74" cx="236.906" cy="236.906" r="236.906" transform="translate(1049.841 2222.019)" fill="#f4f8fc"/>
      <g id="그룹_146" data-name="그룹 146" transform="translate(1015.161 2193.483)">
        <g id="그룹_133" data-name="그룹 133" transform="translate(0 135.369)">
          <g id="그룹_132" data-name="그룹 132">
            <path id="패스_2602" data-name="패스 2602" d="M249.3,353.6,16.1,215.776C8.681,211.611,2.31,204.76,9.55,200.283L243.581,65.343c3.516-2.18,8.849-3.607,12.417-1.531L500.786,205.941c7.422,4.308,8.758,16.349,1.3,20.669L280.041,353.376a31.01,31.01,0,0,1-30.738.221Z" transform="translate(-6.366 -31.758)" fill="#5f8dfb"/>
            <path id="패스_2601" data-name="패스 2601" d="M249.3,353.6,16.1,215.776C8.681,211.611,2.31,204.76,9.55,200.283L243.581,65.343c3.516-2.18,8.849-3.607,12.417-1.531L500.786,205.941c7.422,4.308,8.758,16.349,1.3,20.669L280.041,353.376a31.01,31.01,0,0,1-30.738.221Z" transform="translate(-6.366 -62.801)" fill="#326dfb"/>
          </g>
        </g>
        <path id="패스_2599" data-name="패스 2599" d="M89.756,0C80.985,5.5,9.264,48.742,0,53.685L33.76,83.9l75.593-72.556C104.318,8.942,93.726,3.918,89.756,0Z" transform="matrix(0.985, 0.174, -0.174, 0.985, 323.825, 250.506)" fill="url(#linear-gradient-2)" style="mix-blend-mode: multiply;isolation: isolate"/>
        <path id="패스_2598" data-name="패스 2598" d="M177.437,216.06c-8.771,5.5-60.334,28.83-69.6,33.773L165.881,287.6l37.782-55.384C198.628,229.813,181.408,219.979,177.437,216.06Z" transform="translate(135.492 -26.118)" fill="url(#linear-gradient-3)" style="mix-blend-mode: multiply;isolation: isolate"/>
        <path id="패스_2378" data-name="패스 2378" d="M183.993,287.027c16.543-8.914,74.509-45.582,90.939-54.7L158.423,190.45,83.77,230.378C101.084,239.517,160.029,272.2,183.993,287.027Z" transform="translate(-43.849 73.625)" opacity="0.32" fill="url(#linear-gradient-4)"/>
        <path id="패스_2380" data-name="패스 2380" d="M100.917,237.937l164.821-94.569a11.548,11.548,0,0,1,11.58,0l87.968,51.4a6.794,6.794,0,0,1,0,11.741L202.168,300.945a15.226,15.226,0,0,1-15.419-.1l-85.928-51.123a6.794,6.794,0,0,1,.1-11.789Z" transform="translate(-35.555 44.144)" fill="#d6d6d5"/>
        <path id="패스_2381" data-name="패스 2381" d="M100.907,233.277l164.822-94.569a11.548,11.548,0,0,1,11.58,0l87.968,51.4a6.794,6.794,0,0,1,0,11.741L202.158,296.333a15.226,15.226,0,0,1-15.419-.1l-85.928-51.2a6.794,6.794,0,0,1,.1-11.757Z" transform="translate(-35.544 41.32)" fill="#053855"/>
        <path id="패스_2382" data-name="패스 2382" d="M252.154,145.49c.916.305,84.161,48.875,84.161,48.875L197.257,275.828,113.24,227.323Z" transform="translate(-25.986 46.374)" fill="#f5f7ff"/>
        <path id="패스_2383" data-name="패스 2383" d="M156.369,229.891a2.152,2.152,0,0,0,.659-3.116,15.757,15.757,0,0,0-4.047-3.052c-1.413-.883-2.907-1.606-4.353-2.506l-11.243-6.553-9.139-5.4a4.78,4.78,0,0,0-6.457,1.365,1.959,1.959,0,0,0,.9,2.827l16.929,9.8,7.292,4.224,4.224,2.473a5.108,5.108,0,0,0,4.3.434A3.711,3.711,0,0,0,156.369,229.891Z" transform="translate(-20.979 84.601)" fill="#f5f7ff"/>
        <ellipse id="타원_44" data-name="타원 44" cx="2.939" cy="2.425" rx="2.939" ry="2.425" transform="translate(90.611 286.74)" fill="#f5f7ff"/>
        <path id="패스_2385" data-name="패스 2385" d="M269.338,142.855s.193,9.862-.98,10.472-8.625,10.311-9.139,11.837c-1.719,5.059,7.629,7.292,10.986,5.573s8.978-11.243,9.364-13.6,3.212-17.154,3.212-17.154" transform="translate(62.37 43.035)" fill="#b1b8d3"/>
        <path id="패스_2386" data-name="패스 2386" d="M262.435,137.493s.193,9.862-.98,10.472-13.347,7.822-13.957,9.3c-1.943,4.706,7.533,6.425,10.89,4.818s13.893-7.87,14.295-10.279,3.212-17.154,3.212-17.154" transform="translate(55.235 39.804)" fill="#b1b8d3"/>
        <path id="패스_2387" data-name="패스 2387" d="M294.958,77.351s7.067,11.082,6.119,21.024S290.188,187.4,283.8,186.6s-10.215.112-13.556-8.256c0,0-10.729,2.441-14.15-6.087,0,0,2.586-74.187,8.689-85.832S294.958,77.351,294.958,77.351Z" transform="translate(60.6 4.927)" fill="#34323d"/>
        <path id="패스_2388" data-name="패스 2388" d="M223.948,63.306a33.825,33.825,0,0,1,5.429-.9,30.26,30.26,0,0,0-5.541.562c-1.911.305-2.136-2.682-.225-3l.948-.145a1.606,1.606,0,0,1,.98-2.538,29.473,29.473,0,0,1,12.432,1.14,25.027,25.027,0,0,1,.08-4.561,1.333,1.333,0,0,1,.305-.707,1.606,1.606,0,0,1,2.971.4c.418,2.409.289,4.818.707,7.26a9.455,9.455,0,0,0,.321,1.269q2.779,2.891,5.477,5.846c1.269,1.4-1.06,3.052-2.361,1.815a1.766,1.766,0,0,1-.8.659l.225.289a1.349,1.349,0,0,1,.161,1.349l.209.209c1.381,1.349-.546,3.662-1.927,2.3l-.482-.482a1.2,1.2,0,0,1-1.767-.482,14.149,14.149,0,0,0-4.658-4.642l-.594-.4a19.032,19.032,0,0,0-5.059-.98c-1.285.321-2.554.707-3.807,1.108a1.494,1.494,0,0,1-1.172-2.746l-.819.177C223.113,66.614,222.068,63.787,223.948,63.306Z" transform="translate(40.11 -10.098)" fill="#fddab6"/>
        <path id="패스_2389" data-name="패스 2389" d="M223.682,56.865a33.248,33.248,0,0,1,5.975-.273c.482,0,.546.787,0,.771a33.247,33.247,0,0,0-5.975.273C223.248,57.7,223.184,56.93,223.682,56.865Z" transform="translate(40.745 -7.528)" fill="#fdd3a7"/>
        <path id="패스_2390" data-name="패스 2390" d="M223.5,58.82a41.2,41.2,0,0,1,6.425-.45.385.385,0,1,1,0,.771,41.18,41.18,0,0,0-6.425.45C223.066,59.655,223.018,58.885,223.5,58.82Z" transform="translate(40.638 -6.432)" fill="#fdd3a7"/>
        <path id="패스_2391" data-name="패스 2391" d="M228.749,59.383a7.822,7.822,0,0,1,6.906,1.317c.418.273-.08.851-.5.594a6.987,6.987,0,0,0-6.152-1.172.391.391,0,0,1-.257-.739Z" transform="translate(43.869 -5.999)" fill="#663a12"/>
        <path id="패스_2392" data-name="패스 2392" d="M227.894,60.736a5.348,5.348,0,0,1,2.875-4.144c.45-.193.707.53.257.723a4.578,4.578,0,0,0-2.393,3.566A.376.376,0,0,1,227.894,60.736Z" transform="translate(43.503 -7.528)" fill="#663a12"/>
        <path id="패스_2393" data-name="패스 2393" d="M224.069,60.883a16.254,16.254,0,0,1,4.915-1.333.386.386,0,1,1,0,.771,15.6,15.6,0,0,0-4.722,1.285C223.956,61.879,223.7,61.092,224.069,60.883Z" transform="translate(41.081 -5.716)" fill="#fdd3a7"/>
        <path id="패스_2394" data-name="패스 2394" d="M245.813,56.7,242.28,78.27s2.682,8.031,8.464,9.075,10.1-25.794,10.1-25.794" transform="translate(52.23 -7.444)" fill="#c3ea75"/>
        <path id="패스_2395" data-name="패스 2395" d="M261.566,49.5a55.507,55.507,0,0,1,13.122,2.779c5.734,1.863,30.517,38.178,27.3,41.759s-18.6,10.874-27.754,8.914-30.757-37.824-29.746-41.888c2.313-9.332,9.524-9.364,9.524-9.364" transform="translate(53.55 -11.808)" fill="#c3ea75"/>
        <path id="패스_2396" data-name="패스 2396" d="M245.017,46.044s-1.606,13.684,3.212,16.061,10.327-2.666,11.917-5.638,3.212-18.021-6.007-17.009S245.017,46.044,245.017,46.044Z" transform="translate(53.733 -17.924)" fill="#fddab6"/>
        <path id="패스_2397" data-name="패스 2397" d="M246.388,38.718c3.774-1.317,8.159-4.16,14.889.289s8.818,16.8.771,19.772l-1.526-4.449a4.5,4.5,0,0,0,.932-3.212,2.6,2.6,0,0,0-3.116-2.425,6.826,6.826,0,0,1-1.911-2.313c-1.365-2.7-2.891-1.365-4.818,1.028s-6.232,3.116-8.352,1.606S241.585,40.452,246.388,38.718Z" transform="translate(52.089 -19.625)" fill="#34323d"/>
        <path id="패스_2398" data-name="패스 2398" d="M239.06,58.65a162.95,162.95,0,0,1,14.23,11.387l6.955,14.969s-4.08,5.75-11.677,1.7c-5.4-2.875-13.909-13.347-17.989-19.595a15.451,15.451,0,0,1,8.48-8.464Z" transform="translate(45.138 -6.262)" fill="#c3ea75"/>
        <path id="패스_2399" data-name="패스 2399" d="M270.509,91.851c.1-1.028,1.7-1.028,1.606,0l-7.308,77.93c-.1,1.028-1.7,1.028-1.606,0Z" transform="translate(64.908 13.395)" fill="#444152"/>
        <path id="패스_2400" data-name="패스 2400" d="M252.34,87.862s8.031-6.649,8.031-9.637-4.16-24.253,2.714-25.939S275.533,66.741,277.54,76.2s-20.655,27.1-20.655,27.1" transform="translate(58.327 -10.194)" fill="#c3ea75"/>
        <path id="패스_2401" data-name="패스 2401" d="M240.01,28.309c-4.658-3.357-11.693-2.843-16.35.5L238,190.465l16.27-1.446Z" transform="translate(40.943 -26.032)" fill="#963626"/>
        <ellipse id="타원_45" data-name="타원 45" cx="8.159" cy="3.453" rx="8.159" ry="3.453" transform="translate(278.639 160.987) rotate(-5.07)" fill="#963626"/>
        <path id="패스_2402" data-name="패스 2402" d="M248.93,129.331s-1.847-3.951-8.32-3.084-8.031,3.823-8.031,3.823l9.894,30.661Z" transform="translate(46.35 34.635)" fill="#ffd8bd"/>
        <path id="패스_2403" data-name="패스 2403" d="M240.449,153.536l2.971-14.584a5.862,5.862,0,0,0-7.42.819Z" transform="translate(48.423 41.83)" fill="#653200"/>
        <path id="패스_2404" data-name="패스 2404" d="M249.994,84.69l-7.26.851s-5.862-1.253-7.163,1.076c-.353.61,5.83,1.51,5.83,1.51s-8.9,2.345-8.352,4.1,6.425,5.14,7.581,5.445,12.415-8.577,12.415-8.577" transform="translate(46.62 9.522)" fill="#fddab6"/>
        <path id="패스_2405" data-name="패스 2405" d="M241.4,92.174c2.875-4.08,8.866-8.031,13.749-12.688,6.633-5.493,13.556-12.448,18.888-4.947,5.943,8.336-17.411,24-24.2,28.3A21.667,21.667,0,0,1,241.4,92.174Z" transform="translate(51.696 1.379)" fill="#c3ea75"/>
        <path id="패스_2406" data-name="패스 2406" d="M131.225,196.091,190.8,230.06a1.815,1.815,0,0,0,1.831-3.116l-59.652-33.97a1.815,1.815,0,0,0-1.831,3.116Z" transform="translate(-15.59 75.052)" fill="#fff"/>
        <path id="패스_2407" data-name="패스 2407" d="M146.664,186.381l59.588,33.938a1.815,1.815,0,0,0,1.831-3.116L148.5,183.265a1.815,1.815,0,0,0-1.831,3.116Z" transform="translate(-6.183 69.167)" fill="#fff"/>
        <path id="패스_2408" data-name="패스 2408" d="M160.209,179.017,219.8,212.938a1.815,1.815,0,0,0,1.831-3.116l-59.652-33.938A1.815,1.815,0,0,0,160.144,179Z" transform="translate(1.988 64.694)" fill="#fff"/>
        <path id="패스_2409" data-name="패스 2409" d="M178.734,168.127l59.588,33.922a1.815,1.815,0,0,0,1.831-3.116l-59.588-33.938a1.815,1.815,0,0,0-1.831,3.116Z" transform="translate(13.256 58.093)" fill="#fff"/>
        <path id="패스_2410" data-name="패스 2410" d="M197.284,156.491l59.588,33.938a1.815,1.815,0,0,0,1.831-3.116l-59.588-33.938a1.815,1.815,0,0,0-1.831,3.116Z" transform="translate(24.499 51.05)" fill="#fff"/>
        <ellipse id="타원_46" data-name="타원 46" cx="12.174" cy="5.991" rx="12.174" ry="5.991" transform="translate(106.319 263.593)" fill="#fdc42e"/>
        <path id="패스_2411" data-name="패스 2411" d="M138.129,197.588l1.51-3.5a1.076,1.076,0,0,0-.916-1.606H128.7a1.06,1.06,0,0,0,0,2.1h10.022l-.916-1.606-1.51,3.5c-.53,1.237,1.285,2.313,1.815,1.06Z" transform="translate(-17.178 74.857)" fill="#fff"/>
        <ellipse id="타원_47" data-name="타원 47" cx="12.174" cy="5.991" rx="12.174" ry="5.991" transform="translate(130.909 249.236)" fill="#fdc42e"/>
        <path id="패스_2412" data-name="패스 2412" d="M153.449,188.647l1.51-3.5a1.076,1.076,0,0,0-.915-1.606H144.021a1.06,1.06,0,0,0,0,2.1h10.022l-.915-1.606-1.51,3.5c-.53,1.237,1.285,2.313,1.815,1.06Z" transform="translate(-7.892 69.437)" fill="#fff"/>
        <ellipse id="타원_48" data-name="타원 48" cx="12.174" cy="5.991" rx="12.174" ry="5.991" transform="translate(150.937 235.648)" fill="#fdc42e"/>
        <path id="패스_2413" data-name="패스 2413" d="M165.909,180.188l1.51-3.5a1.076,1.076,0,0,0-.916-1.606H156.481a1.06,1.06,0,0,0,0,2.1H166.5l-.915-1.606-1.51,3.5c-.53,1.237,1.285,2.313,1.815,1.06Z" transform="translate(-0.34 64.31)" fill="#fff"/>
        <ellipse id="타원_49" data-name="타원 49" cx="12.174" cy="5.991" rx="12.174" ry="5.991" transform="translate(177.519 219.65)" fill="#fdc42e"/>
        <path id="패스_2414" data-name="패스 2414" d="M182.459,170.227l1.51-3.5a1.076,1.076,0,0,0-.915-1.606H173.031a1.06,1.06,0,0,0,0,2.1h10.022l-.916-1.606-1.51,3.5c-.53,1.237,1.285,2.313,1.815,1.06Z" transform="translate(9.692 58.273)" fill="#fff"/>
        <ellipse id="타원_50" data-name="타원 50" cx="12.174" cy="5.991" rx="12.174" ry="5.991" transform="translate(205.594 201.774)" fill="#fdc42e"/>
        <path id="패스_2415" data-name="패스 2415" d="M199.873,159.091l1.606-3.485a1.076,1.076,0,0,0-.916-1.606H190.541a1.06,1.06,0,0,0,0,2.1h10.022l-.915-1.606-1.51,3.5c-.53,1.237,1.285,2.313,1.815,1.06Z" transform="translate(20.305 51.533)" fill="#fff"/>
        <path id="패스_2417" data-name="패스 2417" d="M318.413,156.236a59.427,59.427,0,0,0-12.351,40.876c1.606,23.835,15.066,30.757,15.066,30.757l15.965.883s18.984-6.2,16.511-37.2c-2.329-29.1-11.789-35.945-11.789-35.945" transform="translate(90.791 52.508)" fill="#28a0f0"/>
        <ellipse id="타원_51" data-name="타원 51" cx="11.757" cy="4.16" rx="11.757" ry="4.16" transform="translate(409.22 204.633)" fill="#2898e2"/>
        <path id="패스_2600" data-name="패스 2600" d="M11.7,0c6.493,0,9.32,2.664,9.32,4.962S18.193,8.32,11.7,8.32.64,6.684.64,4.387,5.207,0,11.7,0Z" transform="translate(409.277 273.682)" fill="#28a0f0"/>
        <path id="패스_2418" data-name="패스 2418" d="M324.4,187.992l-14.214-81.608c-.305-1.783-3.02-1.028-2.714.739l14.23,81.656C322.021,190.514,324.719,189.759,324.4,187.992Z" transform="translate(91.728 22.054)" fill="#007f68"/>
        <path id="패스_2419" data-name="패스 2419" d="M319.62,183.018a3.388,3.388,0,0,1,1.317,0,2.939,2.939,0,0,1,1.445.883q1.7-34.211.61-68.47c0-1.8-2.859-1.815-2.811,0Q321.274,149.289,319.62,183.018Z" transform="translate(99.108 27.334)" fill="#007f68"/>
        <path id="패스_2420" data-name="패스 2420" d="M349.936,108a750.847,750.847,0,0,0-27.5,78.46,1.407,1.407,0,0,0,2.714.739,750.8,750.8,0,0,1,27.5-78.46C353.341,107.086,350.675,106.347,349.936,108Z" transform="translate(100.786 23.088)" fill="#007f68"/>
        <path id="패스_2421" data-name="패스 2421" d="M315.433,147.294s-1.606-.193-8.256-7.26,1.767-12.383-2.12-20.334,1.606-18.39,2.827-26.341a36.941,36.941,0,0,0,5.895,15.563c5.059,7.244,7.886,13.8,7.356,22.984A81.363,81.363,0,0,1,318.227,149" transform="translate(89.45 14.777)" fill="#007f68"/>
        <path id="패스_2422" data-name="패스 2422" d="M322.874,155.213s-1.445-.562-6.248-9.043,4.722-11.58,2.875-20.237,6.007-17.443,9.139-24.863a36.941,36.941,0,0,0,1.943,16.527c3.212,8.256,4.3,15.29,1.606,24.092a81.36,81.36,0,0,1-7.051,15.917" transform="translate(96.464 19.451)" fill="#007f68"/>
        <path id="패스_2423" data-name="패스 2423" d="M334.313,145.214s-1.3-.835-4.256-10.135,6.987-10.36,6.971-19.274,9.46-15.853,14.038-22.486a36.942,36.942,0,0,0-1.478,16.575c1.4,8.737,1.076,15.853-3.405,23.883a81.36,81.36,0,0,1-10.167,14.134" transform="translate(105.102 14.753)" fill="#007f68"/>
      </g>
    </g>
    <g id="그룹_1915" data-name="그룹 1915" transform="translate(-20276.59 6795.868)">
      <circle id="타원_75" data-name="타원 75" cx="240.25" cy="240.25" r="240.25" transform="translate(458 2700.182)" fill="#f4f8fc"/>
      <g id="그룹_147" data-name="그룹 147" transform="translate(464.596 2756.517)">
        <path id="패스_2596" data-name="패스 2596" d="M252.731,357.7,16.24,217.934c-7.526-4.224-13.987-11.171-6.645-15.711L246.929,65.379c3.566-2.211,8.974-3.658,12.592-1.553L507.763,207.961c7.526,4.368,8.882,16.579,1.316,20.961L283.9,357.477a31.448,31.448,0,0,1-31.172.224Z" transform="translate(-6.366 24.09)" fill="#5f8dfb"/>
        <path id="패스_2487" data-name="패스 2487" d="M253.408,361.914,16.93,222.161c-7.526-4.237-13.987-11.171-6.645-15.7L247.619,69.619c3.566-2.211,8.974-3.658,12.592-1.553L508.453,212.174c7.526,4.368,8.882,16.579,1.316,20.961L284.619,361.73a31.448,31.448,0,0,1-31.211.184Z" transform="translate(-0.398 -8.082)" fill="#326dfb"/>
        <path id="패스_2488" data-name="패스 2488" d="M381.909,179.353l-26.737,15.7-51.962-35.3L330.158,146.3" transform="translate(93.132 16.949)" fill="url(#linear-gradient-5)" style="mix-blend-mode: multiply;isolation: isolate"/>
        <path id="패스_2489" data-name="패스 2489" d="M183.117,128c-8.895,5.579-21.053,17.869-30.487,22.882l146.608,90L335.423,214.3C330.318,211.9,187.144,132.013,183.117,128Z" transform="translate(45.577 11.17)" fill="url(#linear-gradient-6)" style="mix-blend-mode: multiply;isolation: isolate"/>
        <path id="패스_2490" data-name="패스 2490" d="M182.034,213.82c-8.895,5.579-60.569,32.986-69.964,38l42.073,25.536,48.273-48.5C197.31,226.426,186.06,217.794,182.034,213.82Z" transform="translate(34.647 38.273)" fill="url(#linear-gradient-7)" style="mix-blend-mode: multiply;isolation: isolate"/>
        <path id="패스_2491" data-name="패스 2491" d="M164.72,153.6S204.352,25.69,204.1,25.69s1.237-5.684,8.316-2.474l152.082,89.5s7.369,2.987,5.934,9.855S331.7,247.734,331.7,247.734a6.421,6.421,0,0,1-7.184,2.474c-4.632-1.434-156.24-89.475-156.24-89.475A5.816,5.816,0,0,1,164.72,153.6Z" transform="translate(49.317 -22.233)" fill="#053855"/>
        <path id="패스_2492" data-name="패스 2492" d="M204.733,31.93l155.753,90.791-32.3,108.45L170.43,143.077Z" transform="translate(51.198 -19.171)" fill="#f5f7ff"/>
        <path id="패스_2493" data-name="패스 2493" d="M66.5,167.69c-8.895,5.579-32.619,15.592-42.014,20.606l28.4,16.3,27.04-26.843A50.252,50.252,0,0,1,66.5,167.69Z" transform="translate(5.108 23.704)" fill="url(#linear-gradient-8)" style="mix-blend-mode: multiply;isolation: isolate"/>
        <path id="패스_2494" data-name="패스 2494" d="M84.633,145.42s-1.211,42.3-19.277,43.3-19.277-43.3-19.277-43.3" transform="translate(11.927 16.671)" fill="#326dfb"/>
        <path id="패스_2495" data-name="패스 2495" d="M84.633,145.42s-1.211,42.3-19.277,43.3-19.277-43.3-19.277-43.3" transform="translate(11.927 16.671)" fill="#28a0f0"/>
        <ellipse id="타원_54" data-name="타원 54" cx="19.277" cy="8.013" rx="19.277" ry="8.013" transform="translate(58.007 154.078)" fill="#2898e2"/>
        <path id="패스_2496" data-name="패스 2496" d="M64.725,161.421a172.873,172.873,0,0,1,18.066-48.79c.7-1.316,3.013-.171,2.329,1.092a171.056,171.056,0,0,0-17.8,48.264C67.041,163.3,64.449,162.776,64.725,161.421Z" transform="translate(17.809 6.131)" fill="#311e69"/>
        <path id="패스_2497" data-name="패스 2497" d="M56.34,166.535q1.987-30.711,6.882-61.238c.224-1.316,2.908-1.316,2.632,0q-4.882,30.448-6.869,61.12C58.143,166.456,57.208,166.482,56.34,166.535Z" transform="translate(15.167 3.688)" fill="#311e69"/>
        <path id="패스_2498" data-name="패스 2498" d="M83.224,109.553a17.632,17.632,0,0,1,9.5.605c2.171.763,6.658,2.947,5.776,5.263s-6.316,1.987-8.487,1.461a11.645,11.645,0,0,1-7.461-5.54,1.039,1.039,0,0,1-.092-.25.987.987,0,0,1,.763-1.539Z" transform="translate(23.363 5.222)" fill="#1a7f68"/>
        <path id="패스_2499" data-name="패스 2499" d="M79.965,111.235a1.316,1.316,0,0,0,1.8.447c2.947-1.737,6.579-2.829,8.711-5.369,1.447-1.776,2.066-4.7-.579-6a7.158,7.158,0,0,0-7.566,1.421c-2.408,2.224-2.632,5.474-3.211,8.25A1.118,1.118,0,0,0,79.965,111.235Zm5.579-8.934v.276a9.105,9.105,0,0,0-2.237,2.145A6.132,6.132,0,0,1,85.544,102.3Z" transform="translate(22.358 2.263)" fill="#1a7f68"/>
        <path id="패스_2500" data-name="패스 2500" d="M74.16,104.242c4.355-1.566,5.092,4.408,5.263,6.408a.987.987,0,0,1-.895.987,1.592,1.592,0,0,1-1.868,0c-1.461-1.053-3.316-2.053-3.776-3.671C72.476,106.755,72.476,104.847,74.16,104.242Z" transform="translate(20.321 3.585)" fill="#1a7f68"/>
        <path id="패스_2501" data-name="패스 2501" d="M61.642,105.354a1.592,1.592,0,0,0,2.092.566,1.75,1.75,0,0,0,.684,0c3.368-.408,5.066-4.684,5.671-6.921s1.316-5.908-2.105-7.092a5.869,5.869,0,0,0-7.237,3.434C59.536,98.565,60.273,102.315,61.642,105.354Zm1.816-3.04a5.645,5.645,0,0,1,.066-1.724,8.332,8.332,0,0,0,.092,1.184h0a2.255,2.255,0,0,1-.145.539Z" transform="translate(16.365 -0.317)" fill="#1a7f68"/>
        <path id="패스_2502" data-name="패스 2502" d="M47.861,103.141c-.118,2.75,3.3,3.882,6.132,4.316,1.763.276,8.053,1.526,8.158-.947a.961.961,0,0,0,.237-1.2c-1.395-2.632-4.711-3.776-7.895-4.474C51.756,100.26,48.045,100.141,47.861,103.141Zm2.632-.118a3.459,3.459,0,0,0,.355.447,1.066,1.066,0,0,0-.184.5.7.7,0,0,1-.171-.961Z" transform="translate(12.488 2.489)" fill="#1a7f68"/>
        <path id="패스_2503" data-name="패스 2503" d="M66.444,105.4a1.447,1.447,0,0,0,1.579.75,11.2,11.2,0,0,0,5.105-1.79,2.5,2.5,0,0,0,.776-3.487c-2.079-2.5-6.855,1.711-8.092,3.066C65.221,104.561,65.721,105.232,66.444,105.4Zm3.776-2.04-.224.079,1.316-.737h0a3.237,3.237,0,0,1-1.105.658Z" transform="translate(18.076 2.358)" fill="#1a7f68"/>
        <ellipse id="타원_55" data-name="타원 55" cx="12.793" cy="9.697" rx="12.793" ry="9.697" transform="translate(376.385 130.149) rotate(-87.138)" fill="#fff"/>
        <ellipse id="타원_56" data-name="타원 56" cx="12.793" cy="9.697" rx="12.793" ry="9.697" transform="translate(376.385 130.149) rotate(-87.138)"/>
        <path id="패스_2504" data-name="패스 2504" d="M295.279,114.714l3.382-12.329a7.3,7.3,0,0,0-8.711,2.632Z" transform="translate(88.945 2.916)" fill="#fdc42e"/>
        <path id="패스_2505" data-name="패스 2505" d="M296.187,113.97s-7.895,6.158-8.092,5.645a14.987,14.987,0,0,1,2.776-15.4Z" transform="translate(88.037 3.66)" fill="#2ed5fd"/>
        <ellipse id="타원_57" data-name="타원 57" cx="12.777" cy="9.684" rx="12.777" ry="9.684" transform="translate(364.931 160.529) rotate(-87.37)" fill="#fff"/>
        <ellipse id="타원_58" data-name="타원 58" cx="12.777" cy="9.684" rx="12.777" ry="9.684" transform="translate(364.931 160.529) rotate(-87.37)"/>
        <path id="패스_2506" data-name="패스 2506" d="M287.879,137.934l3.382-12.329a7.3,7.3,0,0,0-8.711,2.632Z" transform="translate(86.608 10.249)" fill="#fdc42e"/>
        <path id="패스_2507" data-name="패스 2507" d="M288.787,137.19s-7.895,6.158-8.092,5.645a14.987,14.987,0,0,1,2.776-15.4Z" transform="translate(85.7 10.993)" fill="#2ed5fd"/>
        <ellipse id="타원_59" data-name="타원 59" cx="12.793" cy="9.697" rx="12.793" ry="9.697" transform="translate(358.421 191.508) rotate(-87.138)" fill="#fff"/>
        <ellipse id="타원_60" data-name="타원 60" cx="12.793" cy="9.697" rx="12.793" ry="9.697" transform="translate(358.421 191.508) rotate(-87.138)"/>
        <path id="패스_2508" data-name="패스 2508" d="M281.643,161.141l3.447-12.316a7.3,7.3,0,0,0-8.711,2.632Z" transform="translate(84.659 17.583)" fill="#fdc42e"/>
        <path id="패스_2509" data-name="패스 2509" d="M282.567,160.4s-7.895,6.158-8.092,5.645a14.987,14.987,0,0,1,2.776-15.4Z" transform="translate(83.736 18.323)" fill="#2ed5fd"/>
        <path id="패스_2510" data-name="패스 2510" d="M205.664,47.92l48.659,28.369L244.23,110.171,194.94,82.644Z" transform="translate(58.939 -14.121)" fill="#fff"/>
        <path id="패스_2511" data-name="패스 2511" d="M194.854,78.2l48.659,28.369L233.42,140.451l-49.29-27.527Z" transform="translate(55.525 -4.558)" fill="#fff"/>
        <path id="패스_2512" data-name="패스 2512" d="M165.459,221.779l-5.579-1.54.868-6.79S166.8,214.463,165.459,221.779Z" transform="translate(47.867 38.156)" fill="#42210b"/>
        <path id="패스_2513" data-name="패스 2513" d="M158.716,205.4s-1.961,22.948-1.434,23.211,5.882.724,5.882.329.316-10.448.316-10.448,2.632,4.434,2.816,6.645c0,0,6.408-3.645,7.592-6.579s-2.737-15.171-4.237-15.79" transform="translate(47.018 34.783)" fill="#b1b8d3"/>
        <path id="패스_2514" data-name="패스 2514" d="M176.113,231.791l-6.3-6.7,4.119-5.263S177.771,228.343,176.113,231.791Z" transform="translate(51.003 40.171)" fill="#42210b"/>
        <path id="패스_2515" data-name="패스 2515" d="M168.187,208.75l-2.947,27.54a32.684,32.684,0,0,0,5.632,1.487,17.87,17.87,0,0,0,3.408-1.618l1.053-9.211s2.737,2.737,2.237,8.316c0-.382,4.355-1.829,4.908-2.079a32.6,32.6,0,0,0,5.04-2.75c1.671-1.145,7.895-6.29,4.553-8.342-2.842-1.737-12.066-.908-12.066-.908l-.132-11.369" transform="translate(49.559 36.672)" fill="#b1b8d3"/>
        <path id="패스_2516" data-name="패스 2516" d="M160.143,136.347a.658.658,0,0,0-.658-.8,21.185,21.185,0,0,1,3.158-6.79L189.3,125.61s5.355,19.053,7.421,51.883c1.605,25.448-10.895,63.3-10.895,63.3s-12.921,3.276-19.145-3.105l.25-5.487a65.219,65.219,0,0,1-9.605-.79C154.064,199.809,156.5,167.8,160.143,136.347Z" transform="translate(46.577 10.415)" fill="#34323d"/>
        <path id="패스_2517" data-name="패스 2517" d="M163.474,231.475l3.329-23.593c1.066-7.513,2.711-15.237,2.737-22.869S166.908,170.54,165.7,163.3a85.016,85.016,0,0,1-.921-21.3c.132-1.658,2.513-1.671,2.382,0a82.658,82.658,0,0,0,1.447,23.777c1.487,6.987,3.566,13.606,3.263,20.869s-1.75,14.685-2.776,21.922l-3.342,23.593C165.487,233.817,163.237,233.12,163.474,231.475Z" transform="translate(48.996 15.197)" fill="#444152"/>
        <path id="패스_2518" data-name="패스 2518" d="M199.556,104.5c-.882,1.513-3.816,3.553-4.566,5.132,2.079,1.8,2.526,3.684,4.579,5.513.316-.789,1.605-1.316,2.29-1.711,1.053-.605,1.895-1.421,2.882-2.053s2.447-1.105,3.605-1.7a4.2,4.2,0,0,0,.947-.658,6.577,6.577,0,0,0,.895-.408,1.434,1.434,0,0,0,.434-2.132,1.408,1.408,0,0,0,.79-1.605,1.316,1.316,0,0,0-.8-.882l-.118-.145a.842.842,0,0,0,.408-.75.987.987,0,0,0,0-.395c-.079-1.54-1.2-1.776-2.408-1.224l-.184.079a7.5,7.5,0,0,0,1.75-2c1.184-1.158,1.947-2.342.934-2.974s-2.737.908-3.461,1.447c-1.605,1.2-3.079,2.566-4.684,3.763v-.684c0-.855-.132-3.645-1.026-4.04a.934.934,0,0,0-1.421.75Z" transform="translate(58.955 1.205)" fill="#fe6162"/>
        <path id="패스_2519" data-name="패스 2519" d="M209.781,106.628l-12.329,8.448a67.1,67.1,0,0,0-7.553-13.711c-5.145-7.316-19.224-5.132-19.224-5.132s-8.29,5.934-11.395,12.487-2.921,23.54-.263,29.2,19.25,4.987,28.658,2.711a1.316,1.316,0,0,0,1.592-1.224q0-7.369-.118-14.75c5.987,7.395,15.5,2.368,21.448-3.342a52.828,52.828,0,0,0,7.895-8.54C217.439,109.523,209.781,106.628,209.781,106.628Z" transform="translate(46.953 1.041)" fill="#2ed5fd"/>
        <path id="패스_2520" data-name="패스 2520" d="M180.6,85.25s.776,11.29-2.632,13.9-9.132-1.7-9.132-1.7" transform="translate(50.696 -2.331)" fill="#fe6162"/>
        <path id="패스_2521" data-name="패스 2521" d="M179.585,81.585a10.948,10.948,0,0,1,3.421,4.5c2.842,7.105-4.8,15.921-11.632,17.29l-3.54-1.118s-4.684-6.895-4.684-10.763a14.277,14.277,0,0,1,3.947-10.04C170.769,78.033,175.979,78.7,179.585,81.585Z" transform="translate(48.899 -4.259)" fill="#1a1a1a"/>
        <path id="패스_2522" data-name="패스 2522" d="M174.7,97.788s12.777,36.843,3.158,42.922-28.422.539-24.751-8.592S171.155,96.67,171.155,96.67" transform="translate(45.578 1.275)" fill="#1a1a1a"/>
        <path id="패스_2523" data-name="패스 2523" d="M250.754,73.92l27.04,15.763L267.7,123.566,240.07,108.131Z" transform="translate(73.192 -5.91)" fill="#fff"/>
        <path id="패스_2524" data-name="패스 2524" d="M262.369,123.021l-24.514-13.856c-1.579-.895-2.882,1.592-1.316,2.474l24.514,13.869A1.407,1.407,0,0,0,262.369,123.021Z" transform="translate(71.854 5.161)" fill="#fff"/>
        <path id="패스_2525" data-name="패스 2525" d="M261.039,127.231l-24.553-13.856c-1.579-.895-2.882,1.592-1.316,2.474l24.514,13.856A1.411,1.411,0,0,0,261.039,127.231Z" transform="translate(71.421 6.491)" fill="#fff"/>
        <path id="패스_2526" data-name="패스 2526" d="M259.839,131.7l-24.514-13.856c-1.579-.895-2.882,1.592-1.316,2.474l24.514,13.856C260.1,135.07,261.4,132.583,259.839,131.7Z" transform="translate(71.055 7.902)" fill="#fff"/>
        <path id="패스_2527" data-name="패스 2527" d="M258.669,135.731l-24.514-13.856c-1.579-.895-2.882,1.592-1.316,2.474l24.514,13.856C258.919,139.087,260.235,136.574,258.669,135.731Z" transform="translate(70.685 9.175)" fill="#fff"/>
        <path id="패스_2528" data-name="패스 2528" d="M281.524,96.88l-20.277,65.343c-1.513,4.855,6.2,6.579,7.7,1.75L289.221,98.63C290.721,93.762,283.011,92.051,281.524,96.88Z" transform="translate(79.818 0.434)" fill="#fff"/>
        <path id="패스_2529" data-name="패스 2529" d="M347.156,90.929l50.277,29.606a4.855,4.855,0,0,1,2.184,5.592L378.959,194.4a4.855,4.855,0,0,1-7.04,2.829l-50.646-28.566a4.855,4.855,0,0,1-2.263-5.645l21.053-69.3a4.855,4.855,0,0,1,7.092-2.79Z" transform="translate(98.056 -0.747)" fill="#053855"/>
        <path id="패스_2530" data-name="패스 2530" d="M344.883,95.692l47.172,27.777a1.618,1.618,0,0,1,.724,1.855l-19.04,62.949a1.618,1.618,0,0,1-2.342.934l-47.5-26.856a1.619,1.619,0,0,1-.75-1.868l19.382-63.87a1.619,1.619,0,0,1,2.355-.921Z" transform="translate(99.407 0.898)" fill="#f5f7ff"/>
        <path id="패스_2531" data-name="패스 2531" d="M333.375,140.74l28.316,16.921a1.158,1.158,0,0,1,.539,1.316,2.118,2.118,0,0,1-2.105,1.434,1.671,1.671,0,0,1-.8-.237l-27.093-16.2Z" transform="translate(102.298 15.193)" fill="#fff"/>
        <path id="패스_2532" data-name="패스 2532" d="M359.056,125.28l6.645,4.026-7.855,30.8-6.566-4.026Z" transform="translate(108.314 10.311)" fill="#8787d1"/>
        <path id="패스_2533" data-name="패스 2533" d="M351.9,116.25l6.79,4.026L349.582,156.5,342.7,152.29Z" transform="translate(105.604 7.459)" fill="#5f8dfb"/>
        <path id="패스_2534" data-name="패스 2534" d="M344.971,108.57l6,3.842L340.892,152.36l-6.132-3.737Z" transform="translate(103.097 5.034)" fill="#fff"/>
      </g>
    </g>
  </g>
</svg>
