<svg xmlns="http://www.w3.org/2000/svg" xmlns:xlink="http://www.w3.org/1999/xlink" width="521.014" height="480.499" viewBox="0 0 521.014 480.499">
  <defs>
    <linearGradient id="linear-gradient" x1="0.219" y1="0.858" x2="0.648" y2="0.003" gradientUnits="objectBoundingBox">
      <stop offset="0" stop-color="#326dfb"/>
      <stop offset="0.98" stop-color="#5f8dfb"/>
      <stop offset="1" stop-color="#5f8dfb"/>
    </linearGradient>
  </defs>
  <g id="그룹_2281" data-name="그룹 2281" transform="translate(-446 -1773)">
    <ellipse id="타원_76" data-name="타원 76" cx="240.249" cy="240.25" rx="240.249" ry="240.25" transform="translate(446 1773)" fill="#f4f8fc"/>
    <g id="그룹_148" data-name="그룹 148" transform="translate(459.256 1818.195)">
      <path id="패스_2472" data-name="패스 2472" d="M252.731,357.7,16.24,217.934c-7.526-4.224-13.987-11.171-6.645-15.711L246.929,65.379c3.566-2.211,8.974-3.658,12.592-1.553L507.763,207.961c7.526,4.368,8.882,16.579,1.316,20.961L283.9,357.477a31.448,31.448,0,0,1-31.172.224Z" transform="translate(-6.366 40.524)" fill="#5f8dfb"/>
      <path id="패스_2440" data-name="패스 2440" d="M87.59,172.85v5.211l2.645,3.237" transform="translate(91.084 245.75)" fill="#adcee1"/>
      <path id="패스_2438" data-name="패스 2438" d="M252.731,357.7,16.24,217.934c-7.526-4.224-13.987-11.171-6.645-15.711L246.929,65.379c3.566-2.211,8.974-3.658,12.592-1.553L507.763,207.961c7.526,4.368,8.882,16.579,1.316,20.961L283.9,357.477a31.448,31.448,0,0,1-31.172.224Z" transform="translate(-6.366 9.043)" fill="#326dfb"/>
      <path id="패스_2441" data-name="패스 2441" d="M192.386,125.107,90.569,188.266a6.316,6.316,0,0,0,.184,10.8l154.5,87.4a14.145,14.145,0,0,0,14.132-.118l101.318-59.58c7.369-6.053,6.816-17.435,0-17.921L207.11,124.87A14.355,14.355,0,0,0,192.386,125.107Z" transform="translate(19.294 28.042)" fill="#d6d6d5"/>
      <path id="패스_2442" data-name="패스 2442" d="M192.386,121.807,90.569,184.966a6.316,6.316,0,0,0,.184,10.8l154.5,87.4a14.145,14.145,0,0,0,14.132-.118l101.318-59.58a7.895,7.895,0,0,0,0-13.579L207.11,121.57A14.355,14.355,0,0,0,192.386,121.807Z" transform="translate(19.294 27)" fill="#fff"/>
      <path id="패스_2443" data-name="패스 2443" d="M170.471,148.387s42.277-136.5,42.014-136.5,1.316-6.066,8.882-2.632L383.62,104.794s7.895,3.184,6.329,10.527-41.317,133.516-41.317,133.516a6.855,6.855,0,0,1-7.671,2.632c-4.947-1.539-166.688-95.489-166.688-95.489S168.878,153.993,170.471,148.387Z" transform="translate(45.368 -8.2)" fill="#053855"/>
      <path id="패스_2444" data-name="패스 2444" d="M213.166,18.56l166.161,96.87L344.866,231.143,176.56,137.155Z" transform="translate(47.383 -4.929)" fill="#f5f7ff"/>
      <path id="패스_2445" data-name="패스 2445" d="M171.933,132.541l-37.224,23.2a4.487,4.487,0,0,0,.145,7.711l133.621,76.173a13.158,13.158,0,0,0,13.158,0c8.592-5,23.382-14.027,32.435-19.579a5.461,5.461,0,0,0-.105-9.382c-27.027-15.711-115.186-66.988-134.489-78.186A7.277,7.277,0,0,0,171.933,132.541Z" transform="translate(33.496 30.726)" fill="#326dfb"/>
      <path id="패스_2446" data-name="패스 2446" d="M172.78,180.315l46.685,26.251a4.658,4.658,0,0,1,.066,8.092l-27.448,16.066a6.2,6.2,0,0,1-6.2,0l-47.764-27.237a3.947,3.947,0,0,1,0-6.776L166.674,180.3a6.2,6.2,0,0,1,6.105.013Z" transform="translate(34.637 45.9)" fill="#326dfb"/>
      <path id="패스_2447" data-name="패스 2447" d="M171.933,132.541l-37.224,23.2a4.487,4.487,0,0,0,.145,7.711l133.621,76.173a13.158,13.158,0,0,0,13.158,0c8.592-5,23.382-14.027,32.435-19.579a5.461,5.461,0,0,0-.105-9.382c-27.027-15.711-115.186-66.988-134.489-78.186A7.277,7.277,0,0,0,171.933,132.541Z" transform="translate(33.496 30.726)" fill="#f5f7ff" opacity="0.232"/>
      <path id="패스_2448" data-name="패스 2448" d="M172.78,180.315l46.685,26.251a4.658,4.658,0,0,1,.066,8.092l-27.448,16.066a6.2,6.2,0,0,1-6.2,0l-47.764-27.237a3.947,3.947,0,0,1,0-6.776L166.674,180.3a6.2,6.2,0,0,1,6.105.013Z" transform="translate(34.637 45.9)" fill="#f5f7ff" opacity="0.231"/>
      <path id="패스_2449" data-name="패스 2449" d="M255.873,68.537c16.54,0,30.264,15.54,32.58,35.724,1.316-.382,2.553-.763,3.829-1.171-2.776-21.79-18.053-38.5-36.409-38.5-10.527,0-20.079,5.553-26.8,14.4l3.566,1.776C238.583,73.222,246.807,68.537,255.873,68.537Z" transform="translate(63.967 9.609)" fill="#28a0f0"/>
      <path id="패스_2450" data-name="패스 2450" d="M232.095,128.858a49.159,49.159,0,0,1-6.737-25.251,51.315,51.315,0,0,1,2.711-16.566,3.291,3.291,0,0,1-.553-.118c-1.066-.342-2.145-.684-3.211-1.053a55.026,55.026,0,0,0-2.895,17.75,52.87,52.87,0,0,0,7.566,27.632Q230.529,130.055,232.095,128.858Z" transform="translate(61.547 16.329)" fill="#28a0f0"/>
      <path id="패스_2451" data-name="패스 2451" d="M286.237,105c-2.789,19.474-16.237,34.29-32.382,34.29a27.382,27.382,0,0,1-15.553-5c-.908.974-1.855,1.921-2.842,2.8a31.356,31.356,0,0,0,18.421,6.145c18.237,0,33.422-16.513,36.356-38.159Z" transform="translate(65.985 22.371)" fill="#28a0f0"/>
      <path id="패스_2452" data-name="패스 2452" d="M231.117,108.041c0-17.79,11.369-32.277,25.343-32.277a21.566,21.566,0,0,1,13.987,5.369q1.382-1.395,2.8-2.763a25.514,25.514,0,0,0-16.79-6.579c-16.158,0-29.29,16.25-29.29,36.224a44.606,44.606,0,0,0,.488,6.588l3.762-1.6a41.084,41.084,0,0,1-.3-4.961Z" transform="translate(63.367 11.883)" fill="#28a0f0"/>
      <path id="패스_2453" data-name="패스 2453" d="M261.366,126.925a20.173,20.173,0,0,1-5.79.855c-9.408,0-17.619-6.579-22-16.29q-1.763.868-3.566,1.684c5.026,11.053,14.592,18.553,25.566,18.553a24,24,0,0,0,7.316-1.145C262.353,129.372,261.866,128.148,261.366,126.925Z" transform="translate(64.264 24.42)" fill="#28a0f0"/>
      <path id="패스_2454" data-name="패스 2454" d="M263,127.38c.5,1.408,1.039,2.8,1.605,4.184a40.264,40.264,0,0,0,9.816-27A41.763,41.763,0,0,0,268.487,82.8l-3.013,2.632a38.159,38.159,0,0,1,5,19.158A36.935,36.935,0,0,1,263,127.38Z" transform="translate(74.683 15.359)" fill="#28a0f0"/>
      <path id="패스_2455" data-name="패스 2455" d="M251.158,84.7c6.408,0,11.934,4.882,14.474,11.842,1.316-.329,2.553-.671,3.816-1.04-3.066-8.684-10.105-14.79-18.29-14.79a16.606,16.606,0,0,0-7.158,1.7c.368,1.316.711,2.632,1.026,3.869a12.908,12.908,0,0,1,6.132-1.579Z" transform="translate(68.682 14.7)" fill="#28a0f0"/>
      <path id="패스_2456" data-name="패스 2456" d="M269.424,96.47c-1.316.368-2.553.711-3.842,1.053a26.327,26.327,0,0,1,.158,2.737c0,11.316-7.171,20.527-15.987,20.527h-.224c-.342,1.316-.7,2.632-1.079,3.882.434,0,.868.079,1.316.079,10.987,0,19.935-10.987,19.935-24.474A29.877,29.877,0,0,0,269.424,96.47Z" transform="translate(70.087 19.677)" fill="#28a0f0"/>
      <path id="패스_2457" data-name="패스 2457" d="M242.5,123.666c.592-1.237,1.184-2.461,1.79-3.684a23.027,23.027,0,0,1-6.053-16.053,23.685,23.685,0,0,1,4.711-14.54c-.368-1.526-.737-3.066-1.132-4.579a26.8,26.8,0,0,0-7.526,19.119,26.487,26.487,0,0,0,8.211,19.737Z" transform="translate(65.614 15.994)" fill="#28a0f0"/>
      <path id="패스_2458" data-name="패스 2458" d="M236.381,88.329c-1.039.474-2.053.961-3.079,1.447.8-.5,1.605-1.026,2.368-1.592s1.895-1.829,1.724-2.868c-.25-1.566-2.961-.171-4.987,1.092,1.408-1.224,2.566-2.632,1.316-3.171s-2.513,1-3.263,1.526c-1.316.947-2.632,1.961-3.855,3.04a27.145,27.145,0,0,0,2.342-3.684c.724-1.211-1.079-2.211-1.961-1.316a76.407,76.407,0,0,1-8.04,7.566,1.237,1.237,0,0,0-.329.368h-3.671a1.066,1.066,0,0,0-.987.3,3.408,3.408,0,0,0-.658.3,1.1,1.1,0,0,0-.184.158,12.554,12.554,0,0,0-1.724.184,1.316,1.316,0,0,0-.934,1.8l-.237-.132c-1.316-.8-2.329,1.316-1.039,2.145a17.369,17.369,0,0,0,9.158,2.553.553.553,0,0,0,.605.487,35.842,35.842,0,0,0,10.04-1.711,6.119,6.119,0,0,0,1.171-.461,17.7,17.7,0,0,0,5.263-3.355.658.658,0,0,0-.645-1.105l-.566.171c.368-.211.737-.408,1.092-.632.895-.566,1.961-1.25,2.105-2.382a.671.671,0,0,0-1.026-.737Z" transform="translate(57.498 15.252)" fill="#fddab6"/>
      <path id="패스_2459" data-name="패스 2459" d="M196.916,82.058a13.159,13.159,0,0,1,.895-1.763.184.184,0,0,0,0,.092.237.237,0,0,0,.421.066l.645-.987a1.144,1.144,0,0,0,0,.382.987.987,0,0,0,1.092.776.974.974,0,0,0,.868-1.224l.3-.342a.973.973,0,0,0,0,.3.855.855,0,0,0,1.421.355c.118-.092.211-.211.329-.316a.724.724,0,0,0,.579,0,22.105,22.105,0,0,0,2.474-1.013.382.382,0,0,1-.118-.605,24.68,24.68,0,0,1,3-2.079h.132V75.6a3.369,3.369,0,0,0-.158-2.421,2.632,2.632,0,0,0,.539-2.237.408.408,0,0,1-.224-.092,1.828,1.828,0,0,1-.382-.447,2.553,2.553,0,0,1-.421-.776.342.342,0,0,1,.132-.382,11.576,11.576,0,0,0-1.316-1.461,9.869,9.869,0,0,0,1.316-5.54.842.842,0,0,0-1.579-.408,17.877,17.877,0,0,0-1.039,1.895.711.711,0,0,0-.237.263,104.708,104.708,0,0,1-5.263,9.908c-.342.539-4.54,6.329-4.066,6.461C196.113,80.611,192.679,88.506,196.916,82.058Zm2.487-2.447h0a.224.224,0,0,0,.342,0h0a.868.868,0,0,0,.724.145.554.554,0,1,1-1.105-.079Z" transform="translate(53.146 8.6)" fill="#fddab6"/>
      <path id="패스_2460" data-name="패스 2460" d="M196.866,77.266a9.211,9.211,0,0,0,2.263-2.632,1.763,1.763,0,0,1,2.447-.684,10.349,10.349,0,0,0,.092-1.408c0-2.382,3.75-2.421,3.711,0a9.026,9.026,0,0,1-1.434,5.263,15.2,15.2,0,0,1-4.04,3.579,1.908,1.908,0,0,1-2.829-1.434l-.171-.132a1.868,1.868,0,0,1-.04-2.553Z" transform="translate(53.643 11.552)" fill="#fddab6"/>
      <path id="패스_2461" data-name="패스 2461" d="M201.357,80.093A7.527,7.527,0,0,0,204.5,75.7a.21.21,0,0,0,.3.066l1.487-1a3.461,3.461,0,0,0,.829-.684c.539-.684,0-1.474-.211-2.184a.224.224,0,0,0-.079-.105l.211-.355a3.171,3.171,0,0,0,.553-1.842c-.105-.645-.711-1.066-1-1.618a1.434,1.434,0,0,0-.868-1.579c-.789-.355-1.224.237-1.658.816q-1.316,1.868-2.632,3.829c-.158.25.25.474.408.224.447-.711.895-1.408,1.316-2.092a8.737,8.737,0,0,1,1.5-2.092c1.658-.961,1.316,1.316,1.066,1.921a10.632,10.632,0,0,1-.553,1l-1.25,2.211a.21.21,0,0,0,0,.184,6.579,6.579,0,0,1-2.855,7.25C200.87,79.857,201.12,80.251,201.357,80.093Zm3.368-7.605a.211.211,0,0,0-.25,0V72.33a17.63,17.63,0,0,0,2.026-3.776c.118.145.237.289.342.447a1.408,1.408,0,0,1,.092,1.553C206.594,71.343,205.738,73.12,204.725,72.488ZM204.58,75.3a6.487,6.487,0,0,0,0-2.382c.789.395,1.474-.132,1.961-.776a5.119,5.119,0,0,1,.329.921.961.961,0,0,1-.5,1.026,19.321,19.321,0,0,1-1.789,1.263Z" transform="translate(55.101 10.145)" fill="#ffd3a7"/>
      <path id="패스_2462" data-name="패스 2462" d="M181.12,85.542s10.829.513,13.645-2.079S201.647,72.7,201.647,72.7s7.461,4.79,7.895,7.553S201.7,96.372,198.068,97.266" transform="translate(48.823 12.171)" fill="#ebb72d"/>
      <path id="패스_2463" data-name="패스 2463" d="M171.065,184.952s9.211-4.066,11.355-4.237,5.882.592,2.632,4.632c0,0-9.632,6.3-10.895,6.5s-4.355-.763-4.434-.434-.368,2.763-.368,2.763-8.053,3.066-8.395-2.316c0-.7,1.158-10.7,1.158-10.7" transform="translate(42.457 46.277)" fill="#34323d"/>
      <path id="패스_2464" data-name="패스 2464" d="M160.667,183.7c1.592-10.342,4.5-20.369,5.724-30.843.763-6.579,1.316-13.158,2.118-19.737s3.263-12.948,4.842-19.461a.711.711,0,0,0-.329-.8c.079-.224.145-.461.211-.684.816-.776,1.645-1.513,2.447-2.211l11.25,7.579s-.066,6.895-.421,16.869c-1.316,5.816-2.3,11.013-3.776,16.527a1.447,1.447,0,0,1,.342,1.316,467.378,467.378,0,0,0-7.987,52.633,1.526,1.526,0,0,1-1,1.316l-.316,2.724c-9.79,3.776-11.934-2.8-11.934-2.8s-.447-5.605-1-13.4C160.653,189.685,160.6,186.685,160.667,183.7Z" transform="translate(42.356 23.938)" fill="#34323d"/>
      <path id="패스_2465" data-name="패스 2465" d="M184.182,195.37l5.434,1.947a3,3,0,0,0,2.2,2,1.21,1.21,0,0,0,.763.421,14.25,14.25,0,0,0,6.461-1.053c2.632-.816,12.777-4.711,9.948,2.632-1.855,1.316-3.947,2.434-5.829,3.592-1.066.645-2.145,1.316-3.237,1.895a6.422,6.422,0,0,1-1.895.882c-1.461.224-5.013-.882-5.105-.5s-.421,3.184-.421,3.184-9.211,3.526-9.658-2.632C182.788,206.857,184.182,195.37,184.182,195.37Z" transform="translate(49.366 50.912)" fill="#34323d"/>
      <path id="패스_2466" data-name="패스 2466" d="M180.068,168.5c-1.132-18.29-1.763-36.685-5.619-54.672-.171-4.671-3.2-1.684-2.987-3.54,1.645-15.04,23.566,2.855,23.566,2.855.882.724,1,5.342,1.171,6.382q1.487,8.671,2.54,17.4c3.632,29.382,2.29,58.606.8,88.081-4.658,4.763-7.711,6.184-15.211,3.105-1.5-19.29-2.921-38.58-4.158-57.9Z" transform="translate(45.77 22.139)" fill="#34323d"/>
      <path id="패스_2467" data-name="패스 2467" d="M193.053,86.211c-.211-.947-2.632-1.592-3.395-1.987-1.7-.921-.711-2.526-2.368-3.526A57.069,57.069,0,0,0,179.7,77h-.066c-4.158,0-11.132-.237-11.553,5.263-.645,8.553.105,17.106.763,25.606.263,3.421.566,6.816.868,10.158.105,1.224.263,11.092,1,11.395,8.25,3.421,18.8,2.211,26.882-.987a274.475,274.475,0,0,0-4.54-42.225Z" transform="translate(44.627 13.529)" fill="#ffc400"/>
      <path id="패스_2468" data-name="패스 2468" d="M181.716,90.729A14.281,14.281,0,0,0,192.265,103c0,.566.348,3.748.414,4.314-6.579-1.579-11.924-9.582-12.608-16.582C179.979,89.677,181.61,89.677,181.716,90.729Z" transform="translate(48.491 17.616)" fill="#ebb72d"/>
      <path id="패스_2469" data-name="패스 2469" d="M181.367,63.969c.539.145,5.158,10.75,3.342,17.185s-12.75-.184-15.5-5.092S171.024,61.285,181.367,63.969Z" transform="translate(44.814 9.268)" fill="#fddab6"/>
      <path id="패스_2470" data-name="패스 2470" d="M182.253,66.928A5.092,5.092,0,0,1,179.2,71.56c-3.066,1.132-5.605,1.895-5.447,3.316s5.54-.2,5.553,3.04a24.171,24.171,0,0,1-.882,6.461c-.342,1.592-9.527-3.276-12.553-11.592s4.553-10.527,4.921-10.527,1.053-2.316,4.776-3.118,4.763.632,4.763.632a4.513,4.513,0,0,1,5.434.592c3.434,2.724,2.553,7.7-1.316,9.711Z" transform="translate(43.783 7.81)" fill="#34323d"/>
      <path id="패스_2471" data-name="패스 2471" d="M184.751,79.09s18.921,10.842,25.737,10.855c4.921,0,14.658-1.592,19.737-2.487,4.684,3.947,5,10.921,2.092,16.25-8.263,1.316-32.737,4.869-40.409,1.066C182.62,100.169,172.4,94,172.4,94S163.106,84.932,184.751,79.09Z" transform="translate(45.442 14.187)" fill="#ffc400"/>
      <path id="패스_2475" data-name="패스 2475" d="M337.443,185.988,280.5,211.276l165.022,97.443,56.127-30.13" transform="translate(-229.479 39.514)" opacity="0.32" fill="url(#linear-gradient)"/>
    </g>
  </g>
</svg>
