<svg xmlns="http://www.w3.org/2000/svg" xmlns:xlink="http://www.w3.org/1999/xlink" width="508.493" height="502.349" viewBox="0 0 508.493 502.349">
  <defs>
    <linearGradient id="linear-gradient" x1="1.17" y1="0.402" x2="0.387" y2="0.711" gradientUnits="objectBoundingBox">
      <stop offset="0" stop-color="#326dfb"/>
      <stop offset="1" stop-color="#fff" stop-opacity="0.325"/>
    </linearGradient>
    <linearGradient id="linear-gradient-2" x1="1.147" y1="-0.066" x2="0.732" y2="0.539" xlink:href="#linear-gradient"/>
    <linearGradient id="linear-gradient-3" x1="0.389" y1="0.799" x2="0.46" y2="0.559" gradientUnits="objectBoundingBox">
      <stop offset="0" stop-color="#aa4200" stop-opacity="0"/>
      <stop offset="0.98" stop-color="#aa003d"/>
    </linearGradient>
  </defs>
  <g id="그룹_1931" data-name="그룹 1931" transform="translate(-1015.161 -2193.483)">
    <circle id="타원_74" data-name="타원 74" cx="236.906" cy="236.906" r="236.906" transform="translate(1049.841 2222.019)" fill="#f4f8fc"/>
    <g id="그룹_146" data-name="그룹 146" transform="translate(1015.161 2193.483)">
      <g id="그룹_133" data-name="그룹 133" transform="translate(0 135.369)">
        <g id="그룹_132" data-name="그룹 132">
          <path id="패스_2602" data-name="패스 2602" d="M249.3,353.6,16.1,215.776C8.681,211.611,2.31,204.76,9.55,200.283L243.581,65.343c3.516-2.18,8.849-3.607,12.417-1.531L500.786,205.941c7.422,4.308,8.758,16.349,1.3,20.669L280.041,353.376a31.01,31.01,0,0,1-30.738.221Z" transform="translate(-6.366 -31.758)" fill="#5f8dfb"/>
          <path id="패스_2601" data-name="패스 2601" d="M249.3,353.6,16.1,215.776C8.681,211.611,2.31,204.76,9.55,200.283L243.581,65.343c3.516-2.18,8.849-3.607,12.417-1.531L500.786,205.941c7.422,4.308,8.758,16.349,1.3,20.669L280.041,353.376a31.01,31.01,0,0,1-30.738.221Z" transform="translate(-6.366 -62.801)" fill="#326dfb"/>
        </g>
      </g>
      <path id="패스_2599" data-name="패스 2599" d="M89.756,0C80.985,5.5,9.264,48.742,0,53.685L33.76,83.9l75.593-72.556C104.318,8.942,93.726,3.918,89.756,0Z" transform="matrix(0.985, 0.174, -0.174, 0.985, 323.825, 250.506)" fill="url(#linear-gradient)" style="mix-blend-mode: multiply;isolation: isolate"/>
      <path id="패스_2598" data-name="패스 2598" d="M177.437,216.06c-8.771,5.5-60.334,28.83-69.6,33.773L165.881,287.6l37.782-55.384C198.628,229.813,181.408,219.979,177.437,216.06Z" transform="translate(135.492 -26.118)" fill="url(#linear-gradient-2)" style="mix-blend-mode: multiply;isolation: isolate"/>
      <path id="패스_2378" data-name="패스 2378" d="M183.993,287.027c16.543-8.914,74.509-45.582,90.939-54.7L158.423,190.45,83.77,230.378C101.084,239.517,160.029,272.2,183.993,287.027Z" transform="translate(-43.849 73.625)" opacity="0.32" fill="url(#linear-gradient-3)"/>
      <path id="패스_2380" data-name="패스 2380" d="M100.917,237.937l164.821-94.569a11.548,11.548,0,0,1,11.58,0l87.968,51.4a6.794,6.794,0,0,1,0,11.741L202.168,300.945a15.226,15.226,0,0,1-15.419-.1l-85.928-51.123a6.794,6.794,0,0,1,.1-11.789Z" transform="translate(-35.555 44.144)" fill="#d6d6d5"/>
      <path id="패스_2381" data-name="패스 2381" d="M100.907,233.277l164.822-94.569a11.548,11.548,0,0,1,11.58,0l87.968,51.4a6.794,6.794,0,0,1,0,11.741L202.158,296.333a15.226,15.226,0,0,1-15.419-.1l-85.928-51.2a6.794,6.794,0,0,1,.1-11.757Z" transform="translate(-35.544 41.32)" fill="#053855"/>
      <path id="패스_2382" data-name="패스 2382" d="M252.154,145.49c.916.305,84.161,48.875,84.161,48.875L197.257,275.828,113.24,227.323Z" transform="translate(-25.986 46.374)" fill="#f5f7ff"/>
      <path id="패스_2383" data-name="패스 2383" d="M156.369,229.891a2.152,2.152,0,0,0,.659-3.116,15.757,15.757,0,0,0-4.047-3.052c-1.413-.883-2.907-1.606-4.353-2.506l-11.243-6.553-9.139-5.4a4.78,4.78,0,0,0-6.457,1.365,1.959,1.959,0,0,0,.9,2.827l16.929,9.8,7.292,4.224,4.224,2.473a5.108,5.108,0,0,0,4.3.434A3.711,3.711,0,0,0,156.369,229.891Z" transform="translate(-20.979 84.601)" fill="#f5f7ff"/>
      <ellipse id="타원_44" data-name="타원 44" cx="2.939" cy="2.425" rx="2.939" ry="2.425" transform="translate(90.611 286.74)" fill="#f5f7ff"/>
      <path id="패스_2385" data-name="패스 2385" d="M269.338,142.855s.193,9.862-.98,10.472-8.625,10.311-9.139,11.837c-1.719,5.059,7.629,7.292,10.986,5.573s8.978-11.243,9.364-13.6,3.212-17.154,3.212-17.154" transform="translate(62.37 43.035)" fill="#b1b8d3"/>
      <path id="패스_2386" data-name="패스 2386" d="M262.435,137.493s.193,9.862-.98,10.472-13.347,7.822-13.957,9.3c-1.943,4.706,7.533,6.425,10.89,4.818s13.893-7.87,14.295-10.279,3.212-17.154,3.212-17.154" transform="translate(55.235 39.804)" fill="#b1b8d3"/>
      <path id="패스_2387" data-name="패스 2387" d="M294.958,77.351s7.067,11.082,6.119,21.024S290.188,187.4,283.8,186.6s-10.215.112-13.556-8.256c0,0-10.729,2.441-14.15-6.087,0,0,2.586-74.187,8.689-85.832S294.958,77.351,294.958,77.351Z" transform="translate(60.6 4.927)" fill="#34323d"/>
      <path id="패스_2388" data-name="패스 2388" d="M223.948,63.306a33.825,33.825,0,0,1,5.429-.9,30.26,30.26,0,0,0-5.541.562c-1.911.305-2.136-2.682-.225-3l.948-.145a1.606,1.606,0,0,1,.98-2.538,29.473,29.473,0,0,1,12.432,1.14,25.027,25.027,0,0,1,.08-4.561,1.333,1.333,0,0,1,.305-.707,1.606,1.606,0,0,1,2.971.4c.418,2.409.289,4.818.707,7.26a9.455,9.455,0,0,0,.321,1.269q2.779,2.891,5.477,5.846c1.269,1.4-1.06,3.052-2.361,1.815a1.766,1.766,0,0,1-.8.659l.225.289a1.349,1.349,0,0,1,.161,1.349l.209.209c1.381,1.349-.546,3.662-1.927,2.3l-.482-.482a1.2,1.2,0,0,1-1.767-.482,14.149,14.149,0,0,0-4.658-4.642l-.594-.4a19.032,19.032,0,0,0-5.059-.98c-1.285.321-2.554.707-3.807,1.108a1.494,1.494,0,0,1-1.172-2.746l-.819.177C223.113,66.614,222.068,63.787,223.948,63.306Z" transform="translate(40.11 -10.098)" fill="#fddab6"/>
      <path id="패스_2389" data-name="패스 2389" d="M223.682,56.865a33.248,33.248,0,0,1,5.975-.273c.482,0,.546.787,0,.771a33.247,33.247,0,0,0-5.975.273C223.248,57.7,223.184,56.93,223.682,56.865Z" transform="translate(40.745 -7.528)" fill="#fdd3a7"/>
      <path id="패스_2390" data-name="패스 2390" d="M223.5,58.82a41.2,41.2,0,0,1,6.425-.45.385.385,0,1,1,0,.771,41.18,41.18,0,0,0-6.425.45C223.066,59.655,223.018,58.885,223.5,58.82Z" transform="translate(40.638 -6.432)" fill="#fdd3a7"/>
      <path id="패스_2391" data-name="패스 2391" d="M228.749,59.383a7.822,7.822,0,0,1,6.906,1.317c.418.273-.08.851-.5.594a6.987,6.987,0,0,0-6.152-1.172.391.391,0,0,1-.257-.739Z" transform="translate(43.869 -5.999)" fill="#663a12"/>
      <path id="패스_2392" data-name="패스 2392" d="M227.894,60.736a5.348,5.348,0,0,1,2.875-4.144c.45-.193.707.53.257.723a4.578,4.578,0,0,0-2.393,3.566A.376.376,0,0,1,227.894,60.736Z" transform="translate(43.503 -7.528)" fill="#663a12"/>
      <path id="패스_2393" data-name="패스 2393" d="M224.069,60.883a16.254,16.254,0,0,1,4.915-1.333.386.386,0,1,1,0,.771,15.6,15.6,0,0,0-4.722,1.285C223.956,61.879,223.7,61.092,224.069,60.883Z" transform="translate(41.081 -5.716)" fill="#fdd3a7"/>
      <path id="패스_2394" data-name="패스 2394" d="M245.813,56.7,242.28,78.27s2.682,8.031,8.464,9.075,10.1-25.794,10.1-25.794" transform="translate(52.23 -7.444)" fill="#c3ea75"/>
      <path id="패스_2395" data-name="패스 2395" d="M261.566,49.5a55.507,55.507,0,0,1,13.122,2.779c5.734,1.863,30.517,38.178,27.3,41.759s-18.6,10.874-27.754,8.914-30.757-37.824-29.746-41.888c2.313-9.332,9.524-9.364,9.524-9.364" transform="translate(53.55 -11.808)" fill="#c3ea75"/>
      <path id="패스_2396" data-name="패스 2396" d="M245.017,46.044s-1.606,13.684,3.212,16.061,10.327-2.666,11.917-5.638,3.212-18.021-6.007-17.009S245.017,46.044,245.017,46.044Z" transform="translate(53.733 -17.924)" fill="#fddab6"/>
      <path id="패스_2397" data-name="패스 2397" d="M246.388,38.718c3.774-1.317,8.159-4.16,14.889.289s8.818,16.8.771,19.772l-1.526-4.449a4.5,4.5,0,0,0,.932-3.212,2.6,2.6,0,0,0-3.116-2.425,6.826,6.826,0,0,1-1.911-2.313c-1.365-2.7-2.891-1.365-4.818,1.028s-6.232,3.116-8.352,1.606S241.585,40.452,246.388,38.718Z" transform="translate(52.089 -19.625)" fill="#34323d"/>
      <path id="패스_2398" data-name="패스 2398" d="M239.06,58.65a162.95,162.95,0,0,1,14.23,11.387l6.955,14.969s-4.08,5.75-11.677,1.7c-5.4-2.875-13.909-13.347-17.989-19.595a15.451,15.451,0,0,1,8.48-8.464Z" transform="translate(45.138 -6.262)" fill="#c3ea75"/>
      <path id="패스_2399" data-name="패스 2399" d="M270.509,91.851c.1-1.028,1.7-1.028,1.606,0l-7.308,77.93c-.1,1.028-1.7,1.028-1.606,0Z" transform="translate(64.908 13.395)" fill="#444152"/>
      <path id="패스_2400" data-name="패스 2400" d="M252.34,87.862s8.031-6.649,8.031-9.637-4.16-24.253,2.714-25.939S275.533,66.741,277.54,76.2s-20.655,27.1-20.655,27.1" transform="translate(58.327 -10.194)" fill="#c3ea75"/>
      <path id="패스_2401" data-name="패스 2401" d="M240.01,28.309c-4.658-3.357-11.693-2.843-16.35.5L238,190.465l16.27-1.446Z" transform="translate(40.943 -26.032)" fill="#963626"/>
      <ellipse id="타원_45" data-name="타원 45" cx="8.159" cy="3.453" rx="8.159" ry="3.453" transform="translate(278.639 160.987) rotate(-5.07)" fill="#963626"/>
      <path id="패스_2402" data-name="패스 2402" d="M248.93,129.331s-1.847-3.951-8.32-3.084-8.031,3.823-8.031,3.823l9.894,30.661Z" transform="translate(46.35 34.635)" fill="#ffd8bd"/>
      <path id="패스_2403" data-name="패스 2403" d="M240.449,153.536l2.971-14.584a5.862,5.862,0,0,0-7.42.819Z" transform="translate(48.423 41.83)" fill="#653200"/>
      <path id="패스_2404" data-name="패스 2404" d="M249.994,84.69l-7.26.851s-5.862-1.253-7.163,1.076c-.353.61,5.83,1.51,5.83,1.51s-8.9,2.345-8.352,4.1,6.425,5.14,7.581,5.445,12.415-8.577,12.415-8.577" transform="translate(46.62 9.522)" fill="#fddab6"/>
      <path id="패스_2405" data-name="패스 2405" d="M241.4,92.174c2.875-4.08,8.866-8.031,13.749-12.688,6.633-5.493,13.556-12.448,18.888-4.947,5.943,8.336-17.411,24-24.2,28.3A21.667,21.667,0,0,1,241.4,92.174Z" transform="translate(51.696 1.379)" fill="#c3ea75"/>
      <path id="패스_2406" data-name="패스 2406" d="M131.225,196.091,190.8,230.06a1.815,1.815,0,0,0,1.831-3.116l-59.652-33.97a1.815,1.815,0,0,0-1.831,3.116Z" transform="translate(-15.59 75.052)" fill="#fff"/>
      <path id="패스_2407" data-name="패스 2407" d="M146.664,186.381l59.588,33.938a1.815,1.815,0,0,0,1.831-3.116L148.5,183.265a1.815,1.815,0,0,0-1.831,3.116Z" transform="translate(-6.183 69.167)" fill="#fff"/>
      <path id="패스_2408" data-name="패스 2408" d="M160.209,179.017,219.8,212.938a1.815,1.815,0,0,0,1.831-3.116l-59.652-33.938A1.815,1.815,0,0,0,160.144,179Z" transform="translate(1.988 64.694)" fill="#fff"/>
      <path id="패스_2409" data-name="패스 2409" d="M178.734,168.127l59.588,33.922a1.815,1.815,0,0,0,1.831-3.116l-59.588-33.938a1.815,1.815,0,0,0-1.831,3.116Z" transform="translate(13.256 58.093)" fill="#fff"/>
      <path id="패스_2410" data-name="패스 2410" d="M197.284,156.491l59.588,33.938a1.815,1.815,0,0,0,1.831-3.116l-59.588-33.938a1.815,1.815,0,0,0-1.831,3.116Z" transform="translate(24.499 51.05)" fill="#fff"/>
      <ellipse id="타원_46" data-name="타원 46" cx="12.174" cy="5.991" rx="12.174" ry="5.991" transform="translate(106.319 263.593)" fill="#fdc42e"/>
      <path id="패스_2411" data-name="패스 2411" d="M138.129,197.588l1.51-3.5a1.076,1.076,0,0,0-.916-1.606H128.7a1.06,1.06,0,0,0,0,2.1h10.022l-.916-1.606-1.51,3.5c-.53,1.237,1.285,2.313,1.815,1.06Z" transform="translate(-17.178 74.857)" fill="#fff"/>
      <ellipse id="타원_47" data-name="타원 47" cx="12.174" cy="5.991" rx="12.174" ry="5.991" transform="translate(130.909 249.236)" fill="#fdc42e"/>
      <path id="패스_2412" data-name="패스 2412" d="M153.449,188.647l1.51-3.5a1.076,1.076,0,0,0-.915-1.606H144.021a1.06,1.06,0,0,0,0,2.1h10.022l-.915-1.606-1.51,3.5c-.53,1.237,1.285,2.313,1.815,1.06Z" transform="translate(-7.892 69.437)" fill="#fff"/>
      <ellipse id="타원_48" data-name="타원 48" cx="12.174" cy="5.991" rx="12.174" ry="5.991" transform="translate(150.937 235.648)" fill="#fdc42e"/>
      <path id="패스_2413" data-name="패스 2413" d="M165.909,180.188l1.51-3.5a1.076,1.076,0,0,0-.916-1.606H156.481a1.06,1.06,0,0,0,0,2.1H166.5l-.915-1.606-1.51,3.5c-.53,1.237,1.285,2.313,1.815,1.06Z" transform="translate(-0.34 64.31)" fill="#fff"/>
      <ellipse id="타원_49" data-name="타원 49" cx="12.174" cy="5.991" rx="12.174" ry="5.991" transform="translate(177.519 219.65)" fill="#fdc42e"/>
      <path id="패스_2414" data-name="패스 2414" d="M182.459,170.227l1.51-3.5a1.076,1.076,0,0,0-.915-1.606H173.031a1.06,1.06,0,0,0,0,2.1h10.022l-.916-1.606-1.51,3.5c-.53,1.237,1.285,2.313,1.815,1.06Z" transform="translate(9.692 58.273)" fill="#fff"/>
      <ellipse id="타원_50" data-name="타원 50" cx="12.174" cy="5.991" rx="12.174" ry="5.991" transform="translate(205.594 201.774)" fill="#fdc42e"/>
      <path id="패스_2415" data-name="패스 2415" d="M199.873,159.091l1.606-3.485a1.076,1.076,0,0,0-.916-1.606H190.541a1.06,1.06,0,0,0,0,2.1h10.022l-.915-1.606-1.51,3.5c-.53,1.237,1.285,2.313,1.815,1.06Z" transform="translate(20.305 51.533)" fill="#fff"/>
      <path id="패스_2417" data-name="패스 2417" d="M318.413,156.236a59.427,59.427,0,0,0-12.351,40.876c1.606,23.835,15.066,30.757,15.066,30.757l15.965.883s18.984-6.2,16.511-37.2c-2.329-29.1-11.789-35.945-11.789-35.945" transform="translate(90.791 52.508)" fill="#28a0f0"/>
      <ellipse id="타원_51" data-name="타원 51" cx="11.757" cy="4.16" rx="11.757" ry="4.16" transform="translate(409.22 204.633)" fill="#2898e2"/>
      <path id="패스_2600" data-name="패스 2600" d="M11.7,0c6.493,0,9.32,2.664,9.32,4.962S18.193,8.32,11.7,8.32.64,6.684.64,4.387,5.207,0,11.7,0Z" transform="translate(409.277 273.682)" fill="#28a0f0"/>
      <path id="패스_2418" data-name="패스 2418" d="M324.4,187.992l-14.214-81.608c-.305-1.783-3.02-1.028-2.714.739l14.23,81.656C322.021,190.514,324.719,189.759,324.4,187.992Z" transform="translate(91.728 22.054)" fill="#007f68"/>
      <path id="패스_2419" data-name="패스 2419" d="M319.62,183.018a3.388,3.388,0,0,1,1.317,0,2.939,2.939,0,0,1,1.445.883q1.7-34.211.61-68.47c0-1.8-2.859-1.815-2.811,0Q321.274,149.289,319.62,183.018Z" transform="translate(99.108 27.334)" fill="#007f68"/>
      <path id="패스_2420" data-name="패스 2420" d="M349.936,108a750.847,750.847,0,0,0-27.5,78.46,1.407,1.407,0,0,0,2.714.739,750.8,750.8,0,0,1,27.5-78.46C353.341,107.086,350.675,106.347,349.936,108Z" transform="translate(100.786 23.088)" fill="#007f68"/>
      <path id="패스_2421" data-name="패스 2421" d="M315.433,147.294s-1.606-.193-8.256-7.26,1.767-12.383-2.12-20.334,1.606-18.39,2.827-26.341a36.941,36.941,0,0,0,5.895,15.563c5.059,7.244,7.886,13.8,7.356,22.984A81.363,81.363,0,0,1,318.227,149" transform="translate(89.45 14.777)" fill="#007f68"/>
      <path id="패스_2422" data-name="패스 2422" d="M322.874,155.213s-1.445-.562-6.248-9.043,4.722-11.58,2.875-20.237,6.007-17.443,9.139-24.863a36.941,36.941,0,0,0,1.943,16.527c3.212,8.256,4.3,15.29,1.606,24.092a81.36,81.36,0,0,1-7.051,15.917" transform="translate(96.464 19.451)" fill="#007f68"/>
      <path id="패스_2423" data-name="패스 2423" d="M334.313,145.214s-1.3-.835-4.256-10.135,6.987-10.36,6.971-19.274,9.46-15.853,14.038-22.486a36.942,36.942,0,0,0-1.478,16.575c1.4,8.737,1.076,15.853-3.405,23.883a81.36,81.36,0,0,1-10.167,14.134" transform="translate(105.102 14.753)" fill="#007f68"/>
    </g>
  </g>
</svg>
