<svg xmlns="http://www.w3.org/2000/svg" xmlns:xlink="http://www.w3.org/1999/xlink" width="146.269" height="134.591" viewBox="0 0 146.269 134.591">
  <defs>
    <linearGradient id="linear-gradient" x1="-0.275" y1="4.592" x2="1.964" y2="2.023" gradientUnits="objectBoundingBox">
      <stop offset="0.01"/>
      <stop offset="0.08" stop-opacity="0.69"/>
      <stop offset="0.21" stop-opacity="0.322"/>
      <stop offset="1" stop-opacity="0"/>
    </linearGradient>
    <linearGradient id="linear-gradient-2" x1="-0.988" y1="0.2" x2="3.498" y2="-1.741" xlink:href="#linear-gradient"/>
  </defs>
  <g id="그룹_1962" data-name="그룹 1962" transform="translate(18792.697 -6117.367)">
    <g id="SEO_Monochromatic" transform="translate(-18792.697 6117.367)">
      <path id="패스_8973" data-name="패스 8973" d="M85.516,263.752l-.773-.048c-2.529-.2-4.226,1.093-6.357,2.342-2.535,1.491-5.433,2.312-7.9,3.876-.368.235-.779.67-.555,1.044.151.247.5.284.791.29,6.248.121,12.478.145,18.714.145H202.624a96.945,96.945,0,0,0,12.339-.839,1.207,1.207,0,0,0,.229-2.384q-5.264-1.811-10.577-3.387c-9-2.7-19.107-1.521-28.373-1.328-9.756.211-19.529.453-29.279-.175-7.021-.453-12.532,0-19.577.229-5.137.151-10.22.6-15.376.525l-18.31-.223C90.973,263.836,88.226,263.915,85.516,263.752Z" transform="translate(-69.865 -136.809)" fill="#053855"/>
      <path id="패스_8974" data-name="패스 8974" d="M116.87,215.4h45.995l-8.138-29.254H123.734Z" transform="translate(-65.186 -87.774)" fill="#326dfb"/>
      <path id="패스_8975" data-name="패스 8975" d="M116.87,215.4h45.995l-8.138-29.254H123.734Z" transform="translate(-65.186 -87.774)" fill="#053855"/>
      <path id="패스_8976" data-name="패스 8976" d="M218.612,82v75.46a8.246,8.246,0,0,1-8.27,8.2H91.162a8.252,8.252,0,0,1-8.252-8.24V82a8.252,8.252,0,0,1,8.252-8.252H210.342a8.252,8.252,0,0,1,8.271,8.234Z" transform="translate(-75.035 -61.791)" fill="#326dfb"/>
      <path id="패스_8977" data-name="패스 8977" d="M218.612,82.008v66.146H82.91V82.008a8.258,8.258,0,0,1,8.252-8.258H210.342A8.264,8.264,0,0,1,218.612,82.008Z" transform="translate(-75.035 -61.791)" fill="#053855"/>
      <path id="패스_8978" data-name="패스 8978" d="M217.923,84.812V147.2H86.32V84.812a7.969,7.969,0,0,1,7.993-7.9h115.6A7.969,7.969,0,0,1,217.923,84.812Z" transform="translate(-76.386 -63.043)" fill="#fff"/>
      <path id="패스_8979" data-name="패스 8979" d="M217.923,84.812V147.2H86.32V84.812a7.969,7.969,0,0,1,7.993-7.9h115.6A7.969,7.969,0,0,1,217.923,84.812Z" transform="translate(-76.386 -63.043)" fill="#f5f7ff" opacity="0.18" style="mix-blend-mode: normal;isolation: isolate"/>
      <path id="패스_8980" data-name="패스 8980" d="M125.621,73.75V99.539a3.586,3.586,0,0,1-3.586,3.586H82.91V82a8.264,8.264,0,0,1,8.252-8.246Z" transform="translate(-75.035 -61.791)" fill="url(#linear-gradient)"/>
      <path id="패스_8981" data-name="패스 8981" d="M123.056,205.6c1.1-5.119-4.147-9.629-3.948-14.863.085-2.3,1.207-4.413,2.33-6.429a.773.773,0,0,1,.332-.374c.229-.1.483.048.706.157,2.083,1.068,4.733-.447,5.735-2.56s.815-4.57.6-6.894a8.174,8.174,0,0,1-8.029,1.28c-1.322-.513-2.572-1.395-3.99-1.389a5.747,5.747,0,0,0-3.755,2c-3.544,3.544-5.536,8.409-6.447,13.341s-.7,10.643-.6,15.66Z" transform="translate(-84.145 -101.732)" fill="url(#linear-gradient-2)"/>
      <line id="선_1" data-name="선 1" x1="18.261" y1="9.955" transform="translate(102.72 38.274)" fill="none"/>
      <path id="패스_8984" data-name="패스 8984" d="M124.5,262.906a1.455,1.455,0,0,0,.386,1.123,1.262,1.262,0,0,0,.5.205,5.558,5.558,0,0,0,1.449.09,18.421,18.421,0,0,0,2.692-.386l1.521-.29a.682.682,0,0,0,.5-.247.543.543,0,0,0-.085-.6,2.132,2.132,0,0,0-.978-.64,18.638,18.638,0,0,0-2.819-.893,1.009,1.009,0,0,1-.441-.181c-.193-.169-.229-.453-.362-.67a1.129,1.129,0,0,0-1.207-.465c-.441.085-1.075.38-1.207.863A9.351,9.351,0,0,0,124.5,262.906Z" transform="translate(-91.485 -135.571)" fill="#f9c6d6"/>
      <path id="패스_8985" data-name="패스 8985" d="M129.174,262.441a.905.905,0,0,0-.881.248c-.254.368.072.96-.223,1.292a.876.876,0,0,1-.67.2h-1.678a5.3,5.3,0,0,1-1.346-.109.556.556,0,0,0-.314-.036.392.392,0,0,0-.284.332.966.966,0,0,0,.066.453,3.07,3.07,0,0,0,.465.851.676.676,0,0,0,.205.187.653.653,0,0,0,.3.048c1,0,1.992.036,3.018-.042.694-.048,1.382-.145,2.071-.205a8.666,8.666,0,0,0,2.934-.507.96.96,0,0,0,.561-.5.719.719,0,0,0-.127-.6,1.629,1.629,0,0,0-.5-.435,5.916,5.916,0,0,0-1.769-.767A14.253,14.253,0,0,0,129.174,262.441Z" transform="translate(-91.23 -136.56)" fill="#565056"/>
      <path id="패스_8986" data-name="패스 8986" d="M94,259.053v.127c.06,1.34,1.811,1.376,2.8,1.328a19.2,19.2,0,0,0,2.686-.386l1.527-.29a.73.73,0,0,0,.5-.247.567.567,0,0,0-.085-.6,2.107,2.107,0,0,0-.984-.64,25.921,25.921,0,0,0-2.511-.821c-.755-.223-.121-1.262-.036-1.811a.64.64,0,0,0,0-.338.6.6,0,0,0-.356-.235,4.578,4.578,0,0,0-1.364-.247.428.428,0,0,0-.272.054.47.47,0,0,0-.157.217l-1.455,3.109A2.282,2.282,0,0,0,94,259.053Z" transform="translate(-79.43 -133.577)" fill="#f9c6d6"/>
      <path id="패스_8987" data-name="패스 8987" d="M94.887,196.4s-1.087,6.121,1.159,10.709a72.083,72.083,0,0,0,3.942,7.184s-4.673,5.053-4.673,11.428a61.216,61.216,0,0,1-.121,6.641L98,233.78l7-19.511s.423-2.765,0-3.7-4.015-11.6-4.015-11.6Z" transform="translate(-79.678 -110.399)" fill="#473f47"/>
      <path id="패스_8988" data-name="패스 8988" d="M134.167,148.771c-1.449,0-3.018-1.545-3.924-3.93-1.014-2.759-.573-5.288,1.026-5.88s3.574,1.05,4.594,3.809h0c1.02,2.765.6,5.294-1.02,5.886A1.991,1.991,0,0,1,134.167,148.771Zm-2.222-8.627a.731.731,0,0,0-.229.036c-.749.278-1.014,2.137-.248,4.226s2.173,3.314,2.922,3.018,1.014-2.137.254-4.226h0C133.95,141.352,132.724,140.144,131.946,140.144Z" transform="translate(-93.578 -87.588)" fill="#473f47"/>
      <path id="패스_8989" data-name="패스 8989" d="M143.04,160.492a.67.67,0,0,1-.513-.241l-4.829-6.085a.652.652,0,0,1,.109-.918h0a.646.646,0,0,1,.906.1h0l4.829,6.085a.646.646,0,0,1-.507,1.05Z" transform="translate(-96.692 -93.242)" fill="#473f47"/>
      <path id="패스_8990" data-name="패스 8990" d="M128.388,147.7a12.723,12.723,0,0,1,.078,1.926,2.077,2.077,0,0,1-.857,1.207,4.164,4.164,0,0,1-1.395.6.73.73,0,0,0-.64.942v1.648a.736.736,0,0,1-.121.489.6.6,0,0,1-.284.157,1.751,1.751,0,0,1-2-1.008c-.181-.362-.386-.718-.6-1.062a4,4,0,0,1-.38-1.419,8.258,8.258,0,0,1,.857-4.588,6.381,6.381,0,0,1,1.908-2.294c.64-.459,1.9-1.153,2.56-.356.326.4.32.984.6,1.4.223.3.6.507.67.875s-.181.6-.3.936A1.661,1.661,0,0,0,128.388,147.7Z" transform="translate(-90.582 -89.465)" fill="#f9c6d6"/>
      <path id="패스_8991" data-name="패스 8991" d="M140.159,155v-.1a1.606,1.606,0,0,1,.392-1.026.815.815,0,0,1,1.02-.145c.133.091.223.229.368.3s.459,0,.6.181.115.314.187.471.284.29.423.441c.682.736-.072,2.053-.344,2.8-.41,1.123-.8,2.252-1.147,3.4a1.769,1.769,0,0,1-1.159-.223,1.284,1.284,0,0,1-.338-.29,1.672,1.672,0,0,1-.133-1.316,2.873,2.873,0,0,0,.072-1.014,8.409,8.409,0,0,0-.362-1.081c-.1-.3-.187-.67.048-.881.078-.072.193-.115.26-.2a.525.525,0,0,0,.085-.3C140.171,155.659,140.141,155.345,140.159,155Z" transform="translate(-97.518 -93.443)" fill="#f9c6d6"/>
      <path id="패스_8992" data-name="패스 8992" d="M110.074,198.565l6.791,15.225-.284,21.654-3.115-.229s-5.331-12.315-1.9-19.922c0,0-8.234-7.039-11.277-11.047-3.737-4.932-2.892-9.055-2.892-9.055Z" transform="translate(-80.744 -109.92)" fill="#565056"/>
      <path id="패스_8993" data-name="패스 8993" d="M111.76,157.128a10.65,10.65,0,0,1,2.415.857c2.608,1.207,2.723,3.26,3.622,5.729a47.749,47.749,0,0,0,1.98,4.612l1.244-7.437,3.489,1.407s.344,10.987-2.216,12.46c-1.648.954-3.954-.157-5.433-.924-.543-.278-1.443-1.117-2.028-1.207-1.117-.151-1.207,1.171-2.173,1.95a16.057,16.057,0,0,0-1.853,1.25,6.146,6.146,0,0,0-1.207,2.2,7.968,7.968,0,0,0-.241,3.067,2.488,2.488,0,0,1-.4,2,1.92,1.92,0,0,1-1.014.453,12.122,12.122,0,0,1-3.737-.042,37.367,37.367,0,0,1-7.244-1.3,18.993,18.993,0,0,1-2.5-.984,1.556,1.556,0,0,1-.477-.314,1.256,1.256,0,0,1-.29-.6c-.32-1.5.761-2.886,1.3-4.316.362-.966.483-2.01.815-2.988a12.789,12.789,0,0,1,1.642-2.777c.489-.761.761-1.66,1.25-2.445a48.124,48.124,0,0,1,4.353-5.723,24.25,24.25,0,0,1,3.1-3.193,7.3,7.3,0,0,1,4.666-1.811A6.037,6.037,0,0,1,111.76,157.128Z" transform="translate(-79.285 -94.804)" fill="#fff"/>
      <path id="패스_8994" data-name="패스 8994" d="M107,135.916a4.993,4.993,0,0,0-4.461,3.411,11,11,0,0,0-.272,2.336,3.622,3.622,0,0,1-.984,2.282,6.171,6.171,0,0,1-2.735,1.008,4.864,4.864,0,0,0-3.5,2.686c-.543,1.431-.085,2.892-.326,4.322a4.721,4.721,0,0,1-1.811,2.988c-.664.489-1.455.8-2.143,1.262a5.65,5.65,0,0,0-1.117,7.914l.085.109a7.663,7.663,0,0,1,.706.821,11.258,11.258,0,0,1,.537,1.044,5.059,5.059,0,0,0,4.709,2.529,6.556,6.556,0,0,0,4.763-2.68c1.056-1.407,1.636-3.169,2.916-4.371a25.3,25.3,0,0,1,2.813-1.908,5.722,5.722,0,0,0,2.626-4.7c-.085-1.558-1.395-3.254-.181-4.636a8.268,8.268,0,0,1,1.5-1.171,3.586,3.586,0,0,0,1.292-1.376c.6-1.3-.272-2.952.423-4.226.513-.912,1.66-1.25,2.415-2a3.115,3.115,0,0,0,.5-3.375,4.087,4.087,0,0,0-2.735-2.191,9.611,9.611,0,0,0-2.662-.175l-1.521.048A3.171,3.171,0,0,0,107,135.916Z" transform="translate(-77.257 -86.377)" fill="#fc682d"/>
      <path id="패스_8995" data-name="패스 8995" d="M98.867,258.98a.906.906,0,0,0-.881.242c-.254.374.072.96-.223,1.3a.905.905,0,0,1-.676.193h-1.7a5.586,5.586,0,0,1-1.346-.109.724.724,0,0,0-.32-.042.4.4,0,0,0-.278.338.869.869,0,0,0,.066.447,3.107,3.107,0,0,0,.465.857.6.6,0,0,0,.205.187.737.737,0,0,0,.3.048c1,0,1.992.036,3.018-.042.688-.054,1.376-.151,2.071-.205a8.819,8.819,0,0,0,2.934-.507.942.942,0,0,0,.555-.507.718.718,0,0,0-.121-.6,1.612,1.612,0,0,0-.5-.429,5.917,5.917,0,0,0-1.769-.767A13.274,13.274,0,0,0,98.867,258.98Z" transform="translate(-79.208 -135.188)" fill="#565056"/>
      <rect id="사각형_7281" data-name="사각형 7281" width="46.779" height="38.274" rx="5.95" transform="translate(1.09 0)" fill="#326dfb"/>
      <rect id="사각형_7285" data-name="사각형 7285" width="34.301" height="2.155" transform="translate(7.223 7.926)" fill="#fff"/>
      <rect id="사각형_7286" data-name="사각형 7286" width="21.358" height="2.155" transform="translate(7.223 14.386)" fill="#fff"/>
      <rect id="사각형_7287" data-name="사각형 7287" width="34.301" height="2.155" transform="translate(7.223 20.845)" fill="#fff"/>
      <rect id="사각형_7288" data-name="사각형 7288" width="21.358" height="2.155" transform="translate(7.223 27.305)" fill="#fff"/>
    </g>
    <g id="그룹_1955" data-name="그룹 1955" transform="translate(-18667.982 6135.728)">
      <path id="패스_8997" data-name="패스 8997" d="M140.193,393.756a1.5,1.5,0,1,0-1.5,1.5A1.5,1.5,0,0,0,140.193,393.756Zm0,0" transform="translate(-133.77 -382.441)" fill="#fdc42e"/>
      <path id="패스_8998" data-name="패스 8998" d="M180.167,392.258a1.5,1.5,0,0,0-.436.065,1.5,1.5,0,0,1,0,2.868,1.5,1.5,0,1,0,.436-2.932Zm0,0" transform="translate(-175.245 -382.441)" fill="#e5af22"/>
      <path id="패스_8999" data-name="패스 8999" d="M162.65,34.128a.889.889,0,1,1,.7-1.046A.89.89,0,0,1,162.65,34.128Zm0,0" transform="translate(-157.554 -31.557)" fill="#fdc42e"/>
      <path id="패스_9000" data-name="패스 9000" d="M186.139,33.081a.89.89,0,0,0-1.048-.7.912.912,0,0,0-.13.036.888.888,0,0,1,0,1.67.89.89,0,0,0,1.178-1.01Zm0,0" transform="translate(-180.344 -31.557)" fill="#e5af22"/>
      <path id="패스_9001" data-name="패스 9001" d="M9.139,99.09H1.7a1.206,1.206,0,0,1-.751-2.149l.239-.192a2.342,2.342,0,0,0,.874-1.824V93.661a3.382,3.382,0,0,1,6.763,0v1.287a2.342,2.342,0,0,0,.844,1.8l.233.194a1.215,1.215,0,0,1,.438.934v.012A1.2,1.2,0,0,1,9.139,99.09Zm0,0" transform="translate(-0.5 -88.026)" fill="#fdc42e"/>
      <path id="패스_9002" data-name="패스 9002" d="M165.524,96.938l-.233-.194a2.342,2.342,0,0,1-.844-1.8V93.657a3.384,3.384,0,0,0-4.334-3.24,3.378,3.378,0,0,1,2.429,3.24v1.287a2.342,2.342,0,0,0,.844,1.8l.233.194a1.216,1.216,0,0,1,.438.934v.012a1.2,1.2,0,0,1-1.2,1.2h1.906a1.2,1.2,0,0,0,1.2-1.2v-.012A1.215,1.215,0,0,0,165.524,96.938Zm0,0" transform="translate(-156.12 -88.022)" fill="#e5af22"/>
      <path id="패스_9003" data-name="패스 9003" d="M213.949,2.9a2.9,2.9,0,1,0-2.9,2.9A2.9,2.9,0,0,0,213.949,2.9Zm0,0" transform="translate(-202.948)" fill="#fc476e"/>
      <path id="패스_9004" data-name="패스 9004" d="M259.474,4.223a2.9,2.9,0,0,1-2.458,5.155,2.9,2.9,0,1,0,2.458-5.155Zm0,0" transform="translate(-250.595 -4.117)" fill="#cc2b5a"/>
      <path id="패스_9005" data-name="패스 9005" d="M300.062,60.235a.2.2,0,0,1-.2-.2V58.081l-.076.069a.2.2,0,0,1-.273-.3l.415-.378a.2.2,0,0,1,.339.149v2.409A.2.2,0,0,1,300.062,60.235Zm0,0" transform="translate(-291.964 -55.984)" fill="#e3faff"/>
    </g>
    <g id="사각형_7291" data-name="사각형 7291" transform="translate(-18735.055 6159.095)" fill="#fff" stroke="#707070" stroke-width="0.2">
      <rect width="61.998" height="9.234" rx="1" stroke="none"/>
      <rect x="0.1" y="0.1" width="61.798" height="9.034" rx="0.9" fill="none"/>
    </g>
    <g id="사각형_7292" data-name="사각형 7292" transform="translate(-18735.055 6170.966)" fill="#fff" stroke="#707070" stroke-width="0.2">
      <rect width="61.998" height="9.234" rx="1" stroke="none"/>
      <rect x="0.1" y="0.1" width="61.798" height="9.034" rx="0.9" fill="none"/>
    </g>
    <g id="사각형_7293" data-name="사각형 7293" transform="translate(-18735.055 6182.838)" fill="#fff" stroke="#707070" stroke-width="0.2">
      <rect width="61.998" height="9.234" rx="1" stroke="none"/>
      <rect x="0.1" y="0.1" width="61.798" height="9.034" rx="0.9" fill="none"/>
    </g>
    <path id="패스_9006" data-name="패스 9006" d="M273,4256.987h50.607" transform="translate(-18997.346 1892.874)" fill="none" stroke="#eaeaea" stroke-width="0.5"/>
    <circle id="타원_102" data-name="타원 102" cx="2.638" cy="2.638" r="2.638" transform="translate(-18707.355 6147.222)" fill="#326dfb" opacity="0.678"/>
    <circle id="타원_103" data-name="타원 103" cx="1.319" cy="1.319" r="1.319" transform="translate(-18735.055 6148.542)" fill="#326dfb"/>
    <circle id="타원_104" data-name="타원 104" cx="1.319" cy="1.319" r="1.319" transform="translate(-18675.693 6148.542)" fill="#eaeaea"/>
    <circle id="타원_105" data-name="타원 105" cx="1.319" cy="1.319" r="1.319" transform="translate(-18706.035 6148.542)" fill="#326dfb"/>
    <path id="패스_9007" data-name="패스 9007" d="M273,4256.987h30.641" transform="translate(-19007.699 1892.874)" fill="#326dfb" stroke="#326dfb" stroke-width="0.5"/>
    <g id="그룹_1956" data-name="그룹 1956" transform="translate(-18732.422 6162.722)">
      <path id="패스_9008" data-name="패스 9008" d="M.976-.786h-.1V.36h.1ZM.038.026.052.111A4.842,4.842,0,0,0,.8.068L.8-.008C.694.005.584.013.475.018V-.232H.726V-.315H.231V-.671H.13v.439H.373V.021C.255.025.14.025.038.026ZM2.12-.784h-.1v.651h.1Zm-.937.541.052.08a.5.5,0,0,0,.294-.289.48.48,0,0,0,.29.267l.052-.077A.406.406,0,0,1,1.58-.627V-.739h-.1v.112A.421.421,0,0,1,1.183-.243Zm.192.587H2.12V-.068H1.375Zm.1-.082V.014h.546V.262ZM2.964-.684H2.694V-.8h-.1v.116H2.316V-.6h.648Zm-.58.331c0,.118.1.193.259.193S2.9-.235,2.9-.353s-.106-.2-.262-.2S2.383-.473,2.384-.353Zm.094,0c0-.073.067-.12.165-.119s.166.046.166.119-.068.12-.166.12S2.477-.281,2.478-.353Zm.043.34h.642v.1H2.523V.347H3.3V.269H2.623V.159h.639V-.089H2.52Zm.442-.234h.2v.1h.1v-.64h-.1v.255h-.2v.08h.2v.122h-.2ZM4.089-.7H3.519v.085H3.99a1.566,1.566,0,0,1-.032.307l.1.008a1.724,1.724,0,0,0,.03-.339ZM3.448-.19l.01.084a4.546,4.546,0,0,0,.72-.046L4.172-.228c-.119.017-.251.026-.377.031V-.443h-.1v.249C3.606-.191,3.522-.19,3.448-.19Zm.176.526H4.39V.25H3.726V0h-.1ZM4.249.076h.1v-.4H4.52V-.412H4.352V-.786h-.1ZM5.539-.786h-.1v.6h.1Zm-.927.517.048.08a.478.478,0,0,0,.3-.275.466.466,0,0,0,.294.251L5.3-.292a.374.374,0,0,1-.295-.331V-.636h.264V-.72H4.637v.084H4.9v.013A.4.4,0,0,1,4.611-.269ZM4.8-.055h.644V.062H4.8V.347h.783V.266H4.9V.138H5.54V-.135H4.8Zm1.833-.73h-.1v.9h.1V-.3H6.8V-.384H6.628Zm-.9.681.012.082a4.266,4.266,0,0,0,.724-.052L6.456-.145c-.1.015-.209.025-.316.032V-.2c.133-.013.216-.077.218-.173s-.107-.177-.269-.176S5.82-.48,5.821-.37s.086.16.219.173v.088C5.928-.105,5.82-.1,5.729-.1ZM5.758-.6h.663V-.672H6.14V-.788h-.1v.116H5.758ZM5.9.335H6.67V.25H6V.05H5.9Zm.017-.7c0-.065.066-.1.171-.1s.173.039.173.1-.067.1-.173.1S5.917-.307,5.917-.37ZM7.249-.721h-.1L6.847.4h.1Zm.7.063H7.368v.082h.48a2.4,2.4,0,0,1-.033.423l.1.009A2.871,2.871,0,0,0,7.95-.6ZM7.3.023l.013.084A4.682,4.682,0,0,0,8.031.066L8.026-.01C7.907,0,7.777.012,7.65.017V-.331h-.1V.02ZM8.1.36h.1V-.219h.186V-.306H8.2V-.786H8.1ZM9.5.133H9.026V-.084H9.4V-.167H8.687V-.354h.684V-.7H8.584v.084h.688v.18H8.587v.353h.34V.133H8.455V.218H9.5Z" transform="translate(2.65 1.191)" fill="#393737"/>
      <g id="사각형_7294" data-name="사각형 7294" transform="translate(0)" fill="#fff" stroke="#707070" stroke-width="0.1">
        <rect width="1.979" height="1.979" stroke="none"/>
        <rect x="0.05" y="0.05" width="1.879" height="1.879" fill="none"/>
      </g>
    </g>
    <g id="그룹_1957" data-name="그룹 1957" transform="translate(-18732.422 6174.594)">
      <path id="패스_9008-2" data-name="패스 9008" d="M.976-.786h-.1V.36h.1ZM.038.026.052.111A4.842,4.842,0,0,0,.8.068L.8-.008C.694.005.584.013.475.018V-.232H.726V-.315H.231V-.671H.13v.439H.373V.021C.255.025.14.025.038.026ZM2.12-.784h-.1v.651h.1Zm-.937.541.052.08a.5.5,0,0,0,.294-.289.48.48,0,0,0,.29.267l.052-.077A.406.406,0,0,1,1.58-.627V-.739h-.1v.112A.421.421,0,0,1,1.183-.243Zm.192.587H2.12V-.068H1.375Zm.1-.082V.014h.546V.262ZM2.964-.684H2.694V-.8h-.1v.116H2.316V-.6h.648Zm-.58.331c0,.118.1.193.259.193S2.9-.235,2.9-.353s-.106-.2-.262-.2S2.383-.473,2.384-.353Zm.094,0c0-.073.067-.12.165-.119s.166.046.166.119-.068.12-.166.12S2.477-.281,2.478-.353Zm.043.34h.642v.1H2.523V.347H3.3V.269H2.623V.159h.639V-.089H2.52Zm.442-.234h.2v.1h.1v-.64h-.1v.255h-.2v.08h.2v.122h-.2ZM4.089-.7H3.519v.085H3.99a1.566,1.566,0,0,1-.032.307l.1.008a1.724,1.724,0,0,0,.03-.339ZM3.448-.19l.01.084a4.546,4.546,0,0,0,.72-.046L4.172-.228c-.119.017-.251.026-.377.031V-.443h-.1v.249C3.606-.191,3.522-.19,3.448-.19Zm.176.526H4.39V.25H3.726V0h-.1ZM4.249.076h.1v-.4H4.52V-.412H4.352V-.786h-.1ZM5.539-.786h-.1v.6h.1Zm-.927.517.048.08a.478.478,0,0,0,.3-.275.466.466,0,0,0,.294.251L5.3-.292a.374.374,0,0,1-.295-.331V-.636h.264V-.72H4.637v.084H4.9v.013A.4.4,0,0,1,4.611-.269ZM4.8-.055h.644V.062H4.8V.347h.783V.266H4.9V.138H5.54V-.135H4.8Zm1.833-.73h-.1v.9h.1V-.3H6.8V-.384H6.628Zm-.9.681.012.082a4.266,4.266,0,0,0,.724-.052L6.456-.145c-.1.015-.209.025-.316.032V-.2c.133-.013.216-.077.218-.173s-.107-.177-.269-.176S5.82-.48,5.821-.37s.086.16.219.173v.088C5.928-.105,5.82-.1,5.729-.1ZM5.758-.6h.663V-.672H6.14V-.788h-.1v.116H5.758ZM5.9.335H6.67V.25H6V.05H5.9Zm.017-.7c0-.065.066-.1.171-.1s.173.039.173.1-.067.1-.173.1S5.917-.307,5.917-.37ZM7.249-.721h-.1L6.847.4h.1Zm.7.063H7.368v.082h.48a2.4,2.4,0,0,1-.033.423l.1.009A2.871,2.871,0,0,0,7.95-.6ZM7.3.023l.013.084A4.682,4.682,0,0,0,8.031.066L8.026-.01C7.907,0,7.777.012,7.65.017V-.331h-.1V.02ZM8.1.36h.1V-.219h.186V-.306H8.2V-.786H8.1ZM9.5.133H9.026V-.084H9.4V-.167H8.687V-.354h.684V-.7H8.584v.084h.688v.18H8.587v.353h.34V.133H8.455V.218H9.5Z" transform="translate(2.65 1.191)" fill="#393737"/>
      <g id="사각형_7294-2" data-name="사각형 7294" transform="translate(0)" fill="#fff" stroke="#707070" stroke-width="0.1">
        <rect width="1.979" height="1.979" stroke="none"/>
        <rect x="0.05" y="0.05" width="1.879" height="1.879" fill="none"/>
      </g>
    </g>
    <g id="그룹_1958" data-name="그룹 1958" transform="translate(-18732.422 6186.466)">
      <path id="패스_9008-3" data-name="패스 9008" d="M.976-.786h-.1V.36h.1ZM.038.026.052.111A4.842,4.842,0,0,0,.8.068L.8-.008C.694.005.584.013.475.018V-.232H.726V-.315H.231V-.671H.13v.439H.373V.021C.255.025.14.025.038.026ZM2.12-.784h-.1v.651h.1Zm-.937.541.052.08a.5.5,0,0,0,.294-.289.48.48,0,0,0,.29.267l.052-.077A.406.406,0,0,1,1.58-.627V-.739h-.1v.112A.421.421,0,0,1,1.183-.243Zm.192.587H2.12V-.068H1.375Zm.1-.082V.014h.546V.262ZM2.964-.684H2.694V-.8h-.1v.116H2.316V-.6h.648Zm-.58.331c0,.118.1.193.259.193S2.9-.235,2.9-.353s-.106-.2-.262-.2S2.383-.473,2.384-.353Zm.094,0c0-.073.067-.12.165-.119s.166.046.166.119-.068.12-.166.12S2.477-.281,2.478-.353Zm.043.34h.642v.1H2.523V.347H3.3V.269H2.623V.159h.639V-.089H2.52Zm.442-.234h.2v.1h.1v-.64h-.1v.255h-.2v.08h.2v.122h-.2ZM4.089-.7H3.519v.085H3.99a1.566,1.566,0,0,1-.032.307l.1.008a1.724,1.724,0,0,0,.03-.339ZM3.448-.19l.01.084a4.546,4.546,0,0,0,.72-.046L4.172-.228c-.119.017-.251.026-.377.031V-.443h-.1v.249C3.606-.191,3.522-.19,3.448-.19Zm.176.526H4.39V.25H3.726V0h-.1ZM4.249.076h.1v-.4H4.52V-.412H4.352V-.786h-.1ZM5.539-.786h-.1v.6h.1Zm-.927.517.048.08a.478.478,0,0,0,.3-.275.466.466,0,0,0,.294.251L5.3-.292a.374.374,0,0,1-.295-.331V-.636h.264V-.72H4.637v.084H4.9v.013A.4.4,0,0,1,4.611-.269ZM4.8-.055h.644V.062H4.8V.347h.783V.266H4.9V.138H5.54V-.135H4.8Zm1.833-.73h-.1v.9h.1V-.3H6.8V-.384H6.628Zm-.9.681.012.082a4.266,4.266,0,0,0,.724-.052L6.456-.145c-.1.015-.209.025-.316.032V-.2c.133-.013.216-.077.218-.173s-.107-.177-.269-.176S5.82-.48,5.821-.37s.086.16.219.173v.088C5.928-.105,5.82-.1,5.729-.1ZM5.758-.6h.663V-.672H6.14V-.788h-.1v.116H5.758ZM5.9.335H6.67V.25H6V.05H5.9Zm.017-.7c0-.065.066-.1.171-.1s.173.039.173.1-.067.1-.173.1S5.917-.307,5.917-.37ZM7.249-.721h-.1L6.847.4h.1Zm.7.063H7.368v.082h.48a2.4,2.4,0,0,1-.033.423l.1.009A2.871,2.871,0,0,0,7.95-.6ZM7.3.023l.013.084A4.682,4.682,0,0,0,8.031.066L8.026-.01C7.907,0,7.777.012,7.65.017V-.331h-.1V.02ZM8.1.36h.1V-.219h.186V-.306H8.2V-.786H8.1ZM9.5.133H9.026V-.084H9.4V-.167H8.687V-.354h.684V-.7H8.584v.084h.688v.18H8.587v.353h.34V.133H8.455V.218H9.5Z" transform="translate(2.65 1.191)" fill="#393737"/>
      <g id="사각형_7294-3" data-name="사각형 7294" transform="translate(0)" fill="#fff" stroke="#707070" stroke-width="0.1">
        <rect width="1.979" height="1.979" stroke="none"/>
        <rect x="0.05" y="0.05" width="1.879" height="1.879" fill="none"/>
      </g>
    </g>
  </g>
</svg>
