<svg xmlns="http://www.w3.org/2000/svg" width="14" height="16" viewBox="0 0 14 16">
  <path id="패스_1769" data-name="패스 1769" d="M12.4,1.01H7.737V2.535H12.4ZM9.292,10.919h1.556V6.346H9.292Zm6.246-5.046,1.1-1.082a8.51,8.51,0,0,0-1.1-1.075L14.441,4.8A7.059,7.059,0,0,0,10.07,3.289a6.932,6.932,0,0,0-7,6.86,6.927,6.927,0,0,0,7,6.86,6.927,6.927,0,0,0,7-6.86,6.779,6.779,0,0,0-1.532-4.276Zm-5.468,9.62a5.387,5.387,0,0,1-5.444-5.336A5.387,5.387,0,0,1,10.07,4.821a5.387,5.387,0,0,1,5.444,5.336A5.387,5.387,0,0,1,10.07,15.493Z" transform="translate(-3.07 -1.01)" fill="#424242"/>
</svg>
