<svg id="_6351901_appointment_calendar_checklist_date_event_icon" data-name="6351901_appointment_calendar_checklist_date_event_icon" xmlns="http://www.w3.org/2000/svg" width="14" height="15" viewBox="0 0 14 15">
  <path id="패스_1823" data-name="패스 1823" d="M5.8,3.3a.289.289,0,0,1,.28-.3h.56a.289.289,0,0,1,.28.3V4.787h5.6V3.3A.289.289,0,0,1,12.8,3h.56a.289.289,0,0,1,.28.3V4.787h1.68a1.157,1.157,0,0,1,1.12,1.191V14.21a3.186,3.186,0,0,0-1.12-2.452v-2.8H4.12v5.957a.579.579,0,0,0,.56.6H9.91L11.252,16.7H4.12A1.157,1.157,0,0,1,3,15.51V5.979A1.157,1.157,0,0,1,4.12,4.787H5.8Zm1.12,2.681h5.6v.6a.289.289,0,0,0,.28.3h.56a.289.289,0,0,0,.28-.3v-.6h1.12a.579.579,0,0,1,.56.6V7.766H4.12V6.574a.579.579,0,0,1,.56-.6H5.8v.6a.289.289,0,0,0,.28.3h.56a.289.289,0,0,0,.28-.3Z" transform="translate(-3 -3)" fill="#424242" fill-rule="evenodd"/>
  <path id="패스_1824" data-name="패스 1824" d="M24,23.968A3.691,3.691,0,0,0,25.5,21v1.549a1.429,1.429,0,0,1-1.439,1.42Z" transform="translate(-12.064 -10.267)" fill="#424242"/>
  <path id="패스_1825" data-name="패스 1825" d="M19.566,16.363a3.154,3.154,0,1,0,3.19,3.154A3.172,3.172,0,0,0,19.566,16.363ZM15.25,19.517a4.316,4.316,0,1,1,4.316,4.267A4.292,4.292,0,0,1,15.25,19.517Z" transform="translate(-9.881 -8.784)" fill="#424242" fill-rule="evenodd"/>
  <path id="패스_1826" data-name="패스 1826" d="M18.464,20.341a.378.378,0,0,1,.531,0l1.061,1.049a.368.368,0,0,1,0,.525.378.378,0,0,1-.531,0l-1.061-1.049A.368.368,0,0,1,18.464,20.341Z" transform="translate(-10.18 -9.564)" fill="#424242"/>
  <path id="패스_1827" data-name="패스 1827" d="M22.44,19.06a.378.378,0,0,0-.531,0l-2.023,2a.368.368,0,0,0,0,.525.378.378,0,0,0,.531,0l2.023-2A.368.368,0,0,0,22.44,19.06Z" transform="translate(-10.64 -9.223)" fill="#424242"/>
</svg>
