<svg xmlns="http://www.w3.org/2000/svg" width="14" height="12" viewBox="0 0 14 12">
  <g id="그룹_1903" data-name="그룹 1903" transform="translate(0.6 0.6)">
    <path id="패스_1829" data-name="패스 1829" d="M8195.014-5223.842h-12.895a.549.549,0,0,1-.553-.545.549.549,0,0,1,.553-.545h12.895a.549.549,0,0,1,.553.545A.549.549,0,0,1,8195.014-5223.842Z" transform="translate(-8182.167 5224.333)" fill="#424242"/>
    <path id="패스_1831" data-name="패스 1831" d="M8195.014-5223.842h-12.895a.549.549,0,0,1-.553-.545.549.549,0,0,1,.553-.545h12.895a.549.549,0,0,1,.553.545A.549.549,0,0,1,8195.014-5223.842Z" transform="translate(-8182.167 5231.606)" fill="#424242"/>
    <path id="패스_1830" data-name="패스 1830" d="M8192.9-5172.339H8182.12a.55.55,0,0,1-.553-.546.549.549,0,0,1,.553-.545H8192.9a.549.549,0,0,1,.552.545A.549.549,0,0,1,8192.9-5172.339Z" transform="translate(-8182.167 5176.466)" fill="#424242"/>
    <path id="패스_1832" data-name="패스 1832" d="M8192.9-5172.339H8182.12a.55.55,0,0,1-.553-.546.549.549,0,0,1,.553-.545H8192.9a.549.549,0,0,1,.552.545A.549.549,0,0,1,8192.9-5172.339Z" transform="translate(-8182.167 5183.739)" fill="#424242"/>
  </g>
</svg>
