<svg xmlns="http://www.w3.org/2000/svg" xmlns:xlink="http://www.w3.org/1999/xlink" width="145.442" height="126.661" viewBox="0 0 145.442 126.661">
  <defs>
    <linearGradient id="linear-gradient" x1="1.964" y1="0.153" x2="-2.616" y2="1.197" gradientUnits="objectBoundingBox">
      <stop offset="0.01"/>
      <stop offset="0.08" stop-opacity="0.69"/>
      <stop offset="0.21" stop-opacity="0.322"/>
      <stop offset="1" stop-opacity="0"/>
    </linearGradient>
    <linearGradient id="linear-gradient-2" x1="1.823" y1="0.595" x2="-1.51" y2="0.368" xlink:href="#linear-gradient"/>
    <linearGradient id="linear-gradient-3" x1="-1.078" y1="0.768" x2="2.763" y2="-0.013" xlink:href="#linear-gradient"/>
    <linearGradient id="linear-gradient-4" x1="1.182" y1="0.716" x2="-1.636" y2="-0.181" xlink:href="#linear-gradient"/>
    <linearGradient id="linear-gradient-5" x1="0.025" y1="0.54" x2="2.227" y2="0.377" xlink:href="#linear-gradient"/>
    <linearGradient id="linear-gradient-6" x1="-0.03" y1="1.305" x2="1.53" y2="-1.16" xlink:href="#linear-gradient"/>
    <linearGradient id="linear-gradient-7" x1="-0.98" y1="0.577" x2="3.093" y2="0.325" xlink:href="#linear-gradient"/>
    <linearGradient id="linear-gradient-8" x1="2.671" y1="0.578" x2="-5.135" y2="0.306" xlink:href="#linear-gradient"/>
  </defs>
  <g id="그룹_1963" data-name="그룹 1963" transform="translate(-134.164 -430.338)">
    <g id="그룹_1960" data-name="그룹 1960" transform="translate(134.164 430.338)">
      <path id="패스_9082" data-name="패스 9082" d="M85.427,263.7l-.768-.045c-2.515-.186-4.2,1.018-6.321,2.182-2.521,1.389-5.4,2.154-7.858,3.611-.366.219-.774.624-.552.973.15.231.492.264.786.27,6.213.112,12.408.135,18.608.135h112.55a102.755,102.755,0,0,0,12.269-.782,1.171,1.171,0,0,0,1.159-1.017,1.135,1.135,0,0,0-.931-1.205q-5.234-1.687-10.517-3.155c-8.95-2.52-19-1.417-28.213-1.238-9.7.2-19.419.422-29.113-.163-6.981-.422-12.462,0-19.467.214-5.108.141-10.162.563-15.289.489l-18.206-.208C90.853,263.782,88.122,263.855,85.427,263.7Z" transform="translate(-69.865 -155.379)" fill="#053855"/>
      <path id="패스_9036" data-name="패스 9036" d="M162.5,136.475H116.7l8.112-29.365h30.852Z" transform="translate(-69.649 -27.005)" fill="#053855"/>
      <rect id="사각형_7295" data-name="사각형 7295" width="134.202" height="84.716" rx="7.67" transform="translate(4.899 0)" fill="#326dfb"/>
      <path id="패스_9037" data-name="패스 9037" d="M219.988,131.3a.6.6,0,0,0,.357.625,1.666,1.666,0,0,0,.764.1h1.111a.6.6,0,0,1,.327.069.565.565,0,0,1,.159.456l.119,4.72a6.833,6.833,0,0,1-.436,3.173c-.238.486-.6.9-.843,1.378a1.874,1.874,0,0,0-.208,1.547c1.884.079,3.768.079,5.642,0a1.428,1.428,0,0,0,.992-.3,1.249,1.249,0,0,0,.268-.506,40.152,40.152,0,0,0,1.368-4.8,18.842,18.842,0,0,0,.526-4.71,9.134,9.134,0,0,0-1.3-4.522,2.875,2.875,0,0,0-.774-.883,3.152,3.152,0,0,0-1.071-.426,30.745,30.745,0,0,0-5.722-.754,2.975,2.975,0,0,0-1.874.288,1.983,1.983,0,0,0-.783,1.795,6.039,6.039,0,0,0,.575,1.983" transform="translate(-102.584 -57.148)" fill="url(#linear-gradient)"/>
      <path id="패스_9038" data-name="패스 9038" d="M126.572,138.959q1.785-5.871,4.056-11.592a.773.773,0,0,1,.327-.367.734.734,0,0,1,.506,0l3.3.466a15.242,15.242,0,0,1-1.626,5.305,44.238,44.238,0,0,0-2.8,9.45,2.152,2.152,0,0,1-.3.922,2.092,2.092,0,0,1-1.388.724c-1.616.337-2.668.833-2.975-.813C125.481,141.795,126.235,140.069,126.572,138.959Z" transform="translate(-110.963 -57.13)" fill="url(#linear-gradient-2)"/>
      <path id="패스_9039" data-name="패스 9039" d="M142.1,139.991h3.55a.992.992,0,0,1,.694.169c.169.149.208.387.347.575.288.4.863.387,1.349.337a31.02,31.02,0,0,0,5.028-.992l-.635-4.324a38.5,38.5,0,0,1-9.173.9l-.169-5.206h4.681a.714.714,0,0,0,.833-.883,13.622,13.622,0,0,0-.109-1.9.565.565,0,0,0-.169-.4.6.6,0,0,0-.436-.06,56.52,56.52,0,0,1-10.759.4,55.135,55.135,0,0,1-2.876,15.618c1.9-.208,4.165.119,6-.3.873-.2.833-.288,1.111-1.23A25.76,25.76,0,0,1,142.1,139.991Z" transform="translate(-109.227 -57.127)" fill="url(#linear-gradient-3)"/>
      <path id="패스_9040" data-name="패스 9040" d="M249.972,66.286v60.956H115.77V66.286a7.909,7.909,0,0,1,8.163-7.606H241.809a7.91,7.91,0,0,1,8.163,7.606Z" transform="translate(-110.879 -58.68)" fill="#053855"/>
      <path id="패스_9041" data-name="패스 9041" d="M224.465,124.372a12.584,12.584,0,0,1-4.71,2.34.8.8,0,0,0-.565.268.734.734,0,0,0,0,.526,20.911,20.911,0,0,0,1.111,3.62,18.266,18.266,0,0,0,7.15-2.519,2.718,2.718,0,0,0,.912-.793,2.975,2.975,0,0,0,.3-1.24c.089-1.18.258-2.856-.436-3.9-.555-.813-.853-.278-1.587.228Z" transform="translate(-102.59 -57.382)" fill="#326dfb"/>
      <path id="패스_9042" data-name="패스 9042" d="M225.365,124.172a12.515,12.515,0,0,1-4.71,2.34.784.784,0,0,0-.575.278.7.7,0,0,0,0,.516,20.885,20.885,0,0,0,1.1,3.62,18.315,18.315,0,0,0,7.16-2.519,2.578,2.578,0,0,0,.9-.793,2.658,2.658,0,0,0,.3-1.24c.089-1.17.268-2.856-.436-3.887-.545-.813-.853-.288-1.587.218Z" transform="translate(-102.596 -57.386)" fill="url(#linear-gradient-4)"/>
      <path id="패스_9043" data-name="패스 9043" d="M248.133,67.758v57.515H117.67V67.758a7.637,7.637,0,0,1,7.935-7.3H240.167a8.214,8.214,0,0,1,5.614,2.111A7.094,7.094,0,0,1,248.133,67.758Z" transform="translate(-110.896 -58.695)" fill="#fff"/>
      <path id="패스_9044" data-name="패스 9044" d="M248.133,67.758v57.515H117.67V67.758a7.637,7.637,0,0,1,7.935-7.3H240.167a8.214,8.214,0,0,1,5.614,2.111A7.094,7.094,0,0,1,248.133,67.758Z" transform="translate(-110.896 -58.695)" fill="#fdfeff" opacity="0.18" style="mix-blend-mode: normal;isolation: isolate"/>
      <rect id="사각형_7296" data-name="사각형 7296" width="39.943" height="36.691" transform="translate(17.265 9.291)" fill="#326dfb" opacity="0.804" style="mix-blend-mode: normal;isolation: isolate"/>
      <path id="패스_9047" data-name="패스 9047" d="M141.479,176.891c2.192.119,4.542.218,6.416-.932a.991.991,0,0,0,.337-.3.645.645,0,0,0-.06-.625,1.359,1.359,0,0,0-.506-.416,6.942,6.942,0,0,0-2.231-.645c-.992-.169-1.894-.327-2.846-.426-.615-.06-1.656-.307-2.152.188a1.9,1.9,0,0,0-.238,1.577C140.318,176.207,140.487,176.831,141.479,176.891Z" transform="translate(-109.011 -56.317)" fill="#326dfb" style="mix-blend-mode: normal;isolation: isolate"/>
      <path id="패스_9048" data-name="패스 9048" d="M126.836,174.393c1.725,1.359,3.61,2.767,5.8,2.9a.814.814,0,0,0,.436-.059.635.635,0,0,0,.317-.545,1.418,1.418,0,0,0-.178-.635,7.506,7.506,0,0,0-1.468-1.795c-.684-.674-1.368-1.349-2.1-1.983-.466-.4-1.18-1.2-1.864-1.071s-.873.714-1.1,1.16C126.27,173.163,126.052,173.778,126.836,174.393Z" transform="translate(-110.968 -56.298)" fill="#326dfb" style="mix-blend-mode: normal;isolation: isolate"/>
      <path id="패스_9052" data-name="패스 9052" d="M144.023,171.665v2.182a21.408,21.408,0,0,1-3.967.109.387.387,0,0,1-.456-.436c-.278-3.619.178-7.269-.238-10.859a7.934,7.934,0,0,0-.516-2.2,11.066,11.066,0,0,0-1.23-1.983,45.369,45.369,0,0,1-3.7-6.039,14.16,14.16,0,0,1-1.378-6.872c0-2.37,1.249-3.391,3.56-2.777a2.459,2.459,0,0,1,.992.4,2.627,2.627,0,0,1,.575.744,57.728,57.728,0,0,1,3.7,7.07C143.9,157.495,144.112,164.644,144.023,171.665Z" transform="translate(-109.443 -56.059)" fill="#473f47"/>
      <path id="패스_9053" data-name="패스 9053" d="M144.023,171.665v2.182a21.408,21.408,0,0,1-3.967.109.387.387,0,0,1-.456-.436c-.278-3.619.178-7.269-.238-10.859a7.934,7.934,0,0,0-.516-2.2,11.066,11.066,0,0,0-1.23-1.983,45.369,45.369,0,0,1-3.7-6.039,14.16,14.16,0,0,1-1.378-6.872c0-2.37,1.249-3.391,3.56-2.777a2.459,2.459,0,0,1,.992.4,2.627,2.627,0,0,1,.575.744,57.728,57.728,0,0,1,3.7,7.07C143.9,157.495,144.112,164.644,144.023,171.665Z" transform="translate(-109.443 -56.059)" fill="url(#linear-gradient-5)"/>
      <path id="패스_9054" data-name="패스 9054" d="M145.383,129.728a19.565,19.565,0,0,0,11.344-8.488,2.519,2.519,0,0,0,.486-2.182.337.337,0,0,0-.169-.218.392.392,0,0,0-.407.109l-6.109,3.967a18.355,18.355,0,0,1-5.385,2.717,6.942,6.942,0,0,0-.625,1.884,3.441,3.441,0,0,0,.863,2.211Z" transform="translate(-108.643 -57.421)" fill="#ffbbab"/>
      <rect id="사각형_7297" data-name="사각형 7297" width="71.656" height="57.743" transform="translate(41.685 24.129)" fill="#dae5fe"/>
      <path id="패스_9055" data-name="패스 9055" d="M157.755,138.888a2.518,2.518,0,0,1-1.1.416,29.966,29.966,0,0,1-7.933.516,1.18,1.18,0,0,1-.734-.208,1.219,1.219,0,0,1-.327-.853,8.059,8.059,0,0,1,.159-2.439c0-.109,6.485-.1,7.1,0C155.781,136.458,159.282,137.658,157.755,138.888Z" transform="translate(-108.493 -57.194)" fill="#326dfb" opacity="0.16"/>
      <path id="패스_9056" data-name="패스 9056" d="M213.9,115.873a4.382,4.382,0,0,0,0,1.567,5.376,5.376,0,0,0,1.071,1.983,33.43,33.43,0,0,1,4.572,8.925,19.419,19.419,0,0,0,.446-5.365,9.229,9.229,0,0,0-.139-1.884,12.358,12.358,0,0,0-.992-2.469,18.894,18.894,0,0,1-1.3-3.967c-.2-.992-.536-3.372-2.043-3.213C214.217,111.658,214,114.911,213.9,115.873Z" transform="translate(-104.513 -57.488)" fill="#326dfb" opacity="0.16"/>
      <path id="패스_9057" data-name="패스 9057" d="M127.992,147.545a34.509,34.509,0,0,0,2.43,6.585c.853,1.795,2.826,4.1,2.816,6.118,0,3.649-3.838,8.518-6.2,11.017a20.826,20.826,0,0,0,3.967,2.043,1.467,1.467,0,0,0,.992.139,1.557,1.557,0,0,0,.813-.833l2.568-4.452c1.428-2.479,2.905-5.1,3.025-7.933a20.332,20.332,0,0,0-.218-3.1c-.268-2.192,0-4.671-.545-6.8-.486-1.983-1.121-3.867-1.567-5.841a4.3,4.3,0,0,0-1.329-2.668,3.559,3.559,0,0,0-1.16-.506c-1.983-.565-4.165-.635-5.256,1.438A7.071,7.071,0,0,0,127.992,147.545Z" transform="translate(-110.976 -56.046)" fill="#473f47"/>
      <path id="패스_9058" data-name="패스 9058" d="M145.934,125.9c1.091.4.069,2.975-.218,3.7a.664.664,0,0,1-.863.526c-1.636-.149-3.272-.347-4.9-.585a2.638,2.638,0,0,1-.992-.3,1.775,1.775,0,0,1-.724-1.17c-.149-.764-.228-2.588.436-3.173.476-.426,1.438-.119,2.063-.059A21.816,21.816,0,0,1,145.934,125.9Z" transform="translate(-109.133 -57.386)" fill="#fff"/>
      <path id="패스_9059" data-name="패스 9059" d="M145.584,126.99c1.091.4.069,2.975-.228,3.7a.843.843,0,0,1-.307.466.862.862,0,0,1-.545.059c-1.646-.149-3.272-.347-4.9-.575a2.826,2.826,0,0,1-1.041-.307,1.755,1.755,0,0,1-.714-1.17c-.159-.764-.228-2.588.436-3.173.476-.416,1.428-.119,2.063-.059A21.917,21.917,0,0,1,145.584,126.99Z" transform="translate(-109.155 -57.365)" fill="url(#linear-gradient-6)"/>
      <path id="패스_9060" data-name="패스 9060" d="M142.736,116.417c.2.327.585.516.714.863s-.139.873-.3,1.3c-.208.595-.139,1.269-.347,1.864a.715.715,0,0,1-.218.337.823.823,0,0,1-.317.129,4.729,4.729,0,0,1-1.349.079.377.377,0,0,0-.258,0,.347.347,0,0,0-.119.228,7.209,7.209,0,0,0,0,3.441c.1.367.208.823-.069,1.091a.714.714,0,0,1-.347.169,2.449,2.449,0,0,1-2.261-1.081,10.129,10.129,0,0,1-1.329-1.983,2.064,2.064,0,0,1-.228-.625,2.438,2.438,0,0,1,.119-.843,14.024,14.024,0,0,0,.446-2.866,11.275,11.275,0,0,1,.446-3.659,1.983,1.983,0,0,1,.754-.992,2.41,2.41,0,0,1,1.329-.208,3.5,3.5,0,0,1,2.5.813C142.131,114.741,142.5,115.98,142.736,116.417Z" transform="translate(-109.262 -57.509)" fill="#ffbbab"/>
      <path id="패스_9061" data-name="패스 9061" d="M142.353,113.463c.367-.069.635.426.5.764a1.14,1.14,0,0,1-.9.585,10.138,10.138,0,0,0-1.1.159.9.9,0,0,0-.684.793.843.843,0,0,0-.932.615,2.43,2.43,0,0,0,0,1.22c-.119.129-.327,0-.436-.089s-.179-.288-.317-.377c-.317-.169-.694.228-.654.585a1.616,1.616,0,0,0,.585.873.506.506,0,0,1,.159.2c.1.3-.3.506-.6.575a1.566,1.566,0,0,1-.079.684.565.565,0,0,1-.526.387c-.208,0-.377-.169-.565-.248s-.486,0-.506.179c-.317-.664,0-1.289-.119-1.983s-.635-.367-.992-.754c-.188-.218-.178-.545-.268-.823a10.285,10.285,0,0,1-.486-.992c-.139-.615.377-1.17.843-1.587a.6.6,0,0,1,.149-.684,1.338,1.338,0,0,1,.674-.288.4.4,0,0,0,.179-.069.267.267,0,0,0,0-.317c-.149-1.874,2.905-1.359,4.026-1.259a2.975,2.975,0,0,1,1.319.446C141.837,112.174,142.769,113.384,142.353,113.463Z" transform="translate(-109.363 -57.601)" fill="#473f47"/>
      <path id="패스_9062" data-name="패스 9062" d="M136.371,122.46h.069c1.636.407,4.016,1.894,4.552,3.55a14.637,14.637,0,0,1,.635,7.031c-.337,1.5-1.249,2.8-1.626,4.254a34.776,34.776,0,0,1-1.15,4.77,3.52,3.52,0,0,1-1.309,1.785,3.877,3.877,0,0,1-1.8.4c-1.835.1-4.413.724-5.95-.535a4.958,4.958,0,0,1-1.547-4.1,14.517,14.517,0,0,1,1.17-4.373l2.549-6.644C132.593,127.021,134.081,122,136.371,122.46Z" transform="translate(-110.984 -57.14)" fill="#fff"/>
      <path id="패스_9063" data-name="패스 9063" d="M135.079,138.933a2.2,2.2,0,0,1,.278.773,1.983,1.983,0,0,1-.089.585,11.9,11.9,0,0,0-.327,3.3.734.734,0,0,0,.169.555.774.774,0,0,0,.5.149,3.589,3.589,0,0,0,1.894-.188,3.262,3.262,0,0,0,1.388-1.745,34.794,34.794,0,0,0,1.844-6.247,2.569,2.569,0,0,0,.1-1.061,2.063,2.063,0,0,0-.992-1.269c-.446-.307-.992-.526-1.378-.853-.843-.655-1.468-1.825-2.618-1.983a1.706,1.706,0,0,0-1.785,1.269C133.364,134.2,134.147,137.049,135.079,138.933Z" transform="translate(-109.419 -57.118)" fill="url(#linear-gradient-7)"/>
      <path id="패스_9064" data-name="패스 9064" d="M137.84,127.338s2.33,6.317,2.8,6.783-4.5,3.253-4.5,3.253-3.233-6.138-3.074-8.806S135.975,124.829,137.84,127.338Z" transform="translate(-109.458 -57.262)" fill="#fff"/>
      <path id="패스_9065" data-name="패스 9065" d="M136.16,136.591a2.35,2.35,0,0,0,2.668,1.983l4.224-.06c1.983,0,3.887-.089,5.831-.079a6.217,6.217,0,0,1,1.388.357,5.772,5.772,0,0,0,1.844.109,5.563,5.563,0,0,0,3.243-1.5,1.835,1.835,0,0,0,.664-1.983.5.5,0,0,0-.2-.228.624.624,0,0,0-.238,0,9.42,9.42,0,0,1-3.5-.059.872.872,0,0,0,.139-.5.31.31,0,0,0-.347-.3.505.505,0,0,0-.228.159,2.717,2.717,0,0,1-2.281.9c-3.2-.149-6.356-.833-9.56-.992a5.424,5.424,0,0,0-2.221.228A2.638,2.638,0,0,0,136.16,136.591Z" transform="translate(-109.077 -57.214)" fill="#ffbbab"/>
      <path id="패스_9066" data-name="패스 9066" d="M224.044,121.309a7.427,7.427,0,0,0-2.122,1.438,3.074,3.074,0,0,0-.992,2.311,4.1,4.1,0,0,0,1.616,2.578c.892.783,1.983,1.606,2.053,2.806.645-.476,1.23-.992,1.884-1.487a25.087,25.087,0,0,1,3.8-1.795,6.109,6.109,0,0,0,3.144-2.677,7.636,7.636,0,0,0,.555-2.5,12.394,12.394,0,0,0,.069-2.777,4.075,4.075,0,0,0-1.15-2.469,7.447,7.447,0,0,0-3.441-1.458,3.709,3.709,0,0,0-3.263,2.291c-.258.694-.139,1.487-.4,2.172a3.2,3.2,0,0,1-1.755,1.567Z" transform="translate(-102.605 -57.43)" fill="#fc682d"/>
      <path id="패스_9067" data-name="패스 9067" d="M212.991,178.058a2.37,2.37,0,0,0-.724.188.694.694,0,0,0-.387.595.764.764,0,0,0,.446.555c.218.109.466.159.684.278a3.812,3.812,0,0,0,.585.327,1.686,1.686,0,0,0,1.071-.149,14.081,14.081,0,0,1,4.839-.793,1.894,1.894,0,0,0,.476,0,1.428,1.428,0,0,0,.942-1.091,7.131,7.131,0,0,0,0-3.1.865.865,0,0,0-.119-.327.566.566,0,0,0-.268-.159c-1.616-.615-2.311.992-3.372,1.864A8.657,8.657,0,0,1,212.991,178.058Z" transform="translate(-104.465 -56.324)" fill="#ffbbab"/>
      <path id="패스_9068" data-name="패스 9068" d="M218.367,178.126h-.317a13.451,13.451,0,0,1-2.191.059.813.813,0,0,1-.4-.1.645.645,0,0,1-.238-.526,2.977,2.977,0,0,0,0-.6.238.238,0,0,0-.059-.109.2.2,0,0,0-.109,0,3.431,3.431,0,0,0-1.6.446,5.444,5.444,0,0,0-2.479,1.983.476.476,0,0,0-.089.258.357.357,0,0,0,.089.218c.655.992,2.291.773,3.292.565s2.182-.664,3.312-.843,2.578-.1,3.649-.754a1.12,1.12,0,0,0,.426-.407,1.706,1.706,0,0,0-.436-1.745.268.268,0,0,0-.149-.109.317.317,0,0,0-.228.059c-.506.317-.843.873-1.359,1.19A2.787,2.787,0,0,1,218.367,178.126Z" transform="translate(-104.434 -56.342)" fill="#326dfb"/>
      <path id="패스_9069" data-name="패스 9069" d="M229.515,136.37s5.047,2.9,3.639,8.181c-1.24,4.621-4.79,7.5-7.06,11.444-1.259,2.182-.992,5.761-1.557,8.31a61.487,61.487,0,0,1-2.687,9.173c-.238.6-.6,1.3-1.25,1.319a8.86,8.86,0,0,1-.892-.169,4.215,4.215,0,0,1-.863,0c-.734-.169-.734-1.21-.565-1.983a60.721,60.721,0,0,0,1.448-10.779c.119-2.8-.635-5.761.159-8.479.625-2.142,4.373-13.645,4.373-13.645Z" transform="translate(-102.581 -56.007)" fill="#326dfb"/>
      <path id="패스_9070" data-name="패스 9070" d="M229.515,136.37s5.047,2.9,3.639,8.181c-1.24,4.621-4.79,7.5-7.06,11.444-1.259,2.182-.992,5.761-1.557,8.31a61.487,61.487,0,0,1-2.687,9.173c-.238.6-.6,1.3-1.25,1.319a8.86,8.86,0,0,1-.892-.169,4.215,4.215,0,0,1-.863,0c-.734-.169-.734-1.21-.565-1.983a60.721,60.721,0,0,0,1.448-10.779c.119-2.8-.635-5.761.159-8.479.625-2.142,4.373-13.645,4.373-13.645Z" transform="translate(-102.581 -56.007)" fill="url(#linear-gradient-8)"/>
      <path id="패스_9071" data-name="패스 9071" d="M223.732,180.864a2.2,2.2,0,0,0-.655.357.664.664,0,0,0-.228.674.744.744,0,0,0,.565.426,3.629,3.629,0,0,1,.724.1,5.489,5.489,0,0,0,.664.178,1.726,1.726,0,0,0,.992-.416,14.109,14.109,0,0,1,4.492-1.983,2.232,2.232,0,0,0,.456-.149,1.448,1.448,0,0,0,.575-1.259,6.862,6.862,0,0,0-.8-2.975.723.723,0,0,0-.188-.288.616.616,0,0,0-.3-.089c-1.725-.188-1.983,1.547-2.8,2.648A8.766,8.766,0,0,1,223.732,180.864Z" transform="translate(-102.621 -56.334)" fill="#ffbbab"/>
      <path id="패스_9072" data-name="패스 9072" d="M228.961,140a6.516,6.516,0,0,1,3.55,1.725c2.112,1.795,1.983,5.464,1.249,8.151-.377,1.408-2.618,5.841-2.975,7.1-.625,2.38.625,5.335.734,7.745a61.546,61.546,0,0,1-.327,9.559c-.069.635-.258,1.4-.873,1.587-.3.079-.615,0-.912.06a4.1,4.1,0,0,1-.823.238c-.754,0-.992-.992-.992-1.735a61.974,61.974,0,0,0-1.279-10.809c-.575-2.737-2.053-5.424-1.983-8.25l.208-6.941c.079-2.558-.278-5.147.506-7.606a1.379,1.379,0,0,1,.456-.764,1.428,1.428,0,0,1,.734-.2,14.625,14.625,0,0,1,2.281,0Z" transform="translate(-102.633 -56.036)" fill="#326dfb"/>
      <path id="패스_9073" data-name="패스 9073" d="M225.314,113.856c-.188.317-.585.506-.714.863s.149.873.3,1.3c.218.595.149,1.269.357,1.864a.694.694,0,0,0,.208.337.724.724,0,0,0,.317.119,4.165,4.165,0,0,0,1.359.079.446.446,0,0,1,.258,0,.367.367,0,0,1,.119.228,7.209,7.209,0,0,1-.06,3.441c-.089.367-.2.823.079,1.091a.715.715,0,0,0,.347.169,2.489,2.489,0,0,0,2.261-1.091,10.322,10.322,0,0,0,1.319-1.983,2.063,2.063,0,0,0,.228-.625,2.124,2.124,0,0,0-.119-.853,14.5,14.5,0,0,1-.436-2.856,11.065,11.065,0,0,0-.456-3.669,1.983,1.983,0,0,0-.744-.992,2.459,2.459,0,0,0-1.339-.208,3.431,3.431,0,0,0-2.489.813C225.929,112.18,225.552,113.45,225.314,113.856Z" transform="translate(-102.636 -57.563)" fill="#ffbbab"/>
      <path id="패스_9074" data-name="패스 9074" d="M231.616,119.88s-3.7,1.914-4.819,3.411-2.975,2.608-2.241,5.454c.575,2.3-.05,4.443-.079,6.723,0,.625.268,1.13.258,1.765,0,1.111-.992,2.092-.615,3.243.288.942,1.378,1.349,2.33,1.616l3.719,1.081a3.381,3.381,0,0,0,2.509.06c.932-.516,1.14-1.755,1.23-2.816.218-2.747.139-6.049,1.269-8.617a7.933,7.933,0,0,0,.674-4.69C235.612,125.026,234.71,119.513,231.616,119.88Z" transform="translate(-102.628 -57.171)" fill="#fff"/>
      <path id="패스_9075" data-name="패스 9075" d="M226.52,111.85a2.558,2.558,0,0,0,.823,1.587c.436.407.992.684,1.428,1.081a1.8,1.8,0,0,1,.724,1.567.783.783,0,0,1,.992.307.645.645,0,0,1-.1.684.833.833,0,0,1-.645.268,2.529,2.529,0,0,1,1.15.932c.317.466.476.992.764,1.517a4.958,4.958,0,0,0,1.319,1.24,1.785,1.785,0,0,1,.575.615,8.914,8.914,0,0,0,.387,1.091A14.957,14.957,0,0,0,235,124.077a4.879,4.879,0,0,1,.833,2.509,4.359,4.359,0,0,1,0-.8c.089-.159.178-.317.258-.476a4.389,4.389,0,0,0,.337-.912,8.923,8.923,0,0,0,.06-2.182c0-1.557,1.468-4.492.288-5.831a12.677,12.677,0,0,0-1.5-1.061c-.992-.863-1.19-2.38-1.844-3.56a4.462,4.462,0,0,0-2.727-2.132C229.128,109.2,226.331,109.688,226.52,111.85Z" transform="translate(-102.651 -57.529)" fill="#fc682d"/>
      <path id="패스_9076" data-name="패스 9076" d="M231.493,122.31s-6.654,1.071-7.279.9-.625,5.514-.625,5.514,6.941-.208,9.183-1.656S234.577,122.657,231.493,122.31Z" transform="translate(-102.626 -57.419)" fill="#fff"/>
      <path id="패스_9077" data-name="패스 9077" d="M224.276,128.208a2.35,2.35,0,0,1-3.054-1.339l-5.325-9.738c0-.853-.486-1.785-.218-2.588.139-.387.416-.7.555-1.081a2.271,2.271,0,0,0,0-1.537,7.27,7.27,0,0,0-.734-1.368.645.645,0,0,1,.744-.407,1.567,1.567,0,0,1,.774.486,4.958,4.958,0,0,1,1.388,3.54,4.046,4.046,0,0,0,0,1.2,2.558,2.558,0,0,0,.377.754c1.706,2.717,3.848,5.127,5.553,7.844a5.663,5.663,0,0,1,.893,2.053A2.648,2.648,0,0,1,224.276,128.208Z" transform="translate(-104.206 -57.497)" fill="#ffbbab"/>
      <path id="패스_9078" data-name="패스 9078" d="M229.114,179.985l-.288.079a13.61,13.61,0,0,1-1.983.327.7.7,0,0,1-.377,0,.615.615,0,0,1-.288-.456,2.53,2.53,0,0,0-.109-.545A.149.149,0,0,0,226,179.3a.168.168,0,0,0-.1,0,3.233,3.233,0,0,0-1.418.615,5.117,5.117,0,0,0-1.983,2.162.526.526,0,0,0-.05.248.447.447,0,0,0,.109.188c.734.863,2.2.426,3.094.1s1.924-.873,2.975-1.18a8.887,8.887,0,0,0,3.253-1.16,1.09,1.09,0,0,0,.347-.417,1.6,1.6,0,0,0-.625-1.557.278.278,0,0,0-.149-.079.268.268,0,0,0-.2.089c-.436.357-.674.9-1.1,1.259A2.589,2.589,0,0,1,229.114,179.985Z" transform="translate(-102.618 -56.358)" fill="#326dfb"/>
      <path id="패스_9079" data-name="패스 9079" d="M215.226,133.015H153V89.67h62.275Zm-61.72-.555H214.67V90.225H153.506Z" transform="translate(-106.022 -57.663)" fill="#fff"/>
      <g id="사각형_7298" data-name="사각형 7298" transform="translate(54.747 41.36)" fill="#fff" stroke="#707070" stroke-width="0.1">
        <rect width="45.184" height="7.933" rx="0.5" stroke="none"/>
        <rect x="0.05" y="0.05" width="45.084" height="7.833" rx="0.45" fill="none"/>
      </g>
      <g id="사각형_7299" data-name="사각형 7299" transform="translate(54.747 50.305)" fill="#fff" stroke="#707070" stroke-width="0.1">
        <rect width="45.184" height="7.933" rx="0.5" stroke="none"/>
        <rect x="0.05" y="0.05" width="45.084" height="7.833" rx="0.45" fill="none"/>
      </g>
      <rect id="사각형_7300" data-name="사각형 7300" width="45.184" height="7.933" rx="0.5" transform="translate(54.747 59.616)" fill="#326dfb"/>
      <path id="패스_9085" data-name="패스 9085" d="M2.471.446H1.441v-.4h.813v-.3H.7v-.3h1.49v-.877H.329v.3h1.5v.29H.331V.048h.74v.4H.053v.3H2.471Zm2.265-1.8H2.872v.3h1.5v.02A5.959,5.959,0,0,1,4.266.2L4.64.231a6.781,6.781,0,0,0,.1-1.269ZM2.622.7h2.41v-.3H2.622ZM7.4-1.6H7.033V.3H7.4ZM5.233-.762a.68.68,0,0,0,.723.671.681.681,0,0,0,.723-.671.679.679,0,0,0-.723-.665A.678.678,0,0,0,5.233-.762Zm.363,0a.329.329,0,0,1,.36-.343.333.333,0,0,1,.357.343.335.335,0,0,1-.357.348A.332.332,0,0,1,5.6-.762ZM5.633,1H7.474V.7H6.008V.112H5.633Z" transform="translate(74.199 37.438)" fill="#333"/>
      <path id="패스_9086" data-name="패스 9086" d="M2.471.446H1.441v-.4h.813v-.3H.7v-.3h1.49v-.877H.329v.3h1.5v.29H.331V.048h.74v.4H.053v.3H2.471Zm2.265-1.8H2.872v.3h1.5v.02A5.959,5.959,0,0,1,4.266.2L4.64.231a6.781,6.781,0,0,0,.1-1.269ZM2.622.7h2.41v-.3H2.622ZM7.4-1.6H7.033V.3H7.4ZM5.233-.762a.68.68,0,0,0,.723.671.681.681,0,0,0,.723-.671.679.679,0,0,0-.723-.665A.678.678,0,0,0,5.233-.762Zm.363,0a.329.329,0,0,1,.36-.343.333.333,0,0,1,.357.343.335.335,0,0,1-.357.348A.332.332,0,0,1,5.6-.762ZM5.633,1H7.474V.7H6.008V.112H5.633Z" transform="translate(74.099 63.882)" fill="#fff"/>
      <path id="패스_9084" data-name="패스 9084" d="M.531-1.444c-.256,0-.435.234-.434.6s.178.6.434.6.434-.231.436-.6S.785-1.444.531-1.444Zm-.291.6c0-.28.12-.464.291-.465s.289.185.289.465S.7-.38.531-.381.242-.564.241-.844ZM1.252.144H1.4v-.9h.289V-.891H1.4v-.688H1.252ZM3.2-1.578H3.051V.148H3.2ZM1.849-.844c0,.367.183.6.44.6s.441-.231.44-.6-.184-.6-.44-.6S1.849-1.21,1.849-.844ZM2-.844c0-.28.12-.464.292-.465s.292.185.292.465-.119.464-.292.463S2-.564,2-.844Zm2.923-.734H4.765V.148h.153ZM3.611-.28H3.75a4.548,4.548,0,0,0,.843-.06L4.577-.468a4.282,4.282,0,0,1-.813.056v-.873H4.43v-.128H3.611Zm3.176-.5H5.211v.12H6.787ZM5.4-.406H6.439v.147H5.4V.12H6.646V.01H5.556V-.155H6.59V-.521H5.4Zm.01-1.009H6.431v.141H5.416v.366h1.2v-.11H5.567v-.151H6.584v-.356H5.41Zm3.436-.163H8.7v.924h.151ZM7.465-1.1a.408.408,0,0,0,.451.4.409.409,0,0,0,.451-.4.408.408,0,0,0-.451-.4A.407.407,0,0,0,7.465-1.1Zm.149,0a.272.272,0,0,1,.3-.267.274.274,0,0,1,.3.267.278.278,0,0,1-.3.269A.275.275,0,0,1,7.614-1.1ZM7.731.12H8.846V-.567H8.7v.209H7.882V-.567H7.731ZM7.882,0V-.236H8.7V0ZM9.956-1.472H9.208v.122h.6v.244H9.212V-.6h.122a4.243,4.243,0,0,0,.738-.041l-.015-.126a3.515,3.515,0,0,1-.693.043V-.989h.593ZM9.406-.3h1.007V.148h.153V-.426H9.406Zm.664-.536h.343v.32h.153V-1.576h-.153v.256H10.07V-1.2h.343v.232H10.07Zm1.642-.442h-.354v-.246h-.151v.246h-.358v.124h.864Zm-.8.631a.37.37,0,0,0,.37.4.372.372,0,0,0,.374-.4.371.371,0,0,0-.374-.391A.368.368,0,0,0,10.911-.648Zm.136,0a.243.243,0,0,1,.234-.263.246.246,0,0,1,.238.263.241.241,0,0,1-.238.261A.239.239,0,0,1,11.046-.648ZM11.8.058h.143V-.726h.229v.87h.145V-1.578h-.145v.726h-.229v-.684H11.8Zm1.635-1.393v-.012h.55V-1.47H12.714v.124h.552v.012c0,.23-.307.426-.606.471l.06.12a.874.874,0,0,0,.631-.4.874.874,0,0,0,.635.4l.056-.12C13.742-.908,13.435-1.1,13.436-1.334Zm-.87.864h.707V.144h.149V-.47h.713V-.6H12.567Zm2.225-.618v-.327h-.147v.333a.87.87,0,0,1-.383.74l.1.114a.887.887,0,0,0,.363-.532.837.837,0,0,0,.346.495l.087-.118A.835.835,0,0,1,14.792-1.088Zm.172.258h.292V.057H15.4v-1.6h-.143V-.96h-.292Zm.645.974h.147V-1.578H15.61ZM17.572-.2H17.18V-.674a.394.394,0,0,0,.229-.352c0-.266-.261-.442-.629-.444s-.629.177-.629.444a.4.4,0,0,0,.236.357V-.2h-.391v.128h1.577ZM16.3-1.026c0-.193.2-.32.482-.318s.482.125.482.318-.2.322-.482.322S16.3-.833,16.3-1.026Zm.238.821V-.614a.964.964,0,0,0,.244.029.988.988,0,0,0,.248-.03V-.2Zm1.356.2a.125.125,0,0,0,.124-.126.124.124,0,0,0-.124-.124.124.124,0,0,0-.124.124A.125.125,0,0,0,17.891,0Z" transform="translate(56.798 46.067)" fill="#333"/>
      <path id="패스_9083" data-name="패스 9083" d="M1.491-1.578H1.338V.148h.153ZM.172-.269H.985V-1.431H.836v.455H.323v-.455H.172ZM.323-.4V-.854H.836V-.4ZM2.684-1.481H1.876v.7h.808ZM2.025-.9v-.457h.509V-.9Zm.062.418h.968v.176H2.089v.43H3.267V0H2.24V-.193H3.2V-.6H2.087Zm.968-.207H3.2v-.889H3.056Zm1.871-.887H4.774v.484H4.367v-.37H4.218v.306h-.48v-.306H3.586V-.6h.781V-.964h.407V-.3h.153ZM3.738-.722v-.314h.48v.314Zm.076.829H4.965V-.021h-1V-.428H3.813ZM6.7-1.322H6.071v-.227H5.922v.227H5.291V-1.2H6.7ZM5.213-.058H6.79V-.184H6.071V-.426c.3-.016.493-.136.492-.329S6.344-1.08,6-1.078s-.567.119-.566.323.183.313.49.329v.242H5.213Zm.372-.7c0-.128.156-.2.413-.2s.412.076.411.2S6.252-.549,6-.548,5.583-.624,5.585-.755ZM8.5-.778H6.926v.12H8.5ZM7.115-.406H8.153v.147H7.117V.12H8.361V.01H7.27V-.155H8.3V-.521H7.115Zm.01-1.009H8.146v.141H7.131v.366h1.2v-.11H7.282v-.151H8.3v-.356H7.125Zm3.436-.163H10.41v.924h.151ZM9.18-1.1a.408.408,0,0,0,.451.4.409.409,0,0,0,.451-.4.408.408,0,0,0-.451-.4A.407.407,0,0,0,9.18-1.1Zm.149,0a.272.272,0,0,1,.3-.267.274.274,0,0,1,.3.267.278.278,0,0,1-.3.269A.275.275,0,0,1,9.329-1.1ZM9.445.12h1.116V-.567H10.41v.209H9.6V-.567H9.445ZM9.6,0V-.236h.813V0Zm2.074-1.468h-.748v.122h.6v.244h-.593V-.6h.122a4.243,4.243,0,0,0,.738-.041l-.015-.126a3.515,3.515,0,0,1-.693.043V-.989h.593ZM11.121-.3h1.007V.148h.153V-.426h-1.16Zm.664-.536h.343v.32h.153V-1.576h-.153v.256h-.343V-1.2h.343v.232h-.343Zm1.642-.442h-.354v-.246h-.151v.246h-.358v.124h.864Zm-.8.631a.37.37,0,0,0,.37.4.372.372,0,0,0,.374-.4A.371.371,0,0,0,13-1.04.368.368,0,0,0,12.626-.648Zm.136,0A.243.243,0,0,1,13-.912a.246.246,0,0,1,.238.263A.241.241,0,0,1,13-.387.239.239,0,0,1,12.761-.648Zm.755.707h.143V-.726h.229v.87h.145V-1.578h-.145v.726H13.66v-.684h-.143Zm1.635-1.393v-.012h.55V-1.47H14.429v.124h.552v.012c0,.23-.307.426-.606.471l.06.12a.874.874,0,0,0,.631-.4.874.874,0,0,0,.635.4l.056-.12C15.457-.908,15.15-1.1,15.151-1.334Zm-.87.864h.707V.144h.149V-.47h.713V-.6H14.281Zm2.225-.618v-.327H16.36v.333a.87.87,0,0,1-.383.74l.1.114a.887.887,0,0,0,.363-.532.837.837,0,0,0,.346.495l.087-.118A.835.835,0,0,1,16.507-1.088Zm.172.258h.292V.057h.143v-1.6h-.143V-.96h-.292Zm.645.974h.147V-1.578h-.147ZM19.286-.2h-.391V-.674a.394.394,0,0,0,.229-.352c0-.266-.261-.442-.629-.444s-.629.177-.629.444a.4.4,0,0,0,.236.357V-.2H17.71v.128h1.577Zm-1.274-.821c0-.193.2-.32.482-.318s.482.125.482.318-.2.322-.482.322S18.011-.833,18.012-1.026ZM18.25-.2V-.614a.964.964,0,0,0,.244.029.988.988,0,0,0,.248-.03V-.2Zm1.356.2a.125.125,0,0,0,.124-.126.124.124,0,0,0-.124-.124.124.124,0,0,0-.124.124A.125.125,0,0,0,19.606,0Z" transform="translate(56.859 55)" fill="#333"/>
    </g>
  </g>
</svg>
