<svg xmlns="http://www.w3.org/2000/svg" width="9.717" height="10" viewBox="0 0 9.717 10">
  <g id="그룹_1974" data-name="그룹 1974" transform="translate(-613 -1175)">
    <path id="Icon_ionic-ios-arrow-back" data-name="Icon ionic-ios-arrow-back" d="M12.974,11.192l3.784-3.781A.715.715,0,0,0,15.746,6.4l-4.287,4.284a.713.713,0,0,0-.021.985l4.3,4.314a.715.715,0,0,0,1.012-1.009Z" transform="translate(601.749 1168.807)" fill="#999"/>
    <path id="Icon_ionic-ios-arrow-back-2" data-name="Icon ionic-ios-arrow-back" d="M12.974,11.192l3.784-3.781A.715.715,0,0,0,15.746,6.4l-4.287,4.284a.713.713,0,0,0-.021.985l4.3,4.314a.715.715,0,0,0,1.012-1.009Z" transform="translate(605.749 1168.807)" fill="#999"/>
  </g>
</svg>
