<svg xmlns="http://www.w3.org/2000/svg" width="18.485" height="18.484" viewBox="0 0 18.485 18.484">
  <g id="그룹_1909" data-name="그룹 1909" transform="translate(0.75 0.75)">
    <path id="패스_2479" data-name="패스 2479" d="M-2989.281,10428.734a.75.75,0,0,1-.75-.75V10411a.75.75,0,0,1,.75-.75.75.75,0,0,1,.75.75v16.984A.75.75,0,0,1-2989.281,10428.734Z" transform="translate(2997.772 -10411)" fill="#333"/>
    <path id="패스_2480" data-name="패스 2480" d="M0,17.735a.75.75,0,0,1-.75-.75V0A.75.75,0,0,1,0-.75.75.75,0,0,1,.75,0V16.985A.75.75,0,0,1,0,17.735Z" transform="translate(16.985 8.492) rotate(90)" fill="#333"/>
  </g>
</svg>
