<svg xmlns="http://www.w3.org/2000/svg" xmlns:xlink="http://www.w3.org/1999/xlink" width="249.358" height="228.973" viewBox="0 0 249.358 228.973">
  <defs>
    <linearGradient id="linear-gradient" x1="0.468" y1="-2.744" x2="0.514" y2="2.028" gradientUnits="objectBoundingBox">
      <stop offset="0.01"/>
      <stop offset="0.08" stop-opacity="0.69"/>
      <stop offset="0.21" stop-opacity="0.322"/>
      <stop offset="1" stop-opacity="0"/>
    </linearGradient>
    <linearGradient id="linear-gradient-2" x1="0.473" y1="-5.748" x2="0.509" y2="2.383" xlink:href="#linear-gradient"/>
    <linearGradient id="linear-gradient-3" x1="128.517" y1="-55.308" x2="127.598" y2="-53.916" xlink:href="#linear-gradient"/>
    <linearGradient id="linear-gradient-4" x1="0.261" y1="-1.187" x2="0.816" y2="2.804" xlink:href="#linear-gradient"/>
    <linearGradient id="linear-gradient-5" x1="412.125" y1="-37.896" x2="418.736" y2="-37.793" xlink:href="#linear-gradient"/>
    <linearGradient id="linear-gradient-6" x1="0.512" y1="-0.524" x2="0.481" y2="2.217" xlink:href="#linear-gradient"/>
    <linearGradient id="linear-gradient-7" x1="1.14" y1="0.262" x2="-0.298" y2="0.715" xlink:href="#linear-gradient"/>
    <linearGradient id="linear-gradient-8" x1="1.04" y1="0.372" x2="-2.288" y2="1.164" xlink:href="#linear-gradient"/>
    <linearGradient id="linear-gradient-9" x1="-0.774" y1="-2.126" x2="2.275" y2="5.095" xlink:href="#linear-gradient"/>
    <linearGradient id="linear-gradient-10" x1="-1.494" y1="-0.417" x2="3.41" y2="2.135" xlink:href="#linear-gradient"/>
    <linearGradient id="linear-gradient-11" x1="0.121" y1="1.883" x2="1.046" y2="-1.81" xlink:href="#linear-gradient"/>
    <linearGradient id="linear-gradient-12" x1="0.553" y1="-1.128" x2="0.413" y2="3.434" xlink:href="#linear-gradient"/>
    <linearGradient id="linear-gradient-13" x1="-1.02" y1="-0.175" x2="4.009" y2="1.783" xlink:href="#linear-gradient"/>
  </defs>
  <g id="Team_work_Monochromatic-2" data-name="Team work_Monochromatic-2" transform="translate(-36.933 -33.757)">
    <path id="패스_8725" data-name="패스 8725" d="M166.036,290.88c-1.235.385-2.622,1.012-2.936,2.237,3.887,2.47,8.7,3.037,13.291,2.915s9.181-.931,13.787-.962c6.074,0,12.916,1.083,17.8-2.6a14.708,14.708,0,0,0-7.217-2.267C201.657,284.533,169.639,289.756,166.036,290.88Z" transform="translate(-47.517 -33.317)" fill="url(#linear-gradient)"/>
    <path id="패스_8726" data-name="패스 8726" d="M88.953,224.224c-1.64,0-3.907.83-3.5,2.419l74.836,6.074c8.807.719,17.623,1.427,26.471,1.427,13.362,0,26.663-1.64,39.994-2.409,12.552-.719,25.124-.668,37.686-.607,11.631.061,25.934,2.156,37.231-.891,1.7-.456,3.411-1.822,3.3-3.573-.051-.81-.476-1.65-.162-2.4a2.024,2.024,0,0,1,.83-.871c2.318-1.427,5.274-.314,7.946.273a18.99,18.99,0,0,0,12.582-1.6,3.937,3.937,0,0,0,1.782-1.478,1.579,1.579,0,0,0-.385-2.085,2.247,2.247,0,0,0-1.012-.233l-22.908-1.782a5.285,5.285,0,0,0-2.521.223c-.9.395-.85,1.448-1.579,1.883-1.184.7-3.877.324-5.233.4-3.472.192-6.944.385-10.426.557q-10.4.5-20.832.84c-14.172.476-28.414.759-42.616,1.012-28.09.456-56.191.7-84.271,1.782C120.424,223.779,104.694,223.88,88.953,224.224Z" transform="translate(-48.47 -34.189)" fill="url(#linear-gradient-2)"/>
    <path id="패스_8727" data-name="패스 8727" d="M146.045,70.064a5.76,5.76,0,0,0-4.049.1,6.337,6.337,0,0,0-3.725,3.543.749.749,0,0,1-.891.688,5.932,5.932,0,0,0-3.988,1.529c-1.275,1.164-1.275,2.591-1.448,4.262a1.5,1.5,0,0,0-1.346,0,4.18,4.18,0,0,0-1.124.81,4.636,4.636,0,0,0-1.306,1.67c-.4,1.1.051,2.318.071,3.492a.364.364,0,0,1-.091.294.334.334,0,0,1-.263,0c-.314-.061-.6-.223-.911-.253a1.579,1.579,0,0,0-1.539,1.3,5.122,5.122,0,0,0,.111,2.176,3.806,3.806,0,0,1-.061,2.156,4.606,4.606,0,0,1-.941,1.225,6.57,6.57,0,0,0-2.025,3.877,3.087,3.087,0,0,0,.547,2.025,2.085,2.085,0,0,0,1.873.85c1.68-.223,2.267-2.581,3.867-3.138s3.391-2.44,4.424-3.928c.83-1.194,1.64-2.581,3.037-3.037a4.879,4.879,0,0,0,1.316-.486,2.531,2.531,0,0,0,.668-.79,10.285,10.285,0,0,0,1.326-2.774c.506-1.944,0-4.13.941-5.922a4.12,4.12,0,0,1,2.642-2.085c.476-.121,1.012-.152,1.448-.283a5.142,5.142,0,0,0,1.539-.739,4.818,4.818,0,0,0,2.348-3.371A3.591,3.591,0,0,0,146.045,70.064Z" transform="translate(-48.015 -35.988)" fill="#ff681c"/>
    <path id="패스_8728" data-name="패스 8728" d="M149.928,72.435a2.278,2.278,0,0,1,1.407,2.6,3.421,3.421,0,0,1-.759,1.144l-1.832,2.025-.759-2.814a2.277,2.277,0,0,0-.739-1.367,1.721,1.721,0,0,0-1.711,0,15.971,15.971,0,0,0-1.488,1.012c-.132.081-.314.172-.456.091s-.162-.375-.091-.577C144.371,72.142,147.7,71.473,149.928,72.435Z" transform="translate(-47.758 -35.96)" fill="#ff681c"/>
    <path id="패스_8729" data-name="패스 8729" d="M151.109,147.7a5.173,5.173,0,0,0,.911,2.642c.82,1.012,2.187,1.518,3.32,2.257a.891.891,0,0,1,.466.6.628.628,0,0,1-.415.557,1.8,1.8,0,0,1-.739.051,29.105,29.105,0,0,0-3.492-.334c-.587,0-1.265.061-1.64-.395a1.771,1.771,0,0,1-.233-1.3,17.593,17.593,0,0,0-.4-4.99,3.2,3.2,0,0,1-.132-1.235,1.124,1.124,0,0,1,1.832-.638C151.25,145.49,151.028,146.918,151.109,147.7Z" transform="translate(-47.693 -35.069)" fill="#fcbdba"/>
    <path id="패스_8730" data-name="패스 8730" d="M132.614,153.889a5.264,5.264,0,0,0,.344,2.774c.6,1.2,1.842,1.923,2.8,2.875a.85.85,0,0,1,.334.678.607.607,0,0,1-.516.456,1.629,1.629,0,0,1-.729-.091,30.608,30.608,0,0,0-3.361-1.012c-.577-.1-1.255-.2-1.529-.709a1.8,1.8,0,0,1,0-1.316,17.583,17.583,0,0,0,.607-4.98,3.179,3.179,0,0,1,.121-1.235,1.124,1.124,0,0,1,1.923-.253C133.191,151.753,132.684,153.11,132.614,153.889Z" transform="translate(-47.925 -34.996)" fill="#fcbdba"/>
    <path id="패스_8731" data-name="패스 8731" d="M128.94,108.854s9.657,14.334,15.984,18.615a20.376,20.376,0,0,0,.091,4.3c.324,2.318,1.448,4.353,1.812,6.63l1.215,7.663c.051.344.152.759.486.881a1.012,1.012,0,0,0,.617,0l2.672-.729a123.224,123.224,0,0,1,.294-13.807,30.44,30.44,0,0,0,.142-5.6c-.445-4.049-3.766-7.663-6.074-10.912-1.387-1.964-2.875-4.9-4.818-6.387-1.62-1.235-3.907-.648-5.942-.445a13.807,13.807,0,0,1-4.555-.324A2.025,2.025,0,0,0,128.94,108.854Z" transform="translate(-47.936 -35.512)" fill="#473f47"/>
    <path id="패스_8732" data-name="패스 8732" d="M125.31,108.761s3.755,16.874,8.1,23.171a21.409,21.409,0,0,0-1.488,4.049,19.953,19.953,0,0,0-.415,3.472l-.871,14.091a11.266,11.266,0,0,0,3.978-.506l4.94-12.42a17.209,17.209,0,0,0,1.64-6.306c0-4.231-4.049-19.678-4.525-20.458-1.063-1.751-3.4-2.025-5.365-2.591a13.544,13.544,0,0,1-4.12-1.964C126.565,108.913,126.008,108.538,125.31,108.761Z" transform="translate(-47.98 -35.51)" fill="#473f47"/>
    <path id="패스_8733" data-name="패스 8733" d="M159.649,95.82a12.066,12.066,0,0,0,6.59,1.012,4.666,4.666,0,0,1,2.025-.1c-.294.415-.577,1.012-.162,1.367a.881.881,0,0,0,.425.142,3.513,3.513,0,0,0,1.62-.172,1.66,1.66,0,0,1,.79-.172.941.941,0,0,1,.688,1.134,2.024,2.024,0,0,1-.891,1.154,4.7,4.7,0,0,1-4.737.263c-.425-.233-.82-.526-1.255-.759a10.122,10.122,0,0,0-2.632-.79,53.936,53.936,0,0,1-7.825-2.247,2.925,2.925,0,0,1-1.852-1.377c-.516-1.275.435-3.411,1.954-2.581A45.056,45.056,0,0,0,159.649,95.82Z" transform="translate(-47.65 -35.709)" fill="#fcbdba"/>
    <path id="패스_8734" data-name="패스 8734" d="M147.223,88.645a28.263,28.263,0,0,0,9.88,4.049.334.334,0,0,1,.3.547,18.15,18.15,0,0,1-2.7,4,1.255,1.255,0,0,1-.435.364,1.3,1.3,0,0,1-1.012-.121q-3.411-1.367-6.681-3.037a14.4,14.4,0,0,1-5.061-3.715,5.061,5.061,0,0,1-1.174-2.936c0-1.194,1.093-3.34,2.6-2.753.678.263,1.275,1.1,1.792,1.579a26.123,26.123,0,0,0,2.49,2.025Z" transform="translate(-47.796 -35.801)" fill="#326dfb"/>
    <path id="패스_8735" data-name="패스 8735" d="M147.223,88.645a28.263,28.263,0,0,0,9.88,4.049.334.334,0,0,1,.3.547,18.15,18.15,0,0,1-2.7,4,1.255,1.255,0,0,1-.435.364,1.3,1.3,0,0,1-1.012-.121q-3.411-1.367-6.681-3.037a14.4,14.4,0,0,1-5.061-3.715,5.061,5.061,0,0,1-1.174-2.936c0-1.194,1.093-3.34,2.6-2.753.678.263,1.275,1.1,1.792,1.579a26.123,26.123,0,0,0,2.49,2.025Z" transform="translate(-47.796 -35.801)" fill="url(#linear-gradient-3)"/>
    <path id="패스_8736" data-name="패스 8736" d="M189.633,82.723a4.332,4.332,0,0,1-4.049,6.974s-4.788.111-3.7,4.626l9.11,11.6-11.6,9.11c-4.515,1.083-4.626-3.7-4.626-3.7a4.343,4.343,0,1,0-4.7,3.7c4.12,1.356,2.521,5.365,2.521,5.365l-11.6,9.11L137.41,99.577l11.489-9.11c4.515-1.083,4.626,3.7,4.626,3.7a4.332,4.332,0,1,0,7.693-2.025,4.393,4.393,0,0,0-3.037-1.64c-4.079-1.346-2.48-5.4-2.48-5.4l11.712-9.242,9.11,11.611s4.049,1.6,5.365-2.521a4.343,4.343,0,0,1,7.744-2.237Z" transform="translate(-47.832 -35.912)" fill="#326dfb"/>
    <path id="패스_8737" data-name="패스 8737" d="M189.633,82.723a4.332,4.332,0,0,1-4.049,6.974s-4.788.111-3.7,4.626l9.11,11.6-11.6,9.11c-4.515,1.083-4.626-3.7-4.626-3.7a4.343,4.343,0,1,0-4.7,3.7c4.12,1.356,2.521,5.365,2.521,5.365l-11.6,9.11L137.41,99.577l11.489-9.11c4.515-1.083,4.626,3.7,4.626,3.7a4.332,4.332,0,1,0,7.693-2.025,4.393,4.393,0,0,0-3.037-1.64c-4.079-1.346-2.48-5.4-2.48-5.4l11.712-9.242,9.11,11.611s4.049,1.6,5.365-2.521a4.343,4.343,0,0,1,7.744-2.237Z" transform="translate(-47.832 -35.912)" fill="#fdc42e"/>
    <path id="패스_8738" data-name="패스 8738" d="M151.183,108.8c2.48,2.025,5.061,4.2,8.1,4.727a4.494,4.494,0,0,0,3.432-.617,1.083,1.083,0,0,0,.526-1.012c-.111-.5-.719-.668-1.215-.759a16.753,16.753,0,0,1-6.539-2.348,18.922,18.922,0,0,1-2.1-1.721l-4.93-4.393a.638.638,0,0,0-.5-.233c-.2,0-.324.233-.415.415a8.786,8.786,0,0,0-.688,1.954c-.152.739,0,.84.638,1.265Q149.412,107.37,151.183,108.8Z" transform="translate(-47.717 -35.587)" fill="url(#linear-gradient-4)"/>
    <path id="패스_8739" data-name="패스 8739" d="M153.473,105.119a12.036,12.036,0,0,0,6.074,2.834,4.6,4.6,0,0,1,1.933.455c-.415.314-.86.85-.547,1.265a.881.881,0,0,0,.375.253,3.594,3.594,0,0,0,1.6.283,1.812,1.812,0,0,1,.81.061.931.931,0,0,1,.334,1.275,1.933,1.933,0,0,1-1.174.86,4.656,4.656,0,0,1-4.616-1.073c-.354-.344-.648-.739-1.012-1.073a9.89,9.89,0,0,0-2.308-1.488,54.014,54.014,0,0,1-6.883-4.353,2.935,2.935,0,0,1-1.4-1.832c-.142-1.377,1.367-3.168,2.6-1.933A60.233,60.233,0,0,0,153.473,105.119Z" transform="translate(-47.719 -35.614)" fill="#fcbdba"/>
    <path id="패스_8740" data-name="패스 8740" d="M125.313,111.249a1.863,1.863,0,0,0,.668.506,24.587,24.587,0,0,0,3.168,1.518,12.7,12.7,0,0,0,8.756-.071,11.682,11.682,0,0,0,3.138-1.711,3.036,3.036,0,0,0,.891-.941,3.421,3.421,0,0,0,.243-1.944c-.253-3.411-.628-6.934,0-10.244a14.172,14.172,0,0,1,1.012-3.3,25.589,25.589,0,0,0,2.025-4.525,6.742,6.742,0,0,0-1.407-5.507c-1.316-1.68-3.725-3.168-5.851-2.409a13.392,13.392,0,0,0-6.124,4.677,30.55,30.55,0,0,0-3.948,7.744c-.4,1.083-.8,2.166-1.114,3.28a47.647,47.647,0,0,0-1.3,8.209c-.111,1.154-.213,2.308-.334,3.462A1.812,1.812,0,0,0,125.313,111.249Z" transform="translate(-47.983 -35.832)" fill="#326dfb"/>
    <path id="패스_8741" data-name="패스 8741" d="M137.762,113.052a11.681,11.681,0,0,0,3.138-1.711,3.037,3.037,0,0,0,.891-.941,3.421,3.421,0,0,0,.243-1.944c-.253-3.411-.628-6.934,0-10.244-.4-.4-.86-.769-1.306-1.134-1.012-.83-2.47-2.47-3.938-2.359.354,1.549.638,3.128.85,4.707s.132,3.219.385,4.778a28.829,28.829,0,0,1-.192,8.29A2.672,2.672,0,0,0,137.762,113.052Z" transform="translate(-47.84 -35.681)" fill="url(#linear-gradient-5)"/>
    <path id="패스_8742" data-name="패스 8742" d="M150.106,99.949a.668.668,0,0,1,.334.395.658.658,0,0,1-.172.456,12.825,12.825,0,0,1-3.4,3.29.861.861,0,0,1-.445.182.84.84,0,0,1-.5-.233c-2.025-1.549-4.049-3.037-6.023-4.656a15.022,15.022,0,0,1-3.34-3.259A14.05,14.05,0,0,1,135,92.489c-1.2-3.8,2.44-5.446,4.879-2.662C143.1,93.511,146.036,97.105,150.106,99.949Z" transform="translate(-47.864 -35.758)" fill="#326dfb"/>
    <path id="패스_8743" data-name="패스 8743" d="M149.431,153.121a.769.769,0,0,1,.1-.769c.223-.213.587-.111.871,0a10.525,10.525,0,0,0,1.954.719,2.874,2.874,0,0,0,2.024-.213c.344-.2.678-.506,1.073-.476a1.387,1.387,0,0,1,.557.213,6.824,6.824,0,0,0,1.933.658,1.822,1.822,0,0,1,.8.263.4.4,0,0,1,.152.213c0,.2-.192.354-.385.425-2.105.82-4.464.516-6.711.273a2.722,2.722,0,0,0-.759,0c-.374.071-.83.263-1.144,0a2.642,2.642,0,0,1-.466-1.306Z" transform="translate(-47.685 -34.976)" fill="#473f47"/>
    <path id="패스_8744" data-name="패스 8744" d="M129.68,158.82a.81.81,0,0,1,.192-.749c.253-.182.6,0,.871.111a11.919,11.919,0,0,0,1.852.962,2.905,2.905,0,0,0,2.025,0c.364-.152.729-.415,1.124-.334a1.538,1.538,0,0,1,.526.273,6.569,6.569,0,0,0,1.832.941,1.8,1.8,0,0,1,.769.364.314.314,0,0,1,.111.223c0,.2-.223.324-.425.375-2.2.557-4.494,0-6.691-.557a2.814,2.814,0,0,0-.759-.111c-.375,0-.85.162-1.134-.182A2.764,2.764,0,0,1,129.68,158.82Z" transform="translate(-47.927 -34.906)" fill="#473f47"/>
    <path id="패스_8745" data-name="패스 8745" d="M148.324,79.381c-.172.557-.344,1.113-.486,1.68a17.363,17.363,0,0,1-.668,2.49,2.976,2.976,0,0,1-1.741,1.782,1.67,1.67,0,0,1-2.075-1.012c-.486.111-.658.709-.648,1.215a2.166,2.166,0,0,1-.263,1.437c-.456.537-1.346.314-1.944-.071a5.507,5.507,0,0,1-2.318-5.669c.5-2.257.476-4.96,1.761-6.914a6.073,6.073,0,0,1,1.731-1.65,4.464,4.464,0,0,1,2.024-.82,5.578,5.578,0,0,1,1.529.121c2.146.364,3.968.678,3.978,3.138A13.838,13.838,0,0,1,148.324,79.381Z" transform="translate(-47.824 -35.962)" fill="#fcbdba"/>
    <path id="패스_8746" data-name="패스 8746" d="M145.7,75.415a1.722,1.722,0,0,0-1.012.121c-.294.2-.314.658-.5,1.012-.354.658-1.255.749-1.933,1.093a2.531,2.531,0,0,0-1.336,2.278,1.539,1.539,0,0,0-.213-.85.536.536,0,0,0-.769-.132.648.648,0,0,0-.152.385,1.7,1.7,0,0,0,.668,1.518,2.531,2.531,0,0,1-2.318,1.427,1.3,1.3,0,0,1-.84-.283,1.356,1.356,0,0,1-.324-.547c-.577-1.62.3-3.351.516-5.061a6.973,6.973,0,0,1,.294-1.782,3.907,3.907,0,0,1,.759-1.1,7.713,7.713,0,0,1,3.6-2.419c1.356-.375,4.049-.182,5.112.891a2.136,2.136,0,0,1-1.559,3.452Z" transform="translate(-47.84 -35.973)" fill="#ff681c"/>
    <path id="패스_8747" data-name="패스 8747" d="M145,227.969V209.03c2.49-5.405,7.4-1.721,7.4-1.721a5.557,5.557,0,1,0,0-7.673c-4.636,3.037-7.4-1.721-7.4-1.721v-18.95h18.939s4.8-2.763,1.721-7.4a5.557,5.557,0,1,1,7.673,0s-3.685,4.909,1.721,7.4h18.939v49Z" transform="translate(-47.739 -34.857)" fill="url(#linear-gradient-6)"/>
    <path id="패스_8748" data-name="패스 8748" d="M109.191,227.3H105.77l35.024-92.48a1.6,1.6,0,0,1,1.488-1.012h0a1.6,1.6,0,0,1,1.5,2.166Z" transform="translate(-48.22 -35.202)" fill="#326dfb"/>
    <path id="패스_8749" data-name="패스 8749" d="M94.481,203.653H91.06l35.409-93.513h3.421Z" transform="translate(-12.991 -11.552)" fill="#326dfb"/>
    <path id="패스_8750" data-name="패스 8750" d="M120.8,124.6H102.7l.911-2.409h18.1Z" transform="translate(-12.849 -11.405)" fill="#326dfb"/>
    <path id="패스_8751" data-name="패스 8751" d="M115.3,139.109H97.2l.921-2.409h18.1Z" transform="translate(-12.916 -11.227)" fill="#326dfb"/>
    <path id="패스_8752" data-name="패스 8752" d="M109.809,153.619H91.71l.911-2.419h18.1Z" transform="translate(-12.983 -11.049)" fill="#326dfb"/>
    <path id="패스_8753" data-name="패스 8753" d="M104.319,168.119H86.22l.911-2.409h18.1Z" transform="translate(-13.051 -10.871)" fill="#326dfb"/>
    <path id="패스_8754" data-name="패스 8754" d="M98.819,182.629H80.72l.921-2.409H99.73Z" transform="translate(-13.118 -10.693)" fill="#326dfb"/>
    <path id="패스_8755" data-name="패스 8755" d="M139.073,148.4l-4.656,12.279h17.138l-.911,2.409H133.536l-4.646,12.269h17.1l-.911,2.409H127.949L123.3,190.04H140.42l-.911,2.409H122.391l-4.656,12.279h17.107l-.921,2.409h-17.1L109.191,227.3H105.77l35.024-92.48a1.6,1.6,0,0,1,3.037.567,1.639,1.639,0,0,1-.1.567l-3.8,10.032h17.1l-.911,2.409Z" transform="translate(-48.22 -35.201)" fill="url(#linear-gradient-7)"/>
    <path id="패스_8756" data-name="패스 8756" d="M94.481,203.653H91.06l35.409-93.513h3.421Z" transform="translate(-12.991 -11.552)" fill="url(#linear-gradient-8)"/>
    <path id="패스_8757" data-name="패스 8757" d="M297.269,147.287a3.917,3.917,0,0,1-1.761.85,4.05,4.05,0,0,1-1.741-.314l-8.422-2.8a3.189,3.189,0,0,0-.688,4.292,6.225,6.225,0,0,0,3.087,1.842l5.78,2.075a9.93,9.93,0,0,0,8.513-.051c1.721-.577,3.614-1.3,4.444-2.915s.223-3.766.466-5.659a24.29,24.29,0,0,0,.678-3.664c0-1.063-.871-2.662-2.136-2.44-1.093.192-1.822,2.1-2.4,2.9a27.086,27.086,0,0,1-5.821,5.891Z" transform="translate(-46.033 -35.145)" fill="#fff"/>
    <path id="패스_8758" data-name="패스 8758" d="M284.354,144.48a1.752,1.752,0,0,0-.395-.607.618.618,0,0,0-.668-.142.688.688,0,0,0-.324.658.345.345,0,0,1-.061.263c-.061.061-.172,0-.263,0-.952-.182-1.923-.324-2.9-.425a.587.587,0,0,0-.658.8,2.914,2.914,0,0,0,.476.891c.5.81.678,1.873,1.468,2.4a2.571,2.571,0,0,0,1.6.334c.557,0,1.1-.132,1.66-.1a1.741,1.741,0,0,0,1.093-.121.941.941,0,0,0,.375-.83,3.168,3.168,0,0,0-.516-1.4C284.931,145.654,284.638,145.067,284.354,144.48Z" transform="translate(-46.096 -35.081)" fill="#fdb9a9"/>
    <path id="패스_8759" data-name="패스 8759" d="M307.574,207.1c-3.219-.729-2.591,3.836-3.442,5.537a8.918,8.918,0,0,1-2.025,2.288,4.13,4.13,0,0,0-1.447,2.6.942.942,0,0,0,.111.547,1.1,1.1,0,0,0,.648.385,7.42,7.42,0,0,0,5.517-.547,4.282,4.282,0,0,0,1.893-1.751,6.073,6.073,0,0,0,.486-2.612C309.416,211.646,310.266,207.7,307.574,207.1Z" transform="translate(-45.831 -34.305)" fill="#fdb9a9"/>
    <path id="패스_8760" data-name="패스 8760" d="M304.746,216.4s-9.171.395-5.284,3.27,9.687-.7,10.254-1.356.1-1.782.1-1.782Z" transform="translate(-45.857 -34.19)" fill="#326dfb"/>
    <path id="패스_8761" data-name="패스 8761" d="M309.307,217.7c-.81,1.012-5.122,2.338-7.035,2.2s-3.624-1.012-3.432-2.257,3.553-4.11,4.191-4.1,1.134,1.478,2.409,1.782a3.391,3.391,0,0,0,3.108-1.114.85.85,0,0,1,1.012-.273A4.049,4.049,0,0,1,309.307,217.7Z" transform="translate(-45.853 -34.225)" fill="#fff"/>
    <path id="패스_8762" data-name="패스 8762" d="M318.5,208.881c-3.219-.749-2.591,3.826-3.442,5.517a8.959,8.959,0,0,1-2.024,2.3,4.11,4.11,0,0,0-1.448,2.591,1.013,1.013,0,0,0,.111.557,1.154,1.154,0,0,0,.648.385,7.46,7.46,0,0,0,5.517-.547,4.363,4.363,0,0,0,1.893-1.761,6.073,6.073,0,0,0,.486-2.6C320.346,213.4,321.2,209.458,318.5,208.881Z" transform="translate(-45.697 -34.283)" fill="#fdb9a9"/>
    <path id="패스_8763" data-name="패스 8763" d="M315.676,218.14s-9.171.385-5.284,3.28,9.687-.709,10.254-1.367.1-1.782.1-1.782Z" transform="translate(-45.723 -34.168)" fill="#326dfb"/>
    <path id="패스_8764" data-name="패스 8764" d="M320.237,219.42c-.81,1.012-5.122,2.348-7.035,2.207s-3.624-1.012-3.432-2.257,3.553-4.11,4.191-4.049,1.134,1.478,2.409,1.771a3.381,3.381,0,0,0,3.108-1.1.84.84,0,0,1,1.012-.273A4.049,4.049,0,0,1,320.237,219.42Z" transform="translate(-45.719 -34.203)" fill="#fff"/>
    <path id="패스_8765" data-name="패스 8765" d="M310.21,167.75l4.312,45.39,6.215-.769c2.46-11.074,1.852-44.205,1.852-44.205Z" transform="translate(-45.713 -34.786)" fill="#473f47"/>
    <path id="패스_8766" data-name="패스 8766" d="M314.619,166.564l-4.312,45.38-6.236-.769c-3.553-28.708-.617-46.564-.617-46.564Z" transform="translate(-45.81 -34.824)" fill="#473f47"/>
    <path id="패스_8767" data-name="패스 8767" d="M304.008,150.536c-.081-.83-.3-1.66-.385-2.51a19.02,19.02,0,0,1,.091-5.142,19.475,19.475,0,0,1,1.63-5.244c.709-1.437,2.025-2.024,3.462-2.774a12.45,12.45,0,0,1,3.917-1.326,9.848,9.848,0,0,1,2.885.162c2.936.557,6.792,2.025,8.8,4.383,1.508,1.731,1.68,4.221,1.731,6.519.061,3.168,0,6.337-.2,9.505,0,.456-.051.911-.091,1.377a50.454,50.454,0,0,1-1.589,10.436,4.14,4.14,0,0,1-1.609,2.672c-2.3,1.336-5.8.6-8.28.253-3.29-.466-6.661-.952-9.576-2.551a2.7,2.7,0,0,1-1.377-1.326,3.614,3.614,0,0,1,.273-2.217c1.012-3.239.223-6.651.223-9.961,0-.6.071-1.2.071-1.812A2.152,2.152,0,0,0,304.008,150.536Z" transform="translate(-45.798 -35.206)" fill="#fff"/>
    <path id="패스_8768" data-name="패스 8768" d="M314.326,156.293a7.743,7.743,0,0,0,2.541,1.012c2.682.779,5.436,1.194,8.1,2.025a1.012,1.012,0,0,1,.486.243.9.9,0,0,1,.142.567,7.085,7.085,0,0,1-.344,2.3,1.529,1.529,0,0,1-.6.921,1.762,1.762,0,0,1-1.2,0l-10.032-2.126a8.475,8.475,0,0,0-2.2-.263,10.325,10.325,0,0,0-2.561.638,24.456,24.456,0,0,1-4.727,1.012,37.132,37.132,0,0,1,.7-5.7,7.5,7.5,0,0,1,.628-1.6,7.743,7.743,0,0,1,1.134-1.377c1.62-1.69,2.743-3.806,4.383-5.5.86-.891,1.933-1.458,2.693-2.409.3-.385,2.936-3.695,2.682-4.049.506.628,1.761,0,2.217.648.283.4,0,.952-.263,1.367a32.281,32.281,0,0,0-4,10.527C313.9,155.392,313.6,155.7,314.326,156.293Z" transform="translate(-45.79 -35.102)" fill="url(#linear-gradient-9)"/>
    <path id="패스_8769" data-name="패스 8769" d="M306.8,115.08a5.557,5.557,0,0,1-1.9,10.123s-5.75,2.166-2.521,7.167l15.974,10.173-10.123,15.973c-5,3.229-7.167-2.521-7.167-2.521a5.547,5.547,0,1,0-4.12,6.478c5.567-.111,5.325,5.426,5.325,5.426l-10.123,15.973L250.8,157.554l10.072-15.832c5-3.219,7.167,2.521,7.167,2.521a5.557,5.557,0,1,0,4.12-6.468c-5.567.111-5.314-5.426-5.314-5.426l10.264-16.135L293.092,126.4s5.537.243,5.426-5.324a5.628,5.628,0,0,1,.709-4.322,5.567,5.567,0,0,1,7.572-1.67Z" transform="translate(-46.442 -35.442)" fill="#326dfb"/>
    <path id="패스_8770" data-name="패스 8770" d="M330.691,147.5a12.151,12.151,0,0,1,1.012,2.278,10.275,10.275,0,0,1,.1,4.231,7.622,7.622,0,0,1-1.427,3.806c-1.711,2.025-4.768,2.217-7.42,1.964A42.647,42.647,0,0,1,314.09,158a1.913,1.913,0,0,1-.739-.344,2.024,2.024,0,0,1-.466-.931,14.568,14.568,0,0,1-.435-2.561c3.037-.871,6.4-.162,9.566-.628a1.356,1.356,0,0,0,1.275-1.8c-.152-1.782-1.255-3.34-1.771-5.061a8.038,8.038,0,0,1,.121-5.061,4.16,4.16,0,0,1,2.308-2.6c1.265-.415,1.751.577,2.45,1.508a53.331,53.331,0,0,1,4.292,6.985Z" transform="translate(-45.686 -35.14)" fill="#fff"/>
    <path id="패스_8771" data-name="패스 8771" d="M311.256,152.862a.85.85,0,0,0-.415-.182.658.658,0,0,0-.536.395,6.16,6.16,0,0,1-.3.638,1.508,1.508,0,0,1-1.215.5,6.839,6.839,0,0,0-1.367,0,1.012,1.012,0,0,0-.456.223.931.931,0,0,0-.253.445,2.126,2.126,0,0,0,.547,1.944,4.393,4.393,0,0,0,1.771,1.093,3.765,3.765,0,0,0,2.176.263,4.464,4.464,0,0,0,1.144-.516l1.478-.82a1.013,1.013,0,0,0,.324-.243c.324-.4-.121-1.62-.415-2.024A10.345,10.345,0,0,0,311.256,152.862Z" transform="translate(-45.757 -34.971)" fill="#fdb9a9"/>
    <path id="패스_8772" data-name="패스 8772" d="M310.22,129.085a24.586,24.586,0,0,1,.162-2.6c.091-.85.2-1.518.344-2.267a1.539,1.539,0,0,1,.587-1.144,7.177,7.177,0,0,1,3.877-1.012,3.725,3.725,0,0,1,2.824,1.012,3.684,3.684,0,0,1,.779,2.025,23.183,23.183,0,0,1-.567,5.7,24.078,24.078,0,0,0-.233,4.434,5.223,5.223,0,0,1-2.4.85,3.907,3.907,0,0,1-1.174-.192.9.9,0,0,1-.526-.344.922.922,0,0,1,0-.5,3.625,3.625,0,0,0,0-.466h0a14.875,14.875,0,0,0-.051-2.6.263.263,0,0,0-.081-.2.253.253,0,0,0-.172,0h-.243a6.152,6.152,0,0,1-1.3,0,2.146,2.146,0,0,1-1.356-.668A2.814,2.814,0,0,1,310.22,129.085Z" transform="translate(-45.714 -35.346)" fill="#fdb9a9"/>
    <path id="패스_8773" data-name="패스 8773" d="M312.027,123.581c-.3,0-.577.162-.84,0a3.815,3.815,0,0,1-.719-.79,3.351,3.351,0,0,1-.668-2.237,1.963,1.963,0,0,1,.344-1.012,2.136,2.136,0,0,1,.84-.617,3.938,3.938,0,0,1,2.025-.395,4.8,4.8,0,0,1,2.693,1.286,1.477,1.477,0,0,0,.557.364,1.427,1.427,0,0,0,.587,0,4.981,4.981,0,0,1,3.553,1.093c.567.5,1.012,1.134,1.6,1.569s1.164.6,1.468,1.154a1.528,1.528,0,0,1-.172,1.62,2.53,2.53,0,0,1-1.468.85,1.326,1.326,0,0,1-.79,1.721,2.075,2.075,0,0,0-.668.223c-.142.111-.2.283-.344.395-.334.273-.769.364-.911.83a2.348,2.348,0,0,0-.051.6,1.367,1.367,0,0,1-.344.8c-.132.142-.364.5-.557.537s-.364-.192-.425-.395a3.937,3.937,0,0,1,.172-2.591,2.774,2.774,0,0,0,.425-1.316c0-.466-.668-.83-1.012-.557s-.364.931-.729.8a2.885,2.885,0,0,0-1.4-3.5,6.741,6.741,0,0,0-2.105-.294,5.192,5.192,0,0,0-1.012-.111Z" transform="translate(-45.719 -35.39)" fill="#473f47"/>
    <path id="패스_8774" data-name="패스 8774" d="M313.31,131.691a15.316,15.316,0,0,0,2.936-.871,3.492,3.492,0,0,1-2.4,3.695h0a14.885,14.885,0,0,0,0-2.6.3.3,0,0,0-.081-.2.253.253,0,0,0-.172,0h-.233Z" transform="translate(-45.675 -35.239)" fill="#de9f93"/>
    <path id="패스_8775" data-name="패스 8775" d="M282.072,138.881a1.7,1.7,0,0,1,.213,1.528,4.983,4.983,0,0,1-.759,1.407l-1.589,2.348c-.415.607-1.012,1.3-1.711,1.235-1.741-.121-2.51-4.636-1.863-5.972C277.112,137.757,280.928,137.454,282.072,138.881Z" transform="translate(-46.131 -35.151)" fill="#fdb9a9"/>
    <path id="패스_8776" data-name="패스 8776" d="M290.693,178.966v49H241.7V209.02s2.763-4.8,7.4-1.721a5.557,5.557,0,1,0,0-7.673s-4.909,3.685-7.4-1.721V178.966h18.939c5.405-2.49,1.721-7.4,1.721-7.4a5.557,5.557,0,1,1,7.673,0c-3.037,4.636,1.721,7.4,1.721,7.4Z" transform="translate(-46.553 -34.857)" fill="#326dfb"/>
    <path id="패스_8777" data-name="패스 8777" d="M290.693,178.966v49H241.7V209.02s2.763-4.8,7.4-1.721a5.557,5.557,0,1,0,0-7.673s-4.909,3.685-7.4-1.721V178.966h18.939c5.405-2.49,1.721-7.4,1.721-7.4a5.557,5.557,0,1,1,7.673,0c-3.037,4.636,1.721,7.4,1.721,7.4Z" transform="translate(-46.553 -34.857)" fill="url(#linear-gradient-10)"/>
    <path id="패스_8778" data-name="패스 8778" d="M210.286,154.847a5.567,5.567,0,0,1-9.586,3.836c-4.636-3.037-7.4,1.721-7.4,1.721v18.95h48.993v-49H193.3v18.939c2.49,5.405,7.4,1.721,7.4,1.721a5.567,5.567,0,0,1,9.586,3.836Z" transform="translate(-47.147 -35.245)" fill="#326dfb"/>
    <path id="패스_8779" data-name="패스 8779" d="M213.731,186.16a5.557,5.557,0,1,0,7.673,0s-3.685-4.909,1.721-7.4H212S216.808,181.523,213.731,186.16Z" transform="translate(-46.918 -34.651)" fill="#326dfb"/>
    <path id="패스_8780" data-name="패스 8780" d="M193.3,130.35v18.939c2.49,5.405,7.4,1.721,7.4,1.721a5.557,5.557,0,1,1,0,7.673c-4.636-3.037-7.4,1.721-7.4,1.721v18.95h18.929s4.8,2.763,1.721,7.4a5.557,5.557,0,1,0,7.673,0s-3.685-4.909,1.721-7.4h18.95v-49Z" transform="translate(-47.147 -35.245)" fill="url(#linear-gradient-11)"/>
    <path id="패스_8781" data-name="패스 8781" d="M193.3,178.76v49h48.993v-18.95s2.763-4.8,7.4-1.721a5.557,5.557,0,1,0,0-7.673s-4.909,3.685-7.4-1.721V178.76H223.364c-5.405,2.49-1.721,7.4-1.721,7.4a5.557,5.557,0,1,1-7.673,0c3.037-4.636-1.721-7.4-1.721-7.4Z" transform="translate(-47.147 -34.651)" fill="#326dfb"/>
    <path id="패스_8782" data-name="패스 8782" d="M145,227.969V209.03c2.49-5.405,7.4-1.721,7.4-1.721a5.557,5.557,0,1,0,0-7.673c-4.636,3.037-7.4-1.721-7.4-1.721v-18.95h18.939s4.8-2.763,1.721-7.4a5.557,5.557,0,1,1,7.673,0s-3.685,4.909,1.721,7.4h18.939v49Z" transform="translate(-47.739 -34.857)" fill="#326dfb"/>
    <path id="패스_8783" data-name="패스 8783" d="M145,227.969V209.03c2.49-5.405,7.4-1.721,7.4-1.721a5.557,5.557,0,1,0,0-7.673c-4.636,3.037-7.4-1.721-7.4-1.721v-18.95h18.939s4.8-2.763,1.721-7.4a5.557,5.557,0,1,1,7.673,0s-3.685,4.909,1.721,7.4h18.939v49Z" transform="translate(-47.739 -34.857)" fill="url(#linear-gradient-12)"/>
    <path id="패스_8784" data-name="패스 8784" d="M210.939,154.857a5.567,5.567,0,0,1-9.586,3.836s-4.909-3.685-7.4,1.721v18.939H175.014c-5.405-2.49-1.721-7.4-1.721-7.4a5.557,5.557,0,1,0-7.673,0c3.037,4.636-1.721,7.4-1.721,7.4H145v-49h18.757c5.405,2.49,1.721,7.4,1.721,7.4a5.557,5.557,0,1,0,7.673,0c-3.037-4.636,1.721-7.4,1.721-7.4h19.122V149.3s2.763,4.8,7.4,1.721a5.567,5.567,0,0,1,9.586,3.836Z" transform="translate(-47.739 -35.245)" fill="#326dfb"/>
    <path id="패스_8785" data-name="패스 8785" d="M222.8,247.874a5.557,5.557,0,0,1-9.525,3.978s-4.96-3.614-7.369,1.822l.273,18.939-18.939.273c-5.446-2.409-1.832-7.369-1.832-7.369a5.547,5.547,0,1,0-7.673.111c3.148,4.586-1.609,7.42-1.609,7.42l-18.939.273-.709-49,18.757-.263c5.446,2.409,1.832,7.369,1.832,7.369a5.547,5.547,0,1,0,7.673-.111c-3.148-4.586,1.609-7.42,1.609-7.42l19.122-.273.273,18.95s2.834,4.758,7.42,1.609a5.638,5.638,0,0,1,4.049-1.782,5.547,5.547,0,0,1,5.588,5.476Z" transform="translate(-47.598 -34.101)" fill="#326dfb"/>
    <path id="패스_8786" data-name="패스 8786" d="M163.269,224.516c-.678.749-1.2,2.4-.132,3.1a2.9,2.9,0,0,0,1.245.344l5.729.7c-.172,0,2.824,33.759,4,40.936.142.85.5,1.913,1.356,2.025a1.65,1.65,0,0,0,1.286-.749,8.756,8.756,0,0,0,1.367-4.322,246.45,246.45,0,0,0,2.025-33.233c0-2.2-.081-4.494-1.174-6.408a8.948,8.948,0,0,0-6-3.968C169.7,222.2,165.648,221.863,163.269,224.516Z" transform="translate(-47.524 -34.116)" fill="url(#linear-gradient-13)"/>
    <path id="패스_8787" data-name="패스 8787" d="M176.881,293.794v.132c.243.617,1.012.82,1.66.9a14.1,14.1,0,0,0,1.842.081,2.522,2.522,0,0,0,.871-.121,3.237,3.237,0,0,0,.719-.435l1.771-1.316a7.652,7.652,0,0,0,1.356-1.194,2.429,2.429,0,0,0,.587-1.67,1.478,1.478,0,0,0-1.063-1.316,4.574,4.574,0,0,0-1.114,0,2.146,2.146,0,0,1-2.106-1.012,1.579,1.579,0,0,0-.506-.85,1.286,1.286,0,0,0-.83-.1,6.4,6.4,0,0,0-1.8.354A2.085,2.085,0,0,0,177,288.52a3.3,3.3,0,0,0-.081.83,14.1,14.1,0,0,1,0,1.731,19.424,19.424,0,0,0-.121,2.166A2.379,2.379,0,0,0,176.881,293.794Z" transform="translate(-47.349 -33.326)" fill="#262836"/>
    <path id="패스_8788" data-name="패스 8788" d="M193.925,294.033a29.814,29.814,0,0,1-3.675,1.4,2.308,2.308,0,0,1-1.579.091,1.589,1.589,0,0,1-.84-1.012,4.79,4.79,0,0,1-.132-1.367,11.138,11.138,0,0,1,.435-2.1c.111-.638.2-1.275.283-1.913.132-.921.253-1.832.364-2.743l3.189.678c.334.071.648,1.356.85,1.63a1.67,1.67,0,0,0,1.275.678,12.949,12.949,0,0,1,1.64-.132A1.64,1.64,0,0,1,197,290.8a2.6,2.6,0,0,1-.86,1.913,6.326,6.326,0,0,1-1.822,1.154Z" transform="translate(-47.216 -33.331)" fill="#262836"/>
    <path id="패스_8789" data-name="패스 8789" d="M194.14,291.1a20.481,20.481,0,0,1-2.6,1.245h-.081c-1.478.577-3.128-1.741-3.128-1.741s-2.085-12.876-2.025-18.221c.071-3.664-.8-8.888-2.105-18.362-.324,9.677-1.964,13.929-1.549,17.4.638,5.274-.121,18.373-.121,18.373s-1.4,2.551-2.925,2.207h-.091a19.013,19.013,0,0,1-2.7-.83s-1.782-18.038-1.782-22.8.2-9.019.2-9.019l-.931-15.062,3.968-5.77.324-.132.3-.3,4.4-3.229s0,.749-.081,2.025l3.421,1.832.324.243.334.081,5.729,1.012s1.5,23.11,2.025,27.837S194.14,291.1,194.14,291.1Z" transform="translate(-47.38 -33.963)" fill="#326dfb"/>
    <path id="패스_8790" data-name="패스 8790" d="M194.14,291.1a20.481,20.481,0,0,1-2.6,1.245h-.081c-1.478.577-3.128-1.741-3.128-1.741s-2.085-12.876-2.025-18.221c.071-3.664-.8-8.888-2.105-18.362-.324,9.677-1.964,13.929-1.549,17.4.638,5.274-.121,18.373-.121,18.373s-1.4,2.551-2.925,2.207h-.091a19.013,19.013,0,0,1-2.7-.83s-1.782-18.038-1.782-22.8.2-9.019.2-9.019l-.931-15.062,3.968-5.77.324-.132.3-.3,4.4-3.229s0,.749-.081,2.025l3.421,1.832.324.243.334.081,5.729,1.012s1.5,23.11,2.025,27.837S194.14,291.1,194.14,291.1Z" transform="translate(-47.38 -33.963)" fill="#473f47"/>
    <path id="패스_8791" data-name="패스 8791" d="M220.612,210.841a.435.435,0,0,1,.243-.081c.233,0,.243.375.162.6a6.3,6.3,0,0,1-.911,1.731.76.76,0,0,0-.213.486c0,.182.162.314.283.445a3.614,3.614,0,0,1,.779,3.189,6.3,6.3,0,0,1-1.67,2.925,2.4,2.4,0,0,1-1.609.9c-1.093,0-2.46-1.346-2.9-2.278a2.834,2.834,0,0,1,.526-2.753A14.5,14.5,0,0,1,220.612,210.841Z" transform="translate(-46.885 -34.259)" fill="#a67c52"/>
    <path id="패스_8792" data-name="패스 8792" d="M189.327,200.4c.354.364.9.739.749,1.215-.081.253-.354.4-.557.587a2.754,2.754,0,0,0-.749,1.964,6.347,6.347,0,0,1-.3,2.136,1.579,1.579,0,0,1-1.721,1.012c-.415-.111-.83-.476-1.235-.3s-.4.506-.567.79a2.207,2.207,0,0,1-2.106,1.012,6.661,6.661,0,0,1-2.308-.8,1.741,1.741,0,0,1-.759-.587,1.265,1.265,0,0,1-.081-.82,6.59,6.59,0,0,1,1.2-2.257,9.687,9.687,0,0,0,1.529-4.484c.081-1.113,0-2.338.719-3.2,1.012-1.174,3.31-1.164,4.515-.3S188.214,199.253,189.327,200.4Z" transform="translate(-47.314 -34.443)" fill="#a67c52"/>
    <path id="패스_8793" data-name="패스 8793" d="M187.949,195.448a1.731,1.731,0,0,1-.617.678c-.537.314-1.012.678-1.5,1.012a2.257,2.257,0,0,0-.962,1.4c-.213,1.012.354,2.166,0,3.189-.132.213-.466.081-.6-.121s-.213-.456-.415-.577c-.354-.2-.779.142-.931.516a1.792,1.792,0,0,0,1.012,2.267c-.051.324-.466.456-.8.415a3.685,3.685,0,0,0-1.012-.132c-.759.142-1.012,1.225-1.8,1.336a1.7,1.7,0,0,1-1.306-.759l-.921-1.012a5.166,5.166,0,0,0-.486-.557c-.213-.162-.557-.172-.729-.364s0-.648-.182-.891a.719.719,0,0,0-.314-.192,1.3,1.3,0,0,1-.668-1.488.344.344,0,0,0,0-.223c0-.1-.142-.142-.243-.192a1.4,1.4,0,0,1-.516-1.741,2.966,2.966,0,0,1,.648-.931.931.931,0,0,1,.911-.415l.152-1.326a1.518,1.518,0,0,1,1.792-1.518l-.3-1.093a.587.587,0,0,1,0-.435.547.547,0,0,1,.324-.182,4.95,4.95,0,0,1,1.083-.182,5.206,5.206,0,0,1-.3-.951.263.263,0,0,1,.324-.364,1.357,1.357,0,0,0,.4,0s-.2-.931-.213-1.012a1.154,1.154,0,0,1,.152-.85,1.012,1.012,0,0,1,.9-.334,2.8,2.8,0,0,1,.931.344c0-.354.435-.536.79-.567a4.049,4.049,0,0,1,3.523,1.69,1.88,1.88,0,0,0,.223.273,1.721,1.721,0,0,0,.526.223,2.115,2.115,0,0,1,1.184,1.377,6.266,6.266,0,0,1,.182,1.842,5.06,5.06,0,0,1-.132,1.417A1.933,1.933,0,0,1,187.949,195.448Z" transform="translate(-47.373 -34.536)" fill="#2f3554"/>
    <path id="패스_8794" data-name="패스 8794" d="M182.871,206.707a20.478,20.478,0,0,1,2.45,1.225,1.853,1.853,0,0,1,.617.536.85.85,0,0,1,.081.85c-.213.375-.719.243-1.1.1a14.88,14.88,0,0,0-5.547-.769.688.688,0,0,1-.668-.273.911.911,0,0,1,.071-.759C179.733,205.684,181.3,206,182.871,206.707Z" transform="translate(-47.326 -34.315)" fill="#fff"/>
    <path id="패스_8795" data-name="패스 8795" d="M217.725,221.6a7.52,7.52,0,0,1-1.589,2.44c-.658.739-1.336,1.447-2.024,2.136a60.364,60.364,0,0,1-5.254,4.525,10.74,10.74,0,0,1-4.343,2.328,3.421,3.421,0,0,1-1.964-.122,4.889,4.889,0,0,1-1.367-1.012c-.466-.466-5.871-6.691-5.962-6.691a1.447,1.447,0,0,0-.668.759,14.981,14.981,0,0,0-1.427,5.152,14.607,14.607,0,0,0,0,2.4c.213,2.723,1.164,5.527.223,8.1a3.7,3.7,0,0,1-.911,1.437,4.311,4.311,0,0,1-1.346.8,12.579,12.579,0,0,1-2.713.769,10.715,10.715,0,0,1-1.609.172c-2.025.081-3.948-.3-5.932-.213-1.68.091-3.351.526-5.061.466a1.7,1.7,0,0,1-2.025-1.61,62.756,62.756,0,0,1-1.012-10.922c0-1.275-.071-2.561-.152-3.836-.071-1.083.223-3.836-1.012-4.049-3.138-.607-6.4.162-9.566-.283a8.1,8.1,0,0,1,2.46-5.476,13.757,13.757,0,0,1,2.369-1.609,13.159,13.159,0,0,0,2.591-2.45,22.624,22.624,0,0,1,7.977-6.246,7.087,7.087,0,0,1,1.549-.547h.132a1.014,1.014,0,0,1,.233,0,7.086,7.086,0,0,1,2.025.122,116.9,116.9,0,0,1,13.382,3.037,3.36,3.36,0,0,1,2.49,1.771c1.235,1.863,2.44,3.745,3.685,5.608,1.073,1.6,2.126,3.6,3.7,4.778a43.631,43.631,0,0,0,9.657-5.446c.415-.314.952-.658,1.427-.445a1.225,1.225,0,0,1,.415.3C217.269,218.76,218.292,219.874,217.725,221.6Z" transform="translate(-47.53 -34.293)" fill="#fff"/>
  </g>
</svg>
