<svg xmlns="http://www.w3.org/2000/svg" width="30" height="30.195" viewBox="0 0 30 30.195">
  <g id="그룹_2281" data-name="그룹 2281" transform="translate(-1743 -71.126)">
    <path id="패스_7" data-name="패스 7" d="M166,99.91a7,7,0,1,1,7-7A7,7,0,0,1,166,99.91Zm0-12.056a5.056,5.056,0,1,0,5.056,5.056A5.056,5.056,0,0,0,166,87.854Z" transform="translate(1592.44 -14.784)" fill="#333"/>
    <path id="패스_8" data-name="패스 8" d="M124.889,262.75a1.072,1.072,0,0,1-1.111-1.029v-2.544c0-4.068-3.565-7.365-7.958-7.369h-9.64c-4.393,0-7.953,3.3-7.958,7.369v2.544a1.114,1.114,0,0,1-2.222,0v-2.544c.007-5.2,4.561-9.421,10.18-9.427h9.639c5.62.006,10.174,4.223,10.181,9.427v2.544A1.072,1.072,0,0,1,124.889,262.75Z" transform="translate(1647 -161.429)" fill="#333"/>
  </g>
</svg>
